<svg xmlns="http://www.w3.org/2000/svg" viewBox="0 0 459.87 78.83"><g id="レイヤー_2" data-name="レイヤー 2"><g id="top"><path d="M167.74,22.06c-18,0-21.45,15.31-21.45,27.44s3.45,28.85,21.45,28.85,21-16.71,21-28.85S185.75,22.06,167.74,22.06Zm0,51.58c-7.16,0-10.29-8.64-10.29-24.14s3.2-22.72,10.32-22.72,9.8,7.23,9.8,22.72S174.87,73.64,167.71,73.64Z"/><path d="M271,36.89c-2.47-2.06-11.79-8.56-13.48-10.07-3.7-3.31-6-7.63-5.42-12.06.91-7.21,6.41-8.16,8.73-8.16,7,0,12.77,6.06,15.05,12.18h2.23l-1-16.36a56.19,56.19,0,0,0-16-2.42c-12.77,0-21.29,6.59-21.29,20.06,0,11.34,5.33,16.56,10.14,20.67a103.76,103.76,0,0,0,10.6,7.85c5,3.37,8.15,8.17,8.15,13,0,8-5.47,10.59-9.3,10.59A14.56,14.56,0,0,1,245.61,63a61.86,61.86,0,0,1-4.19-13.53h-2.3l1,25.84c4.91,2.09,11.92,3.72,21,3.46,12.82-.36,20.45-9.4,20.45-20C281.59,47.6,277.43,42.21,271,36.89Z"/><path d="M226.65,10.21l2.87,0c0,3.07-2.27,4.69-4.4,5.48V20c4.42-1,9.48-4.32,9.48-10.07V2.48h-7.95Z"/><path d="M25.09,71H17V15.55h0V11c0-3,.43-7,3.46-10H0C3,4,3.46,8,3.46,11V65.69h0v2c0,3-.43,7-3.46,10H44.2l1-31.14H42.88C38.07,65.94,32.75,71,25.09,71Z"/><path d="M71.06,73h-7.2V51.48h4.79c3.36,0,6.25,4.24,6.82,8.14h1.94V39.36H75.47c-.78,4.11-4.11,7.4-6.82,7.4H63.86V27.42h8.5c3.59,0,8.55,1.88,10.48,8.94H85L84,22.71H49.54c3,3,3.46,7.05,3.46,10,0,0-.13,32.49-.13,34.71s-1.1,8-3.33,10.24H84.89L86,60.51H83.79C81.49,70,74.89,73,71.06,73Z"/><path d="M295.65,22.72c3,3,3.46,7.05,3.46,10V67.67c0,3-.43,7-3.46,10h17.77c-3-3-3.46-7.06-3.46-10v-15h8.81c3.36,0,5,3.92,5.79,9.3h1.88V39.85h-1.88c-.78,4.11-3.07,8.08-5.79,8.08H310V27.42h9c4.8,0,9.42,1.88,11.35,8.94h2.16l-1-13.65Z"/><path d="M375.55,70.23c-1.35-3.47-4-9.78-4.95-11.37-1.68-3-3.43-4.83-6.14-6,6.94-2.32,10.66-7.59,10.15-16.13-.53-8.71-5.26-14-17.77-14H336.72c3,3,3.46,7.05,3.46,10V67.67c0,3-.43,7-3.46,10h17.77c-3-3-3.46-7.06-3.46-10V54.62h2c2.45,0,4.17,1,5.45,3.64.45.93,4,9.86,4,9.86a63,63,0,0,0,4.59,9.59H380.6C378.25,77.15,376.44,72.55,375.55,70.23ZM354.49,49.91H351V27.5c.63-.05,2.84-.08,4-.08,7.53,0,8.89,6,8.89,11C363.87,46,361.4,49.91,354.49,49.91Z"/><path d="M404.21,73H397V51.48h4.79c3.36,0,6.25,4.24,6.82,8.14h1.94V39.36h-1.94c-.78,4.11-4.11,7.4-6.82,7.4H397V27.42h8.5c3.59,0,8.55,1.88,10.48,8.94h2.16l-1-13.65H382.69c3,3,3.46,7.05,3.46,10,0,0-.13,32.49-.13,34.71s-1.1,8-3.33,10.24H418l1.07-17.2h-2.17C414.64,70,408,73,404.21,73Z"/><path d="M445,73h-7.19V51.48h4.78c3.36,0,6.25,4.24,6.82,8.14h1.94V39.36h-1.94c-.78,4.11-4.11,7.4-6.82,7.4h-4.78V27.42h8.49c3.59,0,8.55,1.88,10.48,8.94h2.16l-1-13.65H423.45c3,3,3.46,7.05,3.46,10,0,0-.13,32.49-.13,34.71s-1.1,8-3.33,10.24H458.8l1.07-17.2H457.7C455.4,70,448.8,73,445,73Z"/><path d="M221.71,22.71c3,3,3.46,7.05,3.46,10l.33,28.6L206.26,22.71H192.37c3,3,3.47,7.05,3.47,10V67.66c0,3-.44,7-3.47,10H205c-3-3-3.47-7-3.47-10V36.36l20.4,41.35h8.89v-45c0-3,.44-7,3.46-10Z"/><path d="M143.24,22.71H127.08l-10.5,33.08-9.7-33.08H89.77c3,3,3.46,7.05,3.46,10V67.66c0,3-.43,7-3.46,10H102.4c-3-3-3.46-7-3.46-10V33.43h.51c.45,1.82,12.94,44.28,12.94,44.28h2.49s13.61-42.8,13.89-43.88h.47V66.67c0,3.8-1.35,8.9-3.46,11h17.46c-3-3-3.46-7-3.46-10V32.75C139.78,29.76,140.21,25.75,143.24,22.71Z"/><path d="M444.07,3.8a3.71,3.71,0,0,1,.21-1.21h-1.93v9.33h1.72Z"/><path d="M425.54,11a23.06,23.06,0,0,0,1.66-7,3.86,3.86,0,0,1,.32-1.26h-7.37V4h5.4c-.63,6.5-2.68,10.44-6.05,12.42v1.34A11.89,11.89,0,0,0,425,12.09c1.09,1.49,2.71,4.28,3.51,5.62V15.65a1.82,1.82,0,0,1,.2-1l-.2-.25C428.19,14,426.65,12.06,425.54,11Z"/><polygon points="428.5 3.95 428.59 0.99 427.77 0.99 427.86 3.95 428.5 3.95"/><polygon points="429.03 3.95 429.66 3.95 429.75 0.99 428.94 0.99 429.03 3.95"/><path d="M414.63,6V4.53a2.94,2.94,0,0,1,.21-1.17l-.21-.09a15.58,15.58,0,0,0-4.48-1.1V3.44A14.76,14.76,0,0,1,414.62,6Z"/><path d="M395.73,7.68c-.55,2.59-2,5.7-5,7.11V3.93a4.06,4.06,0,0,1,.21-1.29H389V17.71c4.58-.58,6.77-5.6,7.5-8.85a11.33,11.33,0,0,1,.4-1.18Z"/><path d="M417.58,6.49c-1.14,4.83-3.81,7.81-7.63,9v2.24c4.36-.91,7.22-5.59,8.35-10a8.87,8.87,0,0,1,.41-1.22Z"/><path d="M448.12,2.59V6.06c0,6.66-.88,8.27-4.27,10.26v1.35c4.14-1.89,6-4.47,6-11.53V3.86h0A3.78,3.78,0,0,1,450,2.59Z"/><path d="M451.35,7.71V9.27h8.31a7.37,7.37,0,0,1,.21-1.56Z"/><path d="M431.53,2.64V3.91h6.25c-.63,6.49-2.42,10.47-5.92,12.41v1.35c4.19-1.79,7-6.44,7.71-13.77h0a4,4,0,0,1,.31-1.27Z"/><path d="M403.09,7.76V4h4.3a3.75,3.75,0,0,1,.21-1.26H399V4h2.39V7.76h-2.83V9h2.83v5.43c0,1.36.33,2.75,2.14,3a17.68,17.68,0,0,0,3.88,0v-.28a4.16,4.16,0,0,1,.21-1.3l-.93.17a11,11,0,0,1-2.42,0c-.54-.09-1.16-.4-1.16-1.75V9h4.74A3.78,3.78,0,0,1,408,7.76Z"/></g></g></svg>