<svg xmlns="http://www.w3.org/2000/svg" viewBox="0 0 38.18 15.63"><g id="レイヤー_2" data-name="レイヤー 2"><g id="top"><path d="M5.74,2.42V15.36H3.47V2.42H0V.28H9.2V2.42Z"/><path d="M10.5,7.75a7.35,7.35,0,0,1,2.33-5.46A7.66,7.66,0,0,1,18.42,0a7.55,7.55,0,0,1,5.52,2.3,7.53,7.53,0,0,1,2.32,5.54,7.42,7.42,0,0,1-2.33,5.52,8,8,0,0,1-10.87.25A7.39,7.39,0,0,1,10.5,7.75Zm2.29,0a5.43,5.43,0,0,0,1.68,4.11,5.55,5.55,0,0,0,7.86,0,5.56,5.56,0,0,0,1.63-4,5.5,5.5,0,0,0-1.61-4,5.33,5.33,0,0,0-4-1.64,5.39,5.39,0,0,0-4,1.64A5.43,5.43,0,0,0,12.79,7.78Z"/><path d="M32,9.24v6.12H29.72V.28H32.3a11.4,11.4,0,0,1,2.86.27,3.79,3.79,0,0,1,1.72,1,4.33,4.33,0,0,1,1.3,3.21A4.15,4.15,0,0,1,36.79,8a5.51,5.51,0,0,1-3.74,1.21Zm0-2.11h.84c2.09,0,3.14-.81,3.14-2.41S34.9,2.38,32.75,2.38H32Z"/></g></g></svg>