<svg xmlns="http://www.w3.org/2000/svg" viewBox="0 0 94.79 15.64"><g id="レイヤー_2" data-name="レイヤー 2"><g id="top"><path d="M2.28,9.25v6.12H0V.29H2.58A11.4,11.4,0,0,1,5.44.56a3.79,3.79,0,0,1,1.72,1,4.33,4.33,0,0,1,1.3,3.21A4.15,4.15,0,0,1,7.07,8,5.51,5.51,0,0,1,3.33,9.25Zm0-2.11h.84c2.09,0,3.14-.81,3.14-2.41S5.18,2.39,3,2.39H2.28Z"/><path d="M16.33,9,21,15.37H18.22L13.91,9.2H13.5v6.17H11.23V.29h2.66a6.67,6.67,0,0,1,4.32,1.13,4.1,4.1,0,0,1,1.46,3.3,4.3,4.3,0,0,1-.91,2.75A4.14,4.14,0,0,1,16.33,9ZM13.5,7.22h.72c2.16,0,3.24-.83,3.24-2.47s-1.05-2.32-3.15-2.32H13.5Z"/><path d="M22.68,7.76A7.42,7.42,0,0,1,25,2.29,7.69,7.69,0,0,1,30.6,0a7.53,7.53,0,0,1,5.52,2.3,7.53,7.53,0,0,1,2.32,5.54,7.45,7.45,0,0,1-2.32,5.52,8,8,0,0,1-10.88.25A7.39,7.39,0,0,1,22.68,7.76Zm2.29,0a5.43,5.43,0,0,0,1.68,4.11,5.55,5.55,0,0,0,7.86,0,5.56,5.56,0,0,0,1.63-4.05,5.5,5.5,0,0,0-1.61-4,5.32,5.32,0,0,0-4-1.64,5.39,5.39,0,0,0-4,1.64A5.43,5.43,0,0,0,25,7.79Z"/><path d="M41.9,15.37V.29h3.16a11.53,11.53,0,0,1,3.6.45,6.79,6.79,0,0,1,2.57,1.5,7.22,7.22,0,0,1,2.33,5.59,7.32,7.32,0,0,1-5,7.12,11.59,11.59,0,0,1-3.54.42Zm2.28-2.14h1a8.76,8.76,0,0,0,2.55-.32,5.29,5.29,0,0,0,1.84-1.08,5.18,5.18,0,0,0,1.68-4,5.26,5.26,0,0,0-1.66-4A6.3,6.3,0,0,0,45.2,2.43h-1Z"/><path d="M59.22.29V9.38a5,5,0,0,0,.64,2.84,3.39,3.39,0,0,0,5.34,0,5,5,0,0,0,.63-2.84V.29h2.28V10a5.44,5.44,0,0,1-1.48,3.93,5.77,5.77,0,0,1-8.2,0A5.44,5.44,0,0,1,57,10V.29Z"/><path d="M83.35,1.1V3.8a6.33,6.33,0,0,0-4.08-1.65,5.22,5.22,0,0,0-3.92,1.67,5.62,5.62,0,0,0-1.6,4.06,5.47,5.47,0,0,0,1.6,4,5.3,5.3,0,0,0,3.93,1.64,4.67,4.67,0,0,0,2-.4,6.2,6.2,0,0,0,1-.52,12.29,12.29,0,0,0,1.06-.8v2.74a8.17,8.17,0,0,1-4.1,1.1,7.57,7.57,0,0,1-5.52-2.25A7.48,7.48,0,0,1,71.45,7.9a7.77,7.77,0,0,1,1.91-5.14A7.57,7.57,0,0,1,79.42,0,7.77,7.77,0,0,1,83.35,1.1Z"/><path d="M91.34,2.43V15.37H89.06V2.43H85.6V.29h9.19V2.43Z"/></g></g></svg>