<svg xmlns="http://www.w3.org/2000/svg" viewBox="0 0 48.06 16.32"><g id="レイヤー_2" data-name="レイヤー 2"><g id="top"><path d="M16.09,16.3H13.23l-1.18-1.21a7.6,7.6,0,0,1-4.2,1.21,7.87,7.87,0,0,1-5.32-2A7.28,7.28,0,0,1,0,8.55,7.54,7.54,0,0,1,2.39,2.87,7.72,7.72,0,0,1,7.88.66,7.76,7.76,0,0,1,13,2.6a7.58,7.58,0,0,1,2.73,6.06,7.35,7.35,0,0,1-2.16,5.21ZM9.83,10.06,12,12.24a5.2,5.2,0,0,0,1.45-3.72,5.61,5.61,0,0,0-1.61-4.08,5.41,5.41,0,0,0-4-1.64,5.27,5.27,0,0,0-4,1.64A5.72,5.72,0,0,0,2.29,8.57a5.31,5.31,0,0,0,1.63,4,5.42,5.42,0,0,0,3.85,1.6,5.29,5.29,0,0,0,2.67-.67L6.89,10.06Z"/><path d="M24.86,7.64l2.72,3.28.09-.1c.29-.32.57-.63.83-.94s.51-.61.75-.92l1.48,1.52c-.18.26-.42.56-.71.91s-.65.74-1.06,1.19L31.75,16H28.92l-1.51-1.85a6,6,0,0,1-4.3,2.14A4.86,4.86,0,0,1,19.71,15a4.21,4.21,0,0,1-1.37-3.18,4.4,4.4,0,0,1,2.17-3.75l1-.68.06,0,.14-.1a4.67,4.67,0,0,1-1.49-3.14,3.29,3.29,0,0,1,1-2.48,3.66,3.66,0,0,1,2.62-1,3.67,3.67,0,0,1,2.57.93A3,3,0,0,1,27.4,4a3,3,0,0,1-.55,1.77A9.68,9.68,0,0,1,24.86,7.64Zm-1.8,1.28L22.93,9A11.23,11.23,0,0,0,21,10.56a1.84,1.84,0,0,0-.5,1.24,2.46,2.46,0,0,0,.75,1.72,2.43,2.43,0,0,0,1.72.75,4.74,4.74,0,0,0,3-1.73ZM23.55,6l.18-.14c.32-.24.58-.45.79-.63A2.67,2.67,0,0,0,25,4.81a1.32,1.32,0,0,0,.3-.88,1.26,1.26,0,0,0-.41-1,1.48,1.48,0,0,0-1.07-.37,1.44,1.44,0,0,0-1,.38,1.17,1.17,0,0,0-.42.93,2.07,2.07,0,0,0,.52,1.31l.57.68Z"/><path d="M44,12.36H37.53L35.85,16H33.4L40.86,0l7.2,16H45.57Zm-.93-2.14L40.82,5.1l-2.34,5.12Z"/></g></g></svg>