<svg xmlns="http://www.w3.org/2000/svg" viewBox="0 0 34.31 34.42"><defs><style>.cls-1{fill:#fff;}</style></defs><g id="レイヤー_2" data-name="レイヤー 2"><g id="Q_A" data-name="Q&amp;A"><path class="cls-1" d="M16.66,0h1.52L30.27,30.84a2.89,2.89,0,0,0,3,1.87h1.05v1.71H20.86V32.71h1.07a6.91,6.91,0,0,0,3-.45,1.05,1.05,0,0,0,.6-1,2.48,2.48,0,0,0-.16-.82L22.54,23.3H9.2L7.64,27.4A8,8,0,0,0,7,30a2.36,2.36,0,0,0,1,1.91,4.83,4.83,0,0,0,3,.8h1.14v1.71H0V32.71a5,5,0,0,0,3.1-.85,7.58,7.58,0,0,0,2.1-3.25ZM16,6.5l-6.05,15h11.9Z"/></g></g></svg>