<svg xmlns="http://www.w3.org/2000/svg" viewBox="0 0 692.73 80"><defs><style>.cls-1{fill:none;stroke:gray;stroke-miterlimit:10;stroke-width:2.13px;}.cls-2{fill:gray;}.cls-3{fill:#fff;}.cls-4{fill:#d2a037;}</style></defs><g id="レイヤー_2" data-name="レイヤー 2"><g id="hed_foot" data-name="hed / foot"><rect class="cls-1" x="74.83" y="23.24" width="105.42" height="33.53"/><path class="cls-2" d="M89.57,38c-.44,0-.61.18-.61.61v2a15,15,0,0,1-1.58,7.22c-.15.28-.65,1.28-1,1.28s-1.3-.5-1.3-.89a.44.44,0,0,1,.11-.24,12.8,12.8,0,0,0,2-7.63V39c0-.52,0-1.06,0-1.58,0-.8.41-1,1.13-1s1.32,0,2,0H101.1c.85,0,1.69,0,2.54,0,.46,0,.46.2.46.8s0,.81-.46.81C102.9,38,102,38,101.1,38Zm6.2-5.46c0,.43.19.61.61.61H100c.43,0,.6-.18.6-.61v-.13a8.94,8.94,0,0,0-.08-1.45v-.2c0-.24.17-.26.34-.26s1.41.09,1.65.11.31.09.31.24-.11.22-.26.3-.24.43-.24.89v1.08c0,.33,0,.55,0,.74,0,.74-.48.8-1.08.8l-1.7,0H90.24l-1.67,0c-.58,0-1.11-.06-1.11-.78,0-.19,0-.49,0-.76v-.75a9.92,9.92,0,0,0-.07-1.44.82.82,0,0,1,0-.21c0-.22.17-.24.35-.24s1.28.06,1.51.09.42,0,.42.26-.09.17-.26.3-.24.41-.24,1.24v.17c0,.43.17.61.6.61h3.63c.43,0,.6-.18.6-.61v-.13c0-.63,0-1.28-.08-1.91,0-.06,0-.13,0-.19,0-.26.2-.29.39-.29s1.44.11,1.72.13c.11,0,.32.05.32.22s-.11.2-.3.33-.26.47-.26,1.08Zm.69,11.43a.27.27,0,0,0-.24.15,9.44,9.44,0,0,1-4,4.1,11.23,11.23,0,0,1-2.49,1c-.44,0-.93-.91-.93-1.28s.28-.26.54-.34c3.66-1.07,6.26-3.8,6.26-7.74,0-.33,0-.78,0-1s0-.39.33-.39a13.22,13.22,0,0,1,1.39.11c.13,0,.43,0,.43.24s-.2.23-.3.3a.42.42,0,0,0-.2.35c0,.19,0,.67,0,1a4.55,4.55,0,0,0,0,.52,6.48,6.48,0,0,0,1.85,3.84,14.31,14.31,0,0,0,4.94,3c.17.07.43.13.43.35,0,.37-.47,1.26-.86,1.26a9.49,9.49,0,0,1-1.91-.78,10.48,10.48,0,0,1-5-4.49A.27.27,0,0,0,96.46,43.94Zm-3-3.58c.15,0,.35.11.35.28s-.24.2-.35.24a.33.33,0,0,0-.24.26,22,22,0,0,1-1,2.56c-.11.21-.22.39-.48.39s-1.19-.24-1.19-.63a1,1,0,0,1,.17-.39,10.35,10.35,0,0,0,1-2.75c0-.16.06-.31.28-.31A13.73,13.73,0,0,1,93.49,40.36Zm9.56.82c-.26,0-.32,0-.47.22a19.09,19.09,0,0,1-1.87,2,.89.89,0,0,1-.58.34c-.31,0-1.09-.54-1.09-.86,0-.15.2-.33.31-.44a15.16,15.16,0,0,0,2.1-2.36.27.27,0,0,1,.26-.17,4.68,4.68,0,0,1,1,.5c.18.08.31.17.39.21s.29.18.29.31S103.18,41.16,103.05,41.18Z"/><path class="cls-2" d="M114.55,35c.6,0,.86.17.86,1,0,.56,0,1.1,0,1.64v8.89c0,.87,0,1.43,0,1.82,0,.66-.1.72-.69.72s-.69-.11-.69-.56v-.33c0-.3-.13-.43-.44-.43h-4c-.35,0-.5.15-.5.52V49c0,.41-.13.47-.72.47s-.69-.08-.69-.49c0-.68,0-1.37,0-2V37.58c0-.52,0-1.06,0-1.58s.08-1,.82-1l.85,0c.43,0,.58-.17.58-.58V32.94c0-.43-.17-.6-.58-.6-.63,0-1.24,0-1.87,0-.41,0-.43-.2-.43-.8s0-.81.43-.81c.72,0,1.43.05,2.15.05h3.86c.71,0,1.43-.05,2.17-.05.41,0,.41.24.41.81s0,.8-.41.8c-.61,0-1.22-.07-1.82,0-.44,0-.59.19-.59.6V34.4c0,.39.15.56.56.58Zm-3.34,1.86a12.57,12.57,0,0,1-.68,4.32c-.08.19-.23.56-.47.56s-.74-.3-.74-.56a1.3,1.3,0,0,1,.22-.48,9.16,9.16,0,0,0,.67-3.84c0-.28-.15-.41-.43-.41h-.22c-.3,0-.43.13-.43.46v5.61c0,.42.17.59.6.59h3.75c.44,0,.61-.15.61-.59v-1c0-.41-.17-.56-.58-.56h-.37c-.7,0-1-.13-1-.91,0-.43,0-.89,0-1.34V37c0-.37-.13-.57-.52-.59A.37.37,0,0,0,111.21,36.82Zm2.34,9.44a.51.51,0,0,0,.54-.52V45a.51.51,0,0,0-.54-.52h-3.9a.49.49,0,0,0-.52.52v.79a.49.49,0,0,0,.52.52Zm-2.34-11.71a.4.4,0,0,0,.43.43h.07a.39.39,0,0,0,.41-.43V32.77a.39.39,0,0,0-.41-.43h-.07a.4.4,0,0,0-.43.43Zm2.42,5a.43.43,0,0,0,.46-.44V36.87a.45.45,0,0,0-.46-.46h-.1a.44.44,0,0,0-.44.46V39.1a.42.42,0,0,0,.44.44Zm6.66-3.11c-.22.07-.24.09-.35.33a9.61,9.61,0,0,1-2.68,3.51,1.08,1.08,0,0,1-.65.35c-.37,0-1-.48-1-.87,0-.19.2-.32.35-.43a7.58,7.58,0,0,0,2.71-3.47c.07-.18.13-.39.35-.39,0,0,1.58.39,1.58.74C120.55,36.33,120.4,36.41,120.29,36.43Zm0,4.69c0,.15.13.21.26.21h1.63l1.54,0c.89,0,1.08,1,1.08,1.11,0,.78-1.71,2.62-2.27,3.21-.09.11-.18.19-.18.34a.41.41,0,0,0,.22.37,13.17,13.17,0,0,0,3.21,1.48c.28.08.65.19.65.47s-.46,1.15-.85,1.15a1.74,1.74,0,0,1-.56-.13,14.73,14.73,0,0,1-3.71-1.93.8.8,0,0,0-.43-.15.77.77,0,0,0-.43.15c-.63.46-3.21,2.11-3.86,2.11-.48,0-.89-.83-.89-1.07s.43-.45.65-.56a16.75,16.75,0,0,0,2.82-1.54.46.46,0,0,0,.08-.74,9.54,9.54,0,0,1-.84-1,.45.45,0,0,0-.37-.21.49.49,0,0,0-.33.17c-.17.17-.76.8-1,.8s-1-.52-1-.84.21-.35.41-.55a14.36,14.36,0,0,0,3.06-4c.1-.26.17-.48.36-.48s1.61.45,1.61.74-.13.21-.26.24c-.28.06-.31.1-.54.54A.22.22,0,0,0,120.31,41.12Zm-3.53-5.42a.29.29,0,0,1-.24.17c-.19,0-.24-.22-.37-.61a7.83,7.83,0,0,1-.28-1.08c0-.24.2-.26.65-.26H117c.52,0,.85,0,1.13-.52a19.5,19.5,0,0,0,1.17-3.06c0-.13.09-.3.26-.3s1.76.47,1.76.8-.2.22-.41.24-.2.08-.24.19c-.28.7-.5,1.39-.83,2a.71.71,0,0,0,0,.2c0,.21.17.3.37.3q1.33-.06,2.67-.15c.19,0,.37-.09.37-.3a.54.54,0,0,0-.09-.24,2.2,2.2,0,0,0-.2-.31,4.32,4.32,0,0,1-.54-.91c0-.32.78-.65,1.06-.65a.52.52,0,0,1,.42.28c.36.5.75,1.17,1.08,1.72a11.2,11.2,0,0,1,1,2.1c0,.39-.74.67-1.06.67s-.44-.37-.55-.63a.63.63,0,0,0-.67-.41c-2.19.15-4.38.33-6.57.46C116.91,35.46,116.89,35.52,116.78,35.7Zm3.71,8.91a.58.58,0,0,0,.41.22.62.62,0,0,0,.41-.2c.26-.24,1.39-1.39,1.39-1.69,0-.13-.28-.15-.67-.15h-2.78s-.06,0-.11,0,0,.07,0,.11A10.84,10.84,0,0,0,120.49,44.61ZM124,38.43c.74,0,.82-.37.87-1.3,0-.22.06-.39.54-.39s1,.08,1,.63a3.82,3.82,0,0,1-.54,2c-.39.56-1.15.54-1.8.54h-1.26c-.89,0-1.69-.17-1.69-1.23,0-.22.05-.44.05-.65v-1.2a9.43,9.43,0,0,0-.07-1.06.56.56,0,0,1,0-.17c0-.2.15-.24.3-.24s1.13.11,1.43.13.5,0,.5.24-.08.17-.17.22c-.24.15-.33.28-.33.82v1c0,.63.33.63.85.63Z"/><path class="cls-2" d="M134.61,32.44a.41.41,0,0,0-.35.2,24.77,24.77,0,0,1-3.45,3.64c-.19.17-.6.57-.86.57a1.4,1.4,0,0,1-1-.94c0-.24.35-.5.52-.62a18.74,18.74,0,0,0,4.4-5.08c.09-.17.18-.39.39-.39a4.44,4.44,0,0,1,.94.33c.21.08.39.17.49.19s.33.11.33.28-.28.24-.43.28a.1.1,0,0,0-.09.09.11.11,0,0,0,0,.09,17.61,17.61,0,0,0,3.08,3.14c.15.11.41.31.41.52s-.63,1-1,1c-.61,0-2.71-2.54-3.15-3.1A.39.39,0,0,0,134.61,32.44ZM133.07,43c-.41,0-.59.2-.59.61v2c0,.24.09.46.37.46a.58.58,0,0,0,.18,0c.58-.18,1.19-.35,1.77-.57a.34.34,0,0,0,.26-.3.41.41,0,0,0-.1-.24l-.22-.24c-.26-.28-.41-.43-.41-.63s.78-.76,1-.76a.45.45,0,0,1,.34.2c.42.43.81.91,1.2,1.39a15.25,15.25,0,0,1,1.15,1.56.23.23,0,0,0,.19.15c.22,0,.93-.89,1.09-1.06,2-2.54,2.34-5.71,2.36-8.83,0-.24-.07-.45-.41-.52a.5.5,0,0,0-.31.24,19.34,19.34,0,0,1-1.38,2.49.62.62,0,0,1-.5.33c-.26,0-1.07-.54-1.07-.87a.68.68,0,0,1,.2-.37,22.48,22.48,0,0,0,3.23-7.67c0-.18.09-.35.3-.35a12.56,12.56,0,0,1,1.26.3c.24.07.61.13.61.37s-.15.22-.26.28c-.33.18-.33.22-.44.63a18.34,18.34,0,0,1-.84,2.43.59.59,0,0,0,0,.2c0,.32.32.32.41.34h2.69c.52,0,1,0,1.47,0a1.21,1.21,0,0,1,1.3,1,15.15,15.15,0,0,1-.74,2.62c-.28.76-.45,1.28-.8,1.28s-1.26-.37-1.26-.71a.46.46,0,0,1,.09-.24,10.56,10.56,0,0,0,.72-2.06c0-.24-.22-.22-.37-.22H144c-.44,0-.59.17-.63.59s0,.88,0,1.32c0,.19,0,.39,0,.58a13.54,13.54,0,0,0,2,5.84,11.81,11.81,0,0,0,2.79,3.1c.16.13.33.24.33.45a1.48,1.48,0,0,1-1.08,1.15c-.48,0-1.5-1.08-1.83-1.45a13.7,13.7,0,0,1-2.71-4.62.18.18,0,0,0-.19-.15.17.17,0,0,0-.17.13,12,12,0,0,1-4.17,5.83,1,1,0,0,1-.56.28,1.58,1.58,0,0,1-1.11-1c0-.15.13-.24.24-.32s.13-.11.13-.2a.29.29,0,0,0-.15-.24,2,2,0,0,1-.41-.63.46.46,0,0,0-.39-.21.43.43,0,0,0-.22,0c-1.71.67-3.42,1.3-5.18,1.84-.13,0-.17.2-.2.31s-.1.32-.28.32-.24-.15-.41-.5c-.07-.1-.13-.23-.22-.39a3.68,3.68,0,0,1-.39-.86c0-.18.31-.26,1.2-.48.41-.11.54-.24.54-.67V38.62c0-.5-.05-1-.05-1.51,0-.85.29-1.07,1.11-1.07l1.17,0c.33,0,.48-.22.5-.55a3.2,3.2,0,0,0-.09-.93V34.4c0-.26.15-.31.37-.31s1.13.09,1.43.11c.15,0,.48,0,.48.26s-.11.2-.28.3-.26.42-.28.74.17.57.58.57l.91,0c.72,0,1.06.16,1.06.94,0,.54,0,1.1,0,1.64v1.91c0,.5,0,1,0,1.5,0,.78-.28,1-1,1-.41,0-.82,0-1.23,0Zm2.6-4.1a.4.4,0,0,0,.43-.43v-.52a.41.41,0,0,0-.43-.44h-2.75a.42.42,0,0,0-.44.44v.52a.41.41,0,0,0,.44.43ZM133,40.19a.49.49,0,0,0-.52.51v.37a.49.49,0,0,0,.52.52h2.58a.49.49,0,0,0,.52-.52V40.7a.49.49,0,0,0-.52-.51Z"/><path class="cls-2" d="M159.62,42.33c0,.17.11.24.29.22l.82-.15,4.6-.91c.41-.09.54-.31.54-.72v-8.2a13.44,13.44,0,0,0-.09-1.95.93.93,0,0,1,0-.24c0-.23.17-.26.37-.26s1.19.07,1.49.09.46,0,.46.26-.11.22-.28.33-.24.47-.24,1.15v8.47c0,.28.11.52.41.52l.13,0c.28,0,1.43-.34,1.58-.34.46,0,.5,1.14.5,1.32,0,.37-.26.41-1.25.56l-.83.15c-.43.09-.54.29-.54.7v2.21c0,1.08,0,2.15,0,3.21,0,.65-.17.71-.91.71s-.89-.06-.89-.71c0-1.06.07-2.13.07-3.21V43.65c0-.28-.13-.49-.44-.49h-.15L161.1,44c-.24,0-1.89.43-2,.43-.47,0-.56-1.23-.56-1.3V43a.2.2,0,0,0,0-.09.22.22,0,0,0-.06-.15,13.55,13.55,0,0,1-1.82-2.45.22.22,0,0,0-.16-.09.16.16,0,0,0-.15.17v5.21c0,1,.05,2,.05,3,0,.65-.13.74-.87.74s-.89-.11-.89-.72c0-1,.06-2,.06-3V41.4c0-.09,0-.15-.13-.15s-.08,0-.1.08c-.33.7-2.19,4.45-2.89,4.45-.32,0-1.1-.65-1.1-1,0-.17.11-.26.21-.39a22.19,22.19,0,0,0,3.45-5.64.47.47,0,0,0,0-.17c0-.26-.19-.35-.43-.37h-.5c-.67,0-1.3,0-1.82,0S151,38,151,37.41s0-.87.45-.87,1.17.05,1.82.05h.85c.41,0,.6-.18.6-.61V32.47c0-.61,0-1.24-.08-1.83,0-.06,0-.17,0-.23,0-.24.13-.33.34-.33s1.33.09,1.59.11.39,0,.39.24-.13.21-.31.32-.26.46-.26,1.24v4c0,.43.18.61.61.61h.74c.67,0,1.34-.05,1.82-.05s.43.26.43.87,0,.85-.43.85-1.17,0-1.82,0h-.39c-.18,0-.35.07-.35.28a.46.46,0,0,0,.06.22,20.66,20.66,0,0,0,2.5,2.86.49.49,0,0,1,.17.33,1.15,1.15,0,0,1-.06.28A.33.33,0,0,0,159.62,42.33ZM152.9,36c-.35,0-.41-.24-.5-.52-.21-.65-.93-2.37-1.21-3a1.15,1.15,0,0,1-.17-.44c0-.34.71-.58,1-.58s.74.76,1.17,1.82a12.07,12.07,0,0,1,.68,2.06C153.86,35.78,153.18,36,152.9,36Zm7.16-4.4c.21.06.54.13.54.34s-.13.18-.24.2c-.28.06-.28.09-.48.67,0,.13-.08.28-.15.46-.24.65-.69,1.84-1,2.45a.49.49,0,0,1-.45.32c-.2,0-1.08-.22-1.08-.56a1.15,1.15,0,0,1,.17-.44,16.87,16.87,0,0,0,1.26-3.42c0-.13.06-.31.23-.31A8,8,0,0,1,160.06,31.58ZM163.11,40a.47.47,0,0,1-.36-.24,25,25,0,0,0-2-2c-.11-.11-.3-.24-.3-.42s.69-1,1-1,1.15.91,1.34,1.13,1.34,1.28,1.34,1.56S163.46,40,163.11,40Zm.52-5.07c-.17,0-.32-.2-.56-.44a14.55,14.55,0,0,0-1.56-1.62c-.11-.11-.28-.22-.28-.39,0-.33.67-.94,1-.94s1.1.91,1.32,1.15,1.11,1.09,1.11,1.37A1.37,1.37,0,0,1,163.63,34.92Z"/><path class="cls-2" d="M198.64,42.77a2.83,2.83,0,0,0,.65,1.39,4.47,4.47,0,0,0,3.32,1,25.74,25.74,0,0,0,5.8-.67l.21,0c.28,0,.36.34.36,1.1,0,.31-.06.61-.38.73a34.68,34.68,0,0,1-5.72.55c-1.93,0-4-.29-5.25-2a4.11,4.11,0,0,1-.69-1.74c0-.42,1.32-.7,1.34-.7C198.51,42.45,198.58,42.56,198.64,42.77Zm1.15-7.63a11.45,11.45,0,0,0,3.3.42,15.12,15.12,0,0,0,3.47-.38l.23,0c.43,0,.43.92.43,1.22,0,.46-.11.51-.49.57a27.35,27.35,0,0,1-3.49.21c-.86,0-3.65-.09-4.27-.51a.38.38,0,0,1-.16-.36,7.41,7.41,0,0,1,.16-.9c.05-.17.11-.35.34-.35A2.16,2.16,0,0,1,199.79,35.14Z"/><path class="cls-2" d="M225.82,36.29a6.31,6.31,0,0,1,1.87,4.61A6.7,6.7,0,0,1,224,47a7.1,7.1,0,0,1-2,.7c-.4,0-1.07-.89-1.07-1.24s.3-.23.48-.27A5.3,5.3,0,0,0,226,41a4.87,4.87,0,0,0-3.4-4.85,4.57,4.57,0,0,0-.8-.17c-.5,0-.5.42-.52.78-.17,2.83-.85,6.35-2.7,8.59a3.33,3.33,0,0,1-2.39,1.39A2.9,2.9,0,0,1,213.75,45a6.08,6.08,0,0,1-.57-2.65,7.75,7.75,0,0,1,7.8-7.92A6.7,6.7,0,0,1,225.82,36.29Zm-7.13.11a6.16,6.16,0,0,0-3.91,5.87c0,.84.31,2.77,1.41,2.77s2-2,2.35-2.84a16.43,16.43,0,0,0,1.14-5.63c0-.21-.09-.38-.3-.38A2.75,2.75,0,0,0,218.69,36.4Z"/><path class="cls-2" d="M236.81,45.71v1.08c0,.27.11.48.42.48h.09c.39-.06,3.23-.53,3.32-.53.29,0,.35.42.35.63s-.06.55-.44.64c-1.66.37-5,.75-6.75.94-.44.06-.52.06-.61.23s-.1.23-.25.23-.19-.17-.35-.61a3.84,3.84,0,0,0-.15-.44,3.6,3.6,0,0,1-.09-.4c0-.21.09-.19,1.14-.29.34,0,.82-.07,1.41-.13.31,0,.42-.17.42-.5v-.65s0-.38-.3-.38a.58.58,0,0,0-.18,0,24.62,24.62,0,0,1-3.56,1.13c-.48,0-.57-.9-.57-1,0-.28.22-.3.64-.38a21.69,21.69,0,0,0,5.27-1.89.12.12,0,0,0,.08-.11c0-.1-.08-.12-.18-.13h-3l-2.25,0c-.4,0-.42-.17-.42-.65s0-.66.42-.66c.74,0,1.51,0,2.25,0h4.62c.24,0,.38-.1.38-.37,0-.09,0-.17,0-.26a.34.34,0,0,0-.4-.33c-.21,0-.4,0-.61,0-.54,0-.76,0-.76-.74,0-.38.09-.38.24-.38h.61c.46,0,.46-.12.46-.54v-.48c0-.3-.13-.45-.46-.45h-.78c-.36,0-.51.15-.51.53,0,.63,0,1.28,0,1.93s-.17.55-.74.55-.76-.08-.76-.61.05-1.3.05-1.93c0-.34-.21-.47-.53-.47h-.69c-.38,0-.53.15-.53.53v.48c0,.4,0,.8,0,1.2s-.14.38-.71.38-.7,0-.7-.34,0-.82,0-1.24v-.82c0-.35,0-.59,0-.8,0-.5.53-.5.91-.5l1.32,0h.47c.29,0,.4-.12.4-.4v-.21c0-.27-.11-.38-.4-.38h-1c-.72,0-1.46,0-2.19,0-.38,0-.38-.25-.38-.63s0-.58.38-.58c.74,0,1.47,0,2.19,0h1c.29,0,.4-.11.4-.38v-.17c0-.27-.11-.38-.4-.38h-1.08a.48.48,0,0,0-.52.32c-.11.25-.21.5-.49.5s-1-.17-1-.52a.47.47,0,0,1,.1-.25,12.86,12.86,0,0,0,.84-2.25c0-.13,0-.24.23-.24s.51.09.64.11c.5.1.77.13.77.33s-.17.17-.27.19a.26.26,0,0,0-.19.19,1.49,1.49,0,0,0-.06.23c0,.19.14.24.29.26h.65c.28,0,.44-.11.44-.44a2.81,2.81,0,0,0-.06-.59c0-.07,0-.13,0-.19s.15-.23.3-.23,1,.06,1.26.08.39,0,.39.23-.08.15-.23.25a.46.46,0,0,0-.19.45c0,.33.15.44.43.44h.73c.67,0,1.33,0,2,0,.38,0,.38.18.38.61s0,.6-.38.6c-.67,0-1.33,0-2,0h-.8c-.27,0-.38.11-.38.38v.17c0,.27.11.38.38.38h1.12c.73,0,1.45,0,2.2,0,.4,0,.36.27.36.65s0,.56-.36.56c-.75,0-1.47,0-2.2,0h-1.12c-.27,0-.38.11-.38.38v.21c0,.28.11.4.38.4h.49c.44,0,.88,0,1.32,0s.93,0,.93.5c0,.21,0,.44,0,.76v.67c0,.23,0,.46,0,.68a1.31,1.31,0,0,1,0,.39c0,.05,0,.09,0,.13s.07.19.21.21c.57,0,1,0,1,.27s-.11.15-.25.24a.59.59,0,0,0-.21.4c0,.31.25.41.52.41H245c.75,0,1.49,0,2.23,0,.4,0,.42.15.42.66s0,.65-.42.65c-.74,0-1.48,0-2.23,0h-3.87c-.15,0-.29.05-.29.22a.25.25,0,0,0,.08.18,8.91,8.91,0,0,0,1.14,1.16.74.74,0,0,0,.41.17.86.86,0,0,0,.4-.13,11.74,11.74,0,0,0,1.6-1.15c.09-.07.21-.21.32-.21s.36.21.65.48a3.32,3.32,0,0,0,.27.25c.09.09.3.26.3.42s-.09.17-.21.17a.32.32,0,0,1-.13,0l-.15,0a.45.45,0,0,0-.27.1c-.38.28-.8.55-1.22.8a.28.28,0,0,0-.17.26.27.27,0,0,0,.17.25,11.72,11.72,0,0,0,3.18,1.28c.23.06.44.11.44.38s-.24,1-.7,1a12.4,12.4,0,0,1-2.94-1.1,12.88,12.88,0,0,1-4.63-3.91.44.44,0,0,0-.39-.23.55.55,0,0,0-.28.09c-.48.31-1,.56-1.45.82A.7.7,0,0,0,236.81,45.71Zm4.63-11.1a6.64,6.64,0,0,0-.05-1,.75.75,0,0,1,0-.2c0-.19.15-.22.3-.22s1.09.07,1.43.11c.14,0,.27.06.27.21s-.08.17-.25.29-.23.4-.23,1.64v1.66c0,.64,0,1.29,0,2s-.15.57-.74.57-.78,0-.78-.57,0-1.32,0-2Zm3.65-.84a8.71,8.71,0,0,0-.06-1.09c0-.06,0-.1,0-.15s.17-.23.33-.23.45,0,.68.06c.59,0,1,0,1,.28s-.13.19-.27.27-.22.3-.22,1V39c0,1.89.24,2.81-2.39,2.81-.47,0-1,.09-1-1.13,0-.25.09-.34.34-.34s.42,0,.73,0c.82,0,.82-.27.82-1.19Z"/><path class="cls-2" d="M255.73,48.43c0-.3-.13-.43-.43-.43h-2.56c-.31,0-.44.11-.44.43v.37c0,.42-.17.44-.8.44s-.8,0-.8-.44,0-1,0-1.51V43.48c0-.41,0-.81,0-1.21,0-.65.21-.89.86-.89l1.1,0h2.67l1.09,0c.61,0,.88.21.88.84,0,.42,0,.84,0,1.26v3.81c0,.5,0,1,0,1.51s-.19.44-.78.44-.79,0-.79-.41Zm-.49-1.79a.52.52,0,0,0,.51-.53V43.34a.52.52,0,0,0-.51-.53H252.8c-.33,0-.52.21-.52.53v2.77c0,.32.19.49.52.53Zm.82-7.06c-.46,0-.57,0-.67.29s-.57.17-.72.17c-.58,0-.81,0-.81-.47s0-.84,0-1.26V35c0-.35,0-.69,0-1,0-.67.37-.79,1.09-.79l1.05,0h4.43l1,0c.73,0,1.11.12,1.11.79,0,.34,0,.68,0,1v3.28c0,.42,0,.82,0,1.24s-.23.49-.8.49-.71-.06-.8-.26-.44-.21-.61-.2Zm-.61-1.88a.47.47,0,0,0,.51.51h4.5a.51.51,0,0,0,.54-.51V35.14a.5.5,0,0,0-.54-.53H256a.5.5,0,0,0-.51.53Zm8.7,10.73c0-.32-.14-.43-.44-.43h-2.79c-.3,0-.44.11-.44.43v.37c0,.42-.17.44-.8.44s-.8,0-.8-.44,0-1,0-1.51V43.48c0-.41,0-.81,0-1.21,0-.65.21-.89.86-.89l1.11,0h2.93l1.09,0c.67,0,.88.23.88.89,0,.4,0,.8,0,1.21v3.81c0,.5,0,1,0,1.51s-.19.44-.8.44-.8,0-.8-.44Zm-.5-1.79a.49.49,0,0,0,.51-.53V43.34a.5.5,0,0,0-.51-.53H261c-.33,0-.54.21-.54.53v2.77a.54.54,0,0,0,.54.53Z"/><path class="cls-2" d="M272.76,34.43c.11.06.32.16.32.31s-.05.15-.15.19c-.4.19-.5.31-.74,1a19.43,19.43,0,0,0-1,5.9c0,.38.08,2.73.5,2.73.15,0,.29-.29.51-.86.1-.23.31-.94.54-.94s.61.25.61.46a1.71,1.71,0,0,1-.1.36,16.19,16.19,0,0,0-.78,3c0,.26,0,.53,0,.78,0,.42-.25.55-.59.7a2,2,0,0,1-.59.18c-.27,0-.44-.39-.54-.59a13.67,13.67,0,0,1-1.12-5.78,22.61,22.61,0,0,1,.9-6.13c.15-.53.32-1.07.45-1.6,0-.13.08-.3.23-.3A13,13,0,0,1,272.76,34.43Zm7.61-.55c.09,0,.17.08.17.19s-.1.21-.17.31a3,3,0,0,0-.21,1.43v.44c0,.42,0,.7.4.7a15.53,15.53,0,0,0,2-.49.7.7,0,0,1,.29-.08c.36,0,.47,1.13.47,1.3,0,.4-.55.47-2.48.76-.34.06-.63.11-.63.57s.14,3.61.18,4.22.24.53.61.7c.53.25,2.59,1.36,2.59,2,0,.4-.55,1.1-.9,1.1-.19,0-.38-.19-.49-.3a6.2,6.2,0,0,0-1.64-1.18c-.19,0-.23.15-.25.3-.23,1.34-1.43,1.78-2.65,1.78-1.41,0-3.07-.65-3.07-2.31s1.45-2.23,2.84-2.23a7.09,7.09,0,0,1,.92,0,.58.58,0,0,0,.19,0c.26,0,.36-.13.36-.38,0-.65-.1-2.63-.14-3.34,0-.21,0-.68-.43-.68-.1,0-1.4.07-2.12.07a16.78,16.78,0,0,1-1.93-.09c-.25-.08-.25-.92-.25-1.17s0-.44.27-.44a2.33,2.33,0,0,1,.38,0c.82.08,1.7.14,2.52.14s1.39,0,1.39-.44-.17-2.35-.24-2.86V33.8a.19.19,0,0,1,.22-.22A14.39,14.39,0,0,1,280.37,33.88Zm-1.64,10.7a4.6,4.6,0,0,0-1.13-.17c-.51,0-1.56.19-1.56.88s1,1,1.58,1c.84,0,1.36-.34,1.36-1.24A.43.43,0,0,0,278.73,44.58Z"/><path class="cls-2" d="M290.86,42.18a3.78,3.78,0,0,1-.29.78c-.65,1.6-1.43,3.17-2.23,4.71a1.09,1.09,0,0,0-.19.5c0,.09.06.26.06.36a.21.21,0,0,1-.21.23c-.12,0-1.41-.76-1.41-1a1.66,1.66,0,0,1,.24-.5,26.16,26.16,0,0,0,2.67-5.63c.06-.13.12-.24.27-.24S290.86,41.8,290.86,42.18Zm-1.49-2.4c-.15,0-.27-.16-.38-.25A15,15,0,0,0,287,38c-.21-.15-.33-.21-.33-.38s.59-.93.86-.93a7.26,7.26,0,0,1,1.49,1c.25.19,1.26.93,1.26,1.2A1.36,1.36,0,0,1,289.37,39.78Zm.57-4.09a.76.76,0,0,1-.38-.21,22.08,22.08,0,0,0-2.14-1.69c-.15-.12-.34-.23-.34-.4s.57-.94.86-.94a7.25,7.25,0,0,1,1.58,1.11c.25.19,1.32.95,1.32,1.22S290.27,35.69,289.94,35.69Zm8.59,9.16c.26,0,.38-.1.38-.38V43.21a4.44,4.44,0,0,0-.06-.9v-.15c0-.17.13-.19.27-.19l1.1.07c.12,0,.23.06.23.2s-.09.17-.19.22-.21.35-.21.81V44.7c0,.43,0,.87,0,1.31s-.11.48-.59.48-.48,0-.55-.13-.18-.27-.37-.29H295.7c-.23,0-.26.11-.34.29s-.15.22-.55.22-.61,0-.61-.47,0-.94,0-1.4v-1.5a4.64,4.64,0,0,0-.06-.92v-.17c0-.15.11-.19.25-.19s.83.06,1,.08.32,0,.32.21-.1.15-.19.23-.21.32-.21.76v1.26c0,.28.11.38.38.38h.4c.29,0,.4-.12.4-.38v-3c0-.39-.17-.54-.53-.54h-2.39c-.36,0-.53.15-.53.54v5.36c0,.61,0,1.22,0,1.84s-.12.56-.73.56-.7-.06-.7-.54c0-.63,0-1.25,0-1.86V41.51c0-.42,0-.84,0-1.26,0-.61.36-.68.89-.68h3.34c.33,0,.46-.13.46-.45v-.4c0-.33-.13-.46-.46-.46h-2.59c-.69,0-1.39,0-2.1,0-.4,0-.4-.21-.4-.69s0-.67.4-.67c.71,0,1.41,0,2.1,0h.34c.33,0,.46-.13.46-.46v-.68c0-.33-.13-.48-.46-.48h-.19c-.55,0-1.11.06-1.68.06-.38,0-.38-.21-.38-.67s0-.67.38-.67c.61,0,1.2.06,1.81,0,.35,0,.52-.13.52-.5a6.15,6.15,0,0,0-.08-1.06v-.18c0-.21.14-.24.31-.24s1.12.07,1.37.09.36,0,.36.21-.11.17-.24.27-.25.38-.23.91c0,.37.17.5.51.5h2.08c.34,0,.5-.13.52-.5a8.42,8.42,0,0,0-.08-1s0-.13,0-.17c0-.21.15-.25.32-.25s1.11.08,1.4.1c.11,0,.32,0,.32.21s-.08.15-.25.27-.23.38-.21.85.17.5.52.5c.61,0,1.2,0,1.81,0,.38,0,.38.21.38.67s0,.67-.38.67c-.55,0-1.13-.06-1.68-.06h-.21c-.3,0-.46.15-.46.48v.68c0,.33.16.46.48.46H301c.7,0,1.41,0,2.11,0,.38,0,.38.21.38.67s0,.69-.38.69c-.7,0-1.41,0-2.11,0h-2.68c-.3,0-.45.13-.45.46v.4c0,.32.13.45.45.45h3.4c.53,0,.88.07.88.68,0,.42,0,.82,0,1.22v5c0,.32,0,.65,0,1,0,1.47-.79,1.76-2.64,1.76-.43,0-.82,0-.82-1,0-.24.06-.42.35-.42l1,0c.67,0,.67-.26.67-.87V41.42c0-.39-.16-.54-.54-.54h-2.42c-.38,0-.54.15-.54.54v3c0,.26.12.38.39.38Zm-2.45-9.48a.44.44,0,0,0-.45.48v.68a.44.44,0,0,0,.45.46h2.2a.45.45,0,0,0,.46-.46v-.68a.45.45,0,0,0-.46-.48Z"/><path class="cls-2" d="M311.31,46.2c.54,0,1.28,0,1.85,0s.79,0,.9,0c.4,0,.48.12.48.58v.42c0,.45-.08.57-.48.57-.1,0-.42,0-.82,0-.59,0-1.37,0-1.93,0H309c-.52,0-1.22,0-1.78,0s-.76,0-.87,0c-.4,0-.48-.12-.48-.57V47c0-.47.06-.57.46-.89s.65-.54.93-.8c3.32-3,5.5-5,5.5-7.06,0-1.34-1-2.27-2.62-2.27a4,4,0,0,0-2.82,1.2c-.17.17-.29.27-.4.27s-.23-.1-.42-.29l-.4-.44c-.15-.17-.25-.28-.25-.4s.1-.25.29-.42a6.27,6.27,0,0,1,4.16-1.54c2.7,0,4.19,1.64,4.19,3.64,0,2.73-2.29,5-5.53,7.8-.15.13-.21.21-.21.27s.12.11.34.11Z"/><path class="cls-2" d="M327.84,40.8c0,4.45-2.5,7-5.5,7-2.84,0-5.17-2.27-5.17-6.52,0-3.81,1.95-6.92,5.46-6.92C325.43,34.4,327.84,36.55,327.84,40.8Zm-8.95.56c0,3.2,1.45,4.92,3.45,4.92s3.8-2.08,3.8-5.42S324.59,36,322.63,36C320.11,36,318.89,38.48,318.89,41.36Z"/><path class="cls-2" d="M344.4,38.86s0,.06.09.08c.77,0,1.55-.06,2.22-.06.38,0,.4.19.4.72s0,.71-.4.71c-.69,0-1.47-.06-2.23-.06h-2.87c-.34,0-.51.15-.47.52a10.71,10.71,0,0,0,.76,3.07.29.29,0,0,0,.27.21.31.31,0,0,0,.25-.14,9.94,9.94,0,0,0,1.39-2.46c0-.11.11-.23.25-.23a4,4,0,0,1,.84.29c.49.21.66.27.66.42s-.15.21-.26.25-.21.11-.33.32a16,16,0,0,1-1.81,2.73.59.59,0,0,0-.15.4.52.52,0,0,0,.13.36c.38.48,1.28,1.45,1.91,1.45s.84-1,1-1.81c0-.29,0-.44.36-.44s1,.08,1,.56a6.07,6.07,0,0,1-.36,1.83,1.84,1.84,0,0,1-1.87,1.48c-1.2,0-2.34-1.05-3.09-1.92a.46.46,0,0,0-.36-.21.42.42,0,0,0-.3.13c-.5.44-2.6,2-3.15,2-.34,0-.88-.65-.88-.88s.34-.38.52-.45a11.66,11.66,0,0,0,2.78-1.91.57.57,0,0,0,.21-.42.66.66,0,0,0-.08-.34,15.16,15.16,0,0,1-1.18-4.35c0-.36-.19-.5-.57-.5h-5.4c-.36,0-.51.17-.51.54v1.14A17.23,17.23,0,0,1,332,48.15c-.21.49-.36.93-.65.93s-1.14-.46-1.14-.82a.46.46,0,0,1,.08-.21,16.24,16.24,0,0,0,1.35-6.37v-.49c0-.48,0-.94,0-1.41,0-.77.36-.88,1-.88.53,0,1.09,0,1.62,0H339c.35,0,.5-.16.5-.5,0-.11-.06-.74-.06-.93s.1-.29.29-.29l1.43.15c.13,0,.3.06.3.23s-.11.17-.24.25-.19.23-.19.57.19.52.53.52h1.53c.11,0,.22-.06.22-.19a.25.25,0,0,0,0-.16c-.21-.23-.42-.46-.65-.67a.41.41,0,0,1-.21-.3c0-.13.32-.32.44-.4a.1.1,0,0,0,0-.08s0,0-.08,0h-9.52c-.76,0-1.51,0-2.27,0-.38,0-.38-.19-.38-.68s0-.69.38-.69c.76,0,1.51,0,2.27,0h.1c.36,0,.53-.15.53-.54v-.93a8.34,8.34,0,0,0-.08-1.41,1,1,0,0,1,0-.17c0-.21.13-.27.3-.27s.88.08,1.18.11.61,0,.61.25-.07.17-.24.29-.23.4-.23,1.08v1c0,.39.15.54.53.54h1.83c.38,0,.54-.15.54-.54V33.88c0-.42,0-.86-.08-1.28,0-.05,0-.11,0-.17s.13-.25.32-.25.86.06,1.15.1.61,0,.61.25-.1.17-.25.26a.45.45,0,0,0-.19.35c0,.25.21.32.44.32h2.31c.63,0,1.28-.06,1.92-.06.37,0,.39.18.39.65s0,.63-.37.63c-.65,0-1.29,0-1.94,0H340.2c-.28,0-.4.12-.4.4v.37c0,.26.12.38.4.38h4.49c.76,0,1.52,0,2.28,0,.39,0,.39.19.39.69s0,.68-.39.68l-2.28,0h-.75c-.09,0-.21,0-.21.15s0,.09.08.15.91.86.91,1.07-.17.25-.28.32A.1.1,0,0,0,344.4,38.86Zm-9.16,5.21c-.13,0-.17.09-.21.21a15,15,0,0,1-1,2.29c-.07.13-.15.24-.32.24s-.82-.21-.82-.44a.51.51,0,0,1,.09-.22,11.51,11.51,0,0,0,1.07-2.54c0-.12,0-.17.15-.17a4.74,4.74,0,0,1,.71.15c.4.11.53.13.53.29S335.28,44.05,335.24,44.07Zm.58-.77c0-.38-.16-.53-.54-.53s-.8,0-1.22,0-.38-.21-.38-.65,0-.67.36-.67.86,0,1.28,0h2.16c.42,0,.91,0,1.25,0s.39.31.39.67,0,.65-.39.65-.78-.06-1.18,0-.51.15-.51.53v2.14c0,.34,0,.71,0,1.05,0,1.22-.75,1.47-2.06,1.47-.23,0-.69.09-.69-1,0-.2.09-.32.3-.32s.42,0,.65,0c.56,0,.56-.31.56-1Zm3,3c-.19,0-.23-.1-.4-.58s-.34-.87-.69-1.71a.78.78,0,0,1-.07-.25c0-.27.57-.44.76-.44s.33.21.71,1.13a6.71,6.71,0,0,1,.47,1.39C339.57,46.2,338.91,46.34,338.79,46.34Z"/><path class="cls-2" d="M358.11,42a1.14,1.14,0,0,1,.52-.25c.32,0,.65.7.65,1s-.21.36-.4.48a72.64,72.64,0,0,1-7.29,4c-.42.21-.44.19-.48.48,0,.13-.07.23-.21.23s-.23-.14-.36-.34a6.62,6.62,0,0,1-.59-1.15c0-.15.11-.19.55-.38.27-.12.65-.25,1.2-.52a.65.65,0,0,0,.46-.74V34.38c0-.44,0-.9-.07-1.32,0-.06,0-.13,0-.19s.15-.27.34-.27,1.2.12,1.49.14c.13,0,.34,0,.34.24s-.1.18-.25.29-.25.46-.25,1.11V44c0,.17.08.32.29.32a.53.53,0,0,0,.17,0A44.36,44.36,0,0,0,358.11,42Zm4.58,3.45a.45.45,0,0,0-.34.15,14.2,14.2,0,0,1-5.34,3.2,2.52,2.52,0,0,1-.65.18c-.4,0-.82-.82-.82-1.17s.19-.3.4-.36a11.51,11.51,0,0,0,5.41-3,7.71,7.71,0,0,0,1.34-4.83V34.74c0-.54,0-1.07-.08-1.6,0-.08,0-.14,0-.21,0-.23.18-.29.37-.29.42,0,.82.06,1.24.08s.61.07.61.28-.12.2-.27.29-.27.4-.27,1.13v5a12.27,12.27,0,0,1-.65,4.08,1,1,0,0,0-.05.31.57.57,0,0,0,.23.47,30.66,30.66,0,0,1,2.55,2.87,2.57,2.57,0,0,1,.55.95c0,.34-.64.86-1,.86-.17,0-.28-.18-.38-.31A17.24,17.24,0,0,0,363,45.63.44.44,0,0,0,362.69,45.48Zm-3.4-6.93c-.17,0-.3-.15-.4-.28a18.63,18.63,0,0,0-2.59-3c-.11-.11-.27-.23-.27-.42s.65-.84.94-.84a.72.72,0,0,1,.44.27,17.57,17.57,0,0,1,1.29,1.3,10.24,10.24,0,0,1,1.57,2.08C360.27,38,359.62,38.55,359.29,38.55Z"/><path class="cls-2" d="M378.25,37.75c0,.37.16.52.54.52h3.53c.74,0,1.46,0,2.21,0,.42,0,.44.19.44.82s0,.8-.44.8c-.73,0-1.47,0-2.21,0h-3.53c-.38,0-.54.16-.54.52v6c0,.38.16.53.54.53h4.54c.78,0,1.54-.05,2.32-.05.42,0,.44.21.44.82s0,.8-.44.8c-.78,0-1.54,0-2.32,0H372.26c-.78,0-1.54,0-2.32,0-.42,0-.44-.19-.44-.8s0-.82.44-.82c.78,0,1.54.05,2.32.05h3.8c.38,0,.53-.15.53-.53V34.45a11.55,11.55,0,0,0-.07-1.79s0-.11,0-.17c0-.23.13-.29.34-.29s.59.06.8.08l.31,0c.47,0,.8.06.8.28s-.1.2-.25.29-.25.5-.25,1.24Z"/><path class="cls-2" d="M401.24,36.29a6.35,6.35,0,0,1,1.87,4.61A6.71,6.71,0,0,1,399.42,47a7.1,7.1,0,0,1-2,.7c-.4,0-1.07-.89-1.07-1.24s.31-.23.48-.27A5.3,5.3,0,0,0,401.41,41a4.87,4.87,0,0,0-3.4-4.85,4.57,4.57,0,0,0-.8-.17c-.49,0-.49.42-.51.78-.17,2.83-.86,6.35-2.71,8.59a3.29,3.29,0,0,1-2.39,1.39A2.91,2.91,0,0,1,389.16,45a6.08,6.08,0,0,1-.57-2.65,7.76,7.76,0,0,1,7.8-7.92A6.73,6.73,0,0,1,401.24,36.29Zm-7.14.11a6.16,6.16,0,0,0-3.91,5.87c0,.84.31,2.77,1.41,2.77s2-2,2.35-2.84a16.2,16.2,0,0,0,1.14-5.63c0-.21-.09-.38-.3-.38A2.89,2.89,0,0,0,394.1,36.4Z"/><path class="cls-2" d="M409.28,37.26c-.39,0-.54.15-.54.53v1.49c0,.38.15.53.54.53h1.48l1.19,0c.74,0,.78.44.78,1a26.12,26.12,0,0,1-.35,4.82c-.3,1-1.27,1.22-2.21,1.22-.61,0-1,0-1-1.14,0-.19,0-.4.29-.4s.7.08.84.08a.72.72,0,0,0,.74-.44,13.63,13.63,0,0,0,.21-3c0-.53,0-.71-.61-.71h-1.33c-.37,0-.54.14-.56.5a18.23,18.23,0,0,1-1.3,6c-.47,1.16-.59,1.33-.87,1.33-.46,0-1.17-.42-1.17-.78a.53.53,0,0,1,.08-.23,16.9,16.9,0,0,0,1.76-7.61V38.19c0-.51,0-1,0-1.52,0-.77.34-.9,1-.9s1.14,0,1.71,0h3.4c.36,0,.47-.15.47-.52,0,0-.09-.89-.15-1.6s-.11-1.07-.11-1.11c0-.24.15-.32.36-.32l1.49.11c.15,0,.28.08.28.25s-.15.21-.28.29-.19.23-.19.42a16.81,16.81,0,0,0,.15,2c0,.36.23.5.59.5h3.95c.74,0,1.52,0,2.19,0,.4,0,.42.15.42.76s0,.77-.42.77c-.59,0-1.45,0-2.19,0h-3.78c-.26,0-.46.11-.46.4v.09a24.85,24.85,0,0,0,1.11,4.6c.06.1.11.19.25.19a.35.35,0,0,0,.23-.15A16.82,16.82,0,0,0,419,39c.06-.17.14-.4.37-.4a5.59,5.59,0,0,1,1.06.4l.2.08c.17.08.3.13.3.29s-.17.19-.27.23c-.26.09-.28.17-.45.53A22.82,22.82,0,0,1,418,44a.92.92,0,0,0-.19.48.81.81,0,0,0,.12.38,9,9,0,0,0,1.75,2.35.91.91,0,0,0,.48.13c.48,0,.65-.36.78-.74a8.63,8.63,0,0,0,.34-1.57c0-.21.08-.32.31-.32.42,0,1.09.19,1.09.68a7.41,7.41,0,0,1-.54,2.18A2,2,0,0,1,420.22,49c-1.45,0-2.69-1.85-3.37-2.94a.35.35,0,0,0-.59-.08,19.89,19.89,0,0,1-3.59,2.77,1.7,1.7,0,0,1-.55.25,1.3,1.3,0,0,1-.94-.86c0-.23.29-.38.5-.52a22.49,22.49,0,0,0,3.89-3.09.71.71,0,0,0,.21-.46,1,1,0,0,0-.08-.34,26.88,26.88,0,0,1-1.58-6c-.06-.38-.23-.49-.59-.49Zm10.29-2c-.21,0-.32-.17-.45-.34a20.67,20.67,0,0,0-1.55-1.7c-.07-.07-.25-.23-.25-.34s.67-.75,1-.75.76.62,1.08.94l.14.13c.21.21,1,1.07,1,1.3S419.84,35.29,419.57,35.29Z"/><path class="cls-2" d="M433.43,39.39a.15.15,0,0,0-.14.12,15.43,15.43,0,0,1-6.44,8.94,2.41,2.41,0,0,1-1,.5c-.38,0-1-.75-1-1.11,0-.19.19-.28.44-.44a14.47,14.47,0,0,0,4.46-4,16.29,16.29,0,0,0,2.81-9.31c0-.42,0-.84,0-1.26s.09-.55.4-.55a12.41,12.41,0,0,1,1.33.17c.21,0,.44.06.44.25s-.23.25-.36.32a.31.31,0,0,0-.17.29c0,.48,0,.93,0,1.41,0,.14,0,.31,0,.44A16.6,16.6,0,0,0,435.26,40a15.47,15.47,0,0,0,6.24,7.56c.15.09.38.23.38.4,0,.38-.59,1.09-1,1.09a.73.73,0,0,1-.34-.14,15.52,15.52,0,0,1-3.19-2.63,16.65,16.65,0,0,1-3.83-6.75C433.54,39.45,433.5,39.39,433.43,39.39Z"/><path class="cls-2" d="M456.33,36.29a6.31,6.31,0,0,1,1.87,4.61A6.72,6.72,0,0,1,454.52,47a7.16,7.16,0,0,1-2,.7c-.4,0-1.06-.89-1.06-1.24s.3-.23.47-.27A5.29,5.29,0,0,0,456.5,41a4.88,4.88,0,0,0-3.39-4.85,4.77,4.77,0,0,0-.8-.17c-.5,0-.5.42-.52.78-.17,2.83-.86,6.35-2.71,8.59a3.29,3.29,0,0,1-2.38,1.39A2.89,2.89,0,0,1,444.26,45a6.09,6.09,0,0,1-.58-2.65,7.76,7.76,0,0,1,7.81-7.92A6.71,6.71,0,0,1,456.33,36.29Zm-7.13.11a6.16,6.16,0,0,0-3.91,5.87c0,.84.3,2.77,1.41,2.77s2-2,2.34-2.84a16.22,16.22,0,0,0,1.15-5.63c0-.21-.1-.38-.31-.38A2.68,2.68,0,0,0,449.2,36.4Z"/><path class="cls-2" d="M465.86,34.32a.36.36,0,0,0-.31.17,21.93,21.93,0,0,1-3,3.21c-.17.15-.54.49-.76.49a1.22,1.22,0,0,1-.86-.82c0-.21.3-.44.45-.55a16.53,16.53,0,0,0,3.88-4.46c.07-.16.15-.35.34-.35a3.9,3.9,0,0,1,.82.29c.19.07.34.15.44.17s.28.1.28.25-.24.21-.38.25a.08.08,0,0,0-.07.07.1.1,0,0,0,0,.08,15.34,15.34,0,0,0,2.7,2.76c.14.1.37.27.37.46s-.56.88-.86.88c-.54,0-2.39-2.23-2.77-2.73A.35.35,0,0,0,465.86,34.32Zm-1.36,9.25c-.36,0-.51.17-.51.53v1.78c0,.21.07.4.32.4a.37.37,0,0,0,.15,0c.52-.15,1.05-.3,1.57-.49a.32.32,0,0,0,.23-.27.35.35,0,0,0-.1-.21l-.19-.21c-.23-.25-.36-.38-.36-.55s.69-.67.91-.67a.41.41,0,0,1,.31.17c.36.38.7.8,1.05,1.22a13.74,13.74,0,0,1,1,1.37c0,.08.09.14.17.14s.82-.79.95-.94c1.78-2.23,2.06-5,2.08-7.76,0-.21,0-.4-.36-.46a.47.47,0,0,0-.27.21A16.61,16.61,0,0,1,470.24,40a.54.54,0,0,1-.44.29c-.22,0-.93-.48-.93-.76a.66.66,0,0,1,.17-.33,19.81,19.81,0,0,0,2.84-6.75c0-.15.08-.3.27-.3s.9.21,1.11.26.53.12.53.33-.13.19-.23.25c-.28.15-.28.19-.38.55a18,18,0,0,1-.74,2.14.39.39,0,0,0,0,.17c0,.28.28.28.36.3h2.37c.45,0,.87,0,1.29,0a1.08,1.08,0,0,1,1.15.88,13.47,13.47,0,0,1-.65,2.31c-.25.67-.4,1.12-.71,1.12s-1.1-.32-1.1-.62a.44.44,0,0,1,.07-.21,8.57,8.57,0,0,0,.63-1.82c0-.21-.19-.19-.32-.19H474.1c-.39,0-.52.15-.56.52s0,.78,0,1.16c0,.17,0,.34,0,.52a11.79,11.79,0,0,0,1.74,5.13,10.14,10.14,0,0,0,2.46,2.72c.13.12.29.21.29.4a1.31,1.31,0,0,1-1,1c-.42,0-1.31-1-1.6-1.28a12,12,0,0,1-2.38-4.06.18.18,0,0,0-.18-.14.17.17,0,0,0-.15.12,10.63,10.63,0,0,1-3.66,5.13.87.87,0,0,1-.5.24,1.37,1.37,0,0,1-1-.91c0-.13.12-.21.21-.29s.12-.09.12-.17a.27.27,0,0,0-.14-.21,2.1,2.1,0,0,1-.36-.55.39.39,0,0,0-.34-.19.31.31,0,0,0-.19,0c-1.51.59-3,1.14-4.56,1.62a.32.32,0,0,0-.18.26c0,.12-.09.29-.24.29s-.21-.13-.37-.44c-.05-.09-.11-.21-.19-.34a3.41,3.41,0,0,1-.34-.76c0-.16.27-.23,1.05-.42.36-.1.48-.21.48-.6V39.76c0-.44,0-.9,0-1.34,0-.74.25-.93,1-.93l1,0c.29,0,.42-.2.44-.48a2.79,2.79,0,0,0-.08-.82V36c0-.23.14-.27.33-.27s1,.08,1.26.1.42,0,.42.22-.1.18-.25.27-.23.36-.25.65.15.5.52.5l.8,0c.63,0,.93.13.93.82,0,.47,0,1,0,1.45v1.67c0,.44,0,.88,0,1.32,0,.69-.25.86-.91.86-.37,0-.73,0-1.09,0Zm2.29-3.6a.36.36,0,0,0,.38-.39v-.45a.36.36,0,0,0-.38-.38h-2.42a.36.36,0,0,0-.38.38v.45a.36.36,0,0,0,.38.39Zm-2.34,1.16a.43.43,0,0,0-.46.46v.32a.43.43,0,0,0,.46.46h2.26a.44.44,0,0,0,.46-.46v-.32a.44.44,0,0,0-.46-.46Z"/><path class="cls-2" d="M484.52,43c-.36,0-.53.11-.59.49a11.44,11.44,0,0,1-1.83,5.17c-.16.21-.31.4-.56.4s-1-.53-1-.87a.87.87,0,0,1,.19-.4c1.72-2.54,1.87-4.89,1.87-7.86V35.5c0-.57,0-1.14,0-1.71,0-.79.34-1,1.06-1,.52,0,1,0,1.55,0h8.64c.49,0,1,0,1.52,0,.73,0,1.07.17,1.07,1,0,.57,0,1.14,0,1.71v10c0,.48,0,.95,0,1.41a2,2,0,0,1-.61,1.74,4.31,4.31,0,0,1-2.54.51c-.43,0-.95,0-.95-1.24,0-.3.1-.42.4-.42s.65,0,1,0c1.07,0,1.13-.23,1.13-1.37V43.51c0-.36-.15-.51-.53-.51h-3.84c-.36,0-.53.15-.53.51V45.4c0,.92.05,1.81.05,2.71,0,.61-.15.69-.82.69s-.82-.08-.82-.71c0-.89,0-1.79,0-2.69V43.51c0-.36-.15-.51-.51-.51Zm.13-4.35c-.36,0-.51.15-.51.53v.88c0,.34,0,.69,0,1s.15.5.51.5h3.21c.36,0,.51-.16.51-.54V39.18c0-.38-.15-.53-.51-.53Zm3.7-3.78a.47.47,0,0,0-.51-.51h-3.19a.47.47,0,0,0-.51.51V36.7a.51.51,0,0,0,.51.54h3.19a.51.51,0,0,0,.51-.54Zm5.92,2.37a.55.55,0,0,0,.53-.54V34.87a.5.5,0,0,0-.53-.51h-3.84a.5.5,0,0,0-.53.51V36.7a.55.55,0,0,0,.53.54Zm-4.37,3.81c0,.35.21.54.53.54h3.84c.32,0,.49-.19.53-.54V39.18a.55.55,0,0,0-.53-.53h-3.84a.55.55,0,0,0-.53.53Z"/><path class="cls-2" d="M508.21,33.42c0,.14-.13.19-.23.23-.32.14-.4.29-.69.77a2.07,2.07,0,0,0-.21.49c0,.13.1.17.21.17a16.56,16.56,0,0,0,2.54-.59,1.72,1.72,0,0,1,.46-.11c.44,0,.51,1.14.51,1.28,0,.3-.55.38-.91.45-1.2.25-2.42.46-3.65.59-.42.06-.47.16-.78.63a1.93,1.93,0,0,1-.17.29,4.61,4.61,0,0,0-.55.93.17.17,0,0,0,.17.16.67.67,0,0,0,.3-.1,5.69,5.69,0,0,1,2.41-.67,1.93,1.93,0,0,1,2.13,1.89c0,.17.06.38.27.38a21.15,21.15,0,0,0,2.39-1.14,1.37,1.37,0,0,1,.47-.19c.35,0,.67,1.1.67,1.39s-.21.33-.67.46c-.09,0-.23.06-.36.11l-2.14.88a.59.59,0,0,0-.45.67c0,.7,0,1.43,0,2.13s-.08.69-.71.69-.88,0-.88-.48,0-1,0-1.54c0-.19-.06-.34-.27-.34a2.15,2.15,0,0,0-.66.3c-.77.44-1.84,1.07-1.84,2.06,0,1.45,1.95,1.62,3,1.62a13.42,13.42,0,0,0,3.51-.46c.11,0,.25,0,.36,0,.32,0,.34.59.34,1s-.05.65-.36.72a25.27,25.27,0,0,1-3.64.25,7,7,0,0,1-2.88-.46,2.73,2.73,0,0,1-1.89-2.59c0-1.66,1.41-2.58,2.71-3.32.4-.23.82-.5,1.24-.69.19-.09.36-.21.36-.44a3.29,3.29,0,0,0-.08-.62.94.94,0,0,0-1-.9,6.73,6.73,0,0,0-3.91,1.83,15.52,15.52,0,0,0-1.54,2.12.37.37,0,0,1-.27.19c-.3,0-1.24-.61-1.24-.94,0-.11.12-.24.21-.34a45.08,45.08,0,0,0,3.28-4.67.58.58,0,0,0,.13-.35c0-.13-.15-.19-.43-.19s-.94.08-1.66.08c-.33,0-.4-.08-.4-.86,0-.59,0-.72.43-.72s.94,0,1.49,0c1.28,0,1.62,0,1.83-.36a10.6,10.6,0,0,0,1-2.36c.05-.21.07-.37.26-.37S508.21,33.2,508.21,33.42Z"/><path class="cls-2" d="M522.17,37.66a.15.15,0,0,0-.16.17v1.64c0,.74.06,1.47.06,2.19,0,.5-.17.56-.76.56s-.76-.06-.76-.56c0-.72,0-1.45,0-2.19V38.21c0-.08,0-.15-.11-.15a.14.14,0,0,0-.13.07c-.27.48-1.84,2.85-2.33,2.85a1.23,1.23,0,0,1-.86-.84c0-.19.23-.38.4-.56A15.23,15.23,0,0,0,520,36.27a.48.48,0,0,0,0-.18c0-.21-.15-.26-.34-.28h-.56c-.51,0-1.06,0-1.37,0s-.38-.25-.38-.69,0-.69.38-.69.86,0,1.37,0h.9c.38,0,.53-.17.53-.53v-.52a6.57,6.57,0,0,0-.05-1,.52.52,0,0,1,0-.17c0-.19.13-.23.28-.23s1.09.07,1.36.11.36,0,.36.21-.13.17-.27.25-.23.31-.23.88V34c0,.38.16.49.54.53h.59c.51,0,1.07,0,1.39,0s.36.25.36.69,0,.69-.36.69-.88,0-1.39,0h-.36c-.16,0-.29.07-.29.25a.27.27,0,0,0,.06.17,17.17,17.17,0,0,0,2,2c.25.21.31.29.31.44s-.5.88-.8.88-1.49-1.51-1.74-1.84A.16.16,0,0,0,522.17,37.66Zm-1.36,6.6c-.17,0-.21.09-.28.28a16.88,16.88,0,0,1-1.8,3.38.61.61,0,0,1-.53.32c-.31,0-1-.23-1-.59a.92.92,0,0,1,.32-.53,11.91,11.91,0,0,0,1.74-3.38c.06-.15.11-.32.28-.32s1.53.32,1.53.63C521.06,44.16,520.91,44.24,520.81,44.26Zm6.85,3c1,0,1-.19,1.32-1.6.09-.42.11-.55.4-.55s1.1.11,1.1.64a6,6,0,0,1-.78,2.33c-.46.59-1,.59-1.93.59h-3.83c-1.11,0-2.14,0-2.14-1.35,0-.27,0-.54,0-.82V44.28c0-.39,0-.82-.05-1.21v-.2c0-.2.11-.23.26-.23s1.24.07,1.49.09.31,0,.31.21-.1.17-.19.23c-.29.17-.31.38-.31,1.11v2.36c0,.67.53.63,1.11.63Zm-.82-1.58c-.21,0-.32-.19-.42-.35a24.08,24.08,0,0,0-1.56-2.15.76.76,0,0,1-.25-.46c0-.25.68-.65.91-.65a.56.56,0,0,1,.37.19l.78,1A8.3,8.3,0,0,1,527.79,45C527.79,45.33,527.09,45.69,526.84,45.69Zm.61-4.29c-.25,0-.29.13-.36.34s-.23.21-.75.21-.8,0-.8-.44,0-1,0-1.47V34.76c0-.4,0-.82,0-1.24,0-.61.27-.78.86-.78l1.07,0h3.39l1,0c.6,0,.9.13.9.78,0,.42,0,.82,0,1.24V40c0,.5,0,1,0,1.47s-.21.44-.8.44-.71,0-.76-.27-.12-.28-.33-.28Zm3.36-6.11a.44.44,0,0,0,.45-.47v-.33a.43.43,0,0,0-.45-.46h-3.26a.43.43,0,0,0-.46.46v.33a.44.44,0,0,0,.46.47Zm-3.34,1.17a.36.36,0,0,0-.38.38v.42a.36.36,0,0,0,.38.38h3.39a.37.37,0,0,0,.4-.38v-.42a.37.37,0,0,0-.4-.38Zm.08,2.36a.44.44,0,0,0-.46.46v.4a.44.44,0,0,0,.46.46h3.26a.44.44,0,0,0,.45-.46v-.4a.44.44,0,0,0-.45-.46Zm5.2,9.31c-.26,0-.34-.23-.42-.46a21.38,21.38,0,0,0-2.15-3.85.83.83,0,0,1-.17-.4c0-.35.72-.65,1-.65a.49.49,0,0,1,.42.25c.4.57.91,1.47,1.26,2.06a12.93,12.93,0,0,1,1.12,2.42C533.76,47.84,533,48.13,532.75,48.13Z"/><path class="cls-2" d="M539.79,46.51a.31.31,0,0,0-.28.19,20.88,20.88,0,0,1-1.24,1.87c-.12.15-.27.36-.5.36s-1.1-.36-1.1-.71a.48.48,0,0,1,.15-.3,11.59,11.59,0,0,0,2.69-6.14c0-.21,0-.5.3-.5s1,.17,1.15.21.59.12.59.33-.14.21-.23.24c-.29.14-.29.25-.34.56a13.07,13.07,0,0,1-.4,1.64,2,2,0,0,0-.06.34.85.85,0,0,0,.19.52A4.39,4.39,0,0,0,543.23,47l.13,0c.27,0,.34-.21.34-.42V40.37c0-.39-.15-.54-.51-.54h-1.66c-.67,0-1.34,0-2,0-.42,0-.42-.21-.42-.72s0-.75.42-.75c.66,0,1.33,0,2,0h6.05c.66,0,1.33,0,2,0,.42,0,.44.19.44.75s0,.72-.44.72c-.67,0-1.34,0-2,0h-1.76c-.38,0-.53.15-.53.54V42c0,.38.15.53.53.53h1.58l1.68,0c.42,0,.44.21.44.74s0,.72-.44.72l-1.68,0h-1.58c-.38,0-.53.17-.53.53v2.38c0,.39.13.54.51.56.92,0,1.83,0,2.73,0,1.32,0,3.72-.14,4-.14s.4.19.4.46c0,1-.43,1.12-1.24,1.12h-4.46c-2.69,0-5.26,0-7.17-2.19A.4.4,0,0,0,539.79,46.51Zm5.53-12.36c0,.36.16.51.52.51h3.4l2,0c.59,0,1.14.1,1.14.82,0,.23,0,.56,0,.9V37c0,.23,0,.44,0,.67,0,.4-.19.42-.82.42s-.82,0-.82-.39,0-.47,0-.7v-.48c0-.36-.13-.51-.51-.51H538.88c-.38,0-.54.15-.54.51v.52c0,.19,0,.47,0,.68,0,.39-.27.39-.8.39s-.8,0-.8-.41c0-.2,0-.45,0-.66v-.69c0-.38,0-.67,0-.9,0-.7.5-.84,1.37-.84.48,0,1.05,0,1.74,0h3.32c.38,0,.53-.15.53-.51a10.62,10.62,0,0,0-.07-1.49c0-.06,0-.11,0-.17,0-.23.17-.27.34-.27s1.11.08,1.41.12.38,0,.38.23-.09.17-.23.28-.23.36-.23.84Z"/><path class="cls-2" d="M561.37,40.67a1.94,1.94,0,0,1-2,2,1.75,1.75,0,0,1-1.83-1.75,2,2,0,0,1,2.06-2.06A1.73,1.73,0,0,1,561.37,40.67Z"/><path class="cls-2" d="M576.84,35.81a.69.69,0,0,0,.76-.44,16.36,16.36,0,0,0,1.18-2.84c0-.1.08-.25.25-.25s1.56.46,1.56.74-.11.19-.23.21a.36.36,0,0,0-.32.17c-.29.67-.61,1.32-.95,2,0,.08-.06.11-.06.17s.17.27.34.29h.77c.66,0,1.33,0,1.88,0,.39,0,.42.17.42.72s0,.75-.42.75-1.24,0-1.88,0h-.86c-.36,0-.52.13-.52.51v1c0,.39.16.5.52.54h.44c.61,0,1.29-.06,1.75-.06s.42.19.42.74,0,.75-.4.75c-.55,0-1.16,0-1.77,0h-.42c-.38,0-.54.15-.54.51v1.09c0,.38.16.54.54.54h.19c.66,0,1.35,0,2,0,.4,0,.4.17.4.74s0,.75-.38.75c-.67,0-1.34-.06-2-.06h-.19c-.38,0-.54.15-.54.53v1.3c0,.38.16.53.54.53h1c.67,0,1.31,0,2,0,.4,0,.42.17.42.74s0,.74-.42.74c-.65,0-1.29,0-2,0H575.1c-.27,0-.38.09-.4.36,0,.72-.08.8-.78.8s-.8-.06-.8-.67c0-.78,0-1.54,0-2.33v-6c0-.08,0-.14-.11-.14s-.15.16-.19.23c-.36.63-.61,1-.88,1a.85.85,0,0,1-.42-.19.59.59,0,0,0-.32-.15,4.19,4.19,0,0,0-1,.46.69.69,0,0,0-.44.76v4c0,.42,0,.84,0,1.26,0,1.67-1.28,1.81-2.63,1.81-.54,0-.71,0-.86-.42a2.17,2.17,0,0,1-.19-.88c0-.23.07-.36.32-.36s.55.06.95.06c.82,0,.81-.35.81-1.36V42.88c0-.17-.08-.34-.29-.34a4.56,4.56,0,0,0-.74.31c-.46.19-.54.26-.58.49s-.07.23-.21.23-.32-.4-.51-.9a3.23,3.23,0,0,1-.25-.74c0-.19.27-.23.44-.29a13.92,13.92,0,0,0,1.68-.66.67.67,0,0,0,.46-.73V37.66a.47.47,0,0,0-.54-.54c-.42,0-.86,0-1.3,0s-.38-.23-.38-.72,0-.75.38-.75.88.06,1.3,0,.54-.15.54-.51v-1c0-.5,0-1-.08-1.43,0-.06,0-.16,0-.21,0-.23.17-.25.36-.25.36,0,.73,0,1.09.06s.71,0,.71.28-.14.21-.27.29-.23.42-.23,1v1.28c0,.36.15.49.51.51s1,0,1.19,0c.42,0,.4.29.4.75s0,.72-.4.72-.82,0-1.19,0-.51.16-.51.54v1.89c0,.07,0,.34.29.34a1.42,1.42,0,0,0,.57-.25,1.18,1.18,0,0,1,.46-.21.33.33,0,0,1,.24.1.24.24,0,0,0,.16.07.13.13,0,0,0,.11-.05,29.38,29.38,0,0,0,2.77-6.85c0-.17,0-.5.3-.5a4.26,4.26,0,0,1,.61.16c.67.21,1,.3,1,.51s-.13.21-.25.25-.32.27-.59,1c-.11.3-.24.68-.44,1.18a.81.81,0,0,0,0,.15c0,.23.17.31.36.33Zm-2.18,2.95a.55.55,0,0,0,.52.54h1.58a.52.52,0,0,0,.53-.54v-1a.51.51,0,0,0-.53-.51H575.2c-.35,0-.5.17-.54.51Zm0,3.53a.54.54,0,0,0,.54.54h1.56a.53.53,0,0,0,.53-.54V41.2a.5.5,0,0,0-.53-.51H575.2a.51.51,0,0,0-.54.51Zm0,3.76c0,.38.15.53.54.53h1.56c.38,0,.53-.15.53-.53v-1.3c0-.38-.15-.53-.53-.53H575.2c-.39,0-.54.15-.54.53Z"/><path class="cls-2" d="M589.19,33.88a7.78,7.78,0,0,0-.06-1.18.62.62,0,0,1,0-.19c0-.23.19-.25.38-.25s.94.08,1.26.1c.14,0,.37,0,.37.21s-.12.17-.25.24-.25.46-.25,1.66v5.17c0,.73.06,1.47.06,2.19,0,.46-.19.6-.77.6s-.78-.18-.78-.61c0-.73.06-1.45.06-2.18v-.46c0-.13-.06-.28-.23-.28s-.11,0-.17.07c-.76.58-1.55,1.15-2.35,1.68-.11.08-.11.17-.13.31s0,.28-.23.28-1-1.12-1-1.26.51-.38.69-.49c1-.67,2-1.36,3-2.1a.8.8,0,0,0,.4-.82Zm4.25,11.27a.31.31,0,0,0-.26.16,10.29,10.29,0,0,1-6,3.6,6.3,6.3,0,0,1-.82.17c-.48,0-.81-.89-.81-1.1s.27-.31.75-.4a9.43,9.43,0,0,0,5.32-2.71.27.27,0,0,0,.06-.17c0-.18-.16-.23-.29-.23h-3.59c-.76,0-1.5,0-2.26,0-.42,0-.44-.18-.44-.69s0-.71.44-.71c.76,0,1.5,0,2.26,0h4.09c.36,0,.53-.09.61-.48a3.42,3.42,0,0,0,0-.45c0-.31,0-.46.3-.46s1,.09,1.28.13.47.06.47.25-.19.19-.3.25a.44.44,0,0,0-.21.44c0,.24.19.32.38.32h4.64c.74,0,1.5,0,2.27,0,.42,0,.42.18.42.71s0,.69-.42.69c-.77,0-1.53,0-2.27,0h-4c-.13,0-.29.05-.29.21s0,.11.08.17a9.53,9.53,0,0,0,6.1,2.9c.46,0,.77.07.77.42s-.23,1.1-.75,1.1A15.92,15.92,0,0,1,597,48.13a8,8,0,0,1-3.28-2.82A.31.31,0,0,0,593.44,45.15Zm-4.75-9.46c0,.33-.59.79-.89.79s-.33-.21-.44-.33a18.78,18.78,0,0,0-1.68-1.51.46.46,0,0,1-.25-.36c0-.3.63-.76.84-.76s1.24.9,1.51,1.14S588.69,35.43,588.69,35.69Zm12.72,1.76c.41,0,.42.21.42.67s0,.66-.42.66c-.61,0-1.2,0-1.81-.05-.38,0-.51.17-.51.53V40c0,.3,0,.61,0,.91,0,1.53-1.51,1.57-2.67,1.57-.4,0-.92.09-.92-1.07,0-.25.17-.31.38-.31l.86,0c.9,0,.9-.32.9-1.18v-.63c0-.36-.17-.53-.54-.53h-3.24c-.72,0-1.45.05-2.17.05-.4,0-.42-.19-.42-.66s0-.67.42-.67c.72,0,1.45.06,2.17.06h3.38c.21,0,.36-.1.36-.33v-.06c0-.07,0-.3,0-.38s.15-.23.31-.23c.32,0,.91.06,1.24.1.13,0,.38,0,.38.23s-.1.15-.23.23a.27.27,0,0,0-.15.24c0,.14.15.18.26.2C600.06,37.51,600.75,37.45,601.41,37.45Zm-.4-3.93a.62.62,0,0,1-.26-.06.46.46,0,0,0-.25-.06l-.29,0a42.65,42.65,0,0,1-7.82.86c-.38,0-.72,0-.72-.88,0-.38.46-.36.8-.36a30.94,30.94,0,0,0,7.4-.84,1.14,1.14,0,0,1,.25-.06,3.13,3.13,0,0,1,1,1.19C601.15,33.44,601.11,33.52,601,33.52Zm-8,3.53c-.23,0-.3-.17-.53-.65-.1-.23-.23-.53-.44-.94a.59.59,0,0,1-.1-.26c0-.35.75-.56.94-.56s.44.33.7.88a4.41,4.41,0,0,1,.39,1C594,36.89,593.21,37.05,593,37.05Zm1.17,4.33c-.18,0-.27-.16-.52-.52s-.38-.55-.7-1a.34.34,0,0,1-.1-.23c0-.27.65-.69.91-.69s.41.23.52.4.17.25.25.35a2.93,2.93,0,0,1,.57,1C595.14,41,594.45,41.38,594.21,41.38ZM596,36.69c-.33,0-.37-.29-.46-.61s-.31-.83-.38-1a.33.33,0,0,1-.06-.19c0-.3.69-.53.94-.53s.38.13.68,1.09a3.11,3.11,0,0,1,.21.7C597,36.49,596.3,36.69,596,36.69Zm4.88-2.6c.36.19.51.27.51.4s-.13.15-.22.15c-.27,0-.25,0-.65.56-.17.25-.94,1.29-1.2,1.29s-1-.34-1-.61.21-.32.29-.42a8.52,8.52,0,0,0,1.14-1.54c.06-.1.1-.21.23-.21A5.7,5.7,0,0,1,600.92,34.09Z"/><path class="cls-2" d="M608.87,34.11c.16,0,.37.11.37.29s-.12.21-.21.28a1.81,1.81,0,0,0-.38,1.15,45.58,45.58,0,0,0-.42,6.5c0,1.64,0,4,2.27,4a5.12,5.12,0,0,0,3.81-2,5.7,5.7,0,0,0,1.16-2.84c0-.27.08-.59.33-.59s1.28.76,1.28,1.3a6.89,6.89,0,0,1-.75,2.15A6.65,6.65,0,0,1,610.61,48a4,4,0,0,1-3.19-1.44,7.34,7.34,0,0,1-.89-4.18c0-2.37.17-4.73.36-7.1a10.48,10.48,0,0,0,0-1.12c0-.27,0-.46.27-.46A11.19,11.19,0,0,1,608.87,34.11Z"/><path class="cls-2" d="M620.5,35.75c2.72-.17,5.43-.46,8.14-.78,1.35-.15,3-.35,4.35-.57a1,1,0,0,1,.26,0c.23,0,.29.21.33.4a9,9,0,0,1,.11,1c0,.42-.28.42-.76.42a11.06,11.06,0,0,0-3.24.38,5.9,5.9,0,0,0-3.38,2.88,7.58,7.58,0,0,0-1,3.68,2.73,2.73,0,0,0,1.51,2.65,5.51,5.51,0,0,0,2.17.33l.75,0c.23,0,.44,0,.44.26a3.92,3.92,0,0,1-.27,1.24c-.1.25-.23.29-.52.29-3.07,0-5.79-1.09-5.79-4.61a8.82,8.82,0,0,1,2.4-5.9c.3-.29.36-.36.36-.44s-.13-.17-.25-.17-2.57.31-3,.38c-1,.15-2,.31-3,.55a.71.71,0,0,1-.28.06c-.4,0-.54-1.47-.54-1.6,0-.36.16-.38.79-.4Z"/><path class="cls-2" d="M639.84,36.11c.14,0,.37.1.37.27s-.08.19-.2.27-.24.45-.3.8a11.51,11.51,0,0,0-.13,1.85,11.82,11.82,0,0,0,.66,4.31c.27.63,1,1.85,1.76,1.85.55,0,1.18-.9,1.43-1.34.09-.17.25-.47.48-.47s1.06.63,1.06.91-1.06,1.55-1.35,1.85a2.13,2.13,0,0,1-1.6.84,3.45,3.45,0,0,1-2.67-1.83c-1.22-1.85-1.42-4.41-1.42-6.58,0-.61.06-2.19.1-2.82,0-.17.08-.27.25-.27A13.91,13.91,0,0,1,639.84,36.11Zm8.09-.26a5.91,5.91,0,0,1,2.46,2.25,10.14,10.14,0,0,1,1.37,3.81,3,3,0,0,1,.06.59c0,.23-.06.37-.29.44a2.68,2.68,0,0,1-.91.17c-.55,0-.54-.24-.57-.61a7.27,7.27,0,0,0-2.85-5.43.36.36,0,0,1-.15-.29A1.31,1.31,0,0,1,647.93,35.85Z"/><path class="cls-2" d="M662.1,33.25c.3,0,.63.06.63.27a.4.4,0,0,1-.12.27c-.09.13-.21.38-.21,1.52,0,.27.14.46.4.46a3.42,3.42,0,0,0,.44,0,23.49,23.49,0,0,0,3.13-.65,1.63,1.63,0,0,1,.33,0c.38,0,.41.95.41,1.22s-.13.38-.66.49c-1,.21-2.12.35-3.13.48-.38,0-.88,0-.88.57,0,1.6.17,1.76.42,1.76a16.75,16.75,0,0,0,2.63-.52,1.7,1.7,0,0,1,.31-.06c.28,0,.27.61.27.82,0,.65-.06.79-.39.86a19.94,19.94,0,0,1-2.4.38c-.49.06-.72.08-.72.61,0,2.24.09,2.16.66,2.33a10.63,10.63,0,0,1,2.48,1.11c.27.15.92.49.92.82s-.55,1.18-.94,1.18c-.19,0-.4-.19-.55-.3A7.33,7.33,0,0,0,663,45.52c-.31,0-.33.32-.37.55-.26,1.6-1.92,2.12-3.35,2.12s-3-.67-3-2.33c0-1.87,2.12-2.37,3.61-2.37.34,0,.88,0,.91,0,.37,0,.33-.38.33-.55,0-1.37,0-1.72-.46-1.72-.78,0-1.77.06-2.65.06-.52,0-.9,0-1-.21a2.81,2.81,0,0,1-.25-1.11c0-.21.08-.34.29-.34,0,0,1.35.12,2.25.12,1.35,0,1.73,0,1.73-.5,0-1.39-.11-1.79-.49-1.79-.63,0-2.5.11-4.31.11-.78,0-.92-.11-.92-1.18,0-.29,0-.5.33-.5s1.81.12,3,.12c1.74,0,2.23,0,2.23-.5,0-.32-.11-1.66-.17-2a1.5,1.5,0,0,1-.06-.29c0-.17.12-.21.27-.21S661.83,33.21,662.1,33.25Zm-4.37,12.63c0,.76.93.91,1.51.91,1.07,0,1.89-.32,1.89-1.52,0-.4-.5-.4-1-.4C659.41,44.87,657.73,44.91,657.73,45.88Z"/><path class="cls-2" d="M678.82,32.72c.31.06,1.55,0,1.55.32a.27.27,0,0,1-.12.21A1,1,0,0,0,680,34c0,.4,0,.95,0,1.37v.13a.5.5,0,0,0,.53.52l2.73-.13c.55,0,1.85-.1,2.35-.1.34,0,.4.21.4.82,0,.92-.25.88-.44.88s-1.45-.08-2.33-.08a26,26,0,0,0-2.9.14c-.25.07-.32.36-.32.61,0,1.45,0,1.48.19,1.88a5.92,5.92,0,0,1,.57,2.62c0,3.07-2,6.35-2.75,6.35-.17,0-1.43-.36-1.43-.65,0-.12.31-.38.4-.48a6.4,6.4,0,0,0,1.62-2.5.14.14,0,0,0-.13-.13.39.39,0,0,0-.21.08,1.49,1.49,0,0,1-.61.13c-1.58,0-2.15-1.72-2.15-3,0-1.59.72-3.4,2.55-3.45.08,0,.34,0,.34-.23,0-.9-.07-1.13-.43-1.13-.54,0-5,.5-5.69.61a1.23,1.23,0,0,1-.26,0c-.33,0-.35-.21-.41-.46a4.36,4.36,0,0,1-.13-1c0-.32.15-.34.69-.36,1.81-.06,3.6-.19,5.41-.29.4,0,.73-.11.73-.61a18.87,18.87,0,0,0-.21-2.5.36.36,0,0,1,0-.15.21.21,0,0,1,.23-.21A4.78,4.78,0,0,1,678.82,32.72Zm-1.88,9.57c0,.69.19,1.76,1.06,1.76s1.15-1,1.15-1.7-.23-1.89-1.11-1.89S676.94,41.62,676.94,42.29Z"/><path class="cls-2" d="M692.73,46a2.62,2.62,0,1,1-2.61-2.61A2.62,2.62,0,0,1,692.73,46Zm-4.37,0a1.76,1.76,0,1,0,1.76-1.75A1.75,1.75,0,0,0,688.36,46Z"/><path class="cls-3" d="M54.27,5.63C50,1,45.38,0,28.68,0S7.41,1,3.1,5.63C-.4,9.38-.16,14.33.18,17.23.2,17.4,7.12,80,7.12,80H50.24s6.92-62.6,6.94-62.77c.34-2.9.59-7.85-2.91-11.6"/><path class="cls-4" d="M7.59,15.39c4.51-1.46,6-4.92,6.74-7.74l1.58.4c-.79,2.51-2.21,6.66-7.52,8.48ZM21.8,10.87a13.7,13.7,0,0,0-3.13-1.54l.63-1.18a12.3,12.3,0,0,1,3.23,1.42Zm-3,4c3.34-.24,5.95-1.29,7.4-6l1.33.64c-1.6,4.92-4.22,6.39-8.28,6.92ZM38.62,8a5.65,5.65,0,0,1-3.06,4.6l-.94-1a3.87,3.87,0,0,0,2.19-2.27H29.73V8ZM30,15.46c1.94-.76,3.13-1.86,3.11-5.38l1.48,0c-.09,2.91-.84,5.09-3.71,6.43Zm12.72-4.92a15.25,15.25,0,0,1-.33,3.28,5.43,5.43,0,0,1-1.59,2.93l-1.12-1c.57-.55,1.64-1.58,1.64-5V8h1.4Zm2.79,4.24a3.31,3.31,0,0,0,1.83-1.47A6.11,6.11,0,0,0,48.15,11l1.27.55c-.58,2.85-2.46,4.84-5.3,4.87V7.69h1.36ZM39.4,33.45c-2.06,0-3.52,1.5-3.52,3.92v12c0,2.43,1.46,3.88,3.52,3.88s3.47-1.45,3.47-3.88v-12c0-2.42-1.41-3.92-3.47-3.92M54.27,5.63C50,1,45.38,0,28.68,0S7.41,1,3.1,5.63C-.4,9.39-.15,14.33.18,17.23.2,17.4,7.12,80,7.12,80H50.24s6.92-62.6,6.94-62.77c.34-2.9.59-7.84-2.91-11.6M19.22,33.45c-1.74,0-3.52.89-3.52,3.68H10.45c0-5.25,3.84-8.41,8.77-8.41,5.09,0,8.74,3.2,8.74,8.37,0,2.79-1.1,4.29-3.08,6.59l-8,9.34H28v4.73H10.45V53L21.2,40.53a5,5,0,0,0,1.5-3.48,3.28,3.28,0,0,0-3.48-3.6m28.91,16c0,5.5-4,8.57-8.73,8.57s-8.78-3.07-8.78-8.57V37.29c0-5.5,4.08-8.57,8.78-8.57s8.73,3.07,8.73,8.57Zm6.12-32.94c-.42,3.56-6.18,7.9-14.42,7.9-10.7,0-12.94-4.36-23.75-4.84-4.88-.21-9.39.93-12.24,2.83C3.34,18.05,2,11.17,5.37,7.65s6.8-4.93,23.34-4.93S48.94,4.2,52.15,7.57c2.33,2.46,2.42,6.09,2.1,8.91"/><path class="cls-3" d="M28.38,63a13.94,13.94,0,0,1,2.2,2.66l-1.15.88a15.58,15.58,0,0,0-2.06-2.75Z"/><path class="cls-3" d="M13.82,71a4.67,4.67,0,0,0,.66-1.94l.83.13a4.58,4.58,0,0,1-.73,2.24Z"/><path class="cls-3" d="M16.69,71.22a.66.66,0,0,1-.75.77h-.75L15,71h.5c.19,0,.21-.06.21-.17V68.68H14.37v-1h3.52v1h-1.2Z"/><path class="cls-3" d="M18.2,70.17l-.85.33a5.06,5.06,0,0,0-.44-1.31l.75-.23a6.32,6.32,0,0,1,.54,1.21"/><path class="cls-3" d="M21.14,69.56c-.1.36-.33,1.15-.58,1.15s-.43-.41-.52-.6a8.3,8.3,0,0,0,1.2-2.41l-.88-.43a6.64,6.64,0,0,1-.79,1.7A9.44,9.44,0,0,1,19.26,67h2.5V65.94h-.51c-.05-.11-.15-.36-.24-.56h.75v-1h-4v-.51H21v-.93H17.75v-.39H16.47v1.83H15V62.84H13.71v1.51H12.14v1H18c0,.09,0,.49,0,.56H12.8v2.23a4.82,4.82,0,0,1-.81,3.1l.95,1A6.62,6.62,0,0,0,14,68.37V67h4.09a11.08,11.08,0,0,0,.63,3,7.83,7.83,0,0,1-1.86,1.29l.65.92a10.08,10.08,0,0,0,1.7-1.16c.27.48.75,1.16,1.41,1.16.91,0,1.24-1.4,1.3-1.71Zm-1.93-4.18h.58c0,.06.14.3.26.56h-.84v-.56"/><path class="cls-3" d="M24.23,70.08c.26-.08.42-.12.95-.3l-.05-7.08,1.34,0,0,6.62c1.74-.66,1.94-.73,2.55-1l.24,1.15a51,51,0,0,1-4.81,2Z"/><path class="cls-3" d="M33.09,72.19a12.21,12.21,0,0,0-1.49-2.08,7,7,0,0,1-3.34,2.11L27.53,71c4.15-1,4.25-4.29,4.28-6.09l0-2.15h1.39l0,2.3a8.77,8.77,0,0,1-.86,4,14.53,14.53,0,0,1,1.78,2Z"/><polygon class="cls-3" points="45.67 71.87 36.01 71.87 36.01 70.56 39.95 70.56 39.95 62.53 41.3 62.53 41.3 65.43 45.06 65.43 45.06 66.75 41.3 66.75 41.3 70.56 45.67 70.56 45.67 71.87"/></g></g></svg>