<svg xmlns="http://www.w3.org/2000/svg" viewBox="0 0 225.21 77.51"><g id="レイヤー_2" data-name="レイヤー 2"><g id="Q_A" data-name="Q&amp;A"><path d="M76.45,77.42H62.85l-5.61-5.75a36.18,36.18,0,0,1-20,5.75A37.33,37.33,0,0,1,12,67.77Q0,57.15,0,40.63q0-16.19,11.36-27A36.6,36.6,0,0,1,37.43,3.15a36.71,36.71,0,0,1,24.45,9.19q13,11,13,28.8,0,13.92-10.25,24.73ZM46.71,47.78,57.1,58.12A24.5,24.5,0,0,0,64,40.45a26.47,26.47,0,0,0-7.66-19.34,25.56,25.56,0,0,0-19-7.8q-11.5,0-18.92,7.8T10.9,40.73q0,11.6,7.7,19a25.91,25.91,0,0,0,18.32,7.61,25.35,25.35,0,0,0,12.67-3.2L32.75,47.78Z"/><path d="M116.31,36.27l12.9,15.59.41-.46c1.4-1.52,2.71-3,3.95-4.46s2.43-2.92,3.57-4.4l7.05,7.23c-.87,1.24-2,2.68-3.41,4.32s-3.08,3.52-5,5.66L149,76.12H135.56l-7.14-8.77Q118.58,77.51,108,77.51a23,23,0,0,1-16.14-6.07,20,20,0,0,1-6.49-15.13q0-10.71,10.29-17.81l4.69-3.2a2.38,2.38,0,0,0,.32-.23l.65-.51Q94.19,27,94.19,19.67A15.61,15.61,0,0,1,98.92,7.88a17.42,17.42,0,0,1,12.43-4.54,17.39,17.39,0,0,1,12.2,4.41,14.43,14.43,0,0,1,4.82,11.13,14.29,14.29,0,0,1-2.64,8.4Q123.14,31,116.31,36.27Zm-8.58,6.08-.6.42a52.13,52.13,0,0,0-9,7.37A9,9,0,0,0,95.72,56a12.22,12.22,0,0,0,11.73,11.73q6.27,0,14.43-8.21Zm2.32-13.68.88-.65c1.52-1.15,2.77-2.14,3.76-3a14.4,14.4,0,0,0,2.13-2.16,6.48,6.48,0,0,0,1.39-4.22,6,6,0,0,0-1.9-4.6,7.23,7.23,0,0,0-5.1-1.76,7,7,0,0,0-4.92,1.81,5.55,5.55,0,0,0-2,4.41,9.76,9.76,0,0,0,2.5,6.21L109.49,28A5.52,5.52,0,0,0,110.05,28.67Z"/><path d="M205.86,58.72H175.2l-8,17.4H155.58L191,0l34.19,76.12H213.38Zm-4.4-10.15L190.83,24.21,179.7,48.57Z"/></g></g></svg>