<svg xmlns="http://www.w3.org/2000/svg" viewBox="0 0 45 36.55"><g data-name="レイヤー 2"><path d="M14.15 36.55c17 0 26.24-14 26.24-26.24V9.12A19 19 0 0 0 45 4.31a18.7 18.7 0 0 1-5.3 1.45 9.28 9.28 0 0 0 4-5.07 18.61 18.61 0 0 1-5.86 2.23 9.23 9.23 0 0 0-15.72 8.42 26.21 26.21 0 0 1-19-9.64A9.23 9.23 0 0 0 6 14a9.26 9.26 0 0 1-4.18-1.16V13a9.23 9.23 0 0 0 7.4 9 9.28 9.28 0 0 1-4.16.16 9.24 9.24 0 0 0 8.62 6.42 18.52 18.52 0 0 1-11.45 4A18.44 18.44 0 0 1 0 32.41a26.09 26.09 0 0 0 14.15 4.14" data-name="レイヤー 1"/></g></svg>