<svg xmlns="http://www.w3.org/2000/svg" viewBox="0 0 512 512"><g data-name="レイヤー 2"><g data-name="Layer 1"><path d="M373.66 0H138.34C62.06 0 0 62.06 0 138.34v235.32C0 449.94 62.06 512 138.34 512h235.32C449.94 512 512 449.94 512 373.66V138.34C512 62.06 449.94 0 373.66 0zm97 373.66a97.1 97.1 0 0 1-97 97H138.34a97.1 97.1 0 0 1-97-97V138.34a97.1 97.1 0 0 1 97-97h235.32a97.1 97.1 0 0 1 97 97z"/><path d="M370.59 238.14a114.84 114.84 0 0 0-96.73-96.73 114.82 114.82 0 0 0-85.24 205.79 114 114 0 0 0 68.15 22.61 116 116 0 0 0 17.09-1.26 114.82 114.82 0 0 0 96.73-130.41zm-102.8 89.49a73.44 73.44 0 1 1 61.88-83.42 73 73 0 0 1-61.88 83.42zM400.05 112a20.68 20.68 0 1 0 6.06 14.63 20.83 20.83 0 0 0-6.06-14.63z"/></g></g></svg>