<svg data-name="基本形（タテ組）" xmlns="http://www.w3.org/2000/svg" viewBox="0 0 100 125.86"><path d="M80.79 118a4.65 4.65 0 0 0 2.15-1.56 4.56 4.56 0 0 0 .83-2.87c0-1.67-.57-5-5.38-5h-6.88v.48c.47 0 .85.21.85.7v14.55c0 .46-.45.64-.85.65v.48H77V125c-.42 0-1-.24-1-.74v-5.72h1.35l3.1 6.93h4.44V125a1.07 1.07 0 0 1-1.11-.65l-3-6.29m-3.67-1.53H76v-5.88h1.17c2.15 0 2.89 1.17 2.89 3s-.8 2.85-2.94 2.85zM29.4 108.59v.48c.3 0 .85.1.85.7v14.55c0 .51-.56.65-.85.65v.48h5.5V125c-.29 0-1-.24-1-.79v-5.31h1.14c4.25 0 6.68-1.45 6.68-5.12 0-3.33-1.88-5.19-5.46-5.19H29.4m5.76 8.31h-1.24v-6.28h1.27c2 0 2.81 1.25 2.81 3.07 0 2.11-.78 3.21-2.84 3.21zM43.08 108.59v.48c.3 0 .85.1.85.7v14.55c0 .51-.56.65-.85.65v.48h5.5V125c-.3 0-1-.24-1-.79v-5.31h1.14c4.24 0 6.67-1.45 6.67-5.12 0-3.33-1.87-5.19-5.45-5.19h-6.86m5.76 8.31H47.6v-6.28h1.26c2 0 2.82 1.25 2.82 3.07 0 2.11-.78 3.21-2.84 3.21zM17.51 120.7h4.69c.31 1.07.54 1.83.84 2.78s.35 1.49-.38 1.49v.49h5.51V125c-.58 0-.89-1-1.23-1.93l-4.48-14.47h-5.08v.47c.56.05.93.1.72.88l-3.74 12.13-.61 1.71c-.27.67-.47 1.1-1.28 1.2v.47h4.64V125c-.68-.11-.73-.52-.62-.84l1-3.44m.61-2.06l1.81-6 1.74 6zM61.07 116.92a17.36 17.36 0 0 1 .44-5 2 2 0 0 1 3.76 0 17.36 17.36 0 0 1 .44 5 17.28 17.28 0 0 1-.44 5 2 2 0 0 1-3.76 0 17.28 17.28 0 0 1-.44-5m-3.91.08c0 3.47.32 5.17 1.39 6.58a5.43 5.43 0 0 0 4.84 2.26 5.43 5.43 0 0 0 4.84-2.26c1.07-1.41 1.39-3.11 1.39-6.58s-.32-5.18-1.39-6.58a5.43 5.43 0 0 0-4.84-2.26 5.43 5.43 0 0 0-4.84 2.26c-1.07 1.4-1.39 3.11-1.39 6.58zM90 116.92a17 17 0 0 1 .44-5 2 2 0 0 1 3.75 0 17.36 17.36 0 0 1 .44 5 17.28 17.28 0 0 1-.44 5 2 2 0 0 1-3.75 0 16.92 16.92 0 0 1-.44-5m-4 .08c0 3.47.32 5.17 1.39 6.58a6.32 6.32 0 0 0 9.69 0c1.07-1.41 1.39-3.11 1.39-6.58s-.32-5.18-1.39-6.58a6.32 6.32 0 0 0-9.69 0C86.35 111.8 86 113.51 86 117zM12.39 121.11a4.32 4.32 0 0 1-1.32 3.29 6.12 6.12 0 0 1-4.38 1.46 7.69 7.69 0 0 1-5.19-1.65v-3.81H2a4.93 4.93 0 0 0 4.25 3.47 2.11 2.11 0 0 0 2.27-2.17 3.45 3.45 0 0 0-1.69-2.83L4.25 117a5.46 5.46 0 0 1-2.53-4.67c.28-3.33 3.36-4.21 5.68-4.17a8.17 8.17 0 0 1 4 1v3.35H11a3.3 3.3 0 0 0-3.34-2.45 2 2 0 0 0-2.19 2.38c.18.86 1.12 1.52 2 2.22l2.37 1.78a5.71 5.71 0 0 1 2.55 4.67z"/><path fill="#f3be00" d="M50 0l11.8 36.33H100L69.1 58.77 80.9 95.1 50 72.65 19.1 95.1l11.8-36.33L0 36.33h38.2L50 0z"/></svg>