<svg xmlns="http://www.w3.org/2000/svg" viewBox="0 0 65.45 17.02"><g id="レイヤー_2" data-name="レイヤー 2"><g id="top"><path d="M9.28,3.27,7.43,4.37a3.24,3.24,0,0,0-1-1.18,2.4,2.4,0,0,0-1.26-.31,2.33,2.33,0,0,0-1.58.54A1.67,1.67,0,0,0,3,4.75c0,.73.55,1.32,1.64,1.77l1.5.62A6.4,6.4,0,0,1,8.82,9a4.12,4.12,0,0,1,.85,2.62A4.6,4.6,0,0,1,8.28,15a4.77,4.77,0,0,1-3.47,1.37,4.64,4.64,0,0,1-3.24-1.17A5.33,5.33,0,0,1,0,11.94l2.3-.5a4,4,0,0,0,.55,1.83,2.37,2.37,0,0,0,2.05,1,2.4,2.4,0,0,0,1.77-.71,2.47,2.47,0,0,0,.7-1.81,2.64,2.64,0,0,0-.12-.81,2,2,0,0,0-.38-.67,3,3,0,0,0-.67-.58,5.93,5.93,0,0,0-1-.51L3.77,8.55C1.71,7.68.67,6.41.67,4.73A3.67,3.67,0,0,1,2,1.88,4.76,4.76,0,0,1,5.21.73,4.53,4.53,0,0,1,9.28,3.27Z"/><path d="M24,1.84V4.53A6.29,6.29,0,0,0,20,2.88,5.23,5.23,0,0,0,16,4.55a5.66,5.66,0,0,0-1.6,4.06,5.53,5.53,0,0,0,1.6,4A5.33,5.33,0,0,0,20,14.25a4.82,4.82,0,0,0,2-.39,5.87,5.87,0,0,0,1-.53,10.92,10.92,0,0,0,1.06-.8v2.74a8.18,8.18,0,0,1-4.1,1.11,7.61,7.61,0,0,1-5.52-2.26,7.51,7.51,0,0,1-2.27-5.49A7.71,7.71,0,0,1,14,3.5,7.82,7.82,0,0,1,24,1.84Z"/><path d="M36,3.16h-6V6.79H35.8V8.93H29.93v5h6V16.1H27.65V1H36Z"/><path d="M39.62,16.1V0l11,11.5V1h2.27V17L41.9,5.55V16.1Z"/><path d="M65.45,3.16h-6V6.79h5.87V8.93H59.41v5h6V16.1H57.13V1h8.32Z"/></g></g></svg>