<svg xmlns="http://www.w3.org/2000/svg" viewBox="0 0 557.57 29.37"><defs><style>.cls-1{fill:#231815;}</style></defs><g id="レイヤー_2" data-name="レイヤー 2"><g id="product"><path class="cls-1" d="M12.9,1.65c0,.17-.13.26-.23.36-.62.4-.69.66-1.15,2.35L11,6.17a1.29,1.29,0,0,0-.06.36.41.41,0,0,0,.43.4,9,9,0,0,0,1.22-.3,18.9,18.9,0,0,0,2.9-1,2.78,2.78,0,0,1,.89-.27c.56,0,.53,1.32.53,1.72,0,.66,0,1.06-.43,1.22a42.79,42.79,0,0,1-5.41,1.32C10,9.9,9.87,9.93,9.54,11A103.2,103.2,0,0,1,3.33,25.71C2.94,26.47,2.71,27,2.21,27S0,26.14,0,25.51a2.45,2.45,0,0,1,.53-1c2.08-2.94,5-10,6.24-13.5a1.43,1.43,0,0,0,.06-.3.45.45,0,0,0-.49-.46c-.37,0-2.15.16-3.37.16-.76,0-1.12,0-1.32-.33a6.46,6.46,0,0,1-.3-2c0-.36.1-.56.5-.56.23,0,1.55.17,2.94.17.75,0,1.48,0,2.21-.1a1,1,0,0,0,.79-.3c.49-.56,1.39-5.31,1.42-6.24,0-.36,0-.79.36-.79C9.6.33,12.9,1.09,12.9,1.65Zm-1.25,21c1.49,1.62,4,1.85,6,1.85a14.12,14.12,0,0,0,4.56-.63.83.83,0,0,1,.26,0c.56,0,.56.86.56,1.72,0,.56,0,1.15-.36,1.32a25.44,25.44,0,0,1-4.82.39c-2.11,0-5.08-.2-6.9-1.35-.46-.3-1.58-1.12-1.58-1.75,0-.46,1.18-2,1.65-2C11.25,22.18,11.52,22.48,11.65,22.64Zm4.16-11a20.22,20.22,0,0,1,6.3.89.56.56,0,0,1,.4.6,7.21,7.21,0,0,1-.4,1.71c-.13.3-.26.46-.59.46a2.52,2.52,0,0,1-.63-.19,14.22,14.22,0,0,0-5-.76l-1.29,0c-.66,0-.76-.23-.76-.76C13.83,11.52,14.23,11.65,15.81,11.65Zm6.4-5.51c0,.46-1,1.29-1.45,1.29-.2,0-.33-.2-.46-.37a32.48,32.48,0,0,0-2.25-2.6A.73.73,0,0,1,17.79,4c0-.33,1.06-1.15,1.39-1.15A13.79,13.79,0,0,1,22.21,6.14Zm3.3-1.95c0,.43-1,1.29-1.42,1.29-.23,0-.36-.2-.49-.36a25,25,0,0,0-2.25-2.61.74.74,0,0,1-.26-.43c0-.36,1.06-1.19,1.39-1.19A13.25,13.25,0,0,1,25.51,4.19Z"/><path class="cls-1" d="M41.72,2.34c.26.07.85.2.85.56a.64.64,0,0,1-.29.47c-.53.43-.63,1.09-.79,2.17-.07.5-.17,1-.3,1.69,0,.1,0,.26,0,.36a.56.56,0,0,0,.59.6c.23,0,1.09-.07,1.72-.07,3.4,0,4.72,2,4.72,5.21,0,3-.53,7.36-1.95,10a6.46,6.46,0,0,1-5.94,3.46,1.27,1.27,0,0,1-1.36-.69,4.63,4.63,0,0,1-.52-1.88c0-.23.1-.43.36-.43s.86.13,1.58.13A3.42,3.42,0,0,0,44,21.68a19.79,19.79,0,0,0,1.49-7.59c0-1.85-.14-3.46-2.41-3.46s-2.61.39-2.81,1.15a36.79,36.79,0,0,1-4.29,10.14,39.88,39.88,0,0,1-3.27,4.68.9.9,0,0,1-.56.27c-.49,0-2.08-1-2.08-1.59,0-.26.27-.53.47-.72a28.57,28.57,0,0,0,6.79-12,2.7,2.7,0,0,0,.14-.56.38.38,0,0,0-.4-.36A33.86,33.86,0,0,0,32.44,13a1.61,1.61,0,0,1-.36.1c-.69,0-1.25-2.45-1.25-2.74,0-.47.56-.43.85-.47,1.62-.13,4.06-.79,5.75-1.08,1-.2,1-.66,1.12-1.62a28.86,28.86,0,0,0,.3-3.73,6.79,6.79,0,0,0-.07-1.19V2.15c0-.2.1-.4.33-.4S41.29,2.24,41.72,2.34ZM56.3,13c0,.59-1.58,1.55-2.17,1.55-.4,0-.56-.36-.7-.69A22.57,22.57,0,0,0,49.11,7a.84.84,0,0,1-.26-.53c0-.53,1.48-1.39,2-1.39C51.92,5.08,56.3,12.24,56.3,13Z"/><path class="cls-1" d="M68,8c.23.07.56.17.56.43a.37.37,0,0,1-.2.33c-.56.43-.62.6-.75,1.49-.27,1.85-.6,3.7-1,5.54,0,.14,0,.27,0,.4a.3.3,0,0,0,.27.33.74.74,0,0,0,.43-.2c2.28-1.95,5.05-3.53,8.12-3.53,3.92,0,7,2.54,7,6.6,0,5.18-4.65,7-8.94,8a18.4,18.4,0,0,1-2.54.46c-.63,0-.8-.23-1.06-.76a4.94,4.94,0,0,1-.5-1.68c0-.5.47-.5.83-.53a26.82,26.82,0,0,0,4.39-.73c2.54-.66,5-1.78,5-4.82,0-2.47-2-3.89-4.32-3.89-3.63,0-7.16,2.87-9.34,5.58-.23.3-.53.69-1,.69-.2,0-2-.26-2-1.12,0,0,.62-2,.79-2.81a47.65,47.65,0,0,0,1-7.49c0-.56,0-1,.07-1.42,0-1.15,0-1.58.52-1.58A19.93,19.93,0,0,1,68,8Zm1-7a28.73,28.73,0,0,1,3.9,2.18c.46.3,1.88,1.09,1.88,1.59S73.75,6.8,73.19,6.8c-.33,0-.69-.36-.92-.56a23.86,23.86,0,0,0-4-2.71c-.36-.2-.75-.33-.75-.66S68.37.92,69,.92Z"/><path class="cls-1" d="M96,25.71c0,.56-1.29,2.08-1.92,2.08-.29,0-.49-.26-.66-.5a19.88,19.88,0,0,0-5-4.38c-.23-.17-.53-.3-.53-.63a3.27,3.27,0,0,1,1.78-1.85C90.52,20.43,96,24.92,96,25.71Z"/><path class="cls-1" d="M132.33,4.42a5.73,5.73,0,0,1,2,2.05.32.32,0,0,1-.36.33c-.16,0-.3-.1-.46-.1a.65.65,0,0,0-.4.16A18.51,18.51,0,0,1,131,8.55a.78.78,0,0,0-.33.56.69.69,0,0,0,.27.53,29,29,0,0,0,3.73,2.7c.29.17.82.47.82.83s-1,1.62-1.55,1.62a2.53,2.53,0,0,1-.89-.43,31,31,0,0,1-6-4.85c-.07,0-.14-.1-.2-.1s-.23.13-.23.29c0,.63,0,1.09-.76,1.09s-1.82-.06-2.71-.06h-4.45c-.9,0-1.79.06-2.71.06s-.73-.46-.73-1.09c0-.16-.1-.29-.26-.29a.51.51,0,0,0-.2.06,39.55,39.55,0,0,1-5.94,4.79,3.25,3.25,0,0,1-1.42.72c-.56,0-1.45-1.05-1.45-1.51s.63-.7,1-.9a34.45,34.45,0,0,0,3.89-2.77.72.72,0,0,0,.33-.59.77.77,0,0,0-.3-.56c-.69-.63-1.25-1.09-1.68-1.42-.73-.63-1.06-.89-1.06-1.16a2.29,2.29,0,0,1,1.52-1.38c.4,0,2.54,2,3,2.37a.82.82,0,0,0,.6.27.84.84,0,0,0,.62-.3c.43-.46,2.41-2.74,2.41-3.2,0-.23-.33-.27-.82-.27h-4.36c-1.09,0-2.21.07-3.33.07-.63,0-.66-.33-.66-1.22s0-1.22.66-1.22c1,0,2.21.06,3.33.06h4.19c.89,0,1.59,0,2.11,0a2,2,0,0,1,1.46.36,3,3,0,0,1,.76,1.49c0,1-2.41,3.93-3.14,4.72a.49.49,0,0,0-.1.3c0,.26.2.36.43.36.63,0,1.29,0,1.92,0h4.45c.66,0,1.32,0,2,0,.23,0,.43-.1.43-.36a.35.35,0,0,0-.13-.3,37.28,37.28,0,0,1-4.19-6,2.09,2.09,0,0,1-.33-.73C121,.63,122.33,0,122.76,0s.53.33,1,1.12c.3.5.66,1.16,1.22,2,.2.23.36.4.66.4a1,1,0,0,0,.56-.23c.76-.66,1.39-1.29,2.11-2,.07-.06.23-.26.37-.26s.66.46,1.28,1,.8.79.8,1a.31.31,0,0,1-.33.3l-.2,0-.27,0a.47.47,0,0,0-.39.2c-.7.59-1.26,1.09-2,1.68a.86.86,0,0,0-.37.63.9.9,0,0,0,.27.56l.69.76a.71.71,0,0,0,.5.23.8.8,0,0,0,.46-.16,29.76,29.76,0,0,0,2.8-2.41C132,4.59,132.2,4.42,132.33,4.42Zm-10.53,22c.73,0,1-.07,1.39-.69a23.31,23.31,0,0,0,2-4c.07-.2.17-.39.36-.39a5.51,5.51,0,0,1,.83.29c.66.27,1.81.66,1.81,1.09,0,.27-.33.3-.56.33a.61.61,0,0,0-.46.3c-.39.86-.76,1.52-1.22,2.34a.54.54,0,0,0-.1.33c0,.3.26.4.53.43h3.46c1.32,0,2.65-.07,4-.07.72,0,.72.33.72,1.26s0,1.29-.72,1.29c-1.32,0-2.65-.1-4-.1H111.74c-1.32,0-2.65.1-4,.1-.69,0-.72-.33-.72-1.26s0-1.29.72-1.29c1.32,0,2.64.07,4,.07h3.36c.1,0,.63,0,.63-.49a.82.82,0,0,0-.07-.3,25.77,25.77,0,0,0-1.58-2.71.93.93,0,0,1-.2-.53c0-.62,1.49-1.05,1.88-1.05s.5.23.66.49c.46.76.89,1.55,1.32,2.35a4.51,4.51,0,0,1,.7,1.81c0,.2,0,.4.23.43Zm7.2-7.76c0,.47,0,.86,0,1.23,0,1-.53,1.25-1.49,1.25l-2.11,0h-9.24l-2.08,0c-.89,0-1.52-.16-1.52-1.19,0-.43,0-.86,0-1.29v-3.1c0-.39,0-.82,0-1.25,0-1,.56-1.19,1.46-1.19.72,0,1.45,0,2.14,0h9.24c.69,0,1.39,0,2.11,0,.9,0,1.49.16,1.49,1.19,0,.43,0,.86,0,1.25Zm-3.5.2a.94.94,0,0,0,.92-.92V16.27a.89.89,0,0,0-.92-.89h-9.41a.89.89,0,0,0-.89.89v1.62a.89.89,0,0,0,.89.92Z"/><path class="cls-1" d="M143,10.73c0-.66-.26-.93-.92-.93H142c-.79,0-1.91.07-2.31.07-.66,0-.63-.46-.63-1.29s0-1.29.63-1.29c.49,0,1.45,0,2.31,0h.1c.66,0,.92-.27.92-.89V3.76c0-.89-.06-1.85-.13-2.74,0-.1,0-.26,0-.36,0-.36.26-.43.56-.43.63,0,1.25.1,1.88.13s1.19.1,1.19.47-.17.29-.46.49-.4.59-.4,1.75V6.44c0,.62.26.89.89.89h.23c.86,0,1.78,0,2.31,0s.63.4.63,1.29,0,1.29-.63,1.29-1.52-.07-2.31-.07h-.23c-.63,0-.89.27-.89.93V17.2c0,.33.1.62.49.62a2.9,2.9,0,0,0,1-.43,16.47,16.47,0,0,1,1.95-.92c.49,0,.66,1.32.66,1.68a.81.81,0,0,1-.4.76c-.1.07-2.91,1.45-3.14,1.55-1.65.76-3.3,1.52-5,2.21-.53.24-.59.27-.66.5s-.16.59-.46.59-.43-.29-.73-1a10.67,10.67,0,0,1-.63-1.79c0-.39.43-.43.73-.52a22.83,22.83,0,0,0,2.77-1,1.13,1.13,0,0,0,.76-1.23Zm18.62,9.5a21.48,21.48,0,0,1-5.48,7.59c-.36.33-1.75,1.55-2.18,1.55a1.74,1.74,0,0,1-1.29-1.22c0-.33.5-.66.73-.86a20,20,0,0,0,6-6.83.82.82,0,0,0,.07-.29c0-.4-.3-.47-.63-.5h-.63a1.09,1.09,0,0,0-1.18.59,19.81,19.81,0,0,1-6.27,6.54,1.38,1.38,0,0,1-.7.33,1.78,1.78,0,0,1-1.25-1.29c0-.33.53-.59.79-.76a18.47,18.47,0,0,0,5-4.72.48.48,0,0,0,.1-.29c0-.3-.27-.4-.5-.4h-.43a1.32,1.32,0,0,0-1.25.53,18.35,18.35,0,0,1-3.57,3.2,2.59,2.59,0,0,1-1.09.56c-.46,0-1.25-.89-1.25-1.35s.43-.6.76-.83a17.26,17.26,0,0,0,5.35-5.54.58.58,0,0,0,.09-.3c0-.36-.29-.46-.56-.46-1.09,0-2.14.07-3.23.07-.69,0-.66-.53-.66-1.19s0-1.22.66-1.22c1.25,0,2.51.06,3.76.06h10.83c1.25,0,2.51-.06,3.76-.06.69,0,.69.46.69,1.22s0,1.19-.69,1.19c-1.25,0-2.51-.07-3.76-.07h-7.3a.84.84,0,0,0-.92.53,2.17,2.17,0,0,0-.36.86c0,.33.23.42.52.46h7.2c.79,0,1.55-.07,2.31-.07,1.09,0,1.42.5,1.42,1.52a33.63,33.63,0,0,1-1,8.18c-.76,2.18-2.41,2.28-4.43,2.28-1.38,0-1.94.07-1.94-2,0-.4.06-.69.49-.69.17,0,.36,0,.5,0a10.1,10.1,0,0,0,1.35.1c.82,0,1.29-.07,1.62-.93a22.92,22.92,0,0,0,.76-5.41c0-.69-.33-.69-1.29-.66A.8.8,0,0,0,161.61,20.23Zm3.33-11.65c0,.5,0,1,0,1.45,0,1.09-.46,1.46-1.51,1.46-.7,0-1.36-.07-2.05-.07h-6c-.67,0-1.32.07-2,.07-1,0-1.55-.3-1.55-1.39,0-.5,0-1,0-1.52V3.83c0-.53,0-1,0-1.55,0-1.06.56-1.36,1.55-1.36.66,0,1.35,0,2,0h6c.66,0,1.32,0,2,0,1,0,1.55.27,1.55,1.39,0,.5,0,1,0,1.52Zm-3.33-3.33a.76.76,0,0,0,.79-.79V3.8a.76.76,0,0,0-.79-.8h-6.37a.76.76,0,0,0-.79.8v.66a.76.76,0,0,0,.79.79ZM155.24,7.1a.76.76,0,0,0-.79.79v.69a.77.77,0,0,0,.79.83h6.37a.77.77,0,0,0,.79-.83V7.89a.76.76,0,0,0-.79-.79Z"/><path class="cls-1" d="M177.58,25.71c0,.56-1.29,2.08-1.92,2.08-.29,0-.49-.26-.66-.5a19.88,19.88,0,0,0-5-4.38c-.23-.17-.53-.3-.53-.63a3.27,3.27,0,0,1,1.78-1.85C172.07,20.43,177.58,24.92,177.58,25.71Z"/><path class="cls-1" d="M194.21,9.47c.86,0,1.09-.53,1.09-.86V6a26.67,26.67,0,0,0-.1-2.83,3.2,3.2,0,0,1,0-.53c0-.23.13-.3.36-.3.56,0,2,.17,2.61.26.16,0,.59.1.59.37a.51.51,0,0,1-.2.33c-.43.49-.39.56-.39,2.67V8.58a.85.85,0,0,0,.85.89h6.67a.88.88,0,0,0,.89-1V7.66c0-1.13-.06-3.93-.16-4.92,0-.1,0-.26,0-.36a.39.39,0,0,1,.43-.4c.47,0,1.85.17,2.38.23s.73.1.73.4a.32.32,0,0,1-.14.26c-.16.13-.33.3-.36,1.06,0,1.38,0,2.77,0,4.19v.23c0,.66.26,1.12,1,1.12h1.12c1.25,0,2.74-.06,3.93-.06.66,0,.79.33.79,1.35,0,1.22-.13,1.48-.86,1.48-1.29,0-2.58-.09-3.86-.09h-1.12c-.73,0-1,.42-1,1.12a6.26,6.26,0,0,1,0,.86,27.53,27.53,0,0,1-.76,6.37,9.91,9.91,0,0,1-3.13,4.81c-1.19,1-4.19,2.94-4.92,2.94a3.86,3.86,0,0,1-2-1.85c0-.26.3-.39.49-.49,6.54-2.77,7.5-5.88,7.5-12.64,0-.56-.2-1.12-.86-1.12H199a.87.87,0,0,0-.85.89v3.83c0,.79.06,1.61.06,2.44,0,1.15-.29,1.15-1.55,1.15-1,0-1.42,0-1.42-.86s.07-1.81.07-2.73v-3.8a.94.94,0,0,0-.93-.92h-1.15c-1.29,0-2.58.09-3.83.09-.79,0-.79-.62-.79-1.32,0-1,0-1.51.79-1.51,1.25,0,2.54.06,3.83.06Z"/><path class="cls-1" d="M225.6,11.09A19.35,19.35,0,0,1,227,13.14a10.8,10.8,0,0,1,1.35,2.5c0,.63-1.45,1.23-1.85,1.23s-.46-.27-.59-.53a33,33,0,0,0-2.25-3.8,1,1,0,0,1-.26-.56c0-.53,1.32-1.15,1.68-1.15A.67.67,0,0,1,225.6,11.09ZM242,10.43c.23.1.46.23.46.49a.54.54,0,0,1-.37.5c-.23.2-.23.26-.36.66-1.91,6.34-4.69,11.19-11,14a17.49,17.49,0,0,1-3.34,1.12c-.56,0-1.48-1.35-1.48-1.81s.39-.5.86-.63c5.34-1.52,8.78-4.09,11.09-9.21a18.56,18.56,0,0,0,1.55-5.28c.06-.26.06-.56.43-.56a10.87,10.87,0,0,1,1.78.59Zm-8.19.82a13.16,13.16,0,0,1,1.39,2.55c0,.59-1.46,1.22-1.85,1.22s-.5-.33-.66-.63a37.17,37.17,0,0,0-2.18-3.66,1.18,1.18,0,0,1-.3-.6c0-.53,1.32-1.15,1.72-1.15C232.5,9,233.29,10.43,233.82,11.25Z"/><path class="cls-1" d="M257.89,16.37c0,.2-.23.26-.4.33-.56.13-.62.17-1.05.73-.7.92-4.56,5.41-5.51,5.41-.5,0-1.85-1.19-1.85-1.72,0-.29.49-.59.72-.76a19.31,19.31,0,0,0,4.56-5c.2-.36.36-.69.62-.69S257.89,15.88,257.89,16.37Zm2.51-7.72a.93.93,0,0,0,.92-1V7.06c0-1.35-.06-2.67-.16-4,0-.14,0-.27,0-.4,0-.33.27-.43.57-.43a14.43,14.43,0,0,1,2,.27c.56.06,1.15.09,1.15.46,0,.16-.13.26-.23.36-.43.43-.46.56-.46,2V7.62a.93.93,0,0,0,.89,1h5.64c1.39,0,2.77-.07,4.13-.07.82,0,.82.36.82,1.49,0,.95,0,1.35-.82,1.35-1.39,0-2.74-.1-4.13-.1h-5.61a1,1,0,0,0-.92,1v10.1c0,1.75,0,3.2-1.75,4.09a8.65,8.65,0,0,1-3.14.86c-.95,0-1.55-2-1.55-2.31,0-.56.76-.5,1.19-.53,2.57-.17,2.44-1.45,2.44-3.93V12.28a1,1,0,0,0-1-1h-5.47c-1.36,0-2.71.1-4.06.1-.8,0-.8-.53-.8-1.39s0-1.48.8-1.48c1.12,0,2.67.1,4.06.1Zm13,8.84c.53.53,2.87,2.81,2.87,3.4s-1.35,1.75-1.82,1.75-.62-.39-.82-.66A31.36,31.36,0,0,0,268.71,17c-.23-.2-.56-.43-.56-.76s1.06-1.68,1.62-1.68S272.77,16.93,273.37,17.49ZM277.79,3.2a3.22,3.22,0,0,1-3.2,3.2,3.18,3.18,0,0,1-3.2-3.2,3.18,3.18,0,0,1,3.2-3.2A3.22,3.22,0,0,1,277.79,3.2Zm-5,0a1.78,1.78,0,1,0,1.78-1.78A1.77,1.77,0,0,0,272.81,3.2Z"/><path class="cls-1" d="M300.22,5.54c.82,0,1.61,0,2.41,0,1.32,0,2.11.1,2.11,1.65,0,.93,0,1.88,0,2.81V21.16c0,1.15.06,2.31.06,3.46s-.33,1-1.62,1c-1.48,0-1.35-.33-1.38-1.15s-.5-1-1.52-1H287.64c-1.48,0-1.48.2-1.55,1.48,0,.63-.59.66-1.35.66-1.29,0-1.62,0-1.62-1s.07-2.31.07-3.46V10c0-.93-.07-1.85-.07-2.81,0-1.48.73-1.65,2.05-1.65l2.47,0ZM287,8.25a1,1,0,0,0-1,1V19.87a1,1,0,0,0,1,1h13.93a1,1,0,0,0,1-1V9.21a.94.94,0,0,0-1-1Z"/><path class="cls-1" d="M327.64,26.77c-1.55,0-4,.06-4.26.06-.73,0-1-.23-1-.95,0-.3.07-3.77.07-5.62V10.5c0-.9,0-2.08,0-3.14,0-1.22-.07-2.41-.07-2.64,0-.69.2-.83,1-.83h1.12c.79,0,1,.14,1,.83,0,.23,0,1.39-.06,2.74,0,1,0,2.18,0,3V23.14c0,.82.17,1,1,1h3.37c1.58,0,4.09-.07,4.72-.07s.73.2.73,1v.82c0,.79-.14,1-.83,1-.43,0-3-.06-4.62-.06Z"/><path class="cls-1" d="M347.18,24.13c1.58,0,4.12-.07,4.72-.07s.72.2.72,1v.82c0,.79-.13,1-.82,1-.53,0-3-.06-4.62-.06h-2.12c-1.32,0-3.66.06-4.12.06-.69,0-1.09-.1-1.09-.95,0-.24.07-3.7.07-5.62V10.4c0-2-.07-5.38-.07-5.61,0-.73.23-1,1-1,.23,0,2.7.06,4.25.06h1.42c1.65,0,4.19-.06,4.62-.06.7,0,.83.2.83,1v.89c0,.79-.13,1-.83,1-.43,0-3-.1-4.62-.1h-2.7c-.83,0-1,.16-1,1v4.72c0,.82.16,1,1,1h2c1.55,0,4.19-.07,4.62-.07.7,0,.83.2.83,1V15c0,.76-.13,1-.73,1s-2.8-.06-6.76-.06c-.83,0-1,.16-1,1v6.27c0,.82.16,1,1,1Z"/><path class="cls-1" d="M360.49,19.67c0,1.82,0,4.85,0,6.07,0,.86-.17,1-1,1h-1c-.76,0-1-.14-1-.73s.17-4.22.2-6.44l.16-9.53c.07-1.75,0-4.1,0-5.35,0-.69.19-.83,1-.83h.43a1.55,1.55,0,0,1,1.61.83c.83,1.15,1.69,2.31,2.54,3.4l4.86,6.44c.26.33.43.49.59.49s.36-.16.59-.49l4.79-6.37c.86-1.16,1.72-2.28,2.54-3.47a1.59,1.59,0,0,1,1.62-.83h.46c.86,0,1,.17,1,1s0,3.5,0,5.15l.14,9.5c0,2.25.19,5.81.19,6.47s-.19.73-1,.73h-1c-.85,0-1-.17-1-1s.07-4.12,0-6l-.16-9.47c0-.33-.07-.53-.2-.53s-.27.14-.43.33l-7,9a.69.69,0,0,1-.66.36.76.76,0,0,1-.66-.36L361.25,10c-.17-.2-.3-.3-.4-.3s-.2.17-.2.5Z"/><path class="cls-1" d="M407.87,15c0,7.6-5.41,12-11.55,12-6.67,0-10.92-5-10.92-11.41,0-7,4.65-11.85,11.45-11.85S407.87,8.58,407.87,15Zm-19.47.57c0,5,3.2,8.64,8,8.64,4.59,0,8.41-3.4,8.41-9.07,0-5-3.23-8.55-8.05-8.55C391.63,6.57,388.4,10.5,388.4,15.55Z"/><path class="cls-1" d="M416.07,20.17c0,.89,0,2.08,0,3.13,0,1.22.07,2.41.07,2.64,0,.69-.2.83-1,.83h-1c-.79,0-1-.14-1-.83,0-.23,0-1.38.07-2.57s0-2.31,0-3.2V10c0-.89,0-2,0-3s-.07-2-.07-2.28c0-.69.2-.83,1-.83h.46a1.59,1.59,0,0,1,1.62.83c1,1.29,1.92,2.51,2.91,3.8l9,11.65c.17.19.3.33.4.33s.2-.2.2-.53V10.5c0-1,0-2.28,0-3.4s-.06-2.15-.06-2.38c0-.69.2-.83,1-.83h1c.79,0,1,.14,1,.83,0,.23,0,1.25-.06,2.48,0,1.08,0,2.34,0,3.3V20.66c0,.93,0,2.05,0,3s.06,2,.06,2.24c0,.69-.2.83-.86.83h-.33c-.72,0-.95-.14-1.48-.83-.86-1.22-1.75-2.34-2.71-3.56L416.66,10c-.16-.19-.3-.33-.4-.33s-.19.2-.19.53Z"/><path class="cls-1" d="M438.74,11.72c-.43,0-.63-.07-.63-.23a1.17,1.17,0,0,1,.2-.53,9.31,9.31,0,0,0,1.09-2.91c0-.29-.2-.49-.63-.59a1.75,1.75,0,0,1-1.39-1.75,2,2,0,0,1,2.15-2c1,0,1.91.59,1.91,2.24a12.73,12.73,0,0,1-1.32,5,1.12,1.12,0,0,1-1.28.8Z"/><path class="cls-1" d="M461.08,20.59c0,4-3.1,6.41-7.75,6.41a13.83,13.83,0,0,1-6.51-1.65c-.46-.27-.66-.46-.66-.76a1.79,1.79,0,0,1,.2-.66l.43-.93c.2-.42.36-.66.6-.66a1.64,1.64,0,0,1,.66.33,10.3,10.3,0,0,0,5.54,1.65c2.71,0,4.52-1.35,4.52-3.49s-2.14-3.27-4.92-4.46c-3.26-1.39-6.53-2.9-6.53-6.7s3.07-6,7.76-6a13.44,13.44,0,0,1,5.18,1.09c.49.23.69.43.69.73a1.5,1.5,0,0,1-.17.66L459.7,7.2c-.2.49-.33.69-.57.69a1.66,1.66,0,0,1-.65-.27A9,9,0,0,0,454,6.44c-2.81,0-4.32,1.32-4.32,3.13,0,2,1.68,2.87,4.78,4.23C457.91,15.28,461.08,16.83,461.08,20.59Z"/><path class="cls-1" d="M477.65,20.17c0,.89,0,2.11,0,3.2s.06,2.34.06,2.57c0,.69-.19.83-1,.83h-1.08c-.8,0-1-.14-1-.83,0-.23,0-1.25.06-2.47s0-2.38,0-3.3V10.4c0-2-.06-5.38-.06-5.61,0-.73.23-1,1-1,.23,0,2.7.06,4.25.06h1.42c1.59,0,4.19-.06,4.62-.06.7,0,.83.2.83,1v.89c0,.79-.13,1-.83,1-.43,0-3-.1-4.62-.1h-2.7c-.83,0-1,.16-1,1v4.75c0,.83.16,1,1,1h2c1.55,0,4.19-.07,4.62-.07.7,0,.83.2.83,1V15c0,.76-.13,1-.73,1s-3.17-.06-4.72-.06h-2c-.83,0-1,.16-1,1Z"/><path class="cls-1" d="M494.38,20.17c0,1,0,2.37,0,3.49s.07,2.05.07,2.28c0,.69-.2.83-1,.83H492.4c-.79,0-1-.14-1-.83,0-.2,0-1.05.07-2.11s0-2.64,0-3.66V10.43c0-1.95-.07-5.41-.07-5.64,0-.73.23-1,1-1,.23,0,2.71.06,4.26.06H499c4.16,0,7,1.59,7,6.18a7,7,0,0,1-4.29,6.7c-.43.19-.63.33-.63.52s.1.33.33.63l1.09,1.39c1.65,2.11,3.13,3.93,5.31,6.57a.84.84,0,0,1,.27.56c0,.23-.27.33-.76.33h-1.78a1.5,1.5,0,0,1-1.59-.86c-1.39-2-2.71-3.76-4.09-5.48l-1.52-2a1.55,1.55,0,0,0-1.58-.79h-1.39c-.83,0-1,.16-1,1Zm0-6c0,.82.16,1,1,1h2.38c2.67,0,5.28-1.09,5.28-4.72,0-3.34-2.15-3.9-4.33-3.9h-3.33c-.83,0-1,.17-1,1Z"/><path class="cls-1" d="M519.79,24.13c1.58,0,4.12-.07,4.72-.07s.72.2.72,1v.82c0,.79-.13,1-.82,1-.53,0-3-.06-4.62-.06h-2.12c-1.32,0-3.66.06-4.12.06-.69,0-1.09-.1-1.09-.95,0-.24.07-3.7.07-5.62V10.4c0-2-.07-5.38-.07-5.61,0-.73.23-1,1-1,.23,0,2.7.06,4.25.06h1.42c1.65,0,4.2-.06,4.62-.06.7,0,.83.2.83,1v.89c0,.79-.13,1-.83,1-.42,0-3-.1-4.62-.1h-2.7c-.83,0-1,.16-1,1v4.72c0,.82.16,1,1,1h2c1.55,0,4.19-.07,4.62-.07.7,0,.83.2.83,1V15c0,.76-.13,1-.73,1s-2.8-.06-6.76-.06c-.83,0-1,.16-1,1v6.27c0,.82.16,1,1,1Z"/><path class="cls-1" d="M537.57,24.13c1.59,0,4.13-.07,4.72-.07s.73.2.73,1v.82c0,.79-.13,1-.83,1-.52,0-3-.06-4.62-.06h-2.11c-1.32,0-3.66.06-4.12.06-.7,0-1.09-.1-1.09-.95,0-.24.06-3.7.06-5.62V10.4c0-2-.06-5.38-.06-5.61,0-.73.23-1,1-1,.23,0,2.71.06,4.26.06h1.42c1.65,0,4.19-.06,4.62-.06.69,0,.83.2.83,1v.89c0,.79-.14,1-.83,1-.43,0-3-.1-4.62-.1h-2.71c-.82,0-1,.16-1,1v4.72c0,.82.17,1,1,1h2.05c1.55,0,4.19-.07,4.62-.07.69,0,.83.2.83,1V15c0,.76-.14,1-.73,1s-2.81-.06-6.77-.06c-.82,0-1,.16-1,1v6.27c0,.82.17,1,1,1Z"/><path class="cls-1" d="M557.57,23.73a4.52,4.52,0,1,1-4.52-4.52A4.52,4.52,0,0,1,557.57,23.73Zm-7.56,0a3,3,0,1,0,3-3A3,3,0,0,0,550,23.73Z"/></g></g></svg>