<svg xmlns="http://www.w3.org/2000/svg" viewBox="0 0 606.01 29.41"><defs><style>.cls-1{fill:#231815;}</style></defs><g id="レイヤー_2" data-name="レイヤー 2"><g id="product"><path class="cls-1" d="M5.38,4c.2.1.56.26.56.53s-.1.26-.26.33c-.7.33-.86.53-1.29,1.65a33.43,33.43,0,0,0-1.72,10.2c0,.66.14,4.72.86,4.72.27,0,.5-.5.89-1.49.17-.39.53-1.62.93-1.62s1.05.43,1.05.8a3.74,3.74,0,0,1-.16.62c-.36,1.42-1.36,3.8-1.36,5.19,0,.46,0,.92,0,1.35,0,.72-.43,1-1,1.22a3.53,3.53,0,0,1-1,.3c-.46,0-.76-.66-.92-1A23.62,23.62,0,0,1,0,16.73,39.37,39.37,0,0,1,1.55,6.14c.27-.93.56-1.85.79-2.77,0-.23.14-.53.4-.53A20.53,20.53,0,0,1,5.38,4ZM18.55,3c.16.07.3.14.3.33s-.17.37-.3.53a5.11,5.11,0,0,0-.36,2.48V7.1c0,.72.06,1.22.69,1.22a25.42,25.42,0,0,0,3.5-.86,1.15,1.15,0,0,1,.49-.13c.63,0,.83,1.94.83,2.24,0,.69-1,.83-4.29,1.32-.6.1-1.09.2-1.09,1s.23,6.24.29,7.3c0,.82.43.92,1.06,1.22.93.43,4.49,2.34,4.49,3.4,0,.69-1,1.91-1.55,1.91-.33,0-.66-.33-.86-.53-.43-.43-2.34-2-2.84-2-.33,0-.39.26-.43.52C18.09,26,16,26.73,13.9,26.73c-2.45,0-5.32-1.12-5.32-4s2.51-3.86,4.92-3.86a11.87,11.87,0,0,1,1.58.1,1.23,1.23,0,0,0,.33,0c.47,0,.63-.23.63-.66,0-1.12-.16-4.55-.23-5.77,0-.37,0-1.19-.76-1.19-.16,0-2.41.13-3.66.13a25.2,25.2,0,0,1-3.34-.17c-.43-.13-.43-1.58-.43-2s0-.76.47-.76a3.8,3.8,0,0,1,.66.07c1.42.13,2.93.23,4.35.23s2.41.06,2.41-.76-.29-4.06-.43-4.95v-.3a.35.35,0,0,1,.4-.39A26.62,26.62,0,0,1,18.55,3ZM15.71,21.52a7.29,7.29,0,0,0-2-.3c-.89,0-2.7.33-2.7,1.52s1.78,1.65,2.74,1.65c1.45,0,2.34-.59,2.34-2.14A.73.73,0,0,0,15.71,21.52Z"/><path class="cls-1" d="M36.41,3.37c.3.1.76.19.76.52s-.17.33-.36.5a3.19,3.19,0,0,0-.66,2,79.91,79.91,0,0,0-.73,11.25c0,2.84.07,6.94,3.93,6.94a8.9,8.9,0,0,0,6.6-3.4,10,10,0,0,0,2-4.92c.07-.46.13-1,.56-1,.63,0,2.21,1.32,2.21,2.24a11.88,11.88,0,0,1-1.28,3.73,11.53,11.53,0,0,1-9.9,6.27A6.83,6.83,0,0,1,34,25C32.61,23,32.48,20,32.48,17.72c0-4.09.3-8.18.63-12.27a18.16,18.16,0,0,0,.07-1.95c0-.46,0-.79.46-.79A17.86,17.86,0,0,1,36.41,3.37ZM46.94,8.48c0,.43-1,1.29-1.42,1.29-.2,0-.36-.2-.46-.36a29.38,29.38,0,0,0-2.31-2.54c-.1-.14-.3-.3-.3-.47,0-.36,1.06-1.19,1.39-1.19A12.88,12.88,0,0,1,46.94,8.48Zm3.63-2.41c0,.43-1,1.32-1.42,1.32-.2,0-.33-.19-.46-.36C48,6.17,47.2,5.31,46.38,4.49c-.1-.1-.3-.27-.3-.43,0-.4,1.06-1.22,1.39-1.22A13.22,13.22,0,0,1,50.57,6.07Z"/><path class="cls-1" d="M70.62,1.91c.53.07,1.09.1,1.09.47a.66.66,0,0,1-.2.46c-.16.23-.36.66-.36,2.64,0,.46.23.79.69.79a7,7,0,0,0,.76-.06A43.08,43.08,0,0,0,78,5.08a3,3,0,0,1,.56-.1c.66,0,.72,1.65.72,2.12,0,.69-.23.66-1.15.85-1.72.37-3.67.6-5.42.83-.66.07-1.51.07-1.51,1,0,2.77.29,3,.72,3a28.89,28.89,0,0,0,4.56-.89,2.39,2.39,0,0,1,.52-.1c.5,0,.47,1,.47,1.42,0,1.12-.1,1.35-.66,1.48a35.58,35.58,0,0,1-4.16.66c-.86.1-1.26.13-1.26,1.06,0,3.86.17,3.73,1.16,4a18.57,18.57,0,0,1,4.29,1.92c.46.26,1.58.86,1.58,1.42s-1,2-1.61,2c-.33,0-.7-.33-1-.53-.66-.52-3-2.17-3.76-2.17-.53,0-.56.56-.63.95-.46,2.78-3.33,3.67-5.81,3.67s-5.21-1.16-5.21-4c0-3.23,3.66-4.09,6.23-4.09.6,0,1.52.06,1.59.06.63,0,.56-.66.56-.95,0-2.38-.07-3-.79-3-1.36,0-3.07.1-4.59.1-.89,0-1.55,0-1.78-.37a4.64,4.64,0,0,1-.43-1.91c0-.36.13-.6.49-.6.1,0,2.35.2,3.9.2,2.34,0,3,.07,3-.86,0-2.41-.2-3.1-.86-3.1-1.09,0-4.32.2-7.46.2-1.35,0-1.58-.2-1.58-2,0-.49,0-.85.56-.85s3.14.19,5.18.19c3,0,3.86,0,3.86-.85,0-.57-.19-2.88-.29-3.4A2.22,2.22,0,0,1,68,2c0-.3.2-.36.46-.36C68.84,1.62,70.16,1.85,70.62,1.91ZM63.06,23.76c0,1.32,1.62,1.59,2.61,1.59,1.85,0,3.27-.56,3.27-2.64,0-.7-.86-.7-1.78-.7C66,22,63.06,22.08,63.06,23.76Z"/><path class="cls-1" d="M103,5.48c0,.2-.46.46-.63.56a41.35,41.35,0,0,0-5.48,5.21.89.89,0,0,0-.23.5.37.37,0,0,0,.4.33,4.44,4.44,0,0,0,.56-.1,7.56,7.56,0,0,1,1.88-.23c4.23,0,8,2.54,8,7.06,0,5.61-5,8.62-10.2,8.62a7.75,7.75,0,0,1-4.72-1.32A3.69,3.69,0,0,1,91,23.2,3.82,3.82,0,0,1,95,19.54c2.08,0,4.75,1.65,4.75,4a4.07,4.07,0,0,1-.13.82.31.31,0,0,0,.33.33c.69,0,4.78-1.61,4.78-5.71,0-3.36-2.9-4.75-5.91-4.75a10.13,10.13,0,0,0-7.45,3.17c-1.23,1.19-2.38,2.48-3.5,3.76-.2.23-.33.43-.53.43-.66,0-1.92-1.42-1.92-1.88s.43-.66.66-.89A160.28,160.28,0,0,0,97.52,7.1c.17-.2.4-.4.4-.7S97.69,6,97.45,6a4.44,4.44,0,0,0-.62.1c-2,.49-4.16.86-6.24,1.25a6,6,0,0,1-.83.14C89,7.53,89,5.68,89,5.15c0-.76.17-.83,1.09-.83h.6A31.87,31.87,0,0,0,99,3.1a4.49,4.49,0,0,1,1.16-.29C101.38,2.81,103,5,103,5.48ZM95,21.72a1.55,1.55,0,0,0-1.62,1.48c0,1.36,1.82,2,2.94,2,.66,0,.93-.76.93-1.32A2.19,2.19,0,0,0,95,21.72Z"/><path class="cls-1" d="M136.72,7.16a11,11,0,0,1,3.23,8,11.6,11.6,0,0,1-6.37,10.5,12.41,12.41,0,0,1-3.4,1.22c-.69,0-1.85-1.56-1.85-2.15,0-.36.53-.4.83-.46,4.49-1,7.85-4.23,7.85-9a8.42,8.42,0,0,0-5.87-8.38,6.91,6.91,0,0,0-1.39-.3c-.86,0-.86.73-.89,1.35-.3,4.89-1.48,11-4.69,14.86a5.68,5.68,0,0,1-4.12,2.41,5.05,5.05,0,0,1-4.23-3,10.63,10.63,0,0,1-1-4.59A13.41,13.41,0,0,1,128.33,4,11.67,11.67,0,0,1,136.72,7.16Zm-12.35.2a10.67,10.67,0,0,0-6.76,10.17c0,1.45.52,4.78,2.44,4.78s3.5-3.46,4.06-4.92a28.07,28.07,0,0,0,2-9.73c0-.37-.17-.66-.53-.66A5,5,0,0,0,124.37,7.36Z"/><path class="cls-1" d="M152.12,4c.2.1.56.26.56.53s-.1.26-.27.33c-.69.33-.85.53-1.28,1.65a33.43,33.43,0,0,0-1.72,10.2c0,.66.13,4.72.86,4.72.26,0,.49-.5.89-1.49.17-.39.53-1.62.92-1.62s1.06.43,1.06.8a3.74,3.74,0,0,1-.16.62c-.37,1.42-1.36,3.8-1.36,5.19,0,.46,0,.92,0,1.35,0,.72-.43,1-1,1.22a3.53,3.53,0,0,1-1,.3c-.46,0-.76-.66-.92-1a23.47,23.47,0,0,1-1.95-10,39.37,39.37,0,0,1,1.55-10.59c.26-.93.56-1.85.79-2.77,0-.23.13-.53.4-.53A21.14,21.14,0,0,1,152.12,4Zm13.17-1c.16.07.29.14.29.33a.94.94,0,0,1-.29.53,5.11,5.11,0,0,0-.37,2.48V7.1c0,.72.07,1.22.7,1.22a25.42,25.42,0,0,0,3.5-.86,1.11,1.11,0,0,1,.49-.13c.63,0,.83,1.94.83,2.24,0,.69-1,.83-4.3,1.32-.59.1-1.08.2-1.08,1s.23,6.24.29,7.3c0,.82.43.92,1.06,1.22.92.43,4.49,2.34,4.49,3.4,0,.69-1,1.91-1.55,1.91-.33,0-.66-.33-.86-.53-.43-.43-2.35-2-2.84-2-.33,0-.4.26-.43.52-.4,2.32-2.47,3.07-4.59,3.07-2.44,0-5.31-1.12-5.31-4s2.51-3.86,4.92-3.86a12,12,0,0,1,1.58.1,1.23,1.23,0,0,0,.33,0c.46,0,.63-.23.63-.66,0-1.12-.17-4.55-.23-5.77,0-.37,0-1.19-.76-1.19-.17,0-2.41.13-3.67.13a25,25,0,0,1-3.33-.17c-.43-.13-.43-1.58-.43-2s0-.76.46-.76a3.6,3.6,0,0,1,.66.07c1.42.13,2.94.23,4.36.23s2.41.06,2.41-.76-.3-4.06-.43-4.95v-.3a.35.35,0,0,1,.4-.39A26.62,26.62,0,0,1,165.29,3Zm-2.84,18.52a7.29,7.29,0,0,0-1.95-.3c-.89,0-2.71.33-2.71,1.52s1.79,1.65,2.74,1.65c1.46,0,2.35-.59,2.35-2.14A.73.73,0,0,0,162.45,21.52Z"/><path class="cls-1" d="M182.28,25.91c0,.56-1.29,2.08-1.91,2.08-.3,0-.5-.27-.66-.5a20.34,20.34,0,0,0-5-4.39c-.23-.16-.53-.29-.53-.62a3.27,3.27,0,0,1,1.78-1.85C176.77,20.63,182.28,25.12,182.28,25.91Z"/><path class="cls-1" d="M197.69,19.57c-.63,0-.86.27-.89.89s0,1,0,1.52c0,.73-.3.79-1.38.79s-1.36-.06-1.36-.79c0-1.09,0-2.14,0-3.2V6.44c0-.83,0-1.65,0-2.45,0-1,.17-1.65,1.29-1.65.63,0,1.29,0,1.91,0h3.8c.63,0,1.15-.07,1.62-.07,1,0,1.58.23,1.58,1.55,0,.86,0,1.72,0,2.58V17.76c0,1,.06,2.11.06,3.17,0,.72-.23.82-1.35.82s-1.35-.1-1.35-.82v-.6c0-.53-.27-.76-.79-.76Zm4-13.89a.88.88,0,0,0-.89-.93h-3.07a1,1,0,0,0-.92.93V8.75a.94.94,0,0,0,.92.92h3.07a.87.87,0,0,0,.89-.92Zm-.89,11.42a.88.88,0,0,0,.89-.93V12.91c0-.57-.33-.83-.89-.9h-3.07a.87.87,0,0,0-.92.9v3.26a1,1,0,0,0,.92.93Zm10.36.89c-.66,0-.92.23-1,.86a18.59,18.59,0,0,1-4.62,9.86c-.26.27-.56.63-1,.63-.56,0-1.78-1.09-1.78-1.68,0-.27.3-.53.59-.83,3.83-3.86,4.43-7.75,4.43-13V6c0-1-.07-1.91-.07-2.87,0-1.19.43-1.52,1.58-1.52.8,0,1.59,0,2.38,0h4.26c.79,0,1.55,0,2.34,0,1.12,0,1.59.3,1.59,1.49,0,1,0,1.94,0,2.9V23.17c0,.82.07,1.65.07,2.48,0,3.46-2.25,3.76-5.12,3.76-.56,0-1.65.06-1.65-2.15,0-.43.17-.69.63-.69s1,.1,1.52.1c1.95,0,1.95-.56,1.95-2.44V18.91c0-.66-.27-.92-.93-.92Zm5.15-9.38a1,1,0,0,0,.93-.92V5.05a.88.88,0,0,0-.93-.89h-5a.88.88,0,0,0-.93.89V7.69a1,1,0,0,0,.93.92Zm-5,2.35c-.66,0-.93.26-.93.89v2.84c0,.62.27.92.89.92h5c.66,0,.93-.26.93-.92V11.85c0-.63-.27-.89-.93-.89Z"/><path class="cls-1" d="M244.09,27.36c0-.46-.23-.63-.66-.63H232.11c-.46,0-.66.17-.66.63v.53c0,.82-.26.92-1.45.92s-1.49-.1-1.49-.92c0-1.22.1-2.48.1-3.7v-17c0-1-.06-2-.06-3,0-1.26.42-1.65,1.65-1.65.89,0,1.74.06,2.6.06h9.94c.86,0,1.71-.06,2.54-.06,1.45,0,1.72.53,1.72,1.88,0,.69-.07,1.58-.07,2.74V24.09c0,1.26.1,2.51.1,3.73,0,.83-.33.89-1.49.89s-1.45-.06-1.45-.89Zm-.82-14.22a.88.88,0,0,0,.89-.93V6.11a.92.92,0,0,0-.89-.93h-11a.93.93,0,0,0-.93.93v6.1a.93.93,0,0,0,.93.93Zm-11.89,10.1a.93.93,0,0,0,.93.92h11a.87.87,0,0,0,.89-.92v-6.7a.92.92,0,0,0-.89-.93h-11a.93.93,0,0,0-.93.93Z"/><path class="cls-1" d="M277,7.16a11,11,0,0,1,3.23,8,11.6,11.6,0,0,1-6.37,10.5,12.41,12.41,0,0,1-3.4,1.22c-.69,0-1.85-1.56-1.85-2.15,0-.36.53-.4.83-.46,4.49-1,7.85-4.23,7.85-9a8.42,8.42,0,0,0-5.87-8.38A6.91,6.91,0,0,0,270,6.6c-.86,0-.86.73-.89,1.35-.3,4.89-1.48,11-4.69,14.86a5.68,5.68,0,0,1-4.12,2.41,5.05,5.05,0,0,1-4.23-3,10.63,10.63,0,0,1-1-4.59A13.41,13.41,0,0,1,268.57,4,11.65,11.65,0,0,1,277,7.16Zm-12.35.2a10.67,10.67,0,0,0-6.76,10.17c0,1.45.52,4.78,2.44,4.78s3.5-3.46,4.06-4.92a28.07,28.07,0,0,0,2-9.73c0-.37-.17-.66-.53-.66A5,5,0,0,0,264.61,7.36Z"/><path class="cls-1" d="M292.83,3.37c.3.1.76.19.76.52s-.16.33-.36.5a3.25,3.25,0,0,0-.66,2,79.91,79.91,0,0,0-.73,11.25c0,2.84.07,6.94,3.93,6.94a8.9,8.9,0,0,0,6.6-3.4,10,10,0,0,0,2-4.92c.06-.46.13-1,.56-1,.62,0,2.21,1.32,2.21,2.24a11.91,11.91,0,0,1-1.29,3.73,11.53,11.53,0,0,1-9.9,6.27A6.8,6.8,0,0,1,290.46,25C289,23,288.91,20,288.91,17.72c0-4.09.29-8.18.62-12.27a18.16,18.16,0,0,0,.07-1.95c0-.46,0-.79.46-.79A17.86,17.86,0,0,1,292.83,3.37Zm10.53,5.11c0,.43-1,1.29-1.42,1.29-.2,0-.36-.2-.46-.36a27.84,27.84,0,0,0-2.31-2.54c-.1-.14-.3-.3-.3-.47,0-.36,1.06-1.19,1.39-1.19A12.88,12.88,0,0,1,303.36,8.48ZM307,6.07c0,.43-1,1.32-1.42,1.32-.19,0-.33-.19-.46-.36-.72-.86-1.48-1.72-2.31-2.54-.1-.1-.3-.27-.3-.43,0-.4,1.06-1.22,1.39-1.22A13.22,13.22,0,0,1,307,6.07Z"/><path class="cls-1" d="M329.27,18.12a7.1,7.1,0,0,1,1.78,4.62c0,2.48-1.75,3.3-4,3.3-.73,0-4.16-.23-4.59-.63a6.64,6.64,0,0,1-.3-2.21c0-.23.1-.53.4-.53a2.38,2.38,0,0,1,.66.17,11.08,11.08,0,0,0,3.14.56c1,0,1.68-.33,1.68-1.42a6,6,0,0,0-1.78-3.56,1.06,1.06,0,0,0-.76-.47,14.21,14.21,0,0,0-3.17,1.65c-2.08,1.26-4.09,2.58-6.11,3.93-.66.46-.69.46-.92.93-.1.19-.27.43-.53.43-.53,0-1.91-2.55-1.91-2.94s.62-.56,1-.69c2.44-1,6.5-3.5,9-4.82.3-.17.66-.3.66-.7a.91.91,0,0,0-.26-.56,3.65,3.65,0,0,1-1.09-2.54,8.13,8.13,0,0,1,.82-3.13c.13-.3.27-.53.66-.53s2.18.72,2.18,1.19a1.43,1.43,0,0,1-.26.59,4,4,0,0,0-.63,2c0,.69.59,1.22,1,1.68A1.28,1.28,0,0,0,327,15c.16,0,.26,0,.43,0a9.53,9.53,0,0,1,1.94-.2c7.46,0,11.72,7.33,11.72,8,0,.5-1.88,1.45-2.54,1.45-.33,0-.5-.26-.6-.53-1.38-3.06-4.55-6.46-8.18-6.46-.27,0-.73.09-.73.46C329,17.82,329.17,18,329.27,18.12Zm-.73-13.47a3.39,3.39,0,0,1,.43.27c.76.46,1.62.86,1.62,1.29s-1,2.21-1.49,2.21c-.23,0-.53-.27-.72-.43a21.79,21.79,0,0,0-4.3-2.58c-.33-.16-.69-.29-.69-.69s.73-2,1.29-2A24.6,24.6,0,0,1,328.54,4.65Zm10.1,4.29c0,.43-1,1.32-1.42,1.32-.26,0-.73-.69-.92-.92-.6-.69-1.22-1.35-1.88-2-.1-.1-.27-.26-.27-.43,0-.36,1-1.19,1.39-1.19A13.66,13.66,0,0,1,338.64,8.94Zm3.2-2.24c0,.43-1,1.32-1.42,1.32-.16,0-.3-.2-.43-.33a28.51,28.51,0,0,0-2.37-2.57c-.1-.14-.27-.27-.27-.43,0-.37,1-1.22,1.39-1.22A13.8,13.8,0,0,1,341.84,6.7Z"/><path class="cls-1" d="M360.58,2.61c.29.23,1.25.89,1.25,1.25s-.33.46-.63.53a1.36,1.36,0,0,0-1,.63,43.91,43.91,0,0,0-2.77,3.73,42.49,42.49,0,0,0-3,5,.26.26,0,0,0,.27.27,1.59,1.59,0,0,0,.63-.3,9.26,9.26,0,0,1,4.48-1.62,4,4,0,0,1,2.94,1.32,4,4,0,0,1,.66,2.45,15.58,15.58,0,0,1-.43,3.26,20.47,20.47,0,0,0-.53,3.44c0,.62.2,1.48,1,1.48,2.12,0,5.22-3.89,6.31-5.51.13-.2.3-.43.56-.43.53,0,1.49,2.11,1.49,2.54a1.12,1.12,0,0,1-.37.69c-.76.76-1.52,1.52-2.31,2.25-1.71,1.55-3.83,3.33-6.27,3.33-2.21,0-3.1-1.91-3.1-3.86a21.43,21.43,0,0,1,.46-3.83,15.41,15.41,0,0,0,.33-2.8c0-1-.33-1.79-1.49-1.79a8.2,8.2,0,0,0-4,1.56,11.23,11.23,0,0,0-3.33,3.36,25.39,25.39,0,0,0-2.51,6.5c-.06.33-.2.6-.59.6s-2.58-.73-2.58-1.22c0,0,.53-1.32.57-1.39,1.18-2.84,2.4-5.61,3.76-8.32a102,102,0,0,1,6.93-11.68,15.44,15.44,0,0,0,1-1.68c.1-.2.39-.86.66-.86S360.28,2.38,360.58,2.61Z"/><path class="cls-1" d="M384,4.19c.2.1.46.23.46.5s-.16.26-.46.43c-.53.26-.66.59-1,1.42a25.5,25.5,0,0,0-1.81,9.53c0,.76.23,5.55,1.09,5.55.26,0,.46-.4.76-1.09.06-.17.16-.33.23-.5.29-.62.49-.92.76-.92s.92.46.92.76-1.25,3.46-1.25,4.82c0,.26.06.86.09,1.12a1.68,1.68,0,0,1,0,.43c0,.63-1.59,1.35-2.11,1.35s-1-1.05-1.29-1.61a22.31,22.31,0,0,1-2-9.94,38,38,0,0,1,1.75-10.86,12.6,12.6,0,0,0,.43-1.55c0-.26.13-.63.42-.63a25.9,25.9,0,0,1,2.51,1Zm4.23,16.11a5.93,5.93,0,0,0,5.24,2.34,25.07,25.07,0,0,0,7.23-1.05,2.52,2.52,0,0,1,.66-.14c.43,0,.5.5.5,1.75,0,.37,0,1.12-.33,1.32-.93.5-6.44,1-7.69,1-5.38,0-7.49-2.84-7.49-3.23S387.2,20,387.76,20C388,20,388.09,20.17,388.19,20.3Zm1.28-14.56a19.44,19.44,0,0,0,4.36.5,21.36,21.36,0,0,0,5.05-.63,4.28,4.28,0,0,1,.59-.1c.66,0,.63,1.45.63,1.92s0,.85-.3,1a31.56,31.56,0,0,1-5.74.56c-1,0-4.82-.23-5.58-.66-.36-.2-.33-.76-.33-1.12,0-1,.07-1.62.6-1.62A3,3,0,0,1,389.47,5.74Z"/><path class="cls-1" d="M409.35,14.75c-.53,0-1.06.1-1.52.1-.66,0-.7-.39-.7-1.29s0-1.31.7-1.31,1,.06,1.52.06h.79c.62,0,1.28-.06,1.94-.06,1.16,0,1.79.29,1.79,1.51,0,.89-.07,1.79-.07,2.68v4.65c0,1.95,0,3.5,2.18,4.39,1.81.73,4.59.79,7,.79h1.88c2.68,0,5.38,0,8.09-.06.56,0,2-.07,2.41-.07s.56.26.56.73c0,1.65-.4,1.84-1.88,1.84-.46,0-1,0-1.68,0H423.5c-3,0-9,.13-10.76-2.84a.77.77,0,0,0-.59-.39.57.57,0,0,0-.46.2c-.89.72-1.82,1.45-2.71,2.14a.83.83,0,0,0-.33.63c0,.26-.1.49-.39.49s-.43-.23-.76-.76c-.17-.26-.37-.53-.53-.79a2.48,2.48,0,0,1-.53-1.05c0-.33.92-.8,1.25-1,.66-.37,2.18-1.45,2.88-2a1.38,1.38,0,0,0,.69-1.39V15.68a.81.81,0,0,0-.92-.93ZM413,7.82c-.33,0-.49-.23-.69-.46a36.22,36.22,0,0,0-4.29-4.65,1,1,0,0,1-.43-.66c0-.5,1-1.36,1.52-1.36.29,0,.53.27.72.43.8.73,1.59,1.52,2.31,2.31.47.46,2.41,2.58,2.41,3.07S413.54,7.82,413,7.82Zm10.7,11.06c0-.2-.1-.43-.37-.43a.49.49,0,0,0-.29.13,29.7,29.7,0,0,1-6.51,4.75,2.31,2.31,0,0,1-.86.3c-.49,0-1.28-1.09-1.28-1.68,0-.4.53-.56.89-.73a28.69,28.69,0,0,0,6.73-4.35.35.35,0,0,0,.13-.27c0-.23-.19-.3-.36-.3h-.59c-.76,0-1.49,0-2.25,0s-1.61-.13-1.61-1.16c0-.33,0-.62,0-.95v-2c0-.4,0-.67,0-1,0-1,.72-1.19,1.58-1.19s1.52.07,2.28.07h7.52c.73,0,1.49-.07,2.21-.07s1.65.16,1.65,1.15c0,.3,0,.5,0,1v2c0,.46,0,.66,0,.95,0,1-.79,1.16-1.58,1.16s-1.52,0-2.28,0h-.86c-.19,0-.39.07-.39.3a.39.39,0,0,0,.16.3c.5.43,1.06.86,1.59,1.29a1.33,1.33,0,0,0,.56.19.94.94,0,0,0,.63-.26c.82-.73,1.61-1.49,2.37-2.31.1-.1.23-.26.4-.26a4.28,4.28,0,0,1,1,.82,4.91,4.91,0,0,0,.5.46c.16.13.49.4.49.63a.32.32,0,0,1-.33.3l-.16,0c-.1,0-.2,0-.3,0a.68.68,0,0,0-.43.17c-.56.49-1.09.95-1.68,1.38-.14.17-.27.27-.27.5a.56.56,0,0,0,.33.46,24.17,24.17,0,0,0,3,1.48c.37.17.89.33.89.73,0,.59-.79,1.65-1.35,1.65a12.48,12.48,0,0,1-3.1-1.55,28.19,28.19,0,0,1-5-3.86.38.38,0,0,0-.27-.1c-.26,0-.33.2-.36.43v1.29c0,1.25.1,2.5.1,3.76,0,1-.23,1.12-1.35,1.12S423.64,25,423.64,24c0-1.26.1-2.51.1-3.76Zm2.67-17c0,.5.36.63.79.63h2c1.19,0,2.35-.07,3.54-.07.62,0,.66.27.66,1.12s0,1.06-.66,1.06c-1.19,0-2.35-.07-3.54-.07h-2.14c-.5,0-.69.2-.69.66v.73c0,.5.19.69.69.69h4.22c1.32,0,2.61-.09,3.93-.09.76,0,.76.33.76,1.08s0,1.09-.76,1.09c-1.32,0-2.61-.06-3.93-.06H419.54c-1.32,0-2.6.06-3.92.06-.73,0-.76-.26-.76-1.09s0-1.08.76-1.08c1.32,0,2.6.09,3.92.09h3.67c.46,0,.66-.19.66-.69V5.21c0-.46-.2-.66-.66-.66h-1.88c-1.19,0-2.38.07-3.57.07-.63,0-.66-.3-.66-1.06s0-1.12.69-1.12c1.16,0,2.35.07,3.54.07h1.75c.56,0,.75-.2.79-.79l-.1-1a.92.92,0,0,1,0-.3c0-.33.23-.43.52-.43.47,0,1.39.14,1.92.17.36,0,1,0,1,.43,0,.23-.23.33-.43.46a.75.75,0,0,0-.36.66Zm-6.5,11.65a.76.76,0,0,0,.79.79h8.55a.75.75,0,0,0,.79-.79v-.59a.73.73,0,0,0-.79-.79H420.7a.74.74,0,0,0-.79.79Z"/><path class="cls-1" d="M451.69,6.63h-5.15c-.66,0-.93.27-.93.9v5.34c0,4.56-.16,9.14-1.85,13.47-.89,2.34-1.22,2.84-1.78,2.84s-1.81-.53-1.81-1.09a2.67,2.67,0,0,1,.33-.93C443,22.28,443,18.22,443,12.87V9.11c0-1-.07-1.95-.07-2.94,0-1.32.66-1.55,1.85-1.55s2.15,0,3.24,0h4c.66,0,.92-.26.92-.89V3.53a18.37,18.37,0,0,0-.13-2.67V.56c0-.39.23-.46.53-.46.52,0,1.61.13,2.17.16.24,0,.73.07.73.37s-.3.36-.46.49-.2.23-.2.3.23.23.33.23H462c.82,0,1.61-.07,2.34-.07.56,0,.59.27.59,1s0,1-.59,1-1.49-.07-2.34-.07h-6c-.37,0-.5.17-.53.53v.2c0,.36.16.49.53.49h8c.79,0,1.58,0,2.38,0a1.83,1.83,0,0,1,1.65.59,1.6,1.6,0,0,1,.59,1c0,.72-1.55,1.84-2.48,2.47-.36.26-.79.69-1.25.69s-1.48-.89-1.48-1.35.42-.49.95-.79c.1-.07.6-.33.6-.46s-.33-.14-.76-.14h-8.15c-.07,0-.1,0-.14.1s-.13.2-.29.33a.84.84,0,0,0-.27.33.72.72,0,0,0-.1.27c0,.39.43.49.73.46l3.3-.23c.82-.07,2.31-.27,2.54-.27.46,0,.5.83.5,1.16,0,.59-.1.63-1.23.66-.39,0-.95,0-1.71.1l-3.5.23c-.33.07-.69.2-.66.59.2.56.76.56,1.25.56H463c1.22,0,1.69,0,1.92-.85.1-.33.16-.5.56-.5s1.75.23,1.75.86a2.94,2.94,0,0,1-.63,1.42c-.69.79-1.68.76-2.9.76h-7.86c-1.38,0-3.1,0-3.13-1.88,0-.47-.24-.7-.7-.66l-2.27.16c-.83.07-2.25.27-2.55.27-.46,0-.52-.83-.52-1.19,0-.6.19-.6,1.35-.63a14.45,14.45,0,0,0,1.62-.07l2.24-.19c.59-.07.83-.3.83-.93A.88.88,0,0,0,451.69,6.63Zm-2.18,17c-.23,0-.3.27-.37.43A30.11,30.11,0,0,1,447.36,28c-.16.29-.36.56-.72.56s-1.59-.47-1.59-1a1,1,0,0,1,.17-.43,18.2,18.2,0,0,0,1.88-4.15c.06-.2.1-.5.36-.5a15.77,15.77,0,0,1,2,.53c.23,0,.53.13.53.43S449.64,23.63,449.51,23.66Zm16-4.39c0,.37,0,.73,0,1.09,0,.86-.66,1-1.85,1-.56,0-1.22,0-2,0h-9c-.8,0-1.46,0-2,0-1.15,0-1.81-.13-1.81-1,0-.36,0-.72,0-1.09V15.88c0-.37,0-.7,0-1.06,0-.89.76-1,1.48-1s1.59,0,2.35,0h9l2.31,0c.73,0,1.55.07,1.55,1,0,.26,0,.73,0,1.06Zm-5.65,7.56c1,0,1.52.07,2-2.34.07-.43.13-.76.66-.76s1.75.26,1.75,1a8.54,8.54,0,0,1-1.22,3.4c-.69.89-2,.86-3,.86h-6.24c-1.42,0-3.1-.14-3.1-1.95,0-.2,0-.46,0-.66a1.8,1.8,0,0,0,0-.4V24.56c0-.57-.06-1.13-.09-1.65,0-.1,0-.2,0-.27,0-.3.23-.36.46-.36s1.72.1,2.08.13.8,0,.8.33-.14.26-.27.33c-.39.26-.49.43-.49,1.49V26c0,.92.62.85,1.48.85Zm-3.79-10.72a.63.63,0,0,0-.69-.63h-3.54a.63.63,0,0,0-.69.63v.06a.65.65,0,0,0,.69.66h3.54a.65.65,0,0,0,.69-.66Zm-4.23,2.21a.65.65,0,0,0-.69.66V19a.65.65,0,0,0,.69.66h3.54a.65.65,0,0,0,.69-.66V19a.65.65,0,0,0-.69-.66Zm6.6,4.75c.27.33,1.13,1.35,1.13,1.75s-1.16,1.09-1.52,1.09-.53-.3-1-1c-.3-.43-.73-1-1.35-1.78a1,1,0,0,1-.27-.53c0-.49,1-1.05,1.42-1.05S457.79,22.18,458.48,23.07Zm4.06-6.24a.62.62,0,0,0,.66-.66v-.06a.6.6,0,0,0-.66-.63H459a.6.6,0,0,0-.66.63v.06a.62.62,0,0,0,.66.66ZM458.32,19a.62.62,0,0,0,.66.66h3.56a.62.62,0,0,0,.66-.66V19a.62.62,0,0,0-.66-.66H459a.62.62,0,0,0-.66.66ZM468,28.42c-.4,0-.56-.3-.69-.63a27.7,27.7,0,0,0-2.51-4.36.84.84,0,0,1-.23-.46c0-.56,1.05-1.09,1.52-1.09a.65.65,0,0,1,.56.33c.36.46,1.22,1.82,1.52,2.35a13.41,13.41,0,0,1,1.38,2.87C469.54,28,468.39,28.42,468,28.42Z"/><path class="cls-1" d="M480.76,3.4c.26.07.63.2.63.49s-.2.37-.37.5a3.32,3.32,0,0,0-.66,2,79.9,79.9,0,0,0-.72,11.25c0,2.84.06,6.94,3.92,6.94a8.9,8.9,0,0,0,6.6-3.4,10,10,0,0,0,2-4.92c.06-.46.13-1,.56-1,.63,0,2.21,1.32,2.21,2.24a11.91,11.91,0,0,1-1.29,3.73,11.52,11.52,0,0,1-9.9,6.27A6.81,6.81,0,0,1,478.25,25C476.83,23,476.7,20,476.7,17.72c0-4.09.3-8.18.63-12.27.06-.66.06-1.29.06-1.95,0-.46,0-.79.46-.79A20,20,0,0,1,480.76,3.4Z"/><path class="cls-1" d="M512.89,1.65c.17.07.4.17.4.4s-.2.33-.46.59a14,14,0,0,0-1,3c0,.17-.13.53-.13.63a.38.38,0,0,0,.4.39A22.45,22.45,0,0,0,514.41,6a1.56,1.56,0,0,1,.37-.1c.49,0,.56,1.75.56,2.15,0,.76-.4.76-3.63,1.35-1.09.2-1.06.36-1.42,1.39a81,81,0,0,1-3.93,9.11c-.5.95-1,1.91-1.55,2.87a.61.61,0,0,1-.56.39c-.56,0-2.31-.76-2.31-1.35a4.33,4.33,0,0,1,.52-1.12,55,55,0,0,0,4.1-7.92,15.93,15.93,0,0,0,.82-2.25.37.37,0,0,0-.39-.39,4.76,4.76,0,0,0-.66.06c-.53.07-3,.3-3.4.3s-.66-.3-.76-.86A10.83,10.83,0,0,1,502,8.19c0-.4.2-.5.56-.5s.53,0,.76,0c.89,0,4.62,0,5.12-.56a6.75,6.75,0,0,0,.69-2.08,17.75,17.75,0,0,0,.53-3.76c0-.23,0-.53.3-.53A26.56,26.56,0,0,1,512.89,1.65Zm4.92,9.57c.3.07.56.23.56.56,0,.14-.06,1.13-.06,1.78,0,1.75.13,5,.33,6.74.06.59.29.76.82,1a19.83,19.83,0,0,1,3.34,1.55c.39.23,1.91,1.05,1.91,1.48s-1,1.92-1.65,1.92c-.3,0-.59-.27-.83-.43-.52-.4-2.47-1.75-3.1-1.75-.36,0-.39.53-.43.82-.23,2.48-2,3.47-4.32,3.47s-5.55-1.36-5.55-4.19,2.84-3.8,5.25-3.8l1.22,0c.33,0,.63-.06.63-.46,0-1-.46-6.86-.63-7.95v-.4c0-.43.27-.59.66-.59A8.69,8.69,0,0,1,517.81,11.22Zm-6.33,12.84c0,1.19,1.68,1.82,2.67,1.82,1.42,0,2-.73,2-2.12,0-.82-.09-1.12-2-1.12C513.26,22.64,511.48,22.81,511.48,24.06ZM526,11.45c0,.66-1.49,1.75-2,1.75-.3,0-.43-.23-.6-.46a17.64,17.64,0,0,0-4-4.16c-.2-.13-.43-.33-.43-.56,0-.4,1.22-1.75,1.75-1.75C521.54,6.27,526,10.63,526,11.45Z"/><path class="cls-1" d="M536.28,6.87c.23.06.62.16.62.46s-.13.33-.33.46c-.39.33-.42.79-.52,1.39a20.19,20.19,0,0,0-.24,3.2A20.42,20.42,0,0,0,537,19.84c.46,1.09,1.72,3.2,3,3.2,1,0,2-1.55,2.47-2.31.17-.3.43-.83.83-.83.56,0,1.85,1.09,1.85,1.59s-1.85,2.67-2.35,3.2A3.69,3.69,0,0,1,540,26.14c-2,0-3.6-1.58-4.62-3.17-2.11-3.2-2.44-7.62-2.44-11.39,0-1.05.1-3.79.16-4.88,0-.3.13-.46.43-.46A21.42,21.42,0,0,1,536.28,6.87Zm14-.47c.66,0,3,1.92,4.26,3.9a17.45,17.45,0,0,1,2.37,6.6,5,5,0,0,1,.1,1c0,.4-.1.63-.49.76a4.88,4.88,0,0,1-1.59.3c-.95,0-.92-.43-1-1.06-.42-3.93-1.74-7-4.91-9.4a.6.6,0,0,1-.27-.5A2.28,2.28,0,0,1,550.27,6.4Z"/><path class="cls-1" d="M585.26,10.4c.76,0,1.55,0,2.34,0a2.1,2.1,0,0,1,1.95,1.92,6.33,6.33,0,0,1-.53,1.65,26,26,0,0,1-5.41,7.75.79.79,0,0,0-.3.57c0,.29.17.42.33.62a22.49,22.49,0,0,0,6.73,3.63c.7.23,1.29.37,1.29.86s-.73,1.85-1.35,1.85a2.57,2.57,0,0,1-1.06-.33,21.44,21.44,0,0,1-7.46-4.46,1,1,0,0,0-.66-.26,1.1,1.1,0,0,0-.62.23,43.81,43.81,0,0,1-6,4,4.75,4.75,0,0,1-1.69.7c-.75,0-1.35-1.12-1.35-1.69s.6-.69,1.12-.95a47.8,47.8,0,0,0,6.14-3.83.74.74,0,0,0,.13-1.19,14.11,14.11,0,0,1-2.17-3.76c-.14-.2-.23-.33-.5-.33a.56.56,0,0,0-.43.23c-.49.56-2.64,3-3.27,3a2,2,0,0,1-1.55-1.45c0-.33.37-.66.6-.86a27.62,27.62,0,0,0,7.56-10.82.88.88,0,0,0,.06-.27c0-.39-.33-.53-.66-.53h-5.28c-.1,0-.23,0-.23.17s.07.1.13.13l.43.2c.6.26,1.12.53,1.12.86s-.46.39-.66.43a.85.85,0,0,0-.49.39,47.7,47.7,0,0,1-3.83,5.12.41.41,0,0,0-.1.26c0,.2.17.27.33.3s.73.07.73.43-.17.3-.47.49c-.46.3-.42.76-.42,2.91v6.3c0,1.12.06,2.28.06,3.4s-.13,1.35-1.29,1.35-1.38-.09-1.38-1.28.06-2.31.06-3.47V17.43c0-.23-.09-.43-.36-.43a.48.48,0,0,0-.3.13c-.59.53-2.44,2.31-3.2,2.31s-1.28-1.25-1.28-1.62.36-.69.66-.92a34.26,34.26,0,0,0,8.54-9.54,1,1,0,0,0,.07-.3c0-.33-.23-.43-.5-.43H567c-1.28,0-2.57.07-3.86.07-.66,0-.69-.3-.69-1.29s0-1.28.72-1.28c1.29,0,2.58.06,3.83.06h7.73c.62,0,.92-.26.92-.92a13.06,13.06,0,0,0-.13-2.48,1.23,1.23,0,0,1,0-.33c0-.43.26-.46.69-.46s1.81.13,2.18.17.79.06.79.42-.17.3-.43.5c-.43.3-.43.76-.4,2.18,0,.66.3.92.93.92h7.69c1.29,0,2.57-.06,3.86-.06.66,0,.69.29.69,1.28s0,1.29-.69,1.29c-1.29,0-2.57-.07-3.86-.07h-5.65c-.23,0-.29,0-.29.1s.16.14.2.14c1,.29,1.32.36,1.32.72s-.47.46-.66.53-.3.26-.53.79a5.7,5.7,0,0,0-.4,1c0,.36.3.46.6.5Zm1,3.26a2.24,2.24,0,0,0,.23-.69c0-.3-.42-.33-1.12-.33h-5.18a1.3,1.3,0,0,0-1.35.73c-.17.26-.33.49-.5.76a1.29,1.29,0,0,0-.33.85,1.7,1.7,0,0,0,.13.57,15.94,15.94,0,0,0,2.41,4.32.8.8,0,0,0,.63.33,1,1,0,0,0,.6-.26A20.17,20.17,0,0,0,586.31,13.66Zm-3.63,2.05a6.23,6.23,0,0,1,.7,1.72c0,.52-1,.95-1.46.95s-.59-.49-.89-1.15-.72-1.45-1.12-2.18a1,1,0,0,1-.2-.53c0-.46,1.09-1,1.42-1s.66.43,1.19,1.49C582.42,15.22,582.55,15.45,582.68,15.71Z"/><path class="cls-1" d="M606,23.93a4.52,4.52,0,1,1-4.52-4.52A4.53,4.53,0,0,1,606,23.93Zm-7.55,0a3,3,0,1,0,3-3A3,3,0,0,0,598.46,23.93Z"/></g></g></svg>