<svg xmlns="http://www.w3.org/2000/svg" viewBox="0 0 440.08 74.31"><g id="レイヤー_2" data-name="レイヤー 2"><g id="product"><path d="M10.81,43.93V73H0V1.39H12.25q9,0,13.59,1.25A18.28,18.28,0,0,1,34,7.38a20.39,20.39,0,0,1,6.17,15.21q0,9.84-6.59,15.59T15.82,43.93Zm0-10h4q14.9,0,14.89-11.46,0-11.08-15.35-11.09H10.81Z"/><path d="M75.85,42.49,98,73H84.8L64.35,43.7H62.4V73H51.59V1.39H64.25q14.2,0,20.51,5.34,6.94,5.92,6.95,15.67a20.34,20.34,0,0,1-4.36,13.09A19.4,19.4,0,0,1,75.85,42.49ZM62.4,34.28h3.43q15.35,0,15.35-11.74,0-11-14.93-11H62.4Z"/><path d="M104.13,36.88a35.06,35.06,0,0,1,11.09-26A36.45,36.45,0,0,1,141.75.05,35.84,35.84,0,0,1,168,11a35.8,35.8,0,0,1,11,26.3A35.21,35.21,0,0,1,168,63.5a37.85,37.85,0,0,1-51.68,1.21Q104.13,54.09,104.13,36.88ZM115,37q0,11.86,8,19.53a26.43,26.43,0,0,0,37.34-.14A26.41,26.41,0,0,0,168.1,37.2,26.24,26.24,0,0,0,160.44,18a26.71,26.71,0,0,0-37.71,0A25.84,25.84,0,0,0,115,37Z"/><path d="M193.79,73V1.39h15q10.81,0,17.07,2.14a31.87,31.87,0,0,1,12.2,7.09q11.08,10.11,11.09,26.58T237.63,63.92A33.85,33.85,0,0,1,225.48,71q-5.94,2-16.84,2ZM204.6,62.85h4.87a40.68,40.68,0,0,0,12.11-1.53,24.53,24.53,0,0,0,8.72-5.15q8-7.28,8-19t-7.89-19.11q-7.09-6.54-20.92-6.54H204.6Z"/><path d="M274.37,1.39V44.53q0,9.24,3,13.5,4.5,6.16,12.67,6.17T302.76,58q3-4.12,3-13.5V1.39h10.81V47.5q0,11.32-7.05,18.65a27.28,27.28,0,0,1-38.92,0q-7-7.34-7.05-18.65V1.39Z"/><path d="M387.24,5.24V18q-9.37-7.83-19.39-7.83a24.68,24.68,0,0,0-18.6,7.93,26.74,26.74,0,0,0-7.61,19.29,26.1,26.1,0,0,0,7.61,19A25.11,25.11,0,0,0,367.9,64.2a22.82,22.82,0,0,0,9.69-1.86,27.5,27.5,0,0,0,4.62-2.5,55,55,0,0,0,5-3.8v13a39.07,39.07,0,0,1-19.48,5.24A36,36,0,0,1,341.55,63.6a35.53,35.53,0,0,1-10.81-26.07,36.76,36.76,0,0,1,9.05-24.4Q350.92,0,368.59,0A36.62,36.62,0,0,1,387.24,5.24Z"/><path d="M423.66,11.55V73H412.85V11.55H396.38V1.39h43.7V11.55Z"/></g></g></svg>