<svg xmlns="http://www.w3.org/2000/svg" viewBox="0 0 561.15 61.86"><defs><style>.cls-1{fill:#fff;}</style></defs><g id="レイヤー_2" data-name="レイヤー 2"><g id="product"><path class="cls-1" d="M33.24,18a60,60,0,0,1-12.47,3.62c.07,4.89.14,8.44.14,10.72C27.68,30,31.7,29.22,36.19,29.22a16.71,16.71,0,0,1,10.52,3.69c2.75,2.27,4,5.22,4,9.24,0,8.31-6.23,13.74-15.81,13.74a22.54,22.54,0,0,1-7.85-1.41,45.15,45.15,0,0,0,.81-6.7,18.88,18.88,0,0,0,7.37,1.54c5.16,0,8.51-2.68,8.51-6.76a6.14,6.14,0,0,0-3.15-5.63,11.85,11.85,0,0,0-5.43-1.48c-3.88,0-8.84,1.28-14.07,3.49-.07,6.63-.2,9.18-.27,11.05-.33,6-2.28,8.78-6.3,8.78-1.74,0-3.75-.8-7-2.61C2.68,53.41,0,50.46,0,47.85c0-3.35,4.42-7.3,14.21-12.6,0-2.14-.07-3.28-.07-5,0-.13-.13-4.55-.13-7.84-2.55.14-6.3.2-11.13.27L2.81,16c2.28.13,3.29.13,4.43.13,1.87,0,4.55-.13,6.7-.26-.07-1.41-.07-3.42-.07-6.3a40.81,40.81,0,0,0-.33-6l6.9.34c.8.07,1.34.4,1.34.94s-.33.94-1.14,1.54v8.78a42.72,42.72,0,0,0,10-3ZM14.41,41.62l-1.41.8c-4.15,2.41-6.57,4.29-6.57,5.3,0,.8,1.14,1.87,3.35,3.21a6.56,6.56,0,0,0,3.15,1.28c1.34,0,1.48-.61,1.48-7.78Zm38.4-10.93c-3.15-5.22-6.17-7.1-11.53-7.1-.67,0-1.27,0-2.34.07l-.2-6.44c.46,0,.8.07,3.08.07,7.1.13,11.66,2.55,16.08,8.78Z"/><path class="cls-1" d="M75.76,12.13c.87.13,1.48.54,1.48,1.14s-.34.8-1.55,1.27c-.53,4-.6,6.1-.6,13.41,0,6.3.94,11.12,2.88,15,1.07,2.21,2.82,3.82,4.09,3.82s1.94-2.42,3.15-9.32a35.71,35.71,0,0,0,6.23,3.82C89,51.74,87,54.89,82.4,54.89c-4,0-7.51-2.48-10.39-7.38a35.42,35.42,0,0,1-3.75-10.72,59,59,0,0,1-.61-9.85c0-3.28.27-11.06.47-14.07A9.68,9.68,0,0,0,68.19,11Zm30.56,3c8.31,8.17,12.2,14.27,15.75,25.13l-7.17,3.35c-1.74-6.37-3.08-9.65-5.9-14.08a53.22,53.22,0,0,0-7.84-9.85Z"/><path class="cls-1" d="M143.31,5.9c.74.06,1.28.4,1.28.94s-.27.73-1.14,1.34c-.27,5.49-1,32.37-1,35.85,0,5.56,2,7.57,7.64,7.57a23,23,0,0,0,11.8-3.48c4.89-2.82,7.64-5.36,12.39-11.66,1.08,2.48,1.75,3.41,4.36,6.43-5.16,6.1-8.17,8.78-13,11.53a32.6,32.6,0,0,1-16.35,4.49c-5.3,0-9.45-1.61-11.66-4.56-1.68-2.21-2.48-5.43-2.48-10.05,0-1.81.06-3.35.4-11.93.2-5.9.33-12.53.33-19.23,0-3-.06-5.43-.2-7.78Z"/><path class="cls-1" d="M212.27,1.81a.86.86,0,0,1,.94.87c0,.34-.07.47-.8,1.27a68,68,0,0,0,3.82,10.39,74.39,74.39,0,0,0,12-4l3.22,6.17c-5.09,1.87-6.84,2.54-8,2.88-1.54.4-3.49.87-4.29,1.14a68.33,68.33,0,0,0,10.92,16l-5.16,4.9c-5.43-3.22-9.45-4.36-14.81-4.36-6.57,0-10.25,2.28-10.25,6.23,0,3.35,2.21,5.77,6.3,7,2.61.81,5.63,1.07,10.65,1.07,3.09,0,5.3-.06,9.92-.33a15,15,0,0,0-2.21,7c-3.08.06-5.16.13-8.24.13-7.31,0-11.6-.67-15.35-2.41-5.23-2.48-8.11-6.77-8.11-12,0-7.77,6.3-12.66,16.55-12.66a30.67,30.67,0,0,1,8.78,1.14,56.67,56.67,0,0,1-5.83-10.19c-4.89.87-14.41,2.14-21.44,2.81L189.49,18c9.78-.74,15.14-1.34,20-2.28-1.75-4.22-3.08-7.64-3.89-10.19-.6-1.74-.74-2-1.21-3.28Z"/><path class="cls-1" d="M260.27,33.17c-2.75,7-5.23,12.74-8.18,18.77-.94,1.87-1.2,2.28-3.15,5.76-.47.81-.6,1.21-1,1.94v.47c0,.54-.2.94-.61.94s-.46-.2-.93-.6l-4.76-4c4.29-6,8.71-14.81,13.54-26.6ZM246.73,16a63.45,63.45,0,0,1,8.38,8.71L249.88,29a64.71,64.71,0,0,0-7.71-8.85Zm4-14.81a50.49,50.49,0,0,1,8,8.44l-5.36,4.09A52.72,52.72,0,0,0,246.06,5Zm18.63,16.21c11.19-1.6,18.16-3.28,26.61-6.5l4.69,4.56a1.31,1.31,0,0,1,.4.94c0,.47-.33.74-.94.74a14,14,0,0,1-1.4-.07l-9.59,2.41c.4,3.22.81,6.37,1.48,9.52a37,37,0,0,0,8-6.17l4.82,4.22A1.42,1.42,0,0,1,304,28a.82.82,0,0,1-.47.74,7.37,7.37,0,0,1-1.81.34c-3.88,2.34-6,3.55-9.71,5.36a55.2,55.2,0,0,0,2.28,6.23c2.54,6,5.49,9.85,11.05,14.74a26.22,26.22,0,0,0-5.36,5.23c-6.1-6-8.84-10-11.66-17.16-2.68-6.7-4-12.6-5-22.65-.8.2-1.54.27-2.34.47v28c0,5.1.07,9.39.2,11.8h-6.9c.13-2.61.2-6.37.2-11.8V22.25c-1.68.27-3.35.47-5,.74v5.56c0,9.85-.4,13.4-2.07,18.43-1.88,5.56-4.43,9.31-10.12,14.88a26.91,26.91,0,0,0-4.16-5.5c7.84-7.5,10-13.4,10-28.28V10.39c0-2-.14-4.63-.21-5.9l5.7,1.61C280,4.49,288,2.68,295.52,0l4.29,4.49a1.28,1.28,0,0,1,.47.87c0,.54-.34.81-1,.81-.13,0-.67-.07-1.41-.07-14.2,3.55-14.87,3.68-28.48,5.36Z"/><path class="cls-1" d="M352.66,9.52a1.1,1.1,0,0,1,.81.93c0,.47-.4.88-1.41,1.21-.2.67-.4,1.21-1.21,3.75a72.76,72.76,0,0,1-19.16,31.43c-4.29,4.23-5.7,5.37-13,10.33-1.95-3.29-2.55-4.09-4.63-6,9.38-5.83,16.22-12.33,21.72-20.64,4.62-7,9-17.69,9.91-24Z"/><path class="cls-1" d="M370.29,10.79c7,3.62,9.51,5.49,14.14,10.59l-5.3,5.83c-4.82-5.36-8.31-8.18-13.26-10.86Zm-2.55,37.8c10.12-4.29,15.88-7.58,23.52-13.34a94.36,94.36,0,0,0,21.05-21.51,38.84,38.84,0,0,0,4.62,6.36c-8.84,10.66-13.8,15.55-21.64,21.45-6.57,5-11.53,8-21.05,12.8-.27.94-.53,1.41-1,1.41A1.72,1.72,0,0,1,372.1,55Z"/><path class="cls-1" d="M424,8h5.89c2,0,9.79-.26,15.62-.46l27.34-1.08,1-1,5.16,5c.47.4.6.67.6,1,0,.54-.27.67-1.61,1-1.14,3.15-4.15,7.77-7.57,11.73A50.71,50.71,0,0,1,462.9,31c-1.87-3.29-2.21-3.75-4.15-5.63,5.29-4.09,8.64-7.71,11.26-12.2l-24.13,1.21c-10.52.53-13.54.6-20.17,1.2Zm31.9,11.6c.53.07,1.07.47,1.07.94s-.34.8-1.21,1.4c-.87,14.28-2.61,20.65-7.64,27.62a37.88,37.88,0,0,1-8.91,9c-1.34,1-2.35,1.68-2.95,2.15-1.94-3.35-2.75-4.29-4.89-5.7,12.87-8.58,17.16-17.22,17.16-34.58,0-.4-.07-.74-.14-1.41Z"/><path class="cls-1" d="M501.5,16.89c.41.07.81.4.81.74s-.34.73-1.21,1.2c-1.2,11.66-2.34,16-5.49,21-3.42,5.5-7,8.78-15.28,13.81a17,17,0,0,0-4.43-6.43c6.57-3.82,9.32-6,12.2-9.79,3.82-5.09,5.5-11.66,5.5-21v-.34ZM506.13,46c.6-2.14.74-4.82.74-12.46V21.85c0-5.16-.07-8-.2-10.06l7.7.47c.81.07,1.21.27,1.21.74s-.34.67-1.27,1.27c-.07,1.08-.14,3.62-.14,7.58v19c9.52-4.62,14.74-8.44,22.59-16.48,1.2,3.48,1.67,4.62,2.74,7.17-9,8.31-14.81,12.19-25.93,17.56-.34.87-.67,1.27-1.07,1.27a1.77,1.77,0,0,1-1-.4Z"/><path class="cls-1" d="M548,42A88.24,88.24,0,0,1,561.15,57.1l-6.1,4.62a78.67,78.67,0,0,0-12.26-15.14Z"/></g></g></svg>