<svg xmlns="http://www.w3.org/2000/svg" viewBox="0 0 491.24 29.61"><defs><style>.cls-1{fill:#231815;}</style></defs><g id="レイヤー_2" data-name="レイヤー 2"><g id="product"><path class="cls-1" d="M8.58,4a.61.61,0,0,0-.53.3A37.72,37.72,0,0,1,2.81,9.84c-.3.26-.93.85-1.32.85A2.13,2.13,0,0,1,0,9.27c0-.36.53-.75.79-.95A28.13,28.13,0,0,0,7.49.59c.13-.26.27-.59.6-.59A7.69,7.69,0,0,1,9.51.49a5.4,5.4,0,0,0,.75.3c.27.07.5.17.5.43s-.43.36-.66.43a.14.14,0,0,0-.13.13.16.16,0,0,0,.06.13A26.59,26.59,0,0,0,14.72,6.7c.23.16.63.46.63.79S14.39,9,13.86,9c-.92,0-4.12-3.86-4.78-4.72A.65.65,0,0,0,8.58,4ZM6.24,20c-.63,0-.89.3-.89.92V24c0,.37.13.7.56.7a.84.84,0,0,0,.26-.07c.89-.26,1.82-.53,2.71-.86a.51.51,0,0,0,.39-.46.6.6,0,0,0-.16-.36c-.13-.13-.23-.27-.33-.36-.4-.43-.63-.66-.63-1,0-.5,1.19-1.16,1.59-1.16a.71.71,0,0,1,.52.3c.63.66,1.23,1.39,1.82,2.11a23.76,23.76,0,0,1,1.75,2.38.35.35,0,0,0,.3.23c.33,0,1.42-1.35,1.65-1.62,3.07-3.86,3.56-8.68,3.59-13.43,0-.36-.1-.69-.62-.79a.74.74,0,0,0-.47.36,30.48,30.48,0,0,1-2.11,3.8.94.94,0,0,1-.76.49c-.39,0-1.61-.82-1.61-1.32a1,1,0,0,1,.29-.56A34.3,34.3,0,0,0,19,.73c.07-.27.13-.53.46-.53a17.55,17.55,0,0,1,1.92.46c.36.1.92.2.92.56,0,.2-.23.33-.39.43-.5.26-.5.33-.67,1A29.8,29.8,0,0,1,20,6.3a.88.88,0,0,0-.07.3c0,.5.5.5.63.53h4.09c.79,0,1.52-.07,2.25-.07a1.86,1.86,0,0,1,2,1.52,23.2,23.2,0,0,1-1.13,4c-.43,1.16-.69,1.95-1.22,1.95s-1.91-.56-1.91-1.09a.66.66,0,0,1,.13-.36,15.65,15.65,0,0,0,1.09-3.14c0-.36-.33-.33-.56-.33H22.84c-.66,0-.89.27-1,.9s-.06,1.35-.06,2c0,.3,0,.59,0,.89a20.4,20.4,0,0,0,3,8.88A17.63,17.63,0,0,0,29.11,27c.23.2.5.36.5.69A2.25,2.25,0,0,1,28,29.44c-.73,0-2.28-1.65-2.78-2.21a20.75,20.75,0,0,1-4.12-7,.3.3,0,0,0-.3-.23.28.28,0,0,0-.26.2A18.3,18.3,0,0,1,14.16,29a1.5,1.5,0,0,1-.86.43,2.39,2.39,0,0,1-1.68-1.58c0-.23.2-.36.36-.5s.2-.16.2-.29a.46.46,0,0,0-.23-.37,3.34,3.34,0,0,1-.63-.95.68.68,0,0,0-.59-.33.63.63,0,0,0-.33.06c-2.61,1-5.22,2-7.89,2.81-.2.06-.27.29-.3.46s-.16.5-.43.5-.36-.24-.62-.76c-.1-.17-.2-.37-.33-.6a4.89,4.89,0,0,1-.6-1.32c0-.26.46-.39,1.82-.72.62-.17.82-.37.82-1V13.4c0-.76-.06-1.55-.06-2.31,0-1.29.42-1.62,1.68-1.62.59,0,1.19,0,1.78,0S7,9.18,7,8.68A5.15,5.15,0,0,0,6.9,7.26V7c0-.39.23-.46.56-.46s1.72.13,2.18.17c.23,0,.72.06.72.39s-.16.3-.43.46-.39.63-.42,1.13.26.86.89.86c.46,0,.92,0,1.38,0,1.09,0,1.62.23,1.62,1.42,0,.83-.07,1.68-.07,2.51v2.9c0,.76.07,1.52.07,2.28,0,1.19-.43,1.49-1.58,1.49-.63,0-1.26-.07-1.89-.07Zm4-6.24a.62.62,0,0,0,.66-.66v-.79a.62.62,0,0,0-.66-.66H6a.62.62,0,0,0-.66.66v.79a.62.62,0,0,0,.66.66Zm-4.06,2a.74.74,0,0,0-.79.79v.56a.74.74,0,0,0,.79.79h3.93a.76.76,0,0,0,.79-.79v-.56a.76.76,0,0,0-.79-.79Z"/><path class="cls-1" d="M49.22,5.35a.66.66,0,0,1-.3.49c-1.38,1.35-4.29,7.23-4.29,7.56,0,.49.66.59,1.19.69a22.83,22.83,0,0,1,3.79,1.19,1.73,1.73,0,0,0,.6.17c.49,0,.63-.37.73-.76a17,17,0,0,0,.56-3.83v-.27c0-.33,0-.72.43-.72.26,0,2.34.43,2.67.53s.53.16.53.46a.73.73,0,0,1-.2.39c-.4.4-.4.37-.56,1.16-.23,1.12-.5,2.24-.79,3.37a1.65,1.65,0,0,0-.14.59c0,.53.4.79.83,1,.66.33,2.57,1.36,3.13,1.59.3.13.76.29.76.69,0,.56-1.28,2.58-1.88,2.58-.26,0-.56-.3-.76-.47-.53-.43-2.54-2-3.13-2a.74.74,0,0,0-.63.49,23.17,23.17,0,0,1-3.7,5.15c-.46.5-2.57,2.48-3.16,2.48-.43,0-2.22-1.06-2.22-1.62,0-.27.33-.46.53-.56,3.47-1.75,6.24-6.31,6.24-7s-.53-.76-1.49-1.16a19,19,0,0,0-4.29-1.19c-.62,0-.85.47-1.68,2.12-.16.36-.4.76-.63,1.25-1,2-2.17,4.65-4.85,4.65a3.64,3.64,0,0,1-3.63-3.82c0-2.94,2.64-5.42,5.25-6.31a11.45,11.45,0,0,1,2.77-.56c.56,0,.86-.1,1.12-.66.9-1.81,1.72-3.7,2.68-5.48A1.63,1.63,0,0,0,45,6.86a.35.35,0,0,0-.33-.33c-.13,0-4.59,1.69-5,1.85a2.53,2.53,0,0,1-.82.23c-.83,0-1.65-2-1.65-2.44s.36-.39.63-.46a32.46,32.46,0,0,0,7.88-2.38,1.87,1.87,0,0,1,.9-.36C47,3,49.22,4.65,49.22,5.35ZM35.32,20.46c0,.66.33,1.22,1,1.22,1.19,0,2.18-1.91,2.7-2.83a10.6,10.6,0,0,0,1-2.18.33.33,0,0,0-.36-.33C38.33,16.34,35.32,18.15,35.32,20.46Z"/><path class="cls-1" d="M75.86,2.08c0,.16-.14.26-.24.36-.62.4-.69.66-1.15,2.35L74,6.6a1.29,1.29,0,0,0-.06.36.41.41,0,0,0,.43.4,8.66,8.66,0,0,0,1.22-.3,18.9,18.9,0,0,0,2.9-.95,2.78,2.78,0,0,1,.89-.27c.57,0,.53,1.32.53,1.72,0,.66,0,1-.43,1.22A42.79,42.79,0,0,1,74,10.1c-1.12.23-1.22.26-1.55,1.29a103.2,103.2,0,0,1-6.21,14.75c-.39.76-.62,1.29-1.12,1.29S63,26.57,63,25.94c0-.26.36-.72.53-1,2.08-2.93,5-10,6.24-13.49a1.43,1.43,0,0,0,.06-.3.45.45,0,0,0-.49-.46c-.36,0-2.15.16-3.37.16-.86,0-1.22,0-1.32-.33a12.77,12.77,0,0,1-.3-2c0-.36.1-.56.5-.56.23,0,1.55.17,2.94.17.76,0,1.48,0,2.21-.1a1,1,0,0,0,.79-.3c.5-.56,1.39-5.31,1.42-6.24,0-.36,0-.79.36-.79C72.56.76,75.86,1.52,75.86,2.08Zm-1.26,21c1.49,1.62,4,1.85,6,1.85a14.09,14.09,0,0,0,4.56-.63.86.86,0,0,1,.26,0c.56,0,.56.86.56,1.71,0,.57,0,1.16-.36,1.32a24.56,24.56,0,0,1-4.82.4c-2.11,0-5.08-.2-6.9-1.35-.46-.3-1.58-1.12-1.58-1.75,0-.46,1.19-2,1.65-2C74.21,22.61,74.47,22.91,74.6,23.07Zm4.16-11a20.22,20.22,0,0,1,6.3.89.55.55,0,0,1,.4.59,6,6,0,0,1-.4,1.72.56.56,0,0,1-.59.46,1.69,1.69,0,0,1-.63-.19,14.9,14.9,0,0,0-5-.76l-1.29,0c-.66,0-.76-.23-.76-.76C76.78,12,77.18,12.08,78.76,12.08Z"/><path class="cls-1" d="M96.62,7.1c.23.06.62.16.62.46s-.13.33-.33.46c-.39.33-.43.79-.53,1.39a21.43,21.43,0,0,0-.23,3.2,20.18,20.18,0,0,0,1.16,7.46c.46,1.09,1.71,3.2,3,3.2,1,0,2-1.55,2.48-2.31.17-.3.43-.83.83-.83.56,0,1.84,1.09,1.84,1.59s-1.84,2.67-2.34,3.2a3.69,3.69,0,0,1-2.77,1.45c-2,0-3.6-1.58-4.62-3.17-2.11-3.2-2.45-7.62-2.45-11.38,0-1.06.1-3.8.17-4.89,0-.3.13-.46.43-.46A21.82,21.82,0,0,1,96.62,7.1Zm14-.47c.66,0,3,1.92,4.26,3.9a17.45,17.45,0,0,1,2.37,6.6,5,5,0,0,1,.1,1c0,.4-.1.63-.49.76a4.88,4.88,0,0,1-1.59.3c-1,0-.92-.43-1-1.06-.43-3.93-1.75-7-4.92-9.4a.61.61,0,0,1-.26-.5A2.28,2.28,0,0,1,110.61,6.63Z"/><path class="cls-1" d="M145.6,10.63c.76,0,1.55,0,2.34,0a2.1,2.1,0,0,1,1.95,1.92,6.73,6.73,0,0,1-.53,1.65A26,26,0,0,1,144,21.92a.77.77,0,0,0-.3.56.87.87,0,0,0,.33.62,22.49,22.49,0,0,0,6.73,3.63c.7.23,1.29.37,1.29.86s-.73,1.85-1.35,1.85a2.39,2.39,0,0,1-1.06-.33,21.35,21.35,0,0,1-7.46-4.46,1,1,0,0,0-.66-.26,1.16,1.16,0,0,0-.63.23,43.11,43.11,0,0,1-6,4,4.75,4.75,0,0,1-1.69.7c-.76,0-1.35-1.12-1.35-1.69s.59-.69,1.12-.95a47.8,47.8,0,0,0,6.14-3.83.76.76,0,0,0,.13-1.19A13.7,13.7,0,0,1,137,17.89c-.14-.2-.24-.33-.5-.33a.56.56,0,0,0-.43.23c-.49.56-2.64,3-3.27,3a2,2,0,0,1-1.55-1.45c0-.33.37-.66.6-.86a27.6,27.6,0,0,0,7.55-10.82.68.68,0,0,0,.07-.27c0-.39-.33-.53-.66-.53h-5.28c-.1,0-.23,0-.23.17s.06.1.13.13l.43.2c.59.26,1.12.53,1.12.86s-.46.39-.66.43a.89.89,0,0,0-.49.39A47.7,47.7,0,0,1,130,14.16a.41.41,0,0,0-.1.26c0,.2.16.27.33.3s.73.07.73.43-.17.3-.47.49c-.46.3-.43.76-.43,2.91v6.3c0,1.12.07,2.28.07,3.4s-.13,1.36-1.29,1.36-1.38-.1-1.38-1.29.06-2.31.06-3.47V17.66c0-.23-.1-.43-.36-.43a.48.48,0,0,0-.3.13c-.59.53-2.44,2.31-3.2,2.31s-1.29-1.25-1.29-1.62.37-.69.66-.92a34.29,34.29,0,0,0,8.55-9.54,1,1,0,0,0,.07-.3c0-.33-.23-.43-.5-.43h-3.86c-1.29,0-2.57.07-3.86.07-.66,0-.69-.3-.69-1.29s0-1.28.72-1.28c1.29,0,2.58.06,3.83.06H135c.63,0,.93-.26.93-.92A13.06,13.06,0,0,0,135.83,1a.93.93,0,0,1,0-.33c0-.43.27-.46.7-.46s1.81.13,2.18.17.79.06.79.42-.17.3-.43.5c-.43.3-.43.76-.4,2.18,0,.66.3.92.93.92h7.69c1.28,0,2.57-.06,3.86-.06.66,0,.69.29.69,1.28s0,1.29-.69,1.29c-1.29,0-2.58-.07-3.86-.07H141.6c-.23,0-.29,0-.29.1s.16.14.19.14c1,.29,1.32.36,1.32.72s-.46.46-.66.53-.29.26-.52.79a5.7,5.7,0,0,0-.4,1c0,.37.3.46.59.5Zm1.05,3.26a2.24,2.24,0,0,0,.23-.69c0-.3-.43-.33-1.12-.33h-5.18a1.3,1.3,0,0,0-1.35.73c-.17.26-.33.49-.5.76a1.29,1.29,0,0,0-.33.86,1.7,1.7,0,0,0,.13.56,15.79,15.79,0,0,0,2.41,4.32.8.8,0,0,0,.63.33,1,1,0,0,0,.59-.26A20,20,0,0,0,146.65,13.89Zm-3.63,2a6.2,6.2,0,0,1,.69,1.72c0,.53-1,.95-1.45.95s-.59-.49-.89-1.15-.72-1.45-1.12-2.18a1,1,0,0,1-.2-.53c0-.46,1.09-1,1.42-1s.66.43,1.19,1.49C142.76,15.45,142.89,15.68,143,15.94Z"/><path class="cls-1" d="M162,3.73c.24.1.63.26.63.56s-.23.36-.43.46c-.36.2-.49.4-.72,1a37.08,37.08,0,0,0-2,11.38,19.11,19.11,0,0,0,.43,4.42c.06.17.16.34.36.34s.46-.47.63-.9.82-2.08,1.18-2.08,1.06.5,1.06.8a11.2,11.2,0,0,1-.53,1.61,15.09,15.09,0,0,0-1.22,4.89c0,.39,0,.72,0,1,0,.89-1.85,1.15-1.94,1.15-.53,0-.76-.69-1.09-1.65a28.25,28.25,0,0,1-1.55-9.7A41.11,41.11,0,0,1,158.5,6.3a31.67,31.67,0,0,0,.7-3.1c0-.23.09-.56.36-.56A15.31,15.31,0,0,1,162,3.73Zm16.84,1.91c0,.6-.76.7-2.91,1-1.05.13-1.12.5-1.12,1.45,0,2.54-.07,3.34.63,3.34a17.28,17.28,0,0,0,3.73-.86,2.93,2.93,0,0,1,.89-.23c.3,0,.43.23.56.76a7.78,7.78,0,0,1,.26,1.45c0,.66-1.45.82-3.36,1.12-1.59.23-2.48.23-2.48,1.26s.23,3.86.27,5.21c0,.76.26.92.92,1.22.89.36,4.79,2.64,4.79,3.57,0,.52-1.06,2-1.65,2a.71.71,0,0,1-.53-.33c-.53-.6-2.45-2.58-3.2-2.58-.43,0-.43.4-.57.93-.52,2.18-3.06,2.7-5,2.7-2.24,0-5.05-.92-5.05-3.63,0-2.9,3-4,5.45-4a11,11,0,0,1,1.42.1h.19a.67.67,0,0,0,.66-.69c0-.63-.16-3.14-.19-3.93,0-.46,0-1.09-.7-1.09-.16,0-.33,0-.49,0-1.65.09-4.42.33-6.08.33-.29,0-.85,0-1-.24a10,10,0,0,1-.26-1.91c0-.46.16-.66.62-.66.7,0,1.39.07,2.08.07a39.62,39.62,0,0,0,5-.27.7.7,0,0,0,.6-.79c0-.26-.14-2.94-.14-3.37s-.19-.52-.59-.52-3.33.23-4.82.23c-.43,0-.79,0-.92-.47a10.32,10.32,0,0,1-.2-1.78c0-.36.16-.62.56-.62.1,0,.3.06.4.06a25.83,25.83,0,0,0,2.8.1,26.34,26.34,0,0,0,8.35-1.15,1.41,1.41,0,0,1,.36-.07C178.7,3.4,178.87,5.25,178.87,5.64ZM167.51,23.93c0,1.12,1.59,1.42,2.48,1.42,2,0,2.9-.6,2.9-2.21,0-.73-1-.83-2.08-.83S167.51,22.54,167.51,23.93Z"/><path class="cls-1" d="M191.92,3c.46-.06,1.71-.23,2.21-.23.86,0,.79.43.86,1.12a44.93,44.93,0,0,0,1.22,6.57c.06.33.19.86.72.86s5.25-2.87,6-3.33a1.78,1.78,0,0,1,.86-.4c.53,0,1.78,2.31,1.78,2.74s-.4.4-.63.46a60.41,60.41,0,0,0-8.84,4.29c-2.05,1.19-5.45,3.17-5.45,5.91,0,1.29,1.26,2.31,2.35,2.71a14.31,14.31,0,0,0,4.58.59,54.26,54.26,0,0,0,8.65-.82.93.93,0,0,1,.33,0c.46,0,.43,1.16.43,1.75,0,.89,0,1.26-.69,1.39-1.29.26-7.4.49-8.95.49a12.49,12.49,0,0,1-6.63-1.38,5.51,5.51,0,0,1-2.87-4.85c0-3.3,2.57-5.45,5.15-7.1.39-.26.82-.46.82-1a1.71,1.71,0,0,0-.13-.53,61.38,61.38,0,0,1-1.65-6,17.88,17.88,0,0,0-.7-2.37,1,1,0,0,1-.09-.4C191.26,3.14,191.65,3,191.92,3Zm15.67,2a12,12,0,0,1,1.26,2.21c0,.46-1.16,1.09-1.55,1.09s-.37-.23-.73-.86a21,21,0,0,0-1.42-2.31c-.2-.29-.33-.46-.33-.66s1.12-.95,1.49-.95S207.4,4.65,207.59,5Zm3.37-2A10.59,10.59,0,0,1,212.18,5c0,.46-1.15,1.12-1.55,1.12s-.36-.2-.5-.43a26.13,26.13,0,0,0-1.78-2.94c-.06-.1-.23-.26-.23-.43,0-.39,1.16-1,1.52-1S210.4,2.08,211,2.94Z"/><path class="cls-1" d="M222.18,26.14c0,.56-1.29,2.08-1.92,2.08-.29,0-.49-.27-.66-.5a20.12,20.12,0,0,0-5-4.39c-.23-.16-.53-.29-.53-.62a3.27,3.27,0,0,1,1.78-1.85C216.67,20.86,222.18,25.35,222.18,26.14Z"/><path class="cls-1" d="M240.59,4a.6.6,0,0,0-.53.3,37.27,37.27,0,0,1-5.25,5.55c-.29.26-.92.85-1.31.85A2.13,2.13,0,0,1,232,9.27c0-.36.53-.75.79-.95A28.3,28.3,0,0,0,239.5.59c.13-.26.27-.59.6-.59a7.69,7.69,0,0,1,1.42.49,5.4,5.4,0,0,0,.75.3c.27.07.5.17.5.43s-.43.36-.66.43a.14.14,0,0,0-.13.13.16.16,0,0,0,.06.13,26.59,26.59,0,0,0,4.69,4.79c.23.16.63.46.63.79S246.4,9,245.87,9c-.92,0-4.12-3.86-4.78-4.72A.65.65,0,0,0,240.59,4Zm-2.34,16c-.63,0-.89.3-.89.92V24c0,.37.13.7.56.7a.84.84,0,0,0,.26-.07c.89-.26,1.82-.53,2.71-.86a.51.51,0,0,0,.39-.46.6.6,0,0,0-.16-.36c-.13-.13-.23-.27-.33-.36-.4-.43-.63-.66-.63-1,0-.5,1.19-1.16,1.59-1.16a.71.71,0,0,1,.52.3c.63.66,1.23,1.39,1.82,2.11a23.76,23.76,0,0,1,1.75,2.38.34.34,0,0,0,.3.23c.33,0,1.42-1.35,1.65-1.62,3.07-3.86,3.56-8.68,3.59-13.43,0-.36-.1-.69-.62-.79a.74.74,0,0,0-.47.36,30.48,30.48,0,0,1-2.11,3.8.94.94,0,0,1-.76.49c-.39,0-1.61-.82-1.61-1.32a1,1,0,0,1,.29-.56A34.3,34.3,0,0,0,251,.73c.07-.27.13-.53.46-.53a17.55,17.55,0,0,1,1.92.46c.36.1.92.2.92.56,0,.2-.23.33-.4.43-.49.26-.49.33-.66,1A29.8,29.8,0,0,1,252,6.3a.7.7,0,0,0-.07.3c0,.5.5.5.63.53h4.09c.79,0,1.52-.07,2.25-.07a1.86,1.86,0,0,1,2,1.52,23.2,23.2,0,0,1-1.13,4c-.43,1.16-.69,1.95-1.22,1.95s-1.91-.56-1.91-1.09a.66.66,0,0,1,.13-.36,15.65,15.65,0,0,0,1.09-3.14c0-.36-.33-.33-.56-.33h-2.41c-.66,0-.89.27-1,.9s-.06,1.35-.06,2c0,.3,0,.59,0,.89a20.28,20.28,0,0,0,3,8.88A17.63,17.63,0,0,0,261.12,27c.23.2.5.36.5.69A2.24,2.24,0,0,1,260,29.44c-.72,0-2.27-1.65-2.77-2.21a20.75,20.75,0,0,1-4.12-7,.3.3,0,0,0-.3-.23.28.28,0,0,0-.26.2A18.3,18.3,0,0,1,246.17,29a1.5,1.5,0,0,1-.86.43,2.39,2.39,0,0,1-1.68-1.58c0-.23.2-.36.36-.5s.2-.16.2-.29a.46.46,0,0,0-.23-.37,3.34,3.34,0,0,1-.63-.95.68.68,0,0,0-.59-.33.63.63,0,0,0-.33.06c-2.61,1-5.22,2-7.89,2.81-.2.06-.27.29-.3.46s-.16.5-.43.5-.36-.24-.62-.76c-.1-.17-.2-.37-.34-.6a5.19,5.19,0,0,1-.59-1.32c0-.26.46-.39,1.82-.72.62-.17.82-.37.82-1V13.4c0-.76-.07-1.55-.07-2.31,0-1.29.43-1.62,1.69-1.62.59,0,1.19,0,1.78,0s.73-.33.76-.83a5.15,5.15,0,0,0-.13-1.42V7c0-.39.23-.46.56-.46s1.72.13,2.18.17c.23,0,.72.06.72.39s-.16.3-.43.46-.39.63-.42,1.13.26.86.89.86c.46,0,.92,0,1.38,0,1.09,0,1.62.23,1.62,1.42,0,.83-.07,1.68-.07,2.51v2.9c0,.76.07,1.52.07,2.28,0,1.19-.43,1.49-1.58,1.49-.63,0-1.26-.07-1.89-.07Zm4-6.24a.62.62,0,0,0,.66-.66v-.79a.62.62,0,0,0-.66-.66H238a.62.62,0,0,0-.66.66v.79a.62.62,0,0,0,.66.66Zm-4.06,2a.74.74,0,0,0-.79.79v.56a.74.74,0,0,0,.79.79h3.93a.76.76,0,0,0,.79-.79v-.56a.76.76,0,0,0-.79-.79Z"/><path class="cls-1" d="M281.83,2.87c.23.1.5.23.5.53s-.1.3-.27.53a4.35,4.35,0,0,0-.52,2c0,.23,0,.43,0,.66,0,.62.6.69,1.06.79a11.86,11.86,0,0,1,4.69,2.28,8.25,8.25,0,0,1,3.06,6.73c0,4.85-2.93,8.05-7,10.3a13.34,13.34,0,0,1-3,1.28c-.6,0-1.78-1.55-1.78-2.11,0-.36.42-.43.89-.59,4-1.35,8.05-4.23,8.05-8.91,0-3.44-2.21-5.42-5.31-6.37a2.08,2.08,0,0,0-.63-.13c-.5,0-.66.39-.73.79a25.57,25.57,0,0,1-3.17,8.71,14.68,14.68,0,0,1-4.29,4.75,7.6,7.6,0,0,1-3.92,1.32c-2.88,0-3.8-3-3.8-5.41a12.35,12.35,0,0,1,3.3-8.38.89.89,0,0,0,.27-.6,3.27,3.27,0,0,0-.2-.76c-.47-1.45-.86-2.9-1.29-4.35a2.59,2.59,0,0,1-.1-.4c0-.26.23-.43.46-.53a11.42,11.42,0,0,1,2-.49c.49,0,.49.39.56.79a32.42,32.42,0,0,0,.76,3.24c.1.29.19.52.52.52a1.93,1.93,0,0,0,.7-.26,14,14,0,0,1,4.92-1.65c1.08-.13,1.18-.2,1.18-2.84,0-.53,0-1.06,0-1.58,0-.27.07-.53.4-.53A17.86,17.86,0,0,1,281.83,2.87ZM268.37,20c0,1,.13,2.71,1.45,2.71s3.37-1.42,3.37-2.28a.88.88,0,0,0-.14-.5c-.89-1.65-1.51-3.36-2.31-5-.06-.17-.16-.4-.39-.4C269.79,14.49,268.37,17.26,268.37,20Zm4.22-7.79a38,38,0,0,0,1.65,4.29c.4.86.6,1.36.89,1.36s.53-.43.83-1a22.15,22.15,0,0,0,2.18-6.37,1,1,0,0,0,0-.3.47.47,0,0,0-.5-.5C276.65,9.7,272.59,11,272.59,12.21Z"/><path class="cls-1" d="M307.51,1.88c.16.07.4.17.4.4s-.2.33-.47.59a14.79,14.79,0,0,0-.95,3,5.78,5.78,0,0,0-.14.63.38.38,0,0,0,.4.39A23.32,23.32,0,0,0,309,6.27a1.61,1.61,0,0,1,.36-.1c.5,0,.56,1.75.56,2.15,0,.76-.39.76-3.63,1.35-1.09.2-1.06.36-1.42,1.39A79.18,79.18,0,0,1,301,20.17c-.49.95-1,1.91-1.55,2.87a.6.6,0,0,1-.56.39c-.56,0-2.31-.76-2.31-1.35a4.37,4.37,0,0,1,.53-1.12A54.92,54.92,0,0,0,301.17,13a16.11,16.11,0,0,0,.83-2.25.37.37,0,0,0-.4-.39,4.91,4.91,0,0,0-.66.06c-.53.07-3,.3-3.4.3s-.66-.3-.76-.86a12.62,12.62,0,0,1-.16-1.48c0-.4.2-.5.56-.5s.53,0,.76,0c.89,0,4.62,0,5.11-.56a7,7,0,0,0,.7-2.08,18.31,18.31,0,0,0,.52-3.76c0-.23,0-.53.3-.53A26.69,26.69,0,0,1,307.51,1.88Zm4.92,9.57c.29.07.56.23.56.56,0,.14-.07,1.13-.07,1.79,0,1.75.13,5,.33,6.73.07.59.3.76.83,1A19.38,19.38,0,0,1,317.41,23c.4.23,1.91,1.05,1.91,1.48s-.95,1.92-1.65,1.92c-.29,0-.59-.27-.82-.43-.53-.4-2.48-1.75-3.1-1.75-.37,0-.4.53-.43.82-.23,2.48-2,3.47-4.33,3.47s-5.54-1.35-5.54-4.19,2.84-3.8,5.25-3.8l1.22,0c.33,0,.63-.06.63-.46,0-.95-.47-6.86-.63-7.95v-.4c0-.43.26-.59.66-.59A8.78,8.78,0,0,1,312.43,11.45Zm-6.34,12.84c0,1.19,1.68,1.82,2.67,1.82,1.42,0,2.05-.73,2.05-2.12,0-.82-.1-1.12-2-1.12C307.87,22.87,306.09,23,306.09,24.29Zm14.52-12.61c0,.66-1.48,1.75-2,1.75-.3,0-.43-.23-.59-.46a18.08,18.08,0,0,0-4-4.16c-.2-.13-.43-.33-.43-.56,0-.4,1.22-1.75,1.75-1.75C316.16,6.5,320.61,10.86,320.61,11.68Z"/><path class="cls-1" d="M330.89,7.1c.23.06.63.16.63.46s-.13.33-.33.46c-.4.33-.43.79-.53,1.39a21.43,21.43,0,0,0-.23,3.2,20.38,20.38,0,0,0,1.15,7.46c.47,1.09,1.72,3.2,3,3.2,1,0,2.05-1.55,2.48-2.31.16-.3.43-.83.82-.83.56,0,1.85,1.09,1.85,1.59s-1.85,2.67-2.34,3.2a3.71,3.71,0,0,1-2.78,1.45c-2,0-3.59-1.58-4.62-3.17-2.11-3.2-2.44-7.62-2.44-11.38,0-1.06.1-3.8.17-4.89,0-.3.13-.46.43-.46A21.28,21.28,0,0,1,330.89,7.1Zm14-.47c.66,0,3,1.92,4.25,3.9a17.3,17.3,0,0,1,2.38,6.6,5,5,0,0,1,.1,1c0,.4-.1.63-.5.76a4.82,4.82,0,0,1-1.58.3c-1,0-.92-.43-1-1.06-.43-3.93-1.75-7-4.92-9.4a.61.61,0,0,1-.26-.5A2.28,2.28,0,0,1,344.89,6.63Z"/><path class="cls-1" d="M379.87,10.63c.76,0,1.55,0,2.35,0a2.09,2.09,0,0,1,1.94,1.92,6.69,6.69,0,0,1-.52,1.65,25.85,25.85,0,0,1-5.42,7.76.79.79,0,0,0-.29.56.87.87,0,0,0,.33.62A22.49,22.49,0,0,0,385,26.73c.69.23,1.29.37,1.29.86s-.73,1.85-1.36,1.85a2.39,2.39,0,0,1-1.05-.33,21.35,21.35,0,0,1-7.46-4.46,1,1,0,0,0-.66-.26,1.16,1.16,0,0,0-.63.23,42.63,42.63,0,0,1-6,4,4.78,4.78,0,0,1-1.68.7c-.76,0-1.35-1.12-1.35-1.69s.59-.69,1.12-.95a49.23,49.23,0,0,0,6.14-3.83.83.83,0,0,0,.36-.63.88.88,0,0,0-.23-.56,13.73,13.73,0,0,1-2.18-3.76c-.13-.2-.23-.33-.49-.33a.56.56,0,0,0-.43.23c-.5.56-2.64,3-3.27,3a2,2,0,0,1-1.55-1.45c0-.33.36-.66.59-.86A27.62,27.62,0,0,0,373.7,7.66a.9.9,0,0,0,.07-.27c0-.39-.33-.53-.66-.53h-5.28c-.1,0-.23,0-.23.17s.06.1.13.13l.43.2c.59.26,1.12.53,1.12.86s-.46.39-.66.43a.91.91,0,0,0-.5.39,46.41,46.41,0,0,1-3.83,5.12.45.45,0,0,0-.09.26c0,.2.16.27.33.3s.72.07.72.43-.16.3-.46.49c-.46.3-.43.76-.43,2.91v6.3c0,1.12.07,2.28.07,3.4s-.14,1.36-1.29,1.36-1.39-.1-1.39-1.29.07-2.31.07-3.47V17.66c0-.23-.1-.43-.36-.43a.46.46,0,0,0-.3.13c-.59.53-2.44,2.31-3.2,2.31s-1.29-1.25-1.29-1.62.36-.69.66-.92a34.29,34.29,0,0,0,8.55-9.54,1.41,1.41,0,0,0,.07-.3c0-.33-.24-.43-.5-.43h-3.86c-1.29,0-2.58.07-3.86.07-.66,0-.7-.3-.7-1.29s0-1.28.73-1.28c1.29,0,2.57.06,3.83.06h7.72c.63,0,.93-.26.93-.92A12.31,12.31,0,0,0,370.1,1a1.23,1.23,0,0,1,0-.33c0-.43.26-.46.69-.46s1.82.13,2.18.17.79.06.79.42-.16.3-.42.5c-.43.3-.43.76-.4,2.18,0,.66.3.92.92.92h7.69c1.29,0,2.58-.06,3.86-.06.66,0,.7.29.7,1.28s0,1.29-.7,1.29c-1.28,0-2.57-.07-3.86-.07h-5.64c-.23,0-.3,0-.3.1s.17.14.2.14c1,.29,1.32.36,1.32.72s-.46.46-.66.53-.3.26-.53.79a5.58,5.58,0,0,0-.39,1c0,.37.29.46.59.5Zm1.06,3.26a2.24,2.24,0,0,0,.23-.69c0-.3-.43-.33-1.12-.33h-5.18a1.31,1.31,0,0,0-1.36.73c-.16.26-.33.49-.49.76a1.29,1.29,0,0,0-.33.86,1.48,1.48,0,0,0,.13.56,15.29,15.29,0,0,0,2.41,4.32.8.8,0,0,0,.63.33,1,1,0,0,0,.59-.26A20,20,0,0,0,380.93,13.89Zm-3.63,2a6.2,6.2,0,0,1,.69,1.72c0,.53-1,.95-1.45.95s-.59-.49-.89-1.15-.73-1.45-1.12-2.18a1,1,0,0,1-.2-.53c0-.46,1.09-1,1.42-1s.66.43,1.19,1.49C377,15.45,377.17,15.68,377.3,15.94Z"/><path class="cls-1" d="M393,6.47c4.82-.27,9.6-.79,14.39-1.35,2.34-.3,5.28-.6,7.56-1a1.54,1.54,0,0,1,.42-.07c.43,0,.5.36.57.69a12.09,12.09,0,0,1,.19,1.78c0,.73-.46.73-1.28.73a18.8,18.8,0,0,0-5.61.66,10.19,10.19,0,0,0-5.85,5,13.17,13.17,0,0,0-1.81,6.37,4.78,4.78,0,0,0,2.61,4.59,9.79,9.79,0,0,0,3.79.56c.43,0,.89,0,1.29,0s.76,0,.76.46a6.83,6.83,0,0,1-.46,2.15c-.2.43-.4.49-.9.49-5.31,0-10-1.88-10-8a15.13,15.13,0,0,1,4.16-10.2c.46-.46.63-.6.63-.76s-.27-.3-.43-.3c-.5,0-4.43.56-5.22.66-1.71.27-3.43.53-5.11,1a3,3,0,0,1-.5.1c-.72,0-.95-2.58-.95-2.78C391.23,6.47,391.65,6.53,393,6.47Zm20.59,5.38c.23.26,1.29,1.42,1.29,1.78s-1.06,1.26-1.49,1.26c-.19,0-.33-.2-.42-.37-.67-.92-1.42-1.81-2.18-2.7-.07-.1-.27-.3-.27-.43,0-.4,1.09-1.13,1.42-1.13S413,11.12,413.6,11.85Zm5.12.06c0,.43-1.06,1.26-1.49,1.26-.2,0-.33-.23-.46-.4a27.79,27.79,0,0,0-2.14-2.67c-.1-.13-.27-.3-.27-.46,0-.37,1.09-1.12,1.45-1.12A13.52,13.52,0,0,1,418.72,11.91Z"/><path class="cls-1" d="M430.43,3.63c.27.07.63.2.63.5s-.2.36-.36.49a3.19,3.19,0,0,0-.66,2,80,80,0,0,0-.73,11.26c0,2.83.07,6.93,3.93,6.93a8.9,8.9,0,0,0,6.6-3.4,9.93,9.93,0,0,0,2-4.92c.07-.46.14-1,.56-1,.63,0,2.22,1.32,2.22,2.24a11.91,11.91,0,0,1-1.29,3.73,11.53,11.53,0,0,1-9.9,6.27,6.8,6.8,0,0,1-5.51-2.51c-1.42-1.91-1.56-4.92-1.56-7.23,0-4.09.3-8.18.63-12.27a18.16,18.16,0,0,0,.07-1.95c0-.46,0-.79.46-.79A20.91,20.91,0,0,1,430.43,3.63Z"/><path class="cls-1" d="M463.16,2.08c0,.16-.13.26-.23.36-.63.4-.7.66-1.16,2.35l-.49,1.81a1,1,0,0,0-.07.36.41.41,0,0,0,.43.4,8.66,8.66,0,0,0,1.22-.3,18.9,18.9,0,0,0,2.9-.95,2.84,2.84,0,0,1,.9-.27c.56,0,.52,1.32.52,1.72,0,.66,0,1-.43,1.22a42.79,42.79,0,0,1-5.41,1.32c-1.12.23-1.22.26-1.55,1.29a104.31,104.31,0,0,1-6.2,14.75c-.4.76-.63,1.29-1.13,1.29s-2.21-.86-2.21-1.49c0-.26.37-.72.53-1,2.08-2.93,5-10,6.24-13.49a1.43,1.43,0,0,0,.06-.3.45.45,0,0,0-.49-.46c-.36,0-2.15.16-3.37.16-.86,0-1.22,0-1.32-.33a12.76,12.76,0,0,1-.29-2c0-.36.09-.56.49-.56.23,0,1.55.17,2.94.17.76,0,1.48,0,2.21-.1a1,1,0,0,0,.79-.3c.5-.56,1.39-5.31,1.42-6.24,0-.36,0-.79.36-.79C459.86.76,463.16,1.52,463.16,2.08Zm-1.26,21c1.49,1.62,4,1.85,6,1.85a14.09,14.09,0,0,0,4.56-.63.9.9,0,0,1,.26,0c.56,0,.56.86.56,1.71,0,.57,0,1.16-.36,1.32a24.49,24.49,0,0,1-4.82.4c-2.11,0-5.08-.2-6.9-1.35-.46-.3-1.58-1.12-1.58-1.75,0-.46,1.19-2,1.65-2C461.51,22.61,461.77,22.91,461.9,23.07Zm4.16-11a20.28,20.28,0,0,1,6.31.89.55.55,0,0,1,.39.59,6.32,6.32,0,0,1-.39,1.72.57.57,0,0,1-.6.46,1.69,1.69,0,0,1-.63-.19,14.86,14.86,0,0,0-5-.76l-1.29,0c-.66,0-.76-.23-.76-.76C464.08,12,464.48,12.08,466.06,12.08Z"/><path class="cls-1" d="M491.24,24.16a4.52,4.52,0,1,1-4.52-4.52A4.53,4.53,0,0,1,491.24,24.16Zm-7.56,0a3,3,0,1,0,3-3A3,3,0,0,0,483.68,24.16Z"/></g></g></svg>