<svg xmlns="http://www.w3.org/2000/svg" viewBox="0 0 533.49 29.51"><defs><style>.cls-1{fill:#231815;}</style></defs><g id="レイヤー_2" data-name="レイヤー 2"><g id="product"><path class="cls-1" d="M4.06,2.71c.46-.07,1.72-.23,2.21-.23.86,0,.79.42.86,1.12a45.18,45.18,0,0,0,1.22,6.57c.07.33.2.85.73.85s5.24-2.87,6-3.33a1.83,1.83,0,0,1,.86-.4c.53,0,1.78,2.31,1.78,2.74s-.39.4-.62.47a60.52,60.52,0,0,0-8.85,4.29C6.21,16,2.81,18,2.81,20.69,2.81,22,4.06,23,5.15,23.4A14.13,14.13,0,0,0,9.74,24a54.13,54.13,0,0,0,8.64-.82,1.23,1.23,0,0,1,.33,0c.47,0,.43,1.15.43,1.75,0,.89,0,1.25-.69,1.38-1.29.27-7.39.5-8.94.5a12.51,12.51,0,0,1-6.64-1.39A5.5,5.5,0,0,1,0,20.53c0-3.3,2.57-5.45,5.15-7.1.39-.26.82-.46.82-1a1.47,1.47,0,0,0-.13-.53c-.49-1.32-1.32-4.49-1.65-6A19.63,19.63,0,0,0,3.5,3.53a.81.81,0,0,1-.1-.39C3.4,2.84,3.8,2.74,4.06,2.71ZM19.74,4.65A12.46,12.46,0,0,1,21,6.86C21,7.33,19.84,8,19.44,8s-.36-.23-.73-.85a19.31,19.31,0,0,0-1.42-2.31c-.19-.3-.33-.47-.33-.66s1.13-1,1.49-1S19.54,4.36,19.74,4.65Zm3.36-2a10.59,10.59,0,0,1,1.22,2.08c0,.46-1.15,1.12-1.55,1.12s-.36-.2-.49-.43A26.6,26.6,0,0,0,20.5,2.48c-.07-.1-.23-.27-.23-.43,0-.4,1.15-1,1.51-1S22.54,1.78,23.1,2.64Z"/><path class="cls-1" d="M47,15.91C47,21,43.2,25,39,27.49a8.64,8.64,0,0,1-2.64,1.19c-.76,0-1.79-1.65-1.79-2.18,0-.33.4-.46.66-.56,4-1.32,8.85-5.18,8.85-9.77,0-3.13-1.88-5.08-5-5.08-2.87,0-5.11,1.39-7.19,3.17a1.13,1.13,0,0,1-.7.36c-.62,0-1.48-1.88-1.48-2.51s.63-.79,1-1A17.21,17.21,0,0,1,39.2,8.42C43.82,8.42,47,11.22,47,15.91ZM34.81,1.78A34.72,34.72,0,0,0,42.87,3.4c.46,0,.69.1.69.53,0,.2-.13,2.34-1,2.34s-6.37-1.22-7.46-1.52-1.85-.43-1.85-1c0-.3.39-2.15,1.05-2.15A1.65,1.65,0,0,1,34.81,1.78Z"/><path class="cls-1" d="M61,5c0-.53.39-.56.92-.63,1.68-.23,7.36-1.45,8.75-2.21a1.62,1.62,0,0,1,.72-.33c.83,0,2.28,2.25,2.28,2.87,0,.4-.66.76-1.22,1.13-.92.59-6.8,6.56-8.15,7.85-.17.13-.63.53-.63.76a.22.22,0,0,0,.23.2c.2,0,1.85-.56,2.18-.66,3.2-1,8.55-2.58,11.39-3.7a2.22,2.22,0,0,1,.36-.1c.59,0,.66,1.45.76,1.95a3.07,3.07,0,0,1,.07.53c0,.53-.5.56-1.29.69a17.43,17.43,0,0,0-5,1.72c-2.44,1.28-6,4-6,7s4.36,3.5,6.6,3.5c.63,0,.86.09.86.42a9,9,0,0,1-.39,1.82.82.82,0,0,1-.93.63,15.4,15.4,0,0,1-5.15-1.09c-2.08-.93-3.76-2.58-3.76-5s1.49-4.22,3.14-5.64c.13-.1.33-.23.33-.4s-.17-.23-.3-.23a3.77,3.77,0,0,0-.83.23,82.56,82.56,0,0,0-8.44,3.24,2.76,2.76,0,0,1-.86.3c-.6,0-1.29-1.79-1.29-2.31,0-.33.43-.43,1.32-.7A3.94,3.94,0,0,0,58.49,16c2.18-1.78,7.62-7.49,9.8-9.77a.64.64,0,0,0,.2-.39.23.23,0,0,0-.23-.23C68,5.58,63.57,7,63,7.16a2.58,2.58,0,0,1-.83.23C61.53,7.39,61,5.51,61,5Zm17.39.1a10.38,10.38,0,0,1,1.29,1.88c0,.46-1.06,1.22-1.49,1.22-.23,0-.36-.23-.46-.39-.53-.83-1.42-1.95-2-2.74-.1-.14-.27-.3-.27-.47,0-.36,1.09-1.08,1.42-1.08S78.13,4.72,78.39,5.05ZM83,4.72c0,.43-1.09,1.22-1.49,1.22-.2,0-.3-.16-.43-.3a34.07,34.07,0,0,0-2.11-2.83c-.13-.17-.26-.3-.26-.43,0-.4,1.08-1.13,1.45-1.13S83,4.39,83,4.72Z"/><path class="cls-1" d="M91.2,20.07c-.39.13-.46.33-.86,1.42a29.77,29.77,0,0,1-2.77,5.67c-.2.3-.39.6-.79.6s-1.91-.56-1.91-1.13c0-.23.26-.52.39-.72a22.68,22.68,0,0,0,3.14-6.47c.13-.43.16-.69.46-.69a13.46,13.46,0,0,1,1.75.43c.59.16,1,.26,1,.56S91.33,20,91.2,20.07Zm16.18-4.89H92.09c-.33,0-.52.3-.72.56s-.83.23-1.26.23c-1,0-1.35-.06-1.35-.76s.07-1.58.07-2.37v-8c0-.69,0-1.39,0-2.08,0-1.26.7-1.45,1.79-1.45.89,0,1.81.06,2.7.06h12.91c.89,0,1.78-.06,2.7-.06s1.79.19,1.79,1.45c0,.69,0,1.39,0,2.08v8c0,.79.07,1.58.07,2.37,0,.63-.23.76-1.26.76s-1.18-.06-1.35-.23S107.67,15.21,107.38,15.18ZM98.46,4.62a.89.89,0,0,0-.89-.89H92.32a.94.94,0,0,0-.92.89V6.2a.9.9,0,0,0,.92.9h5.22a.89.89,0,0,0,.92-.9Zm0,5.64a.89.89,0,0,0-.89-.89H92.32a.94.94,0,0,0-.92.89V12a.9.9,0,0,0,.92.89h5.22a.89.89,0,0,0,.92-.89ZM103,26.37c1.15,0,2,.07,2.57-3.43.13-.69.2-.89.73-.89.69,0,1.91.23,1.91,1.09a14,14,0,0,1-1.61,4.75c-.83,1-1.92,1-3.11,1H96.62c-1.75,0-3.6-.27-3.6-2.45,0-.49.06-1,.06-1.45V20.66A20,20,0,0,0,93,18.22v-.3c0-.33.17-.39.46-.39s1.82.09,2.28.13c.23,0,.76,0,.76.36s-.16.3-.3.4c-.49.36-.49.92-.49,2.24V25c0,1.32.49,1.42,1.88,1.42Zm-1.29-4c-.4,0-.56-.26-.76-.56a28.49,28.49,0,0,0-3.13-4,1.18,1.18,0,0,1-.37-.7c0-.56,1.22-1.28,1.69-1.28a.76.76,0,0,1,.62.36c.6.63,1.13,1.29,1.65,1.95.4.49,2,2.47,2,3C103.41,21.72,102.09,22.34,101.73,22.34ZM107.14,7.1a.9.9,0,0,0,.9-.9V4.62a.89.89,0,0,0-.9-.89H101.9a.9.9,0,0,0-.93.89V6.2a.9.9,0,0,0,.93.9ZM101,12a.9.9,0,0,0,.93.89h5.24A.89.89,0,0,0,108,12V10.26a.89.89,0,0,0-.9-.89H101.9a.9.9,0,0,0-.93.89Zm11.29,15.51c-.5,0-.63-.33-.79-.76a32.19,32.19,0,0,0-3.27-6.5,1.2,1.2,0,0,1-.26-.66c0-.56,1.28-1.09,1.68-1.09a.76.76,0,0,1,.63.36,36.18,36.18,0,0,1,1.94,3.27A26.5,26.5,0,0,1,114,26.24C114,27,112.66,27.46,112.26,27.46Z"/><path class="cls-1" d="M136.67,15.91c0,5.11-3.83,9.11-8,11.58A8.64,8.64,0,0,1,126,28.68c-.76,0-1.78-1.65-1.78-2.18,0-.33.39-.46.66-.56,4-1.32,8.84-5.18,8.84-9.77,0-3.13-1.88-5.08-5-5.08-2.87,0-5.11,1.39-7.19,3.17a1.13,1.13,0,0,1-.69.36c-.63,0-1.49-1.88-1.49-2.51s.63-.79,1-1a17.21,17.21,0,0,1,8.45-2.67C133.46,8.42,136.67,11.22,136.67,15.91ZM124.45,1.78a34.72,34.72,0,0,0,8.06,1.62c.46,0,.69.1.69.53,0,.2-.13,2.34-1,2.34s-6.37-1.22-7.46-1.52-1.85-.43-1.85-1c0-.3.4-2.15,1.06-2.15A1.66,1.66,0,0,1,124.45,1.78Z"/><path class="cls-1" d="M150.64,5c0-.53.4-.56.92-.63,1.69-.23,7.36-1.45,8.75-2.21a1.61,1.61,0,0,1,.73-.33c.82,0,2.27,2.25,2.27,2.87,0,.4-.66.76-1.22,1.13-.92.59-6.8,6.56-8.15,7.85-.17.13-.63.53-.63.76a.22.22,0,0,0,.23.2c.2,0,1.85-.56,2.18-.66,3.2-1,8.55-2.58,11.39-3.7a2.22,2.22,0,0,1,.36-.1c.6,0,.66,1.45.76,1.95a3.07,3.07,0,0,1,.07.53c0,.53-.5.56-1.29.69A17.43,17.43,0,0,0,162.06,15c-2.44,1.28-6,4-6,7s4.36,3.5,6.61,3.5c.62,0,.85.09.85.42a9,9,0,0,1-.39,1.82.82.82,0,0,1-.93.63,15.45,15.45,0,0,1-5.15-1.09c-2.07-.93-3.76-2.58-3.76-5s1.49-4.22,3.14-5.64c.13-.1.33-.23.33-.4s-.17-.23-.3-.23a3.54,3.54,0,0,0-.82.23,82.73,82.73,0,0,0-8.45,3.24,2.67,2.67,0,0,1-.86.3c-.6,0-1.29-1.79-1.29-2.31,0-.33.43-.43,1.32-.7a3.94,3.94,0,0,0,1.75-.86c2.18-1.78,7.62-7.49,9.8-9.77a.64.64,0,0,0,.2-.39.23.23,0,0,0-.23-.23c-.3,0-4.69,1.38-5.28,1.58a2.51,2.51,0,0,1-.83.23C151.17,7.39,150.64,5.51,150.64,5Zm17.39.1a10.38,10.38,0,0,1,1.29,1.88c0,.46-1.06,1.22-1.49,1.22-.23,0-.36-.23-.46-.39-.53-.83-1.42-1.95-2-2.74-.1-.14-.27-.3-.27-.47,0-.36,1.09-1.08,1.42-1.08S167.77,4.72,168,5.05Zm4.56-.33c0,.43-1.09,1.22-1.49,1.22-.2,0-.3-.16-.43-.3a34.07,34.07,0,0,0-2.11-2.83c-.13-.17-.26-.3-.26-.43,0-.4,1.09-1.13,1.45-1.13S172.59,4.39,172.59,4.72Z"/><path class="cls-1" d="M187.32,2.54c.3.23,1.25.89,1.25,1.26s-.33.46-.62.52A1.34,1.34,0,0,0,187,5a44,44,0,0,0-2.78,3.73,43.22,43.22,0,0,0-3,5,.26.26,0,0,0,.26.26,1.59,1.59,0,0,0,.63-.3,9.24,9.24,0,0,1,4.49-1.61,3.91,3.91,0,0,1,2.93,1.32,3.93,3.93,0,0,1,.66,2.44,15.66,15.66,0,0,1-.42,3.27,20.2,20.2,0,0,0-.53,3.43c0,.63.2,1.48,1,1.48,2.11,0,5.21-3.89,6.3-5.51.13-.2.3-.43.56-.43.53,0,1.49,2.12,1.49,2.54a1.22,1.22,0,0,1-.36.7c-.76.76-1.52,1.52-2.32,2.24-1.71,1.55-3.82,3.34-6.27,3.34-2.21,0-3.1-1.92-3.1-3.87a21.32,21.32,0,0,1,.46-3.82,15.52,15.52,0,0,0,.33-2.81c0-1-.33-1.78-1.48-1.78a8.11,8.11,0,0,0-4,1.55,11.07,11.07,0,0,0-3.34,3.37A25.08,25.08,0,0,0,176,26c-.07.33-.2.59-.6.59s-2.57-.72-2.57-1.22c0,0,.53-1.32.56-1.39,1.19-2.83,2.41-5.61,3.76-8.31A103.65,103.65,0,0,1,184.05,4a12.15,12.15,0,0,0,1-1.68c.1-.2.4-.86.66-.86S187,2.31,187.32,2.54Z"/><path class="cls-1" d="M218.8,18.05a7.14,7.14,0,0,1,1.78,4.62c0,2.48-1.75,3.3-4,3.3-.72,0-4.16-.23-4.58-.62a6.68,6.68,0,0,1-.3-2.21c0-.23.1-.53.39-.53a2.55,2.55,0,0,1,.66.16,11.14,11.14,0,0,0,3.14.56c1,0,1.68-.33,1.68-1.41a6,6,0,0,0-1.78-3.57,1,1,0,0,0-.76-.46,13.81,13.81,0,0,0-3.17,1.65c-2.08,1.25-4.09,2.57-6.1,3.93-.66.46-.7.46-.93.92-.1.2-.26.43-.52.43-.53,0-1.92-2.54-1.92-2.94s.63-.56,1-.69c2.44-1,6.5-3.5,9-4.82.3-.16.66-.3.66-.69a.89.89,0,0,0-.26-.56,3.67,3.67,0,0,1-1.09-2.55,8.19,8.19,0,0,1,.83-3.13c.13-.3.26-.53.66-.53s2.18.73,2.18,1.19a1.35,1.35,0,0,1-.27.59,4.1,4.1,0,0,0-.63,2c0,.7.6,1.23,1,1.69a1.26,1.26,0,0,0,.92.52c.17,0,.27,0,.43,0a9.7,9.7,0,0,1,2-.2c7.46,0,11.71,7.33,11.71,8,0,.5-1.88,1.46-2.54,1.46-.33,0-.49-.27-.59-.53-1.39-3.07-4.56-6.47-8.19-6.47-.26,0-.72.1-.72.46C218.54,17.76,218.7,17.92,218.8,18.05Zm-.72-13.46a2.4,2.4,0,0,1,.42.26c.76.46,1.62.86,1.62,1.29s-1,2.21-1.48,2.21c-.23,0-.53-.26-.73-.43a21.68,21.68,0,0,0-4.29-2.57c-.33-.17-.69-.3-.69-.7s.72-2,1.28-2A24.77,24.77,0,0,1,218.08,4.59Zm10.1,4.29c0,.43-1,1.32-1.42,1.32-.27,0-.73-.69-.93-.93a27,27,0,0,0-1.88-2,.71.71,0,0,1-.26-.43c0-.36,1-1.18,1.38-1.18A13.7,13.7,0,0,1,228.18,8.88Zm3.2-2.25c0,.43-1,1.32-1.42,1.32-.17,0-.3-.19-.43-.33a28.64,28.64,0,0,0-2.38-2.57c-.1-.13-.26-.26-.26-.43,0-.36,1-1.22,1.38-1.22A13.84,13.84,0,0,1,231.38,6.63Z"/><path class="cls-1" d="M250.11,2.54c.3.23,1.26.89,1.26,1.26s-.33.46-.63.52a1.34,1.34,0,0,0-1,.63A41.86,41.86,0,0,0,247,8.68a43.39,43.39,0,0,0-3,5,.26.26,0,0,0,.26.26,1.53,1.53,0,0,0,.63-.3,9.24,9.24,0,0,1,4.49-1.61,4,4,0,0,1,2.94,1.32,3.93,3.93,0,0,1,.66,2.44,15.68,15.68,0,0,1-.43,3.27,20.2,20.2,0,0,0-.53,3.43c0,.63.2,1.48,1,1.48,2.11,0,5.22-3.89,6.3-5.51.14-.2.3-.43.57-.43.52,0,1.48,2.12,1.48,2.54a1.22,1.22,0,0,1-.36.7c-.76.76-1.52,1.52-2.31,2.24-1.72,1.55-3.83,3.34-6.27,3.34-2.21,0-3.11-1.92-3.11-3.87a20.46,20.46,0,0,1,.47-3.82,16.46,16.46,0,0,0,.33-2.81c0-1-.33-1.78-1.49-1.78a8.19,8.19,0,0,0-4,1.55,11,11,0,0,0-3.33,3.37,24.76,24.76,0,0,0-2.51,6.5c-.07.33-.2.59-.6.59s-2.57-.72-2.57-1.22c0,0,.53-1.32.56-1.39,1.19-2.83,2.41-5.61,3.76-8.31A105.16,105.16,0,0,1,246.84,4a12.15,12.15,0,0,0,1-1.68c.1-.2.4-.86.66-.86S249.81,2.31,250.11,2.54Z"/><path class="cls-1" d="M273.74,25.84c0,.56-1.29,2.08-1.92,2.08-.29,0-.49-.26-.66-.49a19.92,19.92,0,0,0-5-4.39c-.23-.17-.53-.3-.53-.63a3.27,3.27,0,0,1,1.78-1.85C268.23,20.56,273.74,25.05,273.74,25.84Z"/><path class="cls-1" d="M293.14,20c-.46,0-4.65,3.36-5.28,3.89-.13.1-.29.27-.46.27-.59,0-1.62-1.88-1.62-2.51,0-.33.3-.43.66-.63,1.85-1.09,3.6-2.31,5.42-3.4,1.35-.82,1.51-.89,1.51-1.78,0-1.22,0-2.44,0-3.7,0-.43-.2-.79-.7-.79-.09,0-2.6.43-2.93.5a4.56,4.56,0,0,1-.89.09c-.37,0-.83,0-.83-1.94,0-.86.13-.86.76-.89,1.19,0,2.44-.2,3.63-.33.53-.07.92-.23,1.06-.76,0-.17.13-3.11.13-3.44s0-.82-.07-1.18c0-.07,0-.23,0-.33a.39.39,0,0,1,.4-.43c.42,0,2.21.39,2.73.49.2.07.6.13.6.4s-.23.43-.4.56a3.66,3.66,0,0,0-.56,2.11c0,.27,0,.56-.06.86v.36a.46.46,0,0,0,.49.5,22,22,0,0,0,2.48-.66,2.09,2.09,0,0,1,.52-.13c.6,0,.7,1.65.7,2.11,0,.79-.4.82-3.17,1.29-1.45.23-1.32.49-1.32,3.26,0,.66,0,1.29.43,1.29a2.32,2.32,0,0,0,.72-.26,16.29,16.29,0,0,1,6-1.36c3.56,0,7,2.15,7,6a5.45,5.45,0,0,1-2.64,4.75c-1.82,1.16-4.72,1.36-6.83,1.36-.5,0-1.16,0-1.33-.27a6.39,6.39,0,0,1-.49-2.08c0-.33.13-.62.49-.62a21.6,21.6,0,0,0,2.78.33c2.18,0,5.15-.73,5.15-3.44,0-2.34-2.38-3.46-4.39-3.46a13.59,13.59,0,0,0-6.37,1.81,1.06,1.06,0,0,0-.4.86c0,.53.07,1.78.13,2.38s.3,3.86.3,4.09c0,1.52-1.68,2.11-2.48,2.11s-.92-.66-1.15-1.19a6.8,6.8,0,0,0-1.95-2.64c-.16-.13-.39-.33-.39-.56a.61.61,0,0,1,.62-.56c.33,0,1.32.89,1.75,1.09a1.07,1.07,0,0,0,.56.3c.17,0,.2-.13.2-.23s-.13-1.39-.13-1.85C293.51,20.46,293.57,20,293.14,20ZM306.77,7.29c.76.56,2.41,2,3.27,2.64a8.38,8.38,0,0,1,1.72,1.69c0,.53-1.12,1.85-1.69,1.85-.26,0-.49-.24-.69-.4a47.46,47.46,0,0,0-4.26-3.63c-.23-.2-.56-.4-.56-.73S305.72,7,306.18,7A1,1,0,0,1,306.77,7.29Z"/><path class="cls-1" d="M319.87,7c-.37.23-.37.33-.4.8a40.89,40.89,0,0,1-1.12,6.86c-.13.43-.27.66-.73.66s-1.42-.2-1.42-.69a4.7,4.7,0,0,1,.13-.63,25.12,25.12,0,0,0,1.09-6.83V6.67c0-.2,0-.6.47-.6.09,0,.69.07.82.07.83.1,1.42.1,1.42.46A.42.42,0,0,1,319.87,7Zm.59-3.53c0-.82,0-1.62-.1-2.44,0-.13,0-.26,0-.4,0-.42.26-.49.62-.49s1.92.16,2.32.2.49.13.49.43-.23.36-.43.52c-.43.3-.43.93-.43,2.28V23.9c0,1.48.1,3,.1,4.52,0,.89-.33,1.09-1.29,1.09s-1.32-.24-1.32-1.16c0-1.48.07-3,.07-4.45Zm14.88.6a.71.71,0,0,0-.52.29,47.49,47.49,0,0,1-7.33,7.86,2.63,2.63,0,0,1-1.29.69,2.21,2.21,0,0,1-1.55-1.58.6.6,0,0,1,.1-.33,1.2,1.2,0,0,0,.13-.5,1.76,1.76,0,0,0-.06-.39c-.33-.86-.6-1.75-1-2.61a14.14,14.14,0,0,1-.73-1.88c0-.5,1-.83,1.29-.83.5,0,.59.37,1,1.29s.73,1.68,1,2.54A.61.61,0,0,0,327,9a.73.73,0,0,0,.43-.16A32.17,32.17,0,0,0,334.32.43c.13-.23.27-.43.56-.43a8,8,0,0,1,1.65.56c.3.13,1,.36,1,.76,0,.16-.1.23-.23.33s-.27.16-.27.33a.32.32,0,0,0,.07.2,43.25,43.25,0,0,0,8.64,8.18c.24.17.53.37.53.7a2.24,2.24,0,0,1-1.58,1.61c-.6,0-2.68-1.84-3.17-2.31a44.42,44.42,0,0,1-5.68-6A.62.62,0,0,0,335.34,4Zm-2.6,20.2c0-.63-.23-.9-.89-.9h-2.12c-.62,0-.92.27-.92.93v1.32c0,1,.07,2,.07,3,0,.69-.17.83-1.19.83s-1.19-.14-1.19-.86c0-1,.07-2,.07-3V16.7c0-.66,0-1.35,0-2,0-1,.33-1.22,1.29-1.22.49,0,1,0,1.49,0h2.87c.49,0,1,0,1.55,0,.89,0,1.22.27,1.22,1.16,0,.69,0,1.38,0,2.08v8.38c0,.59.06,1.19.06,1.78,0,2.28-1.32,2.61-3.3,2.61-1,0-1.35-.2-1.35-1.78,0-.43,0-.66.36-.66s.63,0,1,0c1.05,0,1.09-.4,1.09-1.35Zm-.66-6.7a.63.63,0,0,0,.66-.66v-.66a.63.63,0,0,0-.66-.67H329.5a.66.66,0,0,0-.69.67v.66a.65.65,0,0,0,.69.66Zm-3.27,3.26a.68.68,0,0,0,.69.7h2.58a.66.66,0,0,0,.66-.7v-.72a.66.66,0,0,0-.66-.7H329.5a.68.68,0,0,0-.69.7Zm5.08-9.27c-.86,0-1.71,0-2.57,0-.7,0-.7-.43-.7-1.15s0-1.16.7-1.16c.86,0,1.71.07,2.57.07H337c.85,0,1.71-.07,2.57-.07s.69.5.69,1.16,0,1.15-.69,1.15l-2.57,0Zm3.3,5.51a10.66,10.66,0,0,0-.13-2.08v-.3c0-.33.2-.39.46-.39s1.75.13,2.12.16.52.07.52.37-.19.33-.39.49-.37.43-.37,1.42V21c0,1,.07,2.05.07,3.07,0,.83-.23,1-1.15,1s-1.19-.1-1.19-.93c0-1.05.06-2.08.06-3.1Zm4.69-1.29a10.63,10.63,0,0,0-.1-1.78V13.7c0-.33.23-.4.46-.4.47,0,1.16.1,1.75.13s1.12.1,1.12.47-.23.36-.46.49-.36.46-.36,1.52V25c0,2.68.43,4.43-3.86,4.43-.6,0-1.52.06-1.52-1.72,0-.4.1-.79.56-.79s.76,0,1.22,0c1.16,0,1.19-.39,1.19-1.85Z"/><path class="cls-1" d="M357.81,3.33c.26.07.63.2.63.5s-.2.36-.37.49a3.32,3.32,0,0,0-.66,2,81.57,81.57,0,0,0-.72,11.26c0,2.84.06,6.93,3.93,6.93a8.88,8.88,0,0,0,6.6-3.4,10,10,0,0,0,2-4.92c.07-.46.13-1,.56-1,.63,0,2.21,1.32,2.21,2.24a11.91,11.91,0,0,1-1.29,3.73,11.51,11.51,0,0,1-9.9,6.27,6.83,6.83,0,0,1-5.51-2.5c-1.42-1.92-1.55-4.92-1.55-7.23,0-4.1.3-8.19.63-12.28.06-.66.06-1.29.06-1.95,0-.46,0-.79.47-.79A21.61,21.61,0,0,1,357.81,3.33Z"/><path class="cls-1" d="M395.48,5.05a.64.64,0,0,1-.3.49c-1.38,1.36-4.29,7.23-4.29,7.56,0,.5.66.6,1.19.7a22,22,0,0,1,3.8,1.18,1.62,1.62,0,0,0,.59.17c.5,0,.63-.36.73-.76a17,17,0,0,0,.56-3.83V10.3c0-.33,0-.73.43-.73.26,0,2.34.43,2.67.53s.53.16.53.46a.76.76,0,0,1-.2.4c-.4.39-.4.36-.56,1.15-.23,1.12-.5,2.25-.79,3.37a1.64,1.64,0,0,0-.13.59c0,.53.39.8.82,1,.66.33,2.57,1.35,3.14,1.58.29.13.76.3.76.69,0,.56-1.29,2.58-1.89,2.58-.26,0-.56-.3-.75-.46-.53-.43-2.55-2-3.14-2a.74.74,0,0,0-.63.49,22.9,22.9,0,0,1-3.69,5.15c-.47.5-2.58,2.48-3.17,2.48-.43,0-2.21-1.06-2.21-1.62,0-.26.33-.46.52-.56,3.47-1.75,6.24-6.3,6.24-7s-.53-.76-1.48-1.15A18.73,18.73,0,0,0,389.94,16c-.63,0-.86.46-1.69,2.11-.16.36-.39.76-.62,1.25-1,2.05-2.18,4.66-4.86,4.66a3.65,3.65,0,0,1-3.63-3.83c0-2.94,2.64-5.41,5.25-6.3a11.67,11.67,0,0,1,2.77-.57c.57,0,.86-.1,1.13-.66C389.18,10.86,390,9,391,7.19a1.65,1.65,0,0,0,.26-.62.35.35,0,0,0-.33-.33c-.13,0-4.58,1.68-5,1.85a2.58,2.58,0,0,1-.83.23c-.82,0-1.65-2-1.65-2.45s.36-.39.63-.46A32.52,32.52,0,0,0,391.92,3a1.72,1.72,0,0,1,.89-.37C393.3,2.67,395.48,4.36,395.48,5.05ZM381.59,20.17c0,.66.33,1.22,1,1.22,1.19,0,2.18-1.92,2.71-2.84a10.6,10.6,0,0,0,1-2.18.34.34,0,0,0-.37-.33C384.59,16,381.59,17.86,381.59,20.17Z"/><path class="cls-1" d="M425.38,4.69c0,.36-.5.33-.73.33-.63,0-.79.43-1.25.66-1,.76-1.92,1.51-2.84,2.27-1.82,1.49-3.57,3-5.28,4.62a2.12,2.12,0,0,0-.86,1.49c0,1.09,1.68,2.84,2.44,3.6,2.18,2.24,4.56,4.32,6.9,6.4.39.33,1.29,1,1.29,1.52,0,.69-1.56,2.11-2.28,2.11-.33,0-.69-.49-.93-.76-1.25-1.48-2.6-2.87-4-4.22-1.75-1.75-3.5-3.5-5.11-5.38A5,5,0,0,1,411.22,14a3.76,3.76,0,0,1,.69-2.21A36,36,0,0,1,416,8.09a50.92,50.92,0,0,0,6.1-5.71c.1-.14.27-.33.46-.33s.86.52,1.26.92S425.38,4.36,425.38,4.69Z"/><path class="cls-1" d="M447.86,1.78c0,.17-.13.27-.23.37-.63.39-.7.66-1.16,2.34L446,6.3a1,1,0,0,0-.07.37.41.41,0,0,0,.43.39,10.19,10.19,0,0,0,1.22-.29,20.64,20.64,0,0,0,2.91-1,2.71,2.71,0,0,1,.89-.27c.56,0,.52,1.32.52,1.72,0,.66,0,1.06-.42,1.22A43.38,43.38,0,0,1,446,9.8c-1.12.23-1.22.27-1.55,1.29a104.31,104.31,0,0,1-6.2,14.75c-.4.76-.63,1.29-1.13,1.29S435,26.27,435,25.64c0-.26.37-.72.53-.95,2.08-2.94,5-10,6.24-13.5a1.41,1.41,0,0,0,.07-.3.46.46,0,0,0-.5-.46c-.36,0-2.14.16-3.37.16-.76,0-1.12,0-1.32-.33a6.77,6.77,0,0,1-.29-2c0-.36.1-.56.49-.56.23,0,1.55.17,2.94.17.76,0,1.48,0,2.21-.1a1,1,0,0,0,.79-.3c.5-.56,1.39-5.31,1.42-6.24,0-.36,0-.79.36-.79C444.56.46,447.86,1.22,447.86,1.78Zm-1.26,21c1.49,1.62,4,1.85,6,1.85A14.09,14.09,0,0,0,457.2,24a.9.9,0,0,1,.26,0c.56,0,.56.86.56,1.72,0,.56,0,1.15-.36,1.32a25.3,25.3,0,0,1-4.82.39c-2.11,0-5.08-.19-6.9-1.35-.46-.3-1.58-1.12-1.58-1.75,0-.46,1.19-2,1.65-2C446.21,22.31,446.47,22.61,446.6,22.77Zm4.16-11a20.24,20.24,0,0,1,6.31.89.56.56,0,0,1,.39.6,7.71,7.71,0,0,1-.39,1.71c-.14.3-.27.47-.6.47a2.36,2.36,0,0,1-.62-.2,14.24,14.24,0,0,0-5-.76l-1.29,0c-.66,0-.76-.23-.76-.76C448.78,11.65,449.18,11.78,450.76,11.78Zm6.41-5.51c0,.46-1,1.29-1.46,1.29-.19,0-.33-.2-.46-.37A32.35,32.35,0,0,0,453,4.59a.74.74,0,0,1-.27-.46c0-.33,1.06-1.16,1.39-1.16A13.83,13.83,0,0,1,457.17,6.27Zm3.3-1.95c0,.43-1,1.29-1.42,1.29-.23,0-.37-.2-.5-.36a28.65,28.65,0,0,0-2.24-2.61c-.1-.1-.27-.26-.27-.43C456,1.85,457.1,1,457.43,1A13.29,13.29,0,0,1,460.47,4.32Z"/><path class="cls-1" d="M474.76,1.58c.33.53,1.71,3.27,2.14,4.06.23.43.43.83,1,.83.73,0,3.24-1.45,3.93-1.88a1.71,1.71,0,0,1,.86-.43c.56,0,1.68,1.58,1.68,2s-3.83,2.18-4.49,2.45c-.43.16-.82.26-.82.76a7.65,7.65,0,0,0,.82,1.61c1.32,2.28,2.94,5.38,4.75,7.23a1.37,1.37,0,0,1,.53.86c0,.69-1.32,1.85-1.91,1.85s-1-.53-1.42-.79A16.28,16.28,0,0,0,474,17.49c-2,0-4,1.16-4,3.34,0,3.69,5.18,4.45,8,4.45.76,0,1.42-.06,1.78-.06.53,0,.63.33.63.79,0,2.34-1,2.11-1.39,2.11a23.45,23.45,0,0,1-5.45-.69c-3.26-.83-6.33-2.71-6.33-6.47s3.17-6,6.76-6a11.78,11.78,0,0,1,5.05,1.32,2.07,2.07,0,0,0,.4.13.27.27,0,0,0,.3-.26,1.69,1.69,0,0,0-.4-.76c-1-1.55-1.88-3.07-2.77-4.65-.23-.4-.46-.66-.93-.66a2.22,2.22,0,0,0-.43.06,44.65,44.65,0,0,1-8,1.29c-.59,0-.72-.2-.92-.69a4.91,4.91,0,0,1-.46-1.65c0-.47.29-.47,1.19-.5.19,0,.39,0,.62,0a32.67,32.67,0,0,0,6.14-.79c.3-.07.63-.24.63-.6,0-.53-2.18-3.79-2.61-4.39a.87.87,0,0,1-.3-.53c0-.52,2.28-1,2.58-1A.69.69,0,0,1,474.76,1.58Z"/><path class="cls-1" d="M496.49,6.8c.23.06.63.16.63.46s-.13.33-.33.46c-.4.33-.43.8-.53,1.39a21.53,21.53,0,0,0-.23,3.2,20.18,20.18,0,0,0,1.16,7.46c.46,1.09,1.71,3.2,3,3.2,1,0,2-1.55,2.48-2.31.16-.3.43-.82.82-.82.56,0,1.85,1.08,1.85,1.58s-1.85,2.67-2.34,3.2a3.68,3.68,0,0,1-2.78,1.45c-2,0-3.59-1.58-4.62-3.16-2.11-3.21-2.44-7.63-2.44-11.39,0-1.06.1-3.8.17-4.89,0-.29.13-.46.43-.46A23.15,23.15,0,0,1,496.49,6.8Zm14-.46c.66,0,3,1.91,4.25,3.89a17.3,17.3,0,0,1,2.38,6.6,5.14,5.14,0,0,1,.1,1,.66.66,0,0,1-.5.75,4.82,4.82,0,0,1-1.58.3c-1,0-.92-.43-1-1.05-.43-3.93-1.75-7-4.92-9.41A.59.59,0,0,1,509,8,2.27,2.27,0,0,1,510.49,6.34Z"/><path class="cls-1" d="M533.49,23.86A4.53,4.53,0,1,1,529,19.34,4.53,4.53,0,0,1,533.49,23.86Zm-7.56,0a3,3,0,1,0,3-3A3,3,0,0,0,525.93,23.86Z"/></g></g></svg>