<svg xmlns="http://www.w3.org/2000/svg" viewBox="0 0 716.78 29.54"><defs><style>.cls-1{fill:#231815;}</style></defs><g id="レイヤー_2" data-name="レイヤー 2"><g id="product"><path class="cls-1" d="M3.8,6.44A43.08,43.08,0,0,1,2.44,17.72c-.13.5-.29,1-.89,1S0,18.32,0,17.79a1.62,1.62,0,0,1,.2-.69A31,31,0,0,0,1.45,7.56c0-.73,0-1.52,0-2.08,0-.36,0-.56.46-.56A10.77,10.77,0,0,1,3,5c1.09.1,1.52.13,1.52.49,0,.2-.23.33-.4.43S3.83,6.17,3.8,6.44ZM8.65,10.3A59.62,59.62,0,0,1,8.12,19a19.34,19.34,0,0,1-2.64,7.79,24.15,24.15,0,0,1-1.65,2.35c-.2.19-.33.36-.63.36-.63,0-1.81-1-1.81-1.52,0-.23.33-.56.46-.73,4.16-5,4.29-10.85,4.29-17V3.43A22.12,22.12,0,0,0,6,.86c0-.1,0-.2,0-.3,0-.39.27-.46.6-.46S8.61.23,9,.3s.5.13.5.43-.2.29-.43.43c-.4.26-.43.59-.43,1.71Zm4.55,4.52c-.56,0-.82.26-.82.79v.27c0,.36.06.69.06,1,0,.66-.66.63-1.32.63s-1.28,0-1.28-.66c0-.37,0-.73,0-1.13v-.62c0-.53,0-.86,0-1.22,0-1.16.75-1.36,1.74-1.36.83,0,1.69.07,2.51.07H24.26c.82,0,1.68-.07,2.51-.07s1.78.17,1.78,1.29c0,.43,0,.86,0,1.29v.72c0,.37,0,.73,0,1.09,0,.66-.46.66-1.32.66-.59,0-1.29,0-1.29-.59,0-.37.07-.7.07-1v-.36a.7.7,0,0,0-.79-.79Zm10.33-9.7c.5,0,.7-.2.7-.7V3.93c0-.5-.2-.7-.7-.7H14.75c-.82,0-1.68.07-2.5.07-.67,0-.7-.23-.7-1.12s.07-1.09.66-1.09c.86,0,1.69.07,2.54.07h8.58c.63,0,1.29,0,1.92,0,1.06,0,1.55.23,1.55,1.36,0,.56,0,1.12,0,1.78V7.82c0,.63,0,1.12,0,1.62,0,1.15-.46,1.42-1.52,1.42-.66,0-1.29,0-2,0H14.69l-2.51,0c-.6,0-.69-.17-.69-1s.09-1.06.72-1.06c.83,0,1.65.07,2.48.07h8.84c.5,0,.7-.2.7-.66V7.56c0-.46-.2-.66-.7-.66H16.17C15,6.9,13.76,7,12.54,7,12,7,12,6.63,12,6s0-1,.63-1c1.18,0,2.4.07,3.59.07Zm.53,15.31c0-.66-.26-.92-.92-.92H21.26c-.66,0-.93.26-.93.92v4.69c0,1.12.07,2.21.07,3.33,0,.92-.3,1-1.29,1s-1.35,0-1.35-1,.06-2.21.06-3.33V20.4c0-.63-.23-.89-.89-.89H15.22c-.66,0-.93.26-.93.89v3.23c0,.89.07,1.78.07,2.67,0,.73-.27.8-1.26.8s-1.32,0-1.32-.76c0-.89.07-1.82.07-2.71V20.17c0-.66-.07-1.23-.07-1.79,0-1,.83-1,1.59-1s1.55,0,2.31,0H17c.46,0,.76-.16.79-.66,0-.26-.13-1.18-.13-1.22,0-.36.26-.43.53-.43.56,0,1.85.14,2.44.2.27,0,.46.17.46.43s-.13.26-.39.43a.71.71,0,0,0-.37.63c0,.49.33.62.76.62h1.46c.79,0,1.58,0,2.37,0s1.59,0,1.59,1c0,.53,0,1.12,0,1.75v2.84c0,.56,0,1.09,0,1.62,0,2.31-1.16,2.44-4,2.44H22c-.52,0-.92-.3-.92-1.69,0-.33,0-.66.43-.66s.73,0,1.09,0c1.35,0,1.45,0,1.45-1.26Z"/><path class="cls-1" d="M39.86,3.86c.29.17,1,.43,1,.76s-.43.5-.63.63c-.56.36-1.09,2.51-1.22,3.2a18.93,18.93,0,0,0-.4,3.86c0,.3,0,2.28.33,2.28s.43-.5.66-1,1-2.24,1.36-2.24,1,.43,1,.76a1.4,1.4,0,0,1-.16.46c-.73,1.65-2.05,4.59-2.05,6.33a6.61,6.61,0,0,0,0,.76,1.36,1.36,0,0,1,0,.4c0,.73-1.36,1.09-1.92,1.09s-.82-.53-1-1a28.33,28.33,0,0,1-1.05-7.63,30.58,30.58,0,0,1,1-7.59c.1-.43.2-.86.26-1.29,0-.19.1-.72.4-.72A18.77,18.77,0,0,1,39.86,3.86ZM52.4,2.77a43.66,43.66,0,0,1,1,9.28c0,5.74-1,10.59-5.15,14.78-.5.5-1.85,1.69-2.51,1.69-.43,0-2-1.26-2-1.85,0-.27.26-.43.46-.53a12.77,12.77,0,0,0,4.66-5.25,20.6,20.6,0,0,0,1.55-8.68A29.79,29.79,0,0,0,49.26,3.3a1.76,1.76,0,0,1-.06-.4c0-.62,2-.89,2.41-.89C52.23,2,52.3,2.41,52.4,2.77Z"/><path class="cls-1" d="M72.76,2.84c.26.1.82.2.82.56a.66.66,0,0,1-.26.46c-.56.46-.66,1.12-.83,2.28-.06.46-.13,1-.26,1.58a1.61,1.61,0,0,0-.07.37.58.58,0,0,0,.6.59c.23,0,1.19,0,1.81,0,3.37,0,4.62,2,4.62,5.18s-.49,7.36-1.91,10a6.5,6.5,0,0,1-6,3.47,1.27,1.27,0,0,1-1.36-.7,4.64,4.64,0,0,1-.53-1.88c0-.23.1-.43.37-.43s.89.17,1.61.17A3.44,3.44,0,0,0,75,22.18a19.81,19.81,0,0,0,1.48-7.59c0-1.92-.13-3.47-2.44-3.47s-2.57.43-2.74,1.16a39,39,0,0,1-5.41,11.88,35,35,0,0,1-2.18,2.94.79.79,0,0,1-.56.29c-.5,0-2.08-1-2.08-1.61,0-.27.26-.53.46-.73a28.14,28.14,0,0,0,6.11-9.83,27.53,27.53,0,0,0,.82-2.68.36.36,0,0,0-.39-.39,34.35,34.35,0,0,0-4.59,1.38,1.61,1.61,0,0,1-.36.1c-.66,0-1.22-2.44-1.22-2.74,0-.46.52-.43.85-.46,1.49-.13,4.1-.79,5.71-1.09,1-.2,1-.59,1.13-1.62A28.72,28.72,0,0,0,69.89,4a7.83,7.83,0,0,0-.1-1.18V2.67c0-.23.1-.43.33-.43S72.29,2.74,72.76,2.84ZM86.49,13.93c0,.56-1.59,1.52-2.18,1.52-.4,0-.56-.37-.69-.66a23.49,23.49,0,0,0-4.29-6.94.65.65,0,0,1-.3-.52C79,6.83,80.45,6,80.91,6,82.06,6,86.49,13.1,86.49,13.93ZM85,4.19c.27.27,1.09,1.16,1.09,1.42,0,.43-1,1.32-1.38,1.32-.2,0-.37-.23-.47-.36C83.48,5.68,82.72,4.85,81.9,4c-.1-.1-.3-.27-.3-.43,0-.37,1-1.22,1.39-1.22S84.71,3.89,85,4.19Zm4.16-.86c0,.47-1,1.36-1.42,1.36-.2,0-.33-.23-.46-.37C86.52,3.4,85.83,2.67,85,1.78c-.1-.1-.3-.26-.3-.43,0-.36,1-1.22,1.35-1.22A13.62,13.62,0,0,1,89.16,3.33Z"/><path class="cls-1" d="M95.11,14.82c-.5,0-1,.07-1.49.07-.66,0-.69-.37-.69-1.29s0-1.32.69-1.32c.5,0,1,.1,1.49.1H96c.66,0,1.32-.07,2-.07,1.16,0,1.78.26,1.78,1.49,0,.89,0,1.78,0,2.67v4.65c0,1.95,0,3.53,2.08,4.39,1.75.73,4.55.79,6.93.79H111c2.68,0,5.32,0,8-.09.66,0,1.52,0,2.15,0s.56.3.56.73c0,1.65-.43,1.85-1.92,1.85-.46,0-1,0-1.68,0h-8.81c-3.07,0-8.91.17-10.66-2.9a.71.71,0,0,0-.6-.4.77.77,0,0,0-.43.2c-.92.76-1.84,1.49-2.77,2.21a.77.77,0,0,0-.33.6c0,.26-.1.53-.39.53s-.33-.17-.53-.47a9,9,0,0,1-1.29-2.14c0-.3.33-.46,1.29-1,.36-.23,2.37-1.68,2.84-2A1.46,1.46,0,0,0,97.09,22V15.74c0-.66-.26-.92-.92-.92Zm3.7-6.9a1,1,0,0,1-.7-.49,37.2,37.2,0,0,0-4.32-4.56c-.2-.2-.46-.39-.46-.69,0-.5,1-1.42,1.55-1.42S97.52,3,98,3.5s2.44,2.54,2.44,3.07S99.3,7.92,98.81,7.92Zm6,2.61a34.74,34.74,0,0,1-1.65,11.81,12.08,12.08,0,0,1-.72,1.72.55.55,0,0,1-.5.33c-.53,0-2-.63-2-1.22a6.48,6.48,0,0,1,.33-.83c1.68-3.76,2-7.82,2-11.91V2.77c0-1,.37-1.28,1.62-1.28.89,0,1.82.06,2.74.06h9c.86,0,1.69,0,2.55,0s1.84,0,1.84,1.15c0,.5-.06,1-.06,1.49v.89c0,.49,0,1,0,1.48,0,1.13-.92,1.16-1.78,1.16l-2.58,0h-10c-.63,0-.93.26-.93.92Zm12.71-6.27a.65.65,0,0,0-.69-.66H105.51a.65.65,0,0,0-.7.66V5a.66.66,0,0,0,.7.66h11.32a.65.65,0,0,0,.69-.66Zm-2.44,9.24c-.5,0-.7.2-.7.66v.59c0,.5.2.7.7.7h1.28c.93,0,1.85-.07,2.78-.07.66,0,.62.43.62,1,0,.89,0,1.06-.92,1.06-.49,0-1.29-.07-2.48-.07h-1.28c-.5,0-.7.2-.7.66v.73c0,.46.2.66.7.66h2.11c1.19,0,2.38-.07,3.6-.07.66,0,.62.4.62,1.06s0,1.09-.62,1.09c-1.22,0-2.41-.1-3.6-.1h-1.88c-.66.07-.89.26-.89.92s0,1.39,0,2.08c0,.89-.2,1-1.32,1s-1.35-.14-1.35-1c0-.72,0-1.42.06-2.11s-.29-.89-.92-.89h-1.39c-1.19,0-2.37.1-3.59.1-.63,0-.63-.4-.63-1.09s0-1.06.66-1.06c1.19,0,2.37.07,3.56.07h1.65c.47,0,.66-.2.66-.66v-.73c0-.46-.16-.66-.66-.66h-.69c-.89,0-1.82.07-2.74.07-.66,0-.63-.4-.63-1.06s0-1,.63-1c.92,0,1.85.07,2.74.07h.69c.47,0,.66-.2.66-.7v-.59c0-.46-.16-.66-.66-.66h-1.09c-1.12,0-2.24.06-3.4.06-.62,0-.62-.36-.62-1.05,0-.93.06-1.09.82-1.09.4,0,1,0,2,0,.33,0,.56-.13.56-.46a.44.44,0,0,0-.07-.3,3.45,3.45,0,0,0-.26-.52,10.44,10.44,0,0,1-.63-1.36c0-.49,1.55-.89,1.72-.89.4,0,.66.56,1.25,1.85,0,.07.1.2.17.36a4.61,4.61,0,0,1,.33.93.28.28,0,0,1-.07.16s0,.07,0,.1.07.13.17.17h1.15a1.11,1.11,0,0,0,1.16-.6,17.5,17.5,0,0,0,1.28-2.61c.07-.19.13-.36.37-.36,0,0,2.54.73,2.54,1.26,0,.23-.27.26-.7.33a.47.47,0,0,0-.26.26l-.53.92a1.06,1.06,0,0,0-.1.33c0,.3.27.43.53.47.93,0,1.85-.07,2.77-.07.7,0,.66.4.66,1.09s0,1.05-.62,1.05c-1.16,0-2.28-.06-3.4-.06Z"/><path class="cls-1" d="M142.85,4.79c0,.36-.5.33-.73.33-.63,0-.79.42-1.25.66-1,.75-1.92,1.51-2.84,2.27-1.82,1.49-3.57,3-5.28,4.62a2.12,2.12,0,0,0-.86,1.49c0,1.09,1.68,2.84,2.44,3.6,2.18,2.24,4.56,4.32,6.9,6.4.4.33,1.29,1,1.29,1.52,0,.69-1.55,2.11-2.28,2.11-.33,0-.69-.5-.92-.76-1.26-1.48-2.61-2.87-4-4.22-1.75-1.75-3.5-3.5-5.11-5.38a5,5,0,0,1-1.52-3.34,3.76,3.76,0,0,1,.69-2.21,36,36,0,0,1,4.13-3.69,50.92,50.92,0,0,0,6.1-5.71c.1-.14.27-.33.46-.33s.86.52,1.26.92S142.85,4.46,142.85,4.79Z"/><path class="cls-1" d="M162.52,1.68c.16.07.39.17.39.4s-.19.33-.46.59a14.79,14.79,0,0,0-1,3c0,.17-.13.53-.13.63a.39.39,0,0,0,.4.4,23.48,23.48,0,0,0,2.28-.6,1.61,1.61,0,0,1,.36-.1c.49,0,.56,1.75.56,2.15,0,.76-.4.76-3.63,1.35-1.09.2-1.06.37-1.42,1.39A78.43,78.43,0,0,1,156,20c-.49,1-1,1.91-1.55,2.87-.13.23-.26.4-.56.4-.56,0-2.31-.76-2.31-1.36a4.37,4.37,0,0,1,.53-1.12,55.41,55.41,0,0,0,4.09-7.92,15.66,15.66,0,0,0,.83-2.25.39.39,0,0,0-.4-.39,4.91,4.91,0,0,0-.66.06c-.53.07-3,.3-3.4.3s-.66-.3-.76-.86a10.47,10.47,0,0,1-.16-1.48c0-.4.19-.5.56-.5s.52,0,.76,0c.89,0,4.62,0,5.11-.56a6.84,6.84,0,0,0,.69-2.08,17.84,17.84,0,0,0,.53-3.77c0-.23,0-.53.3-.53A26.69,26.69,0,0,1,162.52,1.68Zm4.92,9.57c.29.07.56.24.56.57,0,.13-.07,1.12-.07,1.78,0,1.75.13,5,.33,6.73.07.6.3.76.83,1a20.16,20.16,0,0,1,3.33,1.55c.39.23,1.91,1.06,1.91,1.48s-1,1.92-1.65,1.92c-.29,0-.59-.27-.82-.43-.53-.4-2.48-1.75-3.1-1.75-.37,0-.4.53-.43.83-.23,2.47-2,3.46-4.33,3.46s-5.54-1.35-5.54-4.19,2.84-3.8,5.25-3.8c.39,0,.82,0,1.22,0s.62-.07.62-.47c0-.95-.46-6.86-.62-7.95v-.4c0-.42.26-.59.66-.59A8.87,8.87,0,0,1,167.44,11.25ZM161.1,24.09c0,1.19,1.68,1.82,2.67,1.82,1.42,0,2-.73,2-2.11,0-.83-.1-1.13-2-1.13C162.88,22.67,161.1,22.84,161.1,24.09Zm14.52-12.6c0,.66-1.48,1.74-2,1.74-.3,0-.43-.23-.59-.46a18.08,18.08,0,0,0-4-4.16c-.2-.13-.43-.33-.43-.56,0-.39,1.22-1.75,1.75-1.75C171.16,6.3,175.62,10.66,175.62,11.49Z"/><path class="cls-1" d="M182.74,13.8c1-.27,2.08-.63,3.1-1,3-1.09,6.31-2.38,9.47-2.38A6.59,6.59,0,0,1,200,12.15a6.4,6.4,0,0,1,1.85,4.52,7.65,7.65,0,0,1-1.58,4.45,11.73,11.73,0,0,1-4.79,3.47,19,19,0,0,1-5,1.38c-.92,0-1.32-1.71-1.32-2,0-.49.56-.53.93-.56a15.24,15.24,0,0,0,5.87-1.78,6.07,6.07,0,0,0,3.37-5,3.76,3.76,0,0,0-4.06-3.73c-3.34,0-7.73,1.92-10.66,3.43a1.81,1.81,0,0,1-.83.27c-.72,0-1.68-1.55-1.68-2.15C182.08,14,182.41,13.9,182.74,13.8Z"/><path class="cls-1" d="M221.62,1.88a.5.5,0,0,1-.23.36c-.63.4-.7.66-1.16,2.35l-.49,1.81a1,1,0,0,0-.07.37.41.41,0,0,0,.43.39,8.66,8.66,0,0,0,1.22-.3,18.9,18.9,0,0,0,2.9-1,2.84,2.84,0,0,1,.9-.27c.56,0,.52,1.32.52,1.72,0,.66,0,1.06-.43,1.22A42.79,42.79,0,0,1,219.8,9.9c-1.12.23-1.22.27-1.55,1.29a104.31,104.31,0,0,1-6.2,14.75c-.4.76-.63,1.29-1.13,1.29s-2.21-.86-2.21-1.49c0-.26.37-.72.53-.95,2.08-2.94,5-10,6.24-13.5a1.32,1.32,0,0,0,.06-.3.45.45,0,0,0-.49-.46c-.36,0-2.15.16-3.37.16-.86,0-1.22,0-1.32-.33a12.76,12.76,0,0,1-.29-2c0-.36.09-.56.49-.56.23,0,1.55.17,2.94.17.76,0,1.48,0,2.21-.1a1,1,0,0,0,.79-.3c.5-.56,1.39-5.31,1.42-6.24,0-.36,0-.79.36-.79C218.32.56,221.62,1.32,221.62,1.88Zm-1.26,21c1.49,1.62,4,1.85,6,1.85a14.09,14.09,0,0,0,4.56-.63.9.9,0,0,1,.26,0c.56,0,.56.86.56,1.72,0,.56,0,1.15-.36,1.32a25.3,25.3,0,0,1-4.82.39c-2.11,0-5.08-.2-6.9-1.35-.46-.3-1.58-1.12-1.58-1.75,0-.46,1.19-2,1.65-2C220,22.41,220.23,22.71,220.36,22.87Zm4.16-11a20.28,20.28,0,0,1,6.31.89.56.56,0,0,1,.39.6,6.33,6.33,0,0,1-.39,1.71.58.58,0,0,1-.6.47,1.54,1.54,0,0,1-.63-.2,15.12,15.12,0,0,0-5-.76l-1.29,0c-.66,0-.76-.23-.76-.76C222.54,11.75,222.94,11.88,224.52,11.88Z"/><path class="cls-1" d="M259.54,10.43c.75,0,1.55,0,2.34,0a2.1,2.1,0,0,1,1.95,1.91A6.6,6.6,0,0,1,263.3,14a25.85,25.85,0,0,1-5.42,7.76.79.79,0,0,0-.29.56c0,.3.16.43.33.63a22.71,22.71,0,0,0,6.73,3.63c.69.23,1.29.36,1.29.85s-.73,1.85-1.36,1.85a2.39,2.39,0,0,1-1.05-.33,21.48,21.48,0,0,1-7.46-4.45,1,1,0,0,0-.66-.27,1.16,1.16,0,0,0-.63.23,43.18,43.18,0,0,1-6,4,5,5,0,0,1-1.69.69c-.76,0-1.35-1.12-1.35-1.68s.59-.7,1.12-1A48.5,48.5,0,0,0,253,22.64a.81.81,0,0,0,.36-.63.88.88,0,0,0-.23-.56A13.84,13.84,0,0,1,251,17.69c-.13-.2-.23-.33-.49-.33a.56.56,0,0,0-.43.23c-.5.56-2.64,3-3.27,3a2,2,0,0,1-1.55-1.45c0-.33.36-.66.6-.86a27.7,27.7,0,0,0,7.55-10.82.68.68,0,0,0,.07-.26c0-.4-.33-.53-.66-.53h-5.28c-.1,0-.23,0-.23.16s.06.1.13.13a2.89,2.89,0,0,0,.43.2c.59.27,1.12.53,1.12.86s-.46.4-.66.43a.86.86,0,0,0-.49.4A48.6,48.6,0,0,1,244,14a.43.43,0,0,0-.1.26c0,.2.16.27.33.3s.72.07.72.43-.16.3-.46.5c-.46.29-.43.76-.43,2.9v6.3c0,1.13.07,2.28.07,3.4s-.13,1.36-1.29,1.36-1.38-.1-1.38-1.29.06-2.31.06-3.47V17.46c0-.23-.1-.43-.36-.43a.54.54,0,0,0-.3.13c-.59.53-2.44,2.31-3.2,2.31s-1.29-1.25-1.29-1.61.37-.7.66-.93a34.16,34.16,0,0,0,8.55-9.54,1.33,1.33,0,0,0,.07-.29c0-.33-.23-.43-.5-.43h-3.86c-1.29,0-2.57.06-3.86.06-.66,0-.69-.29-.69-1.28s0-1.29.72-1.29c1.29,0,2.58.06,3.83.06H249c.63,0,.93-.26.93-.92a13.06,13.06,0,0,0-.13-2.48.91.91,0,0,1,0-.33c0-.42.27-.46.7-.46s1.81.14,2.17.17.8.06.8.43-.17.29-.43.49c-.43.3-.43.76-.4,2.18,0,.66.3.92.93.92h7.69c1.28,0,2.57-.06,3.86-.06.66,0,.69.3.69,1.29s0,1.28-.69,1.28c-1.29,0-2.58-.06-3.86-.06h-5.65c-.23,0-.3,0-.3.1s.17.13.2.13c1,.3,1.32.36,1.32.72s-.46.47-.66.53-.29.27-.53.79a6.91,6.91,0,0,0-.39,1c0,.37.3.47.59.5Zm1,3.27a2.4,2.4,0,0,0,.23-.7c0-.29-.43-.33-1.12-.33h-5.18a1.31,1.31,0,0,0-1.35.73l-.5.76a1.29,1.29,0,0,0-.33.86,1.7,1.7,0,0,0,.13.56,15.65,15.65,0,0,0,2.41,4.32.8.8,0,0,0,.63.33,1,1,0,0,0,.59-.26A20.11,20.11,0,0,0,260.59,13.7Zm-3.63,2a6.2,6.2,0,0,1,.69,1.72c0,.53-1,1-1.45,1s-.59-.5-.89-1.16-.73-1.45-1.12-2.18a1,1,0,0,1-.2-.53c0-.46,1.09-1,1.42-1s.66.43,1.19,1.49C256.7,15.25,256.83,15.48,257,15.74Z"/><path class="cls-1" d="M280.29,24a4.52,4.52,0,1,1-4.52-4.52A4.52,4.52,0,0,1,280.29,24Zm-7.56,0a3,3,0,1,0,3-3A3,3,0,0,0,272.73,24Z"/><path class="cls-1" d="M304,2c.53.06,1.09.1,1.09.46a.66.66,0,0,1-.2.46c-.17.23-.36.66-.36,2.64,0,.46.23.79.69.79a7,7,0,0,0,.76-.06,44.35,44.35,0,0,0,5.41-1.12A2.42,2.42,0,0,1,312,5c.66,0,.73,1.65.73,2.11,0,.69-.23.66-1.16.86-1.71.36-3.66.59-5.41.82-.66.07-1.52.07-1.52,1,0,2.77.3,3,.73,3a28.77,28.77,0,0,0,4.55-.89,2.59,2.59,0,0,1,.53-.1c.5,0,.46,1.05.46,1.42,0,1.12-.1,1.35-.66,1.48a34.93,34.93,0,0,1-4.16.66c-.85.1-1.25.14-1.25,1.06,0,3.86.17,3.73,1.16,4a18.5,18.5,0,0,1,4.29,1.91c.46.26,1.58.86,1.58,1.42s-1,2.05-1.62,2.05c-.33,0-.69-.33-1-.53-.66-.53-3-2.18-3.77-2.18-.52,0-.56.56-.62,1-.47,2.77-3.34,3.66-5.81,3.66s-5.22-1.16-5.22-4c0-3.23,3.67-4.09,6.24-4.09.59,0,1.52.07,1.58.07.63,0,.57-.66.57-1,0-2.38-.07-3-.8-3-1.35,0-3.07.1-4.58.1-.9,0-1.56,0-1.79-.36a4.88,4.88,0,0,1-.42-1.92c0-.36.13-.59.49-.59.1,0,2.34.19,3.89.19,2.35,0,3,.07,3-.85,0-2.41-.2-3.11-.86-3.11-1.09,0-4.32.2-7.46.2-1.35,0-1.58-.2-1.58-2,0-.5,0-.86.56-.86s3.13.2,5.18.2c3,0,3.86,0,3.86-.86,0-.56-.2-2.87-.3-3.4a3,3,0,0,1-.1-.5c0-.29.2-.36.47-.36C302.24,1.65,303.56,1.88,304,2ZM296.46,23.8c0,1.32,1.62,1.58,2.61,1.58,1.85,0,3.26-.56,3.26-2.64,0-.69-.85-.69-1.78-.69C299.36,22.05,296.46,22.11,296.46,23.8Z"/><path class="cls-1" d="M332.74,1.88a.5.5,0,0,1-.23.36c-.63.4-.69.66-1.16,2.35l-.49,1.81a1.28,1.28,0,0,0-.07.37.41.41,0,0,0,.43.39,8.66,8.66,0,0,0,1.22-.3,19.38,19.38,0,0,0,2.91-1,2.78,2.78,0,0,1,.89-.27c.56,0,.53,1.32.53,1.72,0,.66,0,1.06-.43,1.22a42.79,42.79,0,0,1-5.41,1.32c-1.13.23-1.22.27-1.55,1.29a103.2,103.2,0,0,1-6.21,14.75c-.4.76-.63,1.29-1.12,1.29s-2.21-.86-2.21-1.49c0-.26.36-.72.52-.95,2.08-2.94,5-10,6.24-13.5a1,1,0,0,0,.07-.3.46.46,0,0,0-.5-.46c-.36,0-2.14.16-3.36.16-.76,0-1.13,0-1.32-.33a6.46,6.46,0,0,1-.3-2c0-.36.1-.56.49-.56s1.56.17,2.94.17c.76,0,1.49,0,2.21-.1a1,1,0,0,0,.8-.3C328.12,7,329,2.28,329,1.35c0-.36,0-.79.37-.79C329.44.56,332.74,1.32,332.74,1.88Zm-1.25,21c1.48,1.62,4,1.85,6,1.85a14.06,14.06,0,0,0,4.55-.63.93.93,0,0,1,.27,0c.56,0,.56.86.56,1.72,0,.56,0,1.15-.37,1.32a25.27,25.27,0,0,1-4.81.39c-2.12,0-5.09-.2-6.9-1.35-.46-.3-1.59-1.12-1.59-1.75,0-.46,1.19-2,1.65-2C331.09,22.41,331.35,22.71,331.49,22.87Zm4.16-11a20.22,20.22,0,0,1,6.3.89.57.57,0,0,1,.4.6,7.73,7.73,0,0,1-.4,1.71c-.13.3-.26.47-.59.47a2.56,2.56,0,0,1-.63-.2,14.24,14.24,0,0,0-5-.76l-1.29,0c-.66,0-.75-.23-.75-.76C333.67,11.75,334.06,11.88,335.65,11.88Zm6.4-5.51c0,.46-1,1.29-1.45,1.29-.2,0-.33-.2-.47-.37a32.35,32.35,0,0,0-2.24-2.6.73.73,0,0,1-.26-.47c0-.33,1.05-1.15,1.38-1.15A13.63,13.63,0,0,1,342.05,6.37Zm3.3-1.95c0,.43-1,1.29-1.42,1.29-.23,0-.36-.2-.49-.36a27.48,27.48,0,0,0-2.25-2.61.71.71,0,0,1-.26-.43c0-.36,1.05-1.19,1.38-1.19A13.1,13.1,0,0,1,345.35,4.42Z"/><path class="cls-1" d="M363.2,2c.53.06,1.09.1,1.09.46a.66.66,0,0,1-.2.46c-.16.23-.36.66-.36,2.64,0,.46.23.79.69.79a7,7,0,0,0,.76-.06,44.35,44.35,0,0,0,5.41-1.12,2.52,2.52,0,0,1,.56-.1c.66,0,.73,1.65.73,2.11,0,.69-.23.66-1.15.86-1.72.36-3.67.59-5.42.82-.66.07-1.52.07-1.52,1,0,2.77.3,3,.73,3a29.11,29.11,0,0,0,4.56-.89,2.39,2.39,0,0,1,.52-.1c.5,0,.47,1.05.47,1.42,0,1.12-.1,1.35-.66,1.48a35.58,35.58,0,0,1-4.16.66c-.86.1-1.26.14-1.26,1.06,0,3.86.17,3.73,1.16,4a18.31,18.31,0,0,1,4.29,1.91c.46.26,1.58.86,1.58,1.42s-.95,2.05-1.61,2.05c-.33,0-.7-.33-1-.53-.66-.53-3-2.18-3.76-2.18-.53,0-.57.56-.63,1-.46,2.77-3.33,3.66-5.81,3.66s-5.22-1.16-5.22-4c0-3.23,3.67-4.09,6.24-4.09.6,0,1.52.07,1.59.07.62,0,.56-.66.56-1,0-2.38-.07-3-.79-3-1.36,0-3.07.1-4.59.1-.89,0-1.55,0-1.78-.36a4.72,4.72,0,0,1-.43-1.92c0-.36.13-.59.49-.59.1,0,2.35.19,3.9.19,2.34,0,3,.07,3-.85,0-2.41-.2-3.11-.86-3.11-1.09,0-4.32.2-7.46.2-1.35,0-1.58-.2-1.58-2,0-.5,0-.86.56-.86s3.14.2,5.18.2c3,0,3.86,0,3.86-.86,0-.56-.19-2.87-.29-3.4a2.22,2.22,0,0,1-.1-.5c0-.29.2-.36.46-.36C361.42,1.65,362.74,1.88,363.2,2ZM355.64,23.8c0,1.32,1.62,1.58,2.61,1.58,1.85,0,3.27-.56,3.27-2.64,0-.69-.86-.69-1.79-.69C358.55,22.05,355.64,22.11,355.64,23.8Z"/><path class="cls-1" d="M391.92,1.88a.5.5,0,0,1-.23.36c-.62.4-.69.66-1.15,2.35L390,6.4a1.3,1.3,0,0,0-.06.37.4.4,0,0,0,.43.39,9,9,0,0,0,1.22-.3,19.26,19.26,0,0,0,2.9-1,2.78,2.78,0,0,1,.89-.27c.56,0,.53,1.32.53,1.72,0,.66,0,1.06-.43,1.22a42.79,42.79,0,0,1-5.41,1.32c-1.12.23-1.22.27-1.55,1.29a103.2,103.2,0,0,1-6.21,14.75c-.39.76-.62,1.29-1.12,1.29S379,26.37,379,25.74a2.45,2.45,0,0,1,.53-.95c2.08-2.94,5-10,6.23-13.5a1,1,0,0,0,.07-.3.45.45,0,0,0-.49-.46c-.37,0-2.15.16-3.37.16-.76,0-1.12,0-1.32-.33a6.46,6.46,0,0,1-.3-2c0-.36.1-.56.5-.56.23,0,1.55.17,2.93.17.76,0,1.49,0,2.22-.1a1,1,0,0,0,.79-.3c.49-.56,1.38-5.31,1.42-6.24,0-.36,0-.79.36-.79C388.62.56,391.92,1.32,391.92,1.88Zm-1.25,21c1.48,1.62,4,1.85,6,1.85a14,14,0,0,0,4.55-.63.93.93,0,0,1,.27,0c.56,0,.56.86.56,1.72,0,.56,0,1.15-.36,1.32a25.44,25.44,0,0,1-4.82.39c-2.12,0-5.09-.2-6.9-1.35-.46-.3-1.59-1.12-1.59-1.75,0-.46,1.19-2,1.66-2C390.27,22.41,390.54,22.71,390.67,22.87Zm4.16-11a20.22,20.22,0,0,1,6.3.89.56.56,0,0,1,.4.6,7.73,7.73,0,0,1-.4,1.71c-.13.3-.26.47-.59.47a2.56,2.56,0,0,1-.63-.2,14.24,14.24,0,0,0-5-.76c-.43,0-.85,0-1.28,0-.66,0-.76-.23-.76-.76C392.85,11.75,393.24,11.88,394.83,11.88Zm6.4-5.51c0,.46-1,1.29-1.45,1.29-.2,0-.33-.2-.46-.37-.7-.89-1.46-1.78-2.25-2.6a.73.73,0,0,1-.26-.47c0-.33,1.05-1.15,1.38-1.15A13.63,13.63,0,0,1,401.23,6.37Zm3.3-1.95c0,.43-1,1.29-1.42,1.29-.23,0-.36-.2-.49-.36a27.48,27.48,0,0,0-2.25-2.61.71.71,0,0,1-.26-.43c0-.36,1.06-1.19,1.38-1.19A13.1,13.1,0,0,1,404.53,4.42Z"/><path class="cls-1" d="M411.63,7.46c-.36.23-.36.43-.39.82a41.61,41.61,0,0,1-1.46,7c-.13.33-.29.56-.66.56s-1.51-.23-1.51-.72a2.08,2.08,0,0,1,.16-.63,26.31,26.31,0,0,0,1.35-6.37c0-.23,0-.43,0-.6,0-.69,0-1.08.46-1.08s2.28.19,2.28.69C411.9,7.26,411.76,7.39,411.63,7.46Zm.79-4.19a21,21,0,0,0-.09-2.38,1.2,1.2,0,0,1,0-.36c0-.43.3-.5.66-.5s1.75.17,2.21.2c.27,0,.7.07.7.4s-.27.36-.46.53c-.37.26-.4.66-.4,1.94V24c0,1.45.07,2.9.07,4.35,0,.9-.33,1.09-1.36,1.09s-1.38-.26-1.38-1.12c0-1.42.09-2.87.09-4.32Zm5.52,9.07c-.5,0-.66-.23-.76-.66a23.26,23.26,0,0,0-1.39-4.48,2,2,0,0,1-.16-.57c0-.52,1-.89,1.35-.89.59,0,.76.56,1.35,2.25a25.06,25.06,0,0,1,1,3.5C419.32,12.05,418.4,12.34,417.94,12.34Zm7.55-6.14c.63,0,.9-.26.9-.92V2.71a10.57,10.57,0,0,0-.1-1.79.93.93,0,0,1,0-.33c0-.36.27-.42.56-.42.63,0,1.23.09,1.85.13.8.06,1.36.1,1.36.49,0,.23-.2.33-.47.5s-.42.66-.42,1.78V5.28c0,.66.26.92.92.92h3c1.22,0,2.44-.06,3.66-.06.66,0,.73.26.73,1.32s-.07,1.32-.73,1.32c-1.22,0-2.44-.07-3.66-.07h-7.63c-.66,0-.92.27-.92.93V23c0,2.24,0,2.8,2.47,2.8H430c2.34,0,5.45-.2,6.17-.2s.76.33.76.9c0,2-1.05,1.88-2.47,1.88h-8c-2.44,0-4.65-.14-4.65-3.2,0-.7.06-1.65.06-2.58v-13c0-.6-.23-.86-.82-.89s-1,0-1.49,0c-.66,0-.69-.33-.69-1.32s0-1.32.72-1.32c1.22,0,2.45.06,3.67.06Z"/><path class="cls-1" d="M449,3.43c.26.07.62.2.62.5s-.19.36-.36.49a3.32,3.32,0,0,0-.66,2,80.05,80.05,0,0,0-.73,11.26c0,2.84.07,6.93,3.93,6.93a8.86,8.86,0,0,0,6.6-3.4,10,10,0,0,0,2-4.92c.06-.46.13-1,.56-1,.62,0,2.21,1.32,2.21,2.24a11.91,11.91,0,0,1-1.29,3.73,11.53,11.53,0,0,1-9.9,6.27A6.81,6.81,0,0,1,446.47,25c-1.42-1.91-1.55-4.91-1.55-7.22,0-4.1.29-8.19.62-12.28a18.16,18.16,0,0,0,.07-2c0-.46,0-.79.46-.79A21.38,21.38,0,0,1,449,3.43Z"/><path class="cls-1" d="M479.58,1.68c.33.53,1.72,3.27,2.15,4.06.23.43.43.83,1,.83.72,0,3.23-1.45,3.92-1.88a1.76,1.76,0,0,1,.86-.43c.56,0,1.69,1.58,1.69,2s-3.83,2.18-4.49,2.45c-.43.16-.83.26-.83.76a7.26,7.26,0,0,0,.83,1.61c1.32,2.28,2.93,5.38,4.75,7.23.23.23.53.53.53.86,0,.69-1.32,1.85-1.92,1.85s-1-.53-1.42-.8a16.33,16.33,0,0,0-7.79-2.67c-2,0-4,1.16-4,3.34,0,3.69,5.19,4.45,8,4.45.76,0,1.42-.07,1.78-.07.53,0,.63.33.63.8,0,2.34-1,2.11-1.39,2.11a23.92,23.92,0,0,1-5.44-.69c-3.27-.83-6.34-2.71-6.34-6.47s3.17-6,6.77-6a11.85,11.85,0,0,1,5.05,1.32c.13,0,.26.13.39.13a.27.27,0,0,0,.3-.26,1.6,1.6,0,0,0-.4-.76c-1-1.55-1.88-3.07-2.77-4.65-.23-.4-.46-.66-.92-.66a2,2,0,0,0-.43.06,44.65,44.65,0,0,1-8,1.29c-.59,0-.73-.2-.92-.69a4.93,4.93,0,0,1-.47-1.65c0-.47.3-.47,1.19-.5.2,0,.4,0,.63,0a32,32,0,0,0,6.14-.8c.29-.06.62-.23.62-.59,0-.53-2.17-3.79-2.6-4.39a.82.82,0,0,1-.3-.53c0-.52,2.28-1,2.57-1A.68.68,0,0,1,479.58,1.68Z"/><path class="cls-1" d="M507.47,2.84c.26.1.82.2.82.56a.66.66,0,0,1-.26.46c-.56.46-.66,1.12-.82,2.28-.07.46-.14,1-.27,1.58a1.59,1.59,0,0,0-.06.37.57.57,0,0,0,.59.59c.23,0,1.19,0,1.81,0,3.37,0,4.63,2,4.63,5.18s-.5,7.36-1.92,10a6.5,6.5,0,0,1-6,3.47,1.27,1.27,0,0,1-1.36-.7,4.63,4.63,0,0,1-.52-1.88c0-.23.09-.43.36-.43s.89.17,1.62.17a3.44,3.44,0,0,0,3.56-2.31,19.82,19.82,0,0,0,1.49-7.59c0-1.92-.14-3.47-2.45-3.47s-2.57.43-2.74,1.16a39,39,0,0,1-5.41,11.88,35,35,0,0,1-2.18,2.94.79.79,0,0,1-.56.29c-.49,0-2.08-1-2.08-1.61,0-.27.27-.53.46-.73a28.14,28.14,0,0,0,6.11-9.83,27.72,27.72,0,0,0,.83-2.68.36.36,0,0,0-.4-.39,35.25,35.25,0,0,0-4.59,1.38,1.61,1.61,0,0,1-.36.1c-.66,0-1.22-2.44-1.22-2.74,0-.46.53-.43.86-.46,1.48-.13,4.09-.79,5.71-1.09,1-.2,1-.59,1.12-1.62A28.72,28.72,0,0,0,504.6,4a7.83,7.83,0,0,0-.1-1.18V2.67c0-.23.1-.43.33-.43S507,2.74,507.47,2.84ZM521.2,13.93c0,.56-1.58,1.52-2.18,1.52-.4,0-.56-.37-.69-.66A23.28,23.28,0,0,0,514,7.85a.65.65,0,0,1-.3-.52c0-.5,1.42-1.36,1.88-1.36C516.78,6,521.2,13.1,521.2,13.93Zm-1.49-9.74c.27.27,1.09,1.16,1.09,1.42,0,.43-.95,1.32-1.38,1.32-.2,0-.37-.23-.46-.36-.76-.89-1.52-1.72-2.35-2.54-.1-.1-.3-.27-.3-.43,0-.37,1-1.22,1.39-1.22S519.42,3.89,519.71,4.19Zm4.16-.86c0,.47-1,1.36-1.42,1.36-.19,0-.33-.23-.46-.37-.76-.92-1.45-1.65-2.31-2.54-.1-.1-.3-.26-.3-.43,0-.36,1-1.22,1.36-1.22A13.77,13.77,0,0,1,523.87,3.33Z"/><path class="cls-1" d="M530.94,19.44a.4.4,0,0,1-.26.33c-.37.13-.4.2-.47.63a51.8,51.8,0,0,1-1.55,6.8c-.13.39-.29.62-.72.62s-1.55-.23-1.55-.76a2.45,2.45,0,0,1,.19-.62,33.91,33.91,0,0,0,1.62-7.07c0-.49,0-.79.4-.79S530.94,19,530.94,19.44ZM529.23,6.07a.5.5,0,0,0,.42-.29c.93-1.69,1.85-3.37,2.61-5.12.1-.2.17-.43.4-.43s2.44,1,2.44,1.59c0,.33-.36.33-.59.33a.61.61,0,0,0-.5.23,43.11,43.11,0,0,1-2.87,4.75.76.76,0,0,0-.17.46.7.7,0,0,0,.24.5c.19.19.39.39.56.59a.76.76,0,0,0,.52.23.64.64,0,0,0,.53-.36c.76-1.32,1.52-2.64,2.21-4,.1-.26.17-.46.47-.46s2.44,1.15,2.44,1.52-.23.29-.43.33-.5.1-.59.33c-1.42,2.51-2.94,4.95-4.53,7.36a.47.47,0,0,0-.1.26c0,.27.24.36.47.36.69-.06,1.38-.13,2.08-.23.13,0,.52-.09.52-.52a2.36,2.36,0,0,0-.23-.66,5.13,5.13,0,0,1-.36-1c0-.56,1.29-.89,1.55-.89.43,0,.6.16,1.65,3a14.51,14.51,0,0,1,.83,2.58c0,.69-1.39.85-1.52.85-.43,0-.56-.33-.66-.69a.72.72,0,0,0-.66-.49h-.17c-.33.06-.66.09-.95.16-.66.1-.86.4-.86,1v6.74c0,1.38.06,2.77.06,4.15,0,1-.19,1.19-1.28,1.19s-1.29-.1-1.29-1.15c0-1.39.07-2.81.07-4.19V17.69c0-.49-.2-.82-.73-.82h-.13c-.8.09-1.55.16-2.35.26-.16,0-.23.07-.33.3s-.23.39-.46.39-.33-.23-.39-.46-.53-2.24-.53-2.38c0-.33.23-.36.89-.36.46,0,.69,0,1,0a1.24,1.24,0,0,0,1.09-.69c.33-.57.66-1.13,1-1.69a1.38,1.38,0,0,0,.2-.63,1.11,1.11,0,0,0-.34-.75,44.58,44.58,0,0,0-3.33-3.14.94.94,0,0,1-.46-.66c0-.36.76-1.68,1.29-1.68.26,0,.62.39.82.56A.52.52,0,0,0,529.23,6.07Zm8,18.62c-.63,0-.66-.56-1-1.82a23,23,0,0,0-1-3,1.94,1.94,0,0,1-.17-.6c0-.52,1.06-.79,1.42-.79.56,0,.73.37,1.46,2.58a19.8,19.8,0,0,1,.75,2.77C538.66,24.49,537.61,24.69,537.21,24.69Zm8.12-6.27c-.23,4.09-1.22,7.09-4.69,9.57a6.09,6.09,0,0,1-2.21,1.12c-.62,0-1.58-1.19-1.58-1.78,0-.37.46-.5.73-.6a9.22,9.22,0,0,0,4.15-3.56,11.42,11.42,0,0,0,1.09-5.25v-.59c0-.37,0-.6.46-.6s1.52.17,1.92.2.89.13.89.43-.3.36-.46.46A.58.58,0,0,0,545.33,18.42ZM551.24,3.6c1.22,0,2.44-.07,3.7-.07.66,0,.69.3.69,1.22s0,1.19-.69,1.19c-1.23,0-2.48-.07-3.7-.07h-2.11c-.56,0-.83.24-.83.8V7.76c0,.56.27.79.83.79h1.48c1,0,1.92-.07,2.91-.07.62,0,.66.33.66,1.22s0,1.19-.66,1.19c-1,0-1.95-.06-2.91-.06h-7c-1,0-1.91.06-2.87.06-.63,0-.66-.3-.66-1.19s0-1.22.66-1.22c1,0,1.91.07,2.87.07h1.29c.56,0,.79-.23.79-.79V6.67c0-.56-.23-.8-.79-.8H543c-1.22,0-2.48.07-3.7.07-.66,0-.69-.26-.69-1.19s0-1.22.69-1.22c1.22,0,2.48.07,3.7.07h1.78c.63,0,.86-.23.89-.89a13,13,0,0,0-.13-1.95V.46c0-.36.23-.46.53-.46.46,0,1.52.13,2,.17s1.06.06,1.06.46c0,.23-.17.29-.43.49s-.43.63-.4,1.59c0,.62.24.89.9.89Zm-9,11.68c-.56,0-.79.27-.79.83v.16c0,.33,0,.66,0,1,0,.63-.56.63-1.25.63s-1.29,0-1.29-.66c0-.33,0-.76,0-1.12v-.63c0-.53,0-.83,0-1.16,0-1.12.79-1.32,1.71-1.32s1.59.07,2.38.07h8.25c.79,0,1.55-.07,2.35-.07s1.74.17,1.74,1.26c0,.39-.06.82-.06,1.22v.73c0,.33.06.89.06,1.12,0,.66-.42.69-1.32.69-.66,0-1.28,0-1.28-.66,0-.33,0-.66,0-1v-.29c0-.56-.23-.83-.79-.83ZM552,26.21c1.16,0,1.19-.5,1.49-2.22.16-.89.16-1.18.72-1.18s1.82.16,1.82,1a12.19,12.19,0,0,1-1.09,4c-.56.93-1.78.93-2.74.93h-1.88c-1.52,0-2.71-.33-2.71-2.12,0-.42.07-.89.07-1.32V19.54a16.35,16.35,0,0,0-.1-2.21.83.83,0,0,1,0-.27c0-.29.19-.36.46-.36s1.91.13,2.31.17c.23,0,.72,0,.72.36s-.19.33-.36.43c-.43.29-.46.69-.46,1.94V25c0,1,.3,1.19,1.22,1.19Z"/><path class="cls-1" d="M571.18,3c.36,1.06.56,1.69,1.18,1.69a11.61,11.61,0,0,0,2.78-1.22,2.29,2.29,0,0,1,.79-.33c.49,0,1.15,1.65,1.15,2.07s-.39.53-.82.76a24.9,24.9,0,0,1-2.54,1.13c-.27.1-.6.23-.6.66a7.44,7.44,0,0,0,.53,1.32,2.89,2.89,0,0,1,.2.46c.16.33.36.66.79.66.69,0,3.5-1.62,4.19-2.08a1.71,1.71,0,0,1,.66-.3c.47,0,1.39,1.59,1.39,2s-.66.76-1.92,1.35a27.84,27.84,0,0,1-2.57,1.16c-.33.13-.66.33-.66.72a4.68,4.68,0,0,0,.63,1.42,29.76,29.76,0,0,0,2.87,4.72c.23.3.76.89.76,1.29,0,.66-1.62,1.78-2.25,1.78a.58.58,0,0,1-.49-.26,9.56,9.56,0,0,0-6.31-2.35c-1.61,0-3.59.73-3.59,2.64,0,2.61,3.5,3.27,5.51,3.27.82,0,1.62-.13,2.44-.2l.4,0c.62,0,.72.53.72,1.32,0,1.58-.29,1.62-2,1.62a18.64,18.64,0,0,1-4.89-.5c-2.6-.72-4.75-2.44-4.75-5.34,0-3.5,2.87-5.19,6-5.19a10.19,10.19,0,0,1,4,.8,1.8,1.8,0,0,0,.4.1.25.25,0,0,0,.26-.24c0-.16-1.42-2.6-1.72-3.16s-.46-1-1-1a2.46,2.46,0,0,0-.5.1,53.71,53.71,0,0,1-8.88,1.78c-.49,0-.59-.19-.72-.56a7.25,7.25,0,0,1-.33-1.68c0-.59.49-.53,1.32-.59a35.66,35.66,0,0,0,7.36-1.26c.33-.1.79-.23.79-.69a4.45,4.45,0,0,0-.43-1c-.53-1.23-.72-1.52-1.15-1.52a2.23,2.23,0,0,0-.47.06,26.57,26.57,0,0,1-4.48.76.64.64,0,0,1-.66-.56,6.55,6.55,0,0,1-.4-1.58c0-.56.69-.53,1.19-.56a14.48,14.48,0,0,0,2.9-.4c.4-.07.89-.23.89-.73A11.9,11.9,0,0,0,568,3a2.52,2.52,0,0,1-.4-.85c0-.57,1.79-.93,2.25-.93C570.65,1.22,570.71,1.75,571.18,3Z"/><path class="cls-1" d="M606.8,4.79c0,.36-.39.59-1,.92A27.32,27.32,0,0,0,603,8c-.83.72-4.89,4.29-6.37,5.51-.13.13-.36.3-.36.49s.06.17.26.17,2.34-.56,2.77-.66c3.67-1,7.36-1.75,11-2.91a1.28,1.28,0,0,1,.33-.06c.33,0,.46.39.5.66s.2,1.45.2,1.75c0,.62-.37.59-1.32.72A17.64,17.64,0,0,0,603.24,16c-2,1.19-4.65,3.44-4.65,6,0,3,4.32,3.59,6.56,3.72.3,0,.66,0,.66.43a9.46,9.46,0,0,1-.49,1.82.79.79,0,0,1-.86.56,15.23,15.23,0,0,1-4.13-.92c-2.37-.86-4.55-2.64-4.55-5.35,0-2.41,1.65-4.36,3.47-5.74.13-.1.33-.23.33-.43s-.14-.2-.27-.2a15.51,15.51,0,0,0-1.88.46,66.79,66.79,0,0,0-7.56,2.48,3.68,3.68,0,0,1-.82.23c-.63,0-1.22-1.72-1.22-2.31,0-.4.33-.43,1.38-.7,1.65-.39,2.08-.89,4.19-2.7,2.71-2.35,5.35-4.79,8-7.26a.57.57,0,0,0,.2-.37.24.24,0,0,0-.27-.26c-.29,0-4.72,1.15-5.31,1.32a3.39,3.39,0,0,1-.79.2c-.7,0-1.06-1.88-1.06-2.44s.4-.63,1-.66c1.65-.1,7.56-1.06,8.84-1.72a3,3,0,0,1,.73-.26C605.48,1.82,606.8,4.16,606.8,4.79Z"/><path class="cls-1" d="M637.32,16c0,5.11-3.83,9.11-8,11.58a8.64,8.64,0,0,1-2.64,1.19c-.76,0-1.78-1.65-1.78-2.18,0-.33.39-.46.66-.56,4-1.32,8.84-5.18,8.84-9.77,0-3.13-1.88-5.08-5-5.08-2.87,0-5.11,1.38-7.19,3.17a1.13,1.13,0,0,1-.69.36c-.63,0-1.49-1.88-1.49-2.51s.63-.79,1-1a17.21,17.21,0,0,1,8.45-2.67C634.11,8.52,637.32,11.32,637.32,16ZM625.1,1.88a34.72,34.72,0,0,0,8.06,1.62c.46,0,.69.1.69.53,0,.19-.13,2.34-1,2.34s-6.37-1.22-7.46-1.52-1.85-.43-1.85-1c0-.29.4-2.14,1.06-2.14A1.66,1.66,0,0,1,625.1,1.88Z"/><path class="cls-1" d="M656.38,1.68c.17.07.4.17.4.4s-.2.33-.46.59a14.18,14.18,0,0,0-1,3c0,.17-.13.53-.13.63a.38.38,0,0,0,.39.4,23.48,23.48,0,0,0,2.28-.6,1.61,1.61,0,0,1,.36-.1c.5,0,.56,1.75.56,2.15,0,.76-.39.76-3.63,1.35-1.09.2-1.05.37-1.42,1.39A78.36,78.36,0,0,1,649.85,20c-.5,1-1,1.91-1.55,2.87-.14.23-.27.4-.57.4-.56,0-2.31-.76-2.31-1.36a4.37,4.37,0,0,1,.53-1.12,54.46,54.46,0,0,0,4.1-7.92,16.77,16.77,0,0,0,.82-2.25.38.38,0,0,0-.4-.39,5.06,5.06,0,0,0-.66.06c-.52.07-3,.3-3.4.3s-.66-.3-.75-.86a10.48,10.48,0,0,1-.17-1.48c0-.4.2-.5.56-.5s.53,0,.76,0c.89,0,4.62,0,5.12-.56a7.44,7.44,0,0,0,.69-2.08,18.51,18.51,0,0,0,.53-3.77c0-.23,0-.53.29-.53A26.69,26.69,0,0,1,656.38,1.68Zm4.92,9.57c.3.07.56.24.56.57,0,.13-.07,1.12-.07,1.78,0,1.75.14,5,.33,6.73.07.6.3.76.83,1a20.16,20.16,0,0,1,3.33,1.55c.4.23,1.92,1.06,1.92,1.48s-1,1.92-1.65,1.92a1.7,1.7,0,0,1-.83-.43c-.53-.4-2.47-1.75-3.1-1.75-.36,0-.4.53-.43.83-.23,2.47-2,3.46-4.32,3.46s-5.55-1.35-5.55-4.19,2.84-3.8,5.25-3.8c.4,0,.83,0,1.22,0s.63-.07.63-.47c0-.95-.46-6.86-.63-7.95v-.4c0-.42.27-.59.66-.59A8.78,8.78,0,0,1,661.3,11.25ZM655,24.09c0,1.19,1.69,1.82,2.68,1.82,1.42,0,2-.73,2-2.11,0-.83-.1-1.13-2-1.13C656.75,22.67,655,22.84,655,24.09Zm14.52-12.6c0,.66-1.48,1.74-2,1.74-.29,0-.42-.23-.59-.46a18.08,18.08,0,0,0-4-4.16c-.19-.13-.42-.33-.42-.56,0-.39,1.22-1.75,1.74-1.75C665,6.3,669.48,10.66,669.48,11.49Z"/><path class="cls-1" d="M696,10.43c.76,0,1.55,0,2.34,0a2.1,2.1,0,0,1,2,1.91,6.6,6.6,0,0,1-.53,1.65,26,26,0,0,1-5.41,7.76.77.77,0,0,0-.3.56c0,.3.16.43.33.63a22.71,22.71,0,0,0,6.73,3.63c.7.23,1.29.36,1.29.85s-.73,1.85-1.35,1.85a2.39,2.39,0,0,1-1.06-.33,21.48,21.48,0,0,1-7.46-4.45,1,1,0,0,0-.66-.27,1.16,1.16,0,0,0-.63.23,43.18,43.18,0,0,1-6,4,4.91,4.91,0,0,1-1.69.69c-.76,0-1.35-1.12-1.35-1.68s.59-.7,1.12-1a47.8,47.8,0,0,0,6.14-3.83.81.81,0,0,0,.36-.63.83.83,0,0,0-.23-.56,13.56,13.56,0,0,1-2.17-3.76c-.14-.2-.24-.33-.5-.33a.56.56,0,0,0-.43.23c-.49.56-2.64,3-3.27,3a2,2,0,0,1-1.55-1.45c0-.33.37-.66.6-.86a27.6,27.6,0,0,0,7.55-10.82.68.68,0,0,0,.07-.26c0-.4-.33-.53-.66-.53H684c-.1,0-.23,0-.23.16s.06.1.13.13a2.89,2.89,0,0,0,.43.2c.59.27,1.12.53,1.12.86s-.46.4-.66.43a.86.86,0,0,0-.49.4A48.6,48.6,0,0,1,680.45,14a.43.43,0,0,0-.1.26c0,.2.16.27.33.3s.73.07.73.43-.17.3-.47.5c-.46.29-.43.76-.43,2.9v6.3c0,1.13.07,2.28.07,3.4s-.13,1.36-1.29,1.36-1.38-.1-1.38-1.29.06-2.31.06-3.47V17.46c0-.23-.1-.43-.36-.43a.54.54,0,0,0-.3.13c-.59.53-2.44,2.31-3.2,2.31s-1.29-1.25-1.29-1.61.37-.7.66-.93A34.16,34.16,0,0,0,682,7.39a.93.93,0,0,0,.07-.29c0-.33-.23-.43-.5-.43h-3.86c-1.29,0-2.57.06-3.86.06-.66,0-.69-.29-.69-1.28s0-1.29.72-1.29c1.29,0,2.58.06,3.83.06h7.72c.63,0,.93-.26.93-.92a13.06,13.06,0,0,0-.13-2.48.91.91,0,0,1,0-.33c0-.42.27-.46.7-.46s1.81.14,2.18.17.79.06.79.43-.17.29-.43.49c-.43.3-.43.76-.4,2.18,0,.66.3.92.93.92h7.69c1.28,0,2.57-.06,3.86-.06.66,0,.69.3.69,1.29s0,1.28-.69,1.28c-1.29,0-2.58-.06-3.86-.06H692c-.23,0-.29,0-.29.1s.16.13.19.13c1,.3,1.32.36,1.32.72s-.46.47-.66.53-.29.27-.52.79a6,6,0,0,0-.4,1c0,.37.3.47.59.5Zm1.05,3.27a2.4,2.4,0,0,0,.23-.7c0-.29-.43-.33-1.12-.33H691a1.31,1.31,0,0,0-1.35.73l-.5.76a1.29,1.29,0,0,0-.33.86,1.7,1.7,0,0,0,.13.56,15.65,15.65,0,0,0,2.41,4.32.8.8,0,0,0,.63.33,1,1,0,0,0,.59-.26A20.11,20.11,0,0,0,697.08,13.7Zm-3.63,2a6.23,6.23,0,0,1,.7,1.72c0,.53-1,1-1.46,1s-.59-.5-.89-1.16-.72-1.45-1.12-2.18a1,1,0,0,1-.2-.53c0-.46,1.09-1,1.42-1s.66.43,1.19,1.49C693.19,15.25,693.32,15.48,693.45,15.74Z"/><path class="cls-1" d="M716.78,24a4.52,4.52,0,1,1-4.52-4.52A4.52,4.52,0,0,1,716.78,24Zm-7.56,0a3,3,0,1,0,3-3A3,3,0,0,0,709.22,24Z"/></g></g></svg>