<svg xmlns="http://www.w3.org/2000/svg" viewBox="0 0 312.78 138.56"><defs><style>.cls-1{fill:#fff;}.cls-2{fill:#e11573;}</style></defs><g id="レイヤー_2" data-name="レイヤー 2"><g id="product"><path class="cls-1" d="M55,68.46c0-17.66.49-35.29,1.05-53.11-.12-2.93-9.34-3.43-13.77-2.08a5.42,5.42,0,0,0-3.09,2c-7.1,10.9-25,42.59-33.88,59a6.76,6.76,0,0,0-.85,3.31c.17,3.91,5.08,6.21,9,5a2.42,2.42,0,0,0,1.38-1c.3-.51,1.93-3.56,4.26-8.06a3.28,3.28,0,0,1,1.68-1.59c2.58-1.28,5.8-2.67,9-4.14,2.91-1.3,7.53-3.28,8.72-3.64,1-.3,1.42-.11,1.46.79l.12,2.77C40.29,71.79,47.64,72.28,52,71,53.81,70.4,55.08,69.52,55,68.46ZM40,53.58c-.08.85-.61,1.17-1.69,1.5A102.07,102.07,0,0,0,28.47,59,15.3,15.3,0,0,1,27,59.6c-.43.13-.65.11-.66-.05a3.9,3.9,0,0,1,.5-1.15C31,49.86,37.17,36.61,40,31.46a2.24,2.24,0,0,1,.84-.92c.54-.16.67.29.7.86C41.4,35.82,40.56,47,40,53.58Z"/><path class="cls-1" d="M61.46,54.83a8.73,8.73,0,0,0,5,1.67,7.12,7.12,0,0,0,2.06-.29c5.66-1.72,13.92-6.82,15.52-8.35a4.3,4.3,0,0,0,1.17-3.4,4.67,4.67,0,0,0-1.78-3.63,2.86,2.86,0,0,0-2.54-.42,3.4,3.4,0,0,0-1,.49,78.86,78.86,0,0,1-9.74,5.9c1.36-4.5,2.79-9.09,4.22-13.66,1.12-3.59,2.25-7.18,3.32-10.71A4.18,4.18,0,0,0,78,21a4,4,0,0,0-1.84-3.16,8.08,8.08,0,0,0-6.31-1.12A2.39,2.39,0,0,0,68,18.25L58.91,49.58a4.39,4.39,0,0,0-.13,1.25A5.65,5.65,0,0,0,61.46,54.83Z"/><path class="cls-1" d="M89.51,45.4a10,10,0,0,0,5.84,1.69,15.45,15.45,0,0,0,4.53-.71c7.6-2.31,13.92-9,13.75-12.87a5.09,5.09,0,0,0-2.2-3.73,3.6,3.6,0,0,0-3.13-.67A2.38,2.38,0,0,0,107,30c-3.84,5-7.81,8.88-9.65,9.44-.3.09-.45.08-.47.06s-.23-.19-.27-1.23c-.35-8.33,7.79-23.29,12.28-26.34-.24.67-.6,1.51-.89,2.19-.84,2-1.64,3.81-1.58,5.15a4.71,4.71,0,0,0,2.1,3.68,6,6,0,0,0,5,1,3.44,3.44,0,0,0,2.31-2.22c.37-1.05.78-2.15,1.19-3.26,1.61-4.37,2.59-7.13,2.53-8.51a4.64,4.64,0,0,0-2.14-3.63C114.8,4.44,110.33,4,106.5,5.13,99,7.43,93.78,15.26,91.37,19.72,87.9,26.15,85.78,33.49,86,38.4A8.65,8.65,0,0,0,89.51,45.4Z"/><path class="cls-1" d="M114.57,36.84a3.36,3.36,0,0,0,1.41,2.7,4.35,4.35,0,0,0,2.54.74,6.66,6.66,0,0,0,1.92-.3c3.55-1.08,6.25-4.13,6.13-6.94a3.27,3.27,0,0,0-1.36-2.63c-1.22-.86-3.12-1-5.23-.35C117,31,114.45,34.19,114.57,36.84Z"/><path class="cls-1" d="M265,83.66c13-4.3,18.29-17,18.09-22.56a7,7,0,0,0-2.4-5.25c-3.18-2.69-8.7-2.2-12.46-1-10.72,3.54-17.47,16-17.22,22.69A7.18,7.18,0,0,0,253.42,83a8.14,8.14,0,0,0,5.27,1.75A19.55,19.55,0,0,0,265,83.66ZM271,62.4c-.35,4.67-5,12.12-7.58,13.72C263.37,71.46,267.76,64.21,271,62.4Z"/><path class="cls-1" d="M307.42,55.26c1.55-2.17,2.74-4.26,2.67-6.3-.09-2.27-.68-3.15-1.51-4a3.71,3.71,0,0,0-3.35-.8,8.22,8.22,0,0,0-3.13,2.2c-2.88,3.32-10.79,13.52-24.6,31.66-7.69,10.12-14.45,18.6-22.52,29.65a7.27,7.27,0,0,0-1.52,4.59,5.73,5.73,0,0,0,2,4.1,4.51,4.51,0,0,0,2.83,1.12,4.24,4.24,0,0,0,1.41-.22,5.5,5.5,0,0,0,2.88-2.27c5.58-7.56,10.65-14.31,14.73-19.74,0,0,4.74-5.88,7.76-10C291.63,76.44,305.75,57.65,307.42,55.26Z"/><path class="cls-1" d="M310.37,79.61c-3.16-2.68-8.51-2.24-12.45-.93-11.55,3.81-17.19,16.74-17,22.61a7.31,7.31,0,0,0,2.41,5.5,8,8,0,0,0,5.16,1.71,19.47,19.47,0,0,0,6.31-1.09c12.35-4.07,18.17-16.63,18-22.52A7,7,0,0,0,310.37,79.61ZM293.06,99.9c.19-5,4.68-12.31,7.71-13.8C300.56,90.64,295.71,98.26,293.06,99.9Z"/><path class="cls-1" d="M117.13,68.2C115.84,52.71,99.42,51.72,91,54.28c-22.47,6.84-37.75,52.06-36.36,70.24C56,141.41,74.71,139.2,81.27,137.21,103.74,130.37,118.61,85.26,117.13,68.2Zm-41,59.57c-2.68.82-3.82-.79-4.09-4.2-1.29-15.49,12.42-55.89,24.05-59.43,2.68-.81,3.82.69,4.08,3.88C101.3,82.26,87.93,124.19,76.16,127.77Z"/><path class="cls-1" d="M117,109.69c-5,1.51-9.73,7.42-9.54,12.26.19,4.62,4.58,6.22,9.13,4.84,6.28-1.91,11.2-7.55,11-12.6S122.08,108.14,117,109.69Z"/><path class="cls-1" d="M167.63,31C145.16,37.8,129.89,83,131.28,101.21c1.34,16.89,20.07,14.68,26.62,12.68,22.47-6.83,37.34-51.94,35.86-69C192.47,29.4,176.05,28.4,167.63,31Zm-14.84,73.49c-2.67.81-3.82-.8-4.09-4.2-1.29-15.49,12.42-55.89,24.05-59.43,2.68-.81,3.82.69,4.08,3.88C177.93,59,164.56,100.88,152.79,104.46Z"/><path class="cls-1" d="M258.62,25.16c-1.29-15.5-17.7-16.49-26.13-13.92C210,18.07,194.75,63.3,196.14,81.48c1.34,16.89,20.07,14.68,26.62,12.68C245.23,87.33,260.11,42.22,258.62,25.16Zm-41,59.57c-2.68.81-3.83-.8-4.09-4.2C212.28,65,226,24.64,237.62,21.1c2.67-.81,3.81.69,4.07,3.87C242.8,39.22,229.42,81.15,217.66,84.73Z"/><path class="cls-2" d="M50.54,64c0-17.66.49-35.29,1.05-53.11-.12-2.93-9.34-3.43-13.77-2.08a5.42,5.42,0,0,0-3.09,2c-7.1,10.9-25,42.59-33.88,59A6.78,6.78,0,0,0,0,73.06c.17,3.91,5.08,6.21,9,5a2.48,2.48,0,0,0,1.38-1c.31-.51,1.93-3.56,4.26-8.06a3.22,3.22,0,0,1,1.68-1.58c2.58-1.28,5.8-2.68,9-4.15C28.23,62,32.85,60,34,59.66c1-.3,1.42-.1,1.46.79l.12,2.77c.17,4.07,7.52,4.56,11.85,3.24C49.31,65.9,50.58,65,50.54,64ZM35.46,49.08c-.07.85-.61,1.17-1.69,1.5A102.07,102.07,0,0,0,24,54.47a15.3,15.3,0,0,1-1.51.63c-.43.13-.65.11-.66-.05a3.76,3.76,0,0,1,.5-1.14C26.54,45.36,32.67,32.11,35.52,27a2.17,2.17,0,0,1,.83-.92c.54-.16.67.29.7.86C36.9,31.32,36.06,42.55,35.46,49.08Z"/><path class="cls-2" d="M57,50.34A8.8,8.8,0,0,0,62,52a7.08,7.08,0,0,0,2.06-.3C69.71,50,78,44.89,79.57,43.36A4.29,4.29,0,0,0,80.74,40,4.69,4.69,0,0,0,79,36.33a2.86,2.86,0,0,0-2.54-.42,3.4,3.4,0,0,0-1,.49,78.86,78.86,0,0,1-9.74,5.9c1.36-4.5,2.79-9.09,4.22-13.66,1.13-3.59,2.25-7.18,3.33-10.71a4.41,4.41,0,0,0,.19-1.46,4,4,0,0,0-1.84-3.16,8.11,8.11,0,0,0-6.3-1.12,2.39,2.39,0,0,0-1.78,1.57L54.41,45.08a4.42,4.42,0,0,0-.13,1.26A5.66,5.66,0,0,0,57,50.34Z"/><path class="cls-2" d="M85,40.9a10,10,0,0,0,5.85,1.69,15.44,15.44,0,0,0,4.52-.71c7.6-2.31,13.92-9,13.75-12.87a5.11,5.11,0,0,0-2.19-3.73,3.61,3.61,0,0,0-3.13-.67,2.37,2.37,0,0,0-1.28.85c-3.84,5-7.81,8.88-9.65,9.44-.3.09-.45.08-.47.06s-.23-.19-.27-1.23c-.35-8.33,7.79-23.29,12.28-26.34-.24.67-.6,1.51-.89,2.19-.84,2-1.64,3.81-1.58,5.15a4.75,4.75,0,0,0,2.1,3.69,6.06,6.06,0,0,0,5,1,3.42,3.42,0,0,0,2.31-2.22c.37-1.05.78-2.15,1.19-3.25,1.61-4.38,2.59-7.14,2.53-8.52a4.64,4.64,0,0,0-2.14-3.63C110.3-.06,105.83-.53,102,.63c-7.56,2.3-12.73,10.13-15.14,14.59C83.4,21.66,81.29,29,81.49,33.91A8.65,8.65,0,0,0,85,40.9Z"/><path class="cls-2" d="M110.07,32.34a3.38,3.38,0,0,0,1.41,2.7,4.36,4.36,0,0,0,2.55.74,6.59,6.59,0,0,0,1.91-.3c3.55-1.08,6.25-4.13,6.13-6.94a3.28,3.28,0,0,0-1.36-2.63c-1.22-.86-3.12-1-5.23-.35C112.54,26.46,110,29.69,110.07,32.34Z"/><path class="cls-2" d="M260.53,79.17c13-4.31,18.28-17,18.08-22.57a7,7,0,0,0-2.4-5.25c-3.18-2.69-8.7-2.2-12.46-1-10.72,3.54-17.46,16-17.22,22.69a7.18,7.18,0,0,0,2.39,5.42,8.14,8.14,0,0,0,5.27,1.75A20,20,0,0,0,260.53,79.17Zm5.93-21.27c-.34,4.68-5,12.12-7.58,13.73C258.87,67,263.26,59.71,266.46,57.9Z"/><path class="cls-2" d="M302.92,50.76c1.55-2.17,2.74-4.26,2.67-6.3-.08-2.27-.68-3.15-1.51-4a3.74,3.74,0,0,0-3.35-.8,8.33,8.33,0,0,0-3.13,2.2c-2.88,3.33-10.79,13.52-24.6,31.66-7.69,10.12-14.45,18.6-22.52,29.66a7.29,7.29,0,0,0-1.52,4.58,5.74,5.74,0,0,0,2,4.1,4.52,4.52,0,0,0,2.84,1.12,4,4,0,0,0,1.4-.22,5.5,5.5,0,0,0,2.88-2.27c5.58-7.56,10.66-14.31,14.74-19.73,0,0,4.73-5.88,7.75-10C287.13,71.94,301.25,53.16,302.92,50.76Z"/><path class="cls-2" d="M305.87,75.11c-3.16-2.68-8.5-2.23-12.45-.93-11.55,3.81-17.19,16.75-17,22.61a7.31,7.31,0,0,0,2.41,5.5A8,8,0,0,0,284,104a19.76,19.76,0,0,0,6.31-1.08c12.36-4.08,18.17-16.64,18-22.53A7,7,0,0,0,305.87,75.11ZM288.56,95.4c.19-5,4.68-12.31,7.71-13.8C296.06,86.14,291.21,93.76,288.56,95.4Z"/><path class="cls-2" d="M112.63,63.7C111.34,48.21,94.92,47.22,86.5,49.78,64,56.62,48.75,101.84,50.15,120c1.34,16.9,20.07,14.68,26.62,12.69C99.24,125.87,114.11,80.76,112.63,63.7Zm-41,59.57c-2.67.82-3.82-.79-4.09-4.19C66.28,103.58,80,63.18,91.62,59.64c2.68-.81,3.82.69,4.08,3.88C96.8,77.76,83.43,119.69,71.66,123.27Z"/><path class="cls-2" d="M112.5,105.19c-5,1.51-9.73,7.42-9.54,12.26.19,4.62,4.58,6.22,9.13,4.84,6.28-1.91,11.21-7.54,11-12.6S117.58,103.65,112.5,105.19Z"/><path class="cls-2" d="M163.13,26.47c-22.47,6.83-37.74,52.06-36.35,70.24,1.34,16.89,20.07,14.68,26.62,12.69,22.47-6.84,37.34-51.95,35.86-69C188,24.9,171.55,23.91,163.13,26.47ZM148.29,100c-2.67.81-3.82-.79-4.09-4.19-1.28-15.5,12.42-55.9,24.05-59.44,2.68-.81,3.82.69,4.08,3.88C173.44,54.45,160.06,96.38,148.29,100Z"/><path class="cls-2" d="M254.12,20.66C252.84,5.17,236.42,4.18,228,6.74,205.52,13.57,190.25,58.8,191.64,77c1.34,16.89,20.07,14.68,26.63,12.69C240.74,82.83,255.61,37.72,254.12,20.66Zm-41,59.57c-2.68.81-3.82-.8-4.09-4.2-1.29-15.49,12.41-55.89,24.05-59.43,2.67-.81,3.82.69,4.08,3.88C238.3,34.72,224.93,76.65,213.16,80.23Z"/></g></g></svg>