<svg xmlns="http://www.w3.org/2000/svg" viewBox="0 0 379.61 64"><defs><style>.cls-1{fill:#fff;}</style></defs><g id="レイヤー_2" data-name="レイヤー 2"><g id="product"><path class="cls-1" d="M31.3,31.3c-1,7.17-1.61,9.45-3.76,13.74A38.49,38.49,0,0,1,15.88,58.71a68,68,0,0,1-6.23,3.95A15.52,15.52,0,0,0,5.23,56.9C13.87,52,18,48.12,21,42.22A30,30,0,0,0,24,31.3H9.38c-2.88,0-6.63.06-9.38.13V24.19c2.55.07,6.37.14,9.38.14H43.9c2.68,0,7-.07,9.31-.14v7.24c-2.41-.07-6.77-.13-9.31-.13ZM41.75,15.68c-1.94-.07-4.76-.13-6.7-.13H16.69c-2,0-4.76.06-6.7.13V8.44c1.94.07,4.75.14,6.7.14H35.05c1.94,0,4.76-.07,6.7-.14ZM46.44,6A45.35,45.35,0,0,1,55,12.73L51.6,16.42a39.6,39.6,0,0,0-8.17-7Zm5.23-6a42.56,42.56,0,0,1,8.44,6.7l-3.35,3.62a38.33,38.33,0,0,0-8-6.9Z"/><path class="cls-1" d="M75,44.63c0,4.83.94,5.3,9.92,5.3a116.15,116.15,0,0,0,20-1.74L106,55.42c-7,1.08-13.27,1.41-24.12,1.41-11.6,0-14.08-1.88-14.08-11.12V20.57c0-5.22-.06-8.31-.2-10l7.71.47c.74.07,1.14.27,1.14.67s-.34.74-1.34,1.34C75,15,75,17.36,75,20.57v7.78a74.87,74.87,0,0,0,11.53-4.16,45,45,0,0,0,11-6.63l5.69,5a1.37,1.37,0,0,1,.54.94c0,.47-.47.87-1.27.8l-1.07-.07a79.35,79.35,0,0,1-15.22,7.37c-2.81,1-8.64,2.95-11.19,3.56ZM102,9.58a45.43,45.43,0,0,1,8.51,6.71L107.16,20a41.56,41.56,0,0,0-8.11-7Zm5.23-6.1a46.61,46.61,0,0,1,8.44,6.77l-3.35,3.62a38.89,38.89,0,0,0-8-6.9Z"/><path class="cls-1" d="M147.57,33.17H132c-1.6,0-5.16.07-6.76.14V26.87c2.48.14,4.49.14,6.76.14h17.9c2,0,3.55,0,5-.14-.2,1.61-.54,6.44-.67,9.05l-.54,11.39H157c3,0,6-.06,8.91-.2v6.5c-2.54-.13-6.3-.2-8.91-.2H125.86c-2.22,0-5.23.07-8.92.2v-6.5c3,.14,5.9.2,8.92.2h20.9Z"/><path class="cls-1" d="M225.58,36.66c-3.15-.07-8.45-.2-12-.2H185.5c-3.28,0-9.12.13-12,.2V29.49c2.75.06,8.58.2,12,.2h28.08c3.69,0,9-.07,12-.2Z"/><path class="cls-1" d="M287.32,16a1.85,1.85,0,0,1,.47,1.14c0,.54-.27.67-2.15.8-6.9.47-10.79,1.75-15.35,5.1-6.5,4.82-10.05,10.79-10.05,17,0,5.77,4.49,10.12,12,11.66a60.6,60.6,0,0,0,12.2,1.14A28.68,28.68,0,0,0,281.75,60a62.7,62.7,0,0,1-14.4-2.14c-9.05-2.55-14.21-9-14.21-17.83,0-7.31,3.35-13.07,10.86-18.77-6,1.41-20.58,4.83-24.33,5.63-1.68.41-2.08.47-3.35.81L234.64,20c6-.54,14.41-1.88,29.89-4.83,13.14-2.48,15-2.88,19.3-4.49ZM280.48,26.2A43.29,43.29,0,0,1,289,32.91l-3.35,3.68a39.36,39.36,0,0,0-8.11-7Zm5.23-6.1a45.94,45.94,0,0,1,8.51,6.77l-3.35,3.62a39.23,39.23,0,0,0-8.11-6.9Z"/><path class="cls-1" d="M338.13,2.41c.87,0,1.4.4,1.4.94s-.26.87-1.2,1.61c0,2.41-.07,4.36-.07,5.56v4.63c12.13-.54,16.29-.81,21.51-1.48v7.17h-8.31c-2.88,0-6.83.14-13.2.4V33.91a43.29,43.29,0,0,1,.34,4.89c0,13.54-7.44,21.18-24.4,24.93a20.47,20.47,0,0,0-3.21-6.5c6.56-1.47,8.37-2,11.46-3.35,4.42-1.94,6.36-3.68,7.84-7a5.82,5.82,0,0,1-4.09,1.14c-6.17,0-10.05-4.15-10.05-10.79s4-11.39,9.58-11.39a9.76,9.76,0,0,1,5.56,1.47c.07-1.2.07-1.87.07-2.34,0-.2,0-2.75-.07-3.55-12.66.33-25.46.93-30.36,1.47l-.47-7.44c3.82.2,5.5.27,8.11.27,6.7,0,13.34-.14,22.72-.4l-.07-4.43a54.62,54.62,0,0,0-.46-8.78Zm-11.26,29c-2.75,0-4.69,2.28-4.69,5.5s1.94,5.42,4.82,5.42c2.62,0,4.43-2.21,4.43-5.49S329.55,31.43,326.87,31.43Z"/><path class="cls-1" d="M379.61,53.75a10.22,10.22,0,1,1-10.19-10.19A10.2,10.2,0,0,1,379.61,53.75Zm-15.61,0a5.39,5.39,0,1,0,5.42-5.36A5.41,5.41,0,0,0,364,53.75Z"/></g></g></svg>