<svg xmlns="http://www.w3.org/2000/svg" viewBox="0 0 483.14 59.51"><defs><style>.cls-1{fill:#fff;}</style></defs><g id="レイヤー_2" data-name="レイヤー 2"><g id="product"><path class="cls-1" d="M0,46.17c.67-2.41.8-4.42.8-12.46V18.09c0-5.16-.13-8-.26-10l7.64.47c.73.07,1.14.27,1.14.67S9,9.92,8,10.52C8,13.74,8,15,8,18.09V41.55c13.93-5.23,26.73-12.73,35.18-20.77a23.57,23.57,0,0,0,2.61,7A114.47,114.47,0,0,1,28.35,39.67a107.74,107.74,0,0,1-21,9.72c-.26.94-.6,1.34-1,1.34a2.15,2.15,0,0,1-1-.4Z"/><path class="cls-1" d="M83,42.35c0,2.28.61,2.55,5.23,2.55a136.37,136.37,0,0,0,16-.87l.06,6.9a145.06,145.06,0,0,1-17.76.81c-9,0-10.58-1.28-10.58-8.38V32L64,32.3c-2.88.07-6.63.27-9.38.4l-.07-7c1.07.07,1.54.07,1.94.07,1.68,0,5.9,0,7.44-.07L76,25.47V19.84c0-2.15,0-2.75-.07-4.36L83,16c.81.07,1.28.27,1.28.67S84,17.42,83,18v7.37l17.56-.4c2.75-.07,6.77-.27,9.38-.47l.07,7h-9.31L83,31.9Zm17.49-28.48c-.67-.06-1.07-.06-1.2-.06-.67,0-3,0-6.84.06l-21.91.47c-2,.07-5.43.2-8,.34l-.07-6.91c1.21,0,2.81.07,4.35.07s3-.07,3.62-.07l22-.53c3.48-.07,5.76-.14,8-.34Z"/><path class="cls-1" d="M123,7.64c7,3.62,9.52,5.5,14.14,10.59l-5.29,5.83C127,18.7,123.5,15.88,118.54,13.2Zm-2.55,37.8c10.12-4.29,15.89-7.58,23.53-13.34a94.32,94.32,0,0,0,21-21.51A39.32,39.32,0,0,0,169.6,17C160.76,27.61,155.8,32.5,148,38.4c-6.57,5-11.53,8-21.05,12.8-.26.94-.53,1.41-1,1.41a1.72,1.72,0,0,1-1.14-.81Z"/><path class="cls-1" d="M214.44,16.35V4.42L214.37.13l7.17.47c.87.07,1.27.27,1.27.74s-.26.67-1.27,1.27V16.35H226c3.69,0,9-.06,12-.2v7c-3.15-.07-8.44-.2-12-.2h-4.42c-.27,6.5-.27,6.9-.74,9.45-1.81,10.72-8.44,18.16-22.51,25.4a20.29,20.29,0,0,0-4.63-6.24C201.5,48.19,207,44,210.28,39.27c3-4.35,4-8,4.16-16.28H201.23v5.09c0,4.42.07,7.84.21,9.78h-7.31c.13-2.27.2-5.36.2-9.78V23h-4.62c-3.29,0-9.12.13-12,.2v-7c2.75.14,8.58.2,12,.2h4.62V12.87c0-5.3-.07-8.18-.2-10.06l7.31.47c.73.07,1.13.27,1.13.74s-.2.54-1.34,1.27V16.35Z"/><path class="cls-1" d="M248.28,11.59c0-2.14-.07-4.75-.2-5.89,1.47.06,2.88.06,4.82.06h31l.87-1.07,5.42,4.49c.54.4.67.67.67,1,0,.6-.33.8-1.47,1.2-2,14.81-3.55,19.84-8.24,26.94S270.73,50.4,261,56a21.35,21.35,0,0,0-5-6.17c9.18-5,14.07-8.91,18.49-15.14,4.29-6,5.63-9.92,7.58-22.39H255.25V23.52c0,3.15.07,5.63.2,7.11h-7.37c.13-1.54.2-3.82.2-7.11Z"/><path class="cls-1" d="M350.81,31.3c-3.15-.07-8.44-.2-12-.2H310.74c-3.29,0-9.12.13-12,.2V24.13c2.75.06,8.58.2,12,.2h28.08c3.68,0,9-.07,12-.2Z"/><path class="cls-1" d="M399.06,25.87a33.61,33.61,0,0,0,7.77,5.9c4,2.27,8.11,3.88,14.81,5.56l-1.94,3.15c-.27.47-.54,1.14-1.34,3-6.84-2.14-10.59-3.82-15.21-7l-.34.2V49.19c0,4.42,0,7.84.13,9.78h-7c.13-2.27.2-5.36.2-9.78v-5c0-5.29-.07-8.17-.2-10l4.49.27a36.68,36.68,0,0,1-5-4.63,35,35,0,0,1-3.08-3.95h-4.9a60.31,60.31,0,0,1-9.11,8.44l5.23.4c.6.07,1.2.47,1.2.88s-.47.73-1.27,1.14c-.27,8.71-1.07,11.79-4.22,15.21s-8,5.69-15.35,7.57a16.65,16.65,0,0,0-2.68-5.7c1.21-.33,2.08-.6,2.68-.8,6.37-1.94,8.91-3.35,11-6C376.41,45,377,42.76,377,37.19a17.42,17.42,0,0,0-.07-1.94c-.6.47-1.27.87-1.94,1.34-4.22,2.75-7.57,4.42-14.81,7.17a18.86,18.86,0,0,0-2.75-6c9.58-3,16.35-6.64,21.91-11.93h-6.76v2.61H366c.07-1.54.13-3.75.13-7V5.9c0-2.15-.06-4.69-.13-5.9,2.34.07,4.36.07,7.37.07H406c3,0,5,0,7.37-.07-.07,1.21-.13,3.75-.13,5.9V20.64c0,3.15.06,5.43.13,7h-6.57V25.87ZM372.59,6v4.16h13.73V6Zm0,14.14h13.73V15.75H372.59ZM406.83,6H392.89v4.16h13.94Zm0,9.79H392.89V20.1h13.94Z"/><path class="cls-1" d="M441,4.89c.74.14,1.21.61,1.21,1.14,0,.74-.47,1.14-1.81,1.61C437.83,21.78,437.5,25.06,437.5,33a52.47,52.47,0,0,0,3.35,20A43.68,43.68,0,0,0,434,55.56C431.67,49.12,430.6,42,430.6,33c0-7.24.46-12.06,2.61-25.67a26.87,26.87,0,0,0,.47-3.82Zm15.35,28.28c-1.88,2.48-2.41,3.76-2.41,5.23,0,3.49,3.95,5,13.33,5a59.41,59.41,0,0,0,15.89-1.88,53.06,53.06,0,0,0-.87,7.91,99.23,99.23,0,0,1-14.55,1c-5.76,0-10.32-.47-13.27-1.48q-7.23-2.41-7.23-9.45c0-3.15.93-5.36,3.95-9.45Zm-7.57-21a72.08,72.08,0,0,1,20.57-2.75,86.14,86.14,0,0,1,11.59.74l-1.07,6.57c-1.2-.07-2.14-.14-2.75-.2-4.15-.34-6.09-.41-9.78-.41-6.57,0-10.05.54-17.09,2.75Z"/></g></g></svg>