<svg xmlns="http://www.w3.org/2000/svg" viewBox="0 0 66.97 43.52"><defs><style>.cls-1{fill:#fff;}</style></defs><g id="レイヤー_2" data-name="レイヤー 2"><g id="Q_A" data-name="Q&amp;A"><path class="cls-1" d="M24.29,32.32a24.6,24.6,0,0,1,.8,2.56,12.17,12.17,0,0,0,1.54,3.94,2.09,2.09,0,0,0,1.66.91,1.77,1.77,0,0,0,1.49-1,6.57,6.57,0,0,0,.68-3.24h1.36q0,4.11-1.59,6a5,5,0,0,1-4.11,2,4.63,4.63,0,0,1-3.81-1.88c-1-1.26-1.63-3.66-1.95-7.22a24.17,24.17,0,0,1-2.46.48,16.56,16.56,0,0,1-2.26.16,14.66,14.66,0,0,1-7.83-2.2,15.42,15.42,0,0,1-5.7-6.31A20,20,0,0,1,0,17.26,17.91,17.91,0,0,1,4.76,4.72,14,14,0,0,1,15.52,0a14.78,14.78,0,0,1,7.87,2.18,15.7,15.7,0,0,1,5.7,6.24,19.25,19.25,0,0,1,2.14,9.11,19.24,19.24,0,0,1-1.68,8.21A19.16,19.16,0,0,1,24.29,32.32Zm-1.13-3.14a19.17,19.17,0,0,0,1.8-5,33.8,33.8,0,0,0,.57-6.79,26.72,26.72,0,0,0-1.25-9.08,10.18,10.18,0,0,0-3.54-4.93,8.78,8.78,0,0,0-5.15-1.6,8.58,8.58,0,0,0-5.07,1.6A10.23,10.23,0,0,0,7,8.33a27,27,0,0,0-1.27,9.19,28.77,28.77,0,0,0,.76,7,20.8,20.8,0,0,0,2.34,5.58c0-.7,0-1.26,0-1.69a6.26,6.26,0,0,1,1.81-4.63A6.38,6.38,0,0,1,15.36,22a6.81,6.81,0,0,1,5,2A14.17,14.17,0,0,1,23.16,29.18Zm-2.8,2.89a13.28,13.28,0,0,0-1.07-5.95,4.27,4.27,0,0,0-4-2.37,4.69,4.69,0,0,0-4.88,4.9,6.06,6.06,0,0,0,1.68,4.06,8.46,8.46,0,0,0,3.4.71,9.8,9.8,0,0,0,2.58-.34A9.28,9.28,0,0,0,20.36,32.07Z"/><path class="cls-1" d="M39.78,29.45a2.65,2.65,0,0,1,1.94.82,2.72,2.72,0,0,1,.79,2,2.78,2.78,0,0,1-.79,2,2.74,2.74,0,0,1-3.91,0,2.84,2.84,0,0,1,0-4A2.68,2.68,0,0,1,39.78,29.45Z"/><path class="cls-1" d="M60.48,2.8V31.25a1.14,1.14,0,0,0,.45,1,2.68,2.68,0,0,0,1.62.48H67v1.71H50.56V32.71h3.78a2.4,2.4,0,0,0,1.76-.56,2,2,0,0,0,.57-1.49V9.16a1.43,1.43,0,0,0-.52-1.11,2,2,0,0,0-1.35-.46H49.74V6A30.38,30.38,0,0,0,55.52,4.8a14.93,14.93,0,0,0,3.9-2Z"/></g></g></svg>