<svg xmlns="http://www.w3.org/2000/svg" viewBox="0 0 70.72 43.52"><defs><style>.cls-1{fill:#fff;}</style></defs><g id="レイヤー_2" data-name="レイヤー 2"><g id="Q_A" data-name="Q&amp;A"><path class="cls-1" d="M24.29,32.32a24.6,24.6,0,0,1,.8,2.56,12.17,12.17,0,0,0,1.54,3.94,2.09,2.09,0,0,0,1.66.91,1.77,1.77,0,0,0,1.49-1,6.57,6.57,0,0,0,.68-3.24h1.36q0,4.11-1.59,6a5,5,0,0,1-4.11,2,4.63,4.63,0,0,1-3.81-1.88c-1-1.26-1.63-3.66-1.95-7.22a24.17,24.17,0,0,1-2.46.48,16.56,16.56,0,0,1-2.26.16,14.66,14.66,0,0,1-7.83-2.2,15.42,15.42,0,0,1-5.7-6.31A20,20,0,0,1,0,17.26,17.91,17.91,0,0,1,4.76,4.72,14,14,0,0,1,15.52,0a14.78,14.78,0,0,1,7.87,2.18,15.7,15.7,0,0,1,5.7,6.24,19.25,19.25,0,0,1,2.14,9.11,19.24,19.24,0,0,1-1.68,8.21A19.16,19.16,0,0,1,24.29,32.32Zm-1.13-3.14a19.17,19.17,0,0,0,1.8-5,33.8,33.8,0,0,0,.57-6.79,26.72,26.72,0,0,0-1.25-9.08,10.18,10.18,0,0,0-3.54-4.93,8.78,8.78,0,0,0-5.15-1.6,8.58,8.58,0,0,0-5.07,1.6A10.23,10.23,0,0,0,7,8.33a27,27,0,0,0-1.27,9.19,28.77,28.77,0,0,0,.76,7,20.8,20.8,0,0,0,2.34,5.58c0-.7,0-1.26,0-1.69a6.26,6.26,0,0,1,1.81-4.63A6.38,6.38,0,0,1,15.36,22a6.81,6.81,0,0,1,5,2A14.17,14.17,0,0,1,23.16,29.18Zm-2.8,2.89a13.28,13.28,0,0,0-1.07-5.95,4.27,4.27,0,0,0-4-2.37,4.69,4.69,0,0,0-4.88,4.9,6.06,6.06,0,0,0,1.68,4.06,8.46,8.46,0,0,0,3.4.71,9.8,9.8,0,0,0,2.58-.34A9.28,9.28,0,0,0,20.36,32.07Z"/><path class="cls-1" d="M39.78,29.45a2.65,2.65,0,0,1,1.94.82,2.72,2.72,0,0,1,.79,2,2.78,2.78,0,0,1-.79,2,2.74,2.74,0,0,1-3.91,0,2.84,2.84,0,0,1,0-4A2.68,2.68,0,0,1,39.78,29.45Z"/><path class="cls-1" d="M63.32,17.58a10.47,10.47,0,0,1,5.08,2.64A7.93,7.93,0,0,1,70.72,26a7.82,7.82,0,0,1-2.78,6.29,12.14,12.14,0,0,1-8.25,2.74,12.51,12.51,0,0,1-5.25-1,7.46,7.46,0,0,1-3.3-2.72,7,7,0,0,1-1.09-3.85,4.11,4.11,0,0,1,.84-2.73,2.66,2.66,0,0,1,2.12-1,2.42,2.42,0,0,1,1.87.77,3,3,0,0,1,.71,2.08A2.58,2.58,0,0,1,55.22,28,3.34,3.34,0,0,1,54,29.11c-.66.35-1,.68-1,1a2.56,2.56,0,0,0,.69,1.54A4.71,4.71,0,0,0,55.71,33a9.88,9.88,0,0,0,3.43.51q3.59,0,5.3-1.76t1.73-5.67q0-4.08-1.48-5.8a5.4,5.4,0,0,0-4.36-1.72,13.13,13.13,0,0,0-1.94.18,11,11,0,0,1-1.34.14A1.71,1.71,0,0,1,56,18.61a.87.87,0,0,1-.38-.72.9.9,0,0,1,.35-.74,2,2,0,0,1,1.16-.26l1.25.05,1.09,0a5.87,5.87,0,0,0,4.36-1.48,6.29,6.29,0,0,0,1.46-4.57c0-2.53-.47-4.34-1.39-5.41a5.23,5.23,0,0,0-4.15-1.6,7.73,7.73,0,0,0-4,.91q-1.5.92-1.5,1.68c0,.34.29.78.86,1.34a3.26,3.26,0,0,1,1.23,2.37,2.05,2.05,0,0,1-.68,1.57,2.5,2.5,0,0,1-1.76.63A2.32,2.32,0,0,1,52,11.56a3.7,3.7,0,0,1-.72-2.42A6.12,6.12,0,0,1,53,4.86q2.46-2.66,7.05-2.65a9.83,9.83,0,0,1,6.83,2.3,7.36,7.36,0,0,1,2.56,5.7,6.68,6.68,0,0,1-1.38,4.22A11.35,11.35,0,0,1,63.32,17.58Z"/></g></g></svg>