<svg xmlns="http://www.w3.org/2000/svg" viewBox="0 0 70.63 43.52"><defs><style>.cls-1{fill:#fff;}</style></defs><g id="レイヤー_2" data-name="レイヤー 2"><g id="Q_A" data-name="Q&amp;A"><path class="cls-1" d="M24.29,32.32a24.6,24.6,0,0,1,.8,2.56,12.17,12.17,0,0,0,1.54,3.94,2.09,2.09,0,0,0,1.66.91,1.77,1.77,0,0,0,1.49-1,6.57,6.57,0,0,0,.68-3.24h1.36q0,4.11-1.59,6a5,5,0,0,1-4.11,2,4.63,4.63,0,0,1-3.81-1.88c-1-1.26-1.63-3.66-1.95-7.22a24.17,24.17,0,0,1-2.46.48,16.56,16.56,0,0,1-2.26.16,14.66,14.66,0,0,1-7.83-2.2,15.42,15.42,0,0,1-5.7-6.31A20,20,0,0,1,0,17.26,17.91,17.91,0,0,1,4.76,4.72,14,14,0,0,1,15.52,0a14.78,14.78,0,0,1,7.87,2.18,15.7,15.7,0,0,1,5.7,6.24,19.25,19.25,0,0,1,2.14,9.11,19.24,19.24,0,0,1-1.68,8.21A19.16,19.16,0,0,1,24.29,32.32Zm-1.13-3.14a19.17,19.17,0,0,0,1.8-5,33.8,33.8,0,0,0,.57-6.79,26.72,26.72,0,0,0-1.25-9.08,10.18,10.18,0,0,0-3.54-4.93,8.78,8.78,0,0,0-5.15-1.6,8.58,8.58,0,0,0-5.07,1.6A10.23,10.23,0,0,0,7,8.33a27,27,0,0,0-1.27,9.19,28.77,28.77,0,0,0,.76,7,20.8,20.8,0,0,0,2.34,5.58c0-.7,0-1.26,0-1.69a6.26,6.26,0,0,1,1.81-4.63A6.38,6.38,0,0,1,15.36,22a6.81,6.81,0,0,1,5,2A14.17,14.17,0,0,1,23.16,29.18Zm-2.8,2.89a13.28,13.28,0,0,0-1.07-5.95,4.27,4.27,0,0,0-4-2.37,4.69,4.69,0,0,0-4.88,4.9,6.06,6.06,0,0,0,1.68,4.06,8.46,8.46,0,0,0,3.4.71,9.8,9.8,0,0,0,2.58-.34A9.28,9.28,0,0,0,20.36,32.07Z"/><path class="cls-1" d="M39.78,29.45a2.65,2.65,0,0,1,1.94.82,2.72,2.72,0,0,1,.79,2,2.78,2.78,0,0,1-.79,2,2.74,2.74,0,0,1-3.91,0,2.84,2.84,0,0,1,0-4A2.68,2.68,0,0,1,39.78,29.45Z"/><path class="cls-1" d="M53.17,2.21a44,44,0,0,0,9.41,1.32,14.92,14.92,0,0,0,3.21-.33,8.15,8.15,0,0,0,2.26-.76,1.6,1.6,0,0,1,.5-.21c.16,0,.23.12.23.35a3.87,3.87,0,0,1-1,2.1A7.1,7.1,0,0,1,65,6.77a10,10,0,0,1-4.07.77,29.75,29.75,0,0,1-6.36-.82l-.74,8.71a18.74,18.74,0,0,1,3.3-1.3,11.24,11.24,0,0,1,3-.43,10.38,10.38,0,0,1,7.51,3,9.86,9.86,0,0,1,3,7.32,10.58,10.58,0,0,1-3.24,8A11.58,11.58,0,0,1,59,35.06a9.17,9.17,0,0,1-6.42-2.25,7,7,0,0,1-2.47-5.34,4.6,4.6,0,0,1,.79-2.89,2.44,2.44,0,0,1,2-1,2.59,2.59,0,0,1,2,.81,2.94,2.94,0,0,1,.76,2.11A2.7,2.7,0,0,1,55.27,28a2.85,2.85,0,0,1-1.37.91c-.67.26-1,.55-1,.89a2.68,2.68,0,0,0,.69,1.6,4.74,4.74,0,0,0,2.06,1.44,8.4,8.4,0,0,0,3.16.56,6.57,6.57,0,0,0,5.32-2.17q1.83-2.16,1.83-7,0-4.44-1.93-6.5a6.51,6.51,0,0,0-4.95-2.05,8.07,8.07,0,0,0-2.74.5,11.27,11.27,0,0,0-2.73,1.51A4.67,4.67,0,0,1,53,19.8a1.25,1.25,0,0,1-1.05.53.89.89,0,0,1-.73-.32,1.3,1.3,0,0,1-.27-.88,2.93,2.93,0,0,1,.93-2,2.5,2.5,0,0,0,.39-.52l.53-6.7Q53.15,5.94,53.17,2.21Z"/></g></g></svg>