<svg xmlns="http://www.w3.org/2000/svg" viewBox="0 0 451.17 51.5"><defs><style>.cls-1{fill:#e51373;}</style></defs><g id="レイヤー_2" data-name="レイヤー 2"><g id="scene"><path class="cls-1" d="M28.08,9.5a65.72,65.72,0,0,1-8.71,3.26,63.74,63.74,0,0,0,2.47,6.14,46,46,0,0,0,8.92-4.53l2.41,4.75a54.91,54.91,0,0,1-9.23,4.42,68.62,68.62,0,0,0,7.55,11.93L27.61,39c-4.15-3.09-7.19-4.2-11.39-4.2-4.57,0-7.14,1.83-7.14,5.14s3.1,4.75,9.92,4.75a46.11,46.11,0,0,0,6.67-.49,16.43,16.43,0,0,0-1.16,6.13c-2,0-2.94,0-4.51,0-5.36,0-8.24-.44-10.92-1.6a9.34,9.34,0,0,1-5.51-8.62c0-6,4.93-10,12.49-10a19.74,19.74,0,0,1,6.35,1.05c-1-1.6-2.88-5.19-3.3-6a34.31,34.31,0,0,1-8.72,1.65c-3.83,0-5.77-1.6-5.77-4.91a9.68,9.68,0,0,1,.89-3.87l4.62,1a3.49,3.49,0,0,0-.47,1.6c0,.67.26.94,1.05.94a25.81,25.81,0,0,0,6.19-1.16c-.47-1.05-1.84-4.42-2.52-6.24A124.06,124.06,0,0,1,1,16.58L0,11.16A103.65,103.65,0,0,0,12.86,9.28C12.75,9,12.23,7.13,11.92,6L10.5,1.16l6-.44h.11a.66.66,0,0,1,.68.66c0,.39-.05.55-.79,1.11.37,1.82.84,3.59,1.37,5.41a51.06,51.06,0,0,0,8-3.31Z"/><path class="cls-1" d="M55.32,13.15c.74.06,1.21.44,1.21.94a1.25,1.25,0,0,1-.74,1.1c0,1.88,0,2.71,0,3.54s0,1.27,0,3.48A27.71,27.71,0,0,0,66.08,20.5l1.37,4.81c-4.2,1.27-6.35,1.54-11.66,1.71.06,2.26.16,6.52.21,8.56l.06,2.65c6.14,2.05,8.66,3.32,12.86,6.47a21.2,21.2,0,0,0-2.58,4.64,46.64,46.64,0,0,0-10.39-6c-.52,4.8-3,6.74-8.61,6.74s-9.24-2.6-9.24-6.52,3.94-6.91,9.3-6.91a19.39,19.39,0,0,1,3.72.39v-.89c0-.44,0-4-.21-10.55-.26-10-.26-11-.47-12.71Zm-8,28.07c-2.73,0-4.41.83-4.41,2.21s1.37,1.93,3.94,1.93c1.68,0,2.94-.38,3.57-1.16A2.81,2.81,0,0,0,51,42.71a6.31,6.31,0,0,0,0-.94A12.85,12.85,0,0,0,47.34,41.22Z"/><path class="cls-1" d="M75.26,19.39c2.16-.66,2.89-.88,4.78-1.54,7.09-2.38,10.18-3.1,13.75-3.1a10.69,10.69,0,0,1,9.71,5.64,14.14,14.14,0,0,1,1.47,6.9,22,22,0,0,1-8.24,17.58,38.63,38.63,0,0,1-11.75,6,18.23,18.23,0,0,0-2.84-5.74,34.5,34.5,0,0,0,9.71-4.37A15.51,15.51,0,0,0,99.15,27c0-4.53-2-6.85-5.93-6.85-3,0-7.41,1.49-15.12,5.25Zm23.62-8.51c-8.18-1.6-12.49-3.2-17.47-6.35L84.5,0c5.36,2.82,8.77,4,16.22,5.47Z"/><path class="cls-1" d="M134.89,20.28c.37.11.58.33.58.61s-.11.38-1.21.77c-1.26,2.71-1.94,4.2-2.68,5.63h2.89c1.84,0,3.2-.05,3.88-.11v5c-.68-.06-2.15-.11-3.88-.11h-6v4.14h4.67c1.16,0,3.05-.06,4.2-.11v5c-1.1,0-2.78-.11-4.2-.11h-4.67v.72c0,4.14,0,7.68.16,9.67h-5.25c.11-2.16.16-5.19.16-9.67v-.72h-4.25c-1.42,0-3.1.06-4.2.11v-5c1.15.05,3.09.11,4.2.11h4.25V32.05h-5.83c-1.42,0-3.09.05-4.2.11v-5c1.16.06,3,.11,4.2.11h2.15a34.47,34.47,0,0,0-3.09-6.85l3.2-1.6h-2.26c-1.42,0-3.09.06-4.2.11V14c1.16,0,3,.11,4.2.11h5.83V10h-4.25c-1.42,0-3.1.05-4.2.11v-5c1.15.06,3.09.11,4.2.11h4.25c0-2.15,0-3.86-.11-5.13l5.15.38c.57.06.94.22.94.55s-.31.67-1,1.11V5.19h4.67c1.16,0,3.05-.05,4.2-.11v5c-1.1-.06-2.78-.11-4.2-.11h-4.67v4.14h6c1.21,0,3.15-.06,4-.11v5c-.84-.05-2.57-.11-4-.11H131Zm-14.23-1.44a29.56,29.56,0,0,1,3.57,6.85l-3.09,1.6h5.67a51.43,51.43,0,0,0,2.2-5.35,29.23,29.23,0,0,0,.94-3.1ZM156,41.22a32.1,32.1,0,0,0,6.35,5.47,12.72,12.72,0,0,0-3.15,4.09,38.3,38.3,0,0,1-5.72-5.25,42.76,42.76,0,0,1-5.25,6,30.91,30.91,0,0,0-2.89-4.15,28.89,28.89,0,0,0,5.25-6c-.31-.6-.68-1.27-1-2-1.68-3.59-2.58-6.85-3.26-12.87h-1.57V45.31c0,2.54.05,4.69.1,5.91h-5.19c.05-1.33.1-3.15.1-5.91V7.74c0-1.77-.05-3.87-.1-4.87,1.15.06,2.2.06,3.77.06h12.18c1.58,0,2.63,0,3.78-.06-.05.94-.1,2.82-.1,4.48v3c0,.72,0,3.86,0,4.14,0,4-1.52,5-7.61,5H150a30.86,30.86,0,0,0-.68-5.25c.79.06,2.78.17,3.52.17,1.26,0,1.52-.28,1.52-1.49V7.74h-9.55v14H157l.84-1.05,3.3,3.38c.37.33.48.49.48.71,0,.39-.27.61-.9.83l-.31.11c-1.05,7-2.05,10.56-4.1,14.86Zm-5.41-14.7a36.93,36.93,0,0,0,2.52,10c.58-1.61,1.11-3.15,1.52-4.76s.74-3.48,1-5.19Z"/><path class="cls-1" d="M185.06,22.1c5.73-5.58,10.77-8.07,16.12-8.07,6.77,0,11.49,5.36,11.49,13a17.87,17.87,0,0,1-8.76,15.81c-3,1.93-5.36,2.92-10.45,4.47a16.26,16.26,0,0,0-2.78-5.3c6.51-1.55,10.13-3.26,13-6.25a11.8,11.8,0,0,0,3.52-8.56c0-4.75-2.52-7.74-6.57-7.74-3.67,0-8,2.21-12.59,6.47A34.48,34.48,0,0,0,185,29.12c.11,14.36.16,15.41.26,19l-5.93.17c.06-1.22.21-5.81.48-13.71-.48.78-3.21,4.59-5,7-1.21,1.6-1.53,2-2.16,3l-3.77-4.8a114.59,114.59,0,0,0,11.07-14.15c0-.72.05-2.87.05-6.19-3.51,1.22-5.4,1.94-8,3.1l-1.94-5.86A82.66,82.66,0,0,0,180,14.14c0-.33.06-1.6.06-2.32V7.62a38.62,38.62,0,0,0-.32-5.19l5.77.44c.42.06.69.22.69.56s-.16.44-.69.77c-.26,5-.31,6.24-.31,7.18v.83A6.69,6.69,0,0,0,186.48,11l2.26,3.25a1.67,1.67,0,0,1,.42.78c0,.39-.32.61-1.16.77-1.26,1.38-1.89,2.05-2.94,3.32Z"/><path class="cls-1" d="M235,23.65c1.15-1.44,1.42-1.77,5.46-6.63s5.72-6,9.18-6c3.89,0,6.2,2.21,6.2,6,0,1.27-.11,2.82-.27,4.53-.1,1.38-.63,7.52-.78,9.06-.58,5-.79,6.86-.79,8.24s.31,1.76,1.47,1.76,2.57-.66,4.09-2,2.52-2.82,4.1-6.13a28.83,28.83,0,0,0,3.93,4.09c-2.25,4.42-4.4,6.79-7.71,8.56a11.46,11.46,0,0,1-5.46,1.27c-4.25,0-6-1.88-6-6.13,0-2.6,0-3.37,1.47-17.3.16-1.76.42-4.86.42-5.47,0-.88-.42-1.43-1.15-1.43-1.89,0-4.2,2-8.09,7-2.25,2.92-2.88,3.75-6.08,7.73.1,13.37.1,14.42.26,17.9l-5.93.17c.15-2.38.15-2.82.36-12.82-2,2.93-3.46,4.92-4.56,6.35s-1.52,2-2.26,3l-3.36-5.19c2.15-2.27,8.66-9.89,10.34-13,.05-1.54.05-2.81.05-3.59s.06-1.6.06-2.37c-.42.16-.53.16-1.42.49a62.47,62.47,0,0,0-6.3,2.49l-1.89-5.64A69.17,69.17,0,0,0,229.89,16v-5a72.37,72.37,0,0,0-.27-8l5.78.45c.42,0,.68.22.68.55s-.1.33-.68.77l-.26,5.64c-.06,1.54-.06,2.54-.06,3a6.53,6.53,0,0,0,1.32-1.22l2.25,3.21c.32.49.42.55.42.77,0,.39-.31.61-1.2.77-.53.61-.79.94-2,2.21a7.83,7.83,0,0,1-.94,1Z"/><path class="cls-1" d="M297.7,36.58c3.67,1.43,7,3.42,12.75,7.51a24.1,24.1,0,0,0-3.3,4.75c-4.62-3.92-5.57-4.58-9.56-6.74a9.15,9.15,0,0,1-1.68,4.59c-1.62,2-4.77,3.2-8.66,3.2-6.29,0-10.55-3.2-10.55-8,0-4.64,4-7.4,10.61-7.4a28.48,28.48,0,0,1,4.88.38c-.11-1.93-.05-3.26-.21-5.63-.63,0-1.31.05-2.52.05-3.57,0-4.52-.11-6.14-.82a5,5,0,0,1-3-4.81c0-2,.63-3.43,2.46-5.53l4,2.32c-.89.89-1.21,1.38-1.21,2.1,0,1.27,1.21,1.72,4.36,1.72.63,0,1.1,0,1.84-.06-.11-3.65-.11-4.2-.11-7.62-3.78.22-5.56.22-13.49.22h-1.41c-.11,0-.95.05-1.79.05l-.16-5.47c3.21.11,4.57.11,8.87.11,2.47,0,6.15-.05,8-.22,0-5.14-.1-7.4-.57-9.72l6.24.33c.53.05.79.28.79.61s-.16.6-.95,1.1c0,2.1-.05,3.7-.1,7.29a71.58,71.58,0,0,0,11.76-2.32L309.4,14a98.3,98.3,0,0,1-12.33,2.1v.22c0,.94,0,1.94.05,3.65s.05,2.1.05,3.54a27.79,27.79,0,0,0,9.5-3.59l1.68,4.91a34.35,34.35,0,0,1-11,3.82c.05.82.21,3.15.32,6.24Zm-5.56,3.31a19.7,19.7,0,0,0-5.25-.72c-3.15,0-4.78.89-4.78,2.55,0,1.93,1.78,3.09,4.78,3.09,2.67,0,4.3-.94,4.93-2.71a9.54,9.54,0,0,0,.32-2.1Z"/><path class="cls-1" d="M329.5,5c.58.06,1,.33,1,.78s-.21.6-.89,1.1c-.21,4.53-.79,26.69-.79,29.56,0,4.59,1.58,6.24,6,6.24A17.28,17.28,0,0,0,344,39.78c3.84-2.32,6-4.42,9.71-9.61a16.94,16.94,0,0,0,3.42,5.3c-4.05,5-6.41,7.24-10.19,9.51a24.55,24.55,0,0,1-12.8,3.7c-4.15,0-7.41-1.33-9.14-3.76-1.31-1.82-1.94-4.48-1.94-8.29,0-1.49,0-2.76.32-9.83.15-4.86.26-10.34.26-15.86,0-2.49-.06-4.48-.16-6.41Z"/><path class="cls-1" d="M379,13.15c.73.06,1.21.44,1.21.94a1.25,1.25,0,0,1-.74,1.1c-.05,1.88-.05,2.71-.05,3.54s0,1.27.05,3.48a27.78,27.78,0,0,0,10.29-1.71l1.36,4.81c-4.2,1.27-6.35,1.54-11.65,1.71,0,2.26.16,6.52.21,8.56l.05,2.65c6.15,2.05,8.66,3.32,12.86,6.47A21.16,21.16,0,0,0,390,49.34a46.64,46.64,0,0,0-10.39-6c-.53,4.8-3,6.74-8.61,6.74s-9.24-2.6-9.24-6.52,3.94-6.91,9.29-6.91a19.5,19.5,0,0,1,3.73.39v-.89c0-.44-.05-4-.21-10.55-.26-10-.26-11-.47-12.71Zm-8,28.07c-2.73,0-4.41.83-4.41,2.21s1.37,1.93,3.94,1.93c1.68,0,2.94-.38,3.57-1.16a2.73,2.73,0,0,0,.57-1.49,5.27,5.27,0,0,0,.06-.94A12.85,12.85,0,0,0,371,41.22Z"/><path class="cls-1" d="M398.94,19.39c2.15-.66,2.89-.88,4.78-1.54,7.08-2.38,10.18-3.1,13.75-3.1a10.69,10.69,0,0,1,9.71,5.64,14.14,14.14,0,0,1,1.47,6.9,22,22,0,0,1-8.24,17.58,38.58,38.58,0,0,1-11.76,6,18,18,0,0,0-2.83-5.74,34.5,34.5,0,0,0,9.71-4.37A15.5,15.5,0,0,0,422.82,27c0-4.53-2-6.85-5.93-6.85-3,0-7.4,1.49-15.11,5.25Zm23.62-8.51c-8.19-1.6-12.49-3.2-17.48-6.35L408.18,0c5.35,2.82,8.77,4,16.22,5.47Z"/><path class="cls-1" d="M451.17,42.6a8,8,0,1,1-16,0,8,8,0,1,1,16,0Zm-12.23,0a4.23,4.23,0,1,0,4.25-4.42A4.34,4.34,0,0,0,438.94,42.6Z"/></g></g></svg>