<svg xmlns="http://www.w3.org/2000/svg" viewBox="0 0 568.32 31.92"><defs><style>.cls-1{fill:#231815;}</style></defs><g id="レイヤー_2" data-name="レイヤー 2"><g id="scene"><path class="cls-1" d="M17.82,30.38c0-.66-.32-.94-.95-.94H4.94c-.63,0-1,.28-1,.91v.35c0,1.05-.45,1-2,1s-2,0-2-1c0-1.37.11-2.77.11-4.17V6.79C.11,5.67,0,4.51,0,3.39,0,2.06.63,1.64,1.89,1.64c1,0,2,.07,3.08.07H16.84c1,0,2-.07,3-.07,1.33,0,1.89.42,1.89,1.79,0,1.12-.07,2.24-.07,3.36V26.6c0,1.37.07,2.77.07,4.13,0,1.09-.45,1-2,1h-.63c-.84,0-1.33-.07-1.33-.88ZM16.91,9.63a1,1,0,0,0,1-1V6.12a1,1,0,0,0-1-1h-12a.92.92,0,0,0-1,1V8.65c0,.63.35.91,1,1Zm-13,7a.93.93,0,0,0,1,1h12a1,1,0,0,0,1-1V13.9a1,1,0,0,0-1-1h-12a.93.93,0,0,0-1,1Zm0,8.37a.93.93,0,0,0,1,1h12a1,1,0,0,0,1-1V21.81a.93.93,0,0,0-1-.95h-12a.87.87,0,0,0-1,.95Z"/><path class="cls-1" d="M42.37,3.29c.28.07.91.17.91.56,0,.21-.14.32-.31.45-.67.49-.74,1.06-.91,2.32-.07.38-.14.87-.25,1.43a2,2,0,0,0-.07.42.68.68,0,0,0,.77.7h.42a7,7,0,0,1,4,.77c1.75,1.16,2.17,3.15,2.17,5.11,0,3.19-.56,7.91-2.1,10.71a7.15,7.15,0,0,1-6.62,3.78c-.77,0-1.26-.07-1.61-.8a7.19,7.19,0,0,1-.63-2.52c0-.32.11-.6.49-.6s.88.14,1.58.14c1.92,0,2.8-.42,3.67-2.17a20.71,20.71,0,0,0,1.58-7.91c0-1.71-.11-3.18-2.24-3.18-2,0-2.35.28-2.59,1.26a39.66,39.66,0,0,1-4.48,10.46,31.48,31.48,0,0,1-3.47,5,.8.8,0,0,1-.59.35c-.63,0-2.87-1.33-2.87-2.13a1.31,1.31,0,0,1,.49-.81,27.85,27.85,0,0,0,6.26-9.73,12.72,12.72,0,0,0,.88-2.66.44.44,0,0,0-.46-.45,29.76,29.76,0,0,0-4,1.22,2.58,2.58,0,0,1-.74.25c-.84,0-1.43-3.43-1.43-3.64,0-.53.59-.53,1-.56,2-.21,3.92-.7,5.85-1,.7-.14,1-.35,1.12-1.09a32.28,32.28,0,0,0,.38-4.51c0-.56-.07-1.3-.07-1.37,0-.28.11-.53.42-.53S41.85,3.15,42.37,3.29ZM56.93,14.88c0,.8-2.2,2.1-2.9,2.1-.46,0-.67-.46-.81-.81a25.67,25.67,0,0,0-4.69-7.49,1.06,1.06,0,0,1-.31-.6c0-.62,1.92-1.78,2.48-1.78C52,6.3,56.93,14,56.93,14.88Zm-.52-9c0,.56-1.23,1.61-1.68,1.61-.18,0-.35-.25-.49-.39a30.16,30.16,0,0,0-2.49-2.69c-.14-.15-.31-.32-.31-.49,0-.42,1.26-1.48,1.68-1.48A14,14,0,0,1,56.41,5.92Zm3.32-2.49C59.73,4,58.47,5,58.05,5c-.21,0-.31-.17-.49-.38-.8-1-1.61-1.83-2.48-2.7-.14-.11-.35-.32-.35-.49,0-.42,1.33-1.47,1.68-1.47A14.06,14.06,0,0,1,59.73,3.43Z"/><path class="cls-1" d="M71.75,18c0,1.05-3.75,8.89-4.48,10.29a1.28,1.28,0,0,0-.21.63c0,.14.1.42.1.7a.5.5,0,0,1-.49.52,7.2,7.2,0,0,1-1.75-1c-.38-.28-1.54-.87-1.54-1.29A3.15,3.15,0,0,1,63.8,27a46.29,46.29,0,0,0,4.76-10.33c.11-.31.21-.56.56-.56C69.68,16.1,71.75,17,71.75,18Zm-2-9.35c-.31,0-.73-.42-1-.63-1.29-1.08-2.69-2.06-4.09-3-.32-.22-.67-.43-.67-.77,0-.63,1.44-2.46,2-2.46a16.36,16.36,0,0,1,3,2c.66.5,1.89,1.37,2.45,1.86a1,1,0,0,1,.42.7C71.89,6.79,70.38,8.61,69.75,8.61Zm5.57,2.56V6c0-.66-.25-1-.91-1h-.6c-.91,0-.87-.49-.87-1.75s0-1.75.87-1.75c1.26,0,2.52.11,3.78.11H87.92c1.26,0,2.48-.11,3.75-.11.91,0,.91.46.91,1.75S92.58,5,91.7,5s-1.54,0-2.28-.06-.91.31-.91.94v5.29c0,.7.28,1,1,1,1.3,0,2.59-.07,3.93-.07.91,0,.91.42.91,1.75s0,1.71-.91,1.71c-1.34,0-2.63-.1-4-.07-.67,0-.95.28-.95,1v8.44c0,.91.07,1.82.07,2.69,0,3.85-3.78,4-6.65,4-.52,0-1.15,0-1.43-.53a5.56,5.56,0,0,1-.42-2.17c0-.56.07-1.05.77-1.05l.59,0c.35,0,.67,0,1,0,2.45,0,2.45-.56,2.45-2.62V18.8a.29.29,0,0,0-.28-.32.35.35,0,0,0-.25.14A47,47,0,0,1,73.57,30.17c-.42.21-1,.81-1.44.81-.77,0-2.34-1.79-2.34-2.42,0-.35,1-1,1.36-1.22A43.58,43.58,0,0,0,82,16.24a.46.46,0,0,0,.1-.31c0-.35-.28-.46-.59-.46h-5c-1.3,0-2.59.07-3.89.07-.94,0-.91-.45-.91-1.71s0-1.75.91-1.75c.6,0,1.19,0,1.75,0S75.32,11.87,75.32,11.17Zm3.39,0a1,1,0,0,0,1,1h4.24a1,1,0,0,0,1-1V5.88a1,1,0,0,0-1-.94H79.69a.93.93,0,0,0-1,.94Z"/><path class="cls-1" d="M116,23.17c-.06.56-.24,1.75-.24,2.28a1,1,0,0,0,1.15,1.15c1.69,0,3.79-1.22,5.19-2.1a2.72,2.72,0,0,1,1-.45c.49,0,.45,1.82.45,2.2,0,.63,0,1.75-.59,2.1a17.41,17.41,0,0,1-6.48,1.79,4,4,0,0,1-4.31-4,18.08,18.08,0,0,1,.32-2.76,16.52,16.52,0,0,0,.21-2.21c0-.8-.32-1.26-1.16-1.26a5.64,5.64,0,0,0-3.11,1.47c-1.75,1.51-5.11,5.95-6.65,8-.21.24-.63.91-1,.91-.74,0-2.8-1.75-2.8-2.56,0-.42.56-.91.84-1.19,4-3.95,7.59-8.26,11.34-12.42.31-.35,1.26-1.3,1.26-1.65a.29.29,0,0,0-.32-.28c-.28,0-1.75.46-2.13.56-.81.21-4.9,1.3-5.5,1.3s-.63-.28-.94-.81a2.32,2.32,0,0,0-.25-.42,5.28,5.28,0,0,1-.8-2c0-.45.35-.52.73-.56A73.67,73.67,0,0,0,114.82,7.7a3.27,3.27,0,0,1,1-.24c.84,0,2.45,2.45,2.45,3s-.46.67-.77.88A45.12,45.12,0,0,0,112.61,16c-.17.18-.45.46-.45.7a.35.35,0,0,0,.35.35c.24,0,.45,0,.7,0,1,0,3,.59,3,3.5A15.54,15.54,0,0,1,116,23.17ZM113,3.39c.34.11.66.25.66.67,0,.18-.49,3-1.3,3-.24,0-2.2-.71-3.71-1.23-.66-.24-1.26-.45-1.5-.52-1.23-.39-2-.53-2-1.09a9.17,9.17,0,0,1,.53-1.78c.35-.95.49-1.09.87-1.09S112.26,3.15,113,3.39Z"/><path class="cls-1" d="M141.14,3.39a.65.65,0,0,1-.32.53,2.25,2.25,0,0,0-.73,1.44c-.07.21-.11.42-.21.7a3.94,3.94,0,0,0-.21.87.54.54,0,0,0,.59.53A37.93,37.93,0,0,0,147,5.92a2.73,2.73,0,0,1,.94-.25c.46,0,.53.49.67,1a11.24,11.24,0,0,1,.31,2.17c0,.56-.38.67-1.26.84-1.89.35-6,1-8,1.19-1.15.14-1.19.39-1.61,2-.1.49-.28,1.12-.49,1.89a2,2,0,0,0-.1.63c0,.21.1.32.35.32a.7.7,0,0,0,.38-.14,11.29,11.29,0,0,1,6.13-1.89c4.3,0,7.1,2.94,7.1,7.24s-3,7.11-7.07,8.19a31.94,31.94,0,0,1-7.31,1c-1.16,0-1.33-.17-1.54-.91a10.39,10.39,0,0,1-.46-2.31.7.7,0,0,1,.74-.73c.45,0,1.5.24,2.83.24,3.64,0,9.21-1.05,9.21-5.67a3.42,3.42,0,0,0-3.47-3.64,11.54,11.54,0,0,0-8.47,4.38c-.24.31-.56.77-1,.77-.8,0-2.8-1-2.8-2a5,5,0,0,1,.49-1.54,35.65,35.65,0,0,0,1.93-5.81,4.56,4.56,0,0,0,.17-.88.5.5,0,0,0-.56-.52l-.73,0c-.81,0-3.54.35-4.24.35a.82.82,0,0,1-.91-.7,10.34,10.34,0,0,1-.39-2.31c0-.91.56-.87.74-.87.49,0,2.56.14,4,.14,2.49,0,2.88-.11,3.19-.84a33,33,0,0,0,.74-4.45c.07-.49,0-1.26.59-1.26C137.46,1.61,141.14,2.62,141.14,3.39Z"/><path class="cls-1" d="M168.05,11.8c-.38-.11-.84-.21-.84-.67s.63-2.34,1.4-2.34A22.29,22.29,0,0,1,172,9.94c.49.21,1.37.49,1.37,1.05a2.36,2.36,0,0,1-.21.84.44.44,0,0,0-.07.21c0,.35.24.42.52.39a10.21,10.21,0,0,1,2.35-.28c3,0,5.32,1.68,5.32,4.86,0,2.87-1.89,4.52-4.34,5.57a12.36,12.36,0,0,1-3.19.91c-.87,0-1.57-1.93-1.57-2.35,0-.66.7-.66,1.4-.8,1.64-.28,4.48-1.19,4.48-3.26a2,2,0,0,0-2.28-2c-2,0-5.07,1.57-6.75,2.66-.32.21-.53.38-.53.8,0,.77,3.92,7.11,4.59,8.16a3,3,0,0,1,.59,1.22c0,.67-2,1.61-2.52,1.61-.38,0-.56-.28-.73-.56-.32-.59-.6-1.19-.88-1.75-1.05-2-2.13-3.92-3.15-5.91-.24-.49-.45-.95-.94-.95s-2.25,1.51-2.7,1.89c-.18.11-.38.32-.59.32-.67,0-1.9-1.89-1.9-2.52,0-.39.39-.56.67-.7s2.27-1.44,2.52-1.65a1,1,0,0,0,.46-.8,10.92,10.92,0,0,0-1.75-3.22,1.37,1.37,0,0,1-.42-.77c0-.35.45-.53,1.54-.91l1.08-.42a2.83,2.83,0,0,1,.77-.21.5.5,0,0,1,.49.38,1,1,0,0,1-.07.32.75.75,0,0,0,0,.24,13.81,13.81,0,0,0,.91,2.35.87.87,0,0,0,.73.56,2,2,0,0,0,.88-.35c.7-.39,2-1.09,2.73-1.44a.42.42,0,0,0,.24-.38.41.41,0,0,0-.28-.35A25.69,25.69,0,0,0,168.05,11.8Z"/><path class="cls-1" d="M209.46,17.26c0,5.49-4.06,9.83-8.5,12.53a10.41,10.41,0,0,1-3,1.29c-1,0-2.49-2.38-2.49-2.94,0-.35.39-.49.7-.59,4.2-1.33,9.38-5.15,9.38-10a4.51,4.51,0,0,0-4.86-4.83c-2.94,0-5.32,1.47-7.49,3.29a1.58,1.58,0,0,1-.74.35c-.84,0-2-2.52-2-3.33,0-.56.63-.87,1-1.08a20.11,20.11,0,0,1,9.35-2.84C205.86,9.1,209.46,12.11,209.46,17.26ZM194.94,2.38c.14-.32.28-.67.7-.67a1.34,1.34,0,0,1,.56.21c2.2,1,6.33,1.51,8.75,1.75.49,0,.87,0,.87.57a14.33,14.33,0,0,1-.35,2.13c-.17.7-.38,1-.94,1a71.73,71.73,0,0,1-8.05-1.58c-1.47-.38-2.24-.55-2.24-1.12A8.06,8.06,0,0,1,194.94,2.38Z"/><path class="cls-1" d="M224.3,25.69a4.87,4.87,0,1,1-4.86-4.86A4.88,4.88,0,0,1,224.3,25.69Zm-8,0a3.12,3.12,0,1,0,6.23,0,3.07,3.07,0,0,0-3.11-3.11A3.12,3.12,0,0,0,216.32,25.69Z"/><path class="cls-1" d="M238.06,25.73a.41.41,0,0,1-.42.45c-.32,0-.88-.94-1.37-1.78a4.33,4.33,0,0,1-.66-1.33c0-.25.21-.35.7-.63a44.51,44.51,0,0,0,5.07-3.36,1.54,1.54,0,0,0,.67-1.47V11c0-1.58-.11-3.12-.11-3.57s.42-.56.88-.56,1.92.1,2.59.14c.31,0,1,.07,1,.49,0,.21-.28.31-.49.45-.45.28-.42.91-.42,3V26.67c0,1.33.07,2.66.07,4,0,.91-.38,1.09-1.78,1.09-1.58,0-1.82-.28-1.82-1.09,0-1.33.07-2.66.07-4V23.35c0-.28-.11-.53-.42-.53a.52.52,0,0,0-.32.11c-.94.73-1.92,1.47-2.94,2.13C238.13,25.24,238.13,25.34,238.06,25.73Zm1.08-9.17c-.49,0-.56-.39-.73-.77a22.82,22.82,0,0,0-1.93-3.33,1.41,1.41,0,0,1-.35-.77c0-.66,1.72-1.29,2.14-1.29.63,0,1,.66,2,2.48a8,8,0,0,1,1,2.28C241.35,16,239.67,16.56,239.14,16.56ZM248.66,3c.63,0,1-.28,1-.94a5.68,5.68,0,0,0-.11-1c0-.07,0-.17,0-.25,0-.42.35-.45.66-.45.67,0,2.31.14,3,.21.28,0,1,0,1,.42,0,.21-.21.31-.42.45a.83.83,0,0,0-.38.67v.17c0,.56.49.77.94.77h6c1.29,0,2.59-.07,3.85-.07.84,0,2,.18,2,1.3,0,.24,0,.94,0,1.61v1.4a7.49,7.49,0,0,0,0,.84,1.53,1.53,0,0,1,0,.42c0,.77-.67.7-1.93.7h-.56c-.59,0-.91.21-.91.84v3.08c0,.63,0,1.19,0,1.79,0,1-.63,1.19-1.51,1.19s-1.5,0-2.27,0h-6.06c-1,0-2,.07-2.94.07-.7,0-.7-.28-.7-1.12s0-1.12.7-1.12c1,0,2,.07,2.94.07h6c.39,0,.53-.17.56-.56V13.3c0-.38-.17-.52-.56-.56h-5.46c-1,0-2,.07-2.94.07-.59,0-.59-.28-.59-1.05s0-1,.59-1c1,0,2,.07,2.94.07H259c.39,0,.53-.18.56-.56v-.18c0-.38-.17-.52-.56-.56h-6c-1,0-2,.07-2.94.07-.7,0-.7-.28-.7-1.12s0-1.12.67-1.12c1,0,2,.07,3,.07H259l2.2,0a4,4,0,0,1,.6,0H262c.45,0,.56-.28.59-.67,0-.59-.28-.83-.84-.83H241.31c-.7,0-1,.28-1,1v.31c0,.18,0,.63.07.84s0,.32,0,.42c0,.74-.7.67-1.82.67s-1.82.07-1.82-.7c0-.28.07-.84.07-1.23V5.88c0-.7-.07-1.3-.07-1.61,0-1.12,1.19-1.3,2-1.3,1.26,0,2.55.07,3.81.07Zm10.92,23.77a.58.58,0,0,0,.35.49,27.66,27.66,0,0,0,6.23,1.58c.46.07.91.1.91.66a4.39,4.39,0,0,1-.45,1.44c-.28.59-.46.94-1,.94a19.74,19.74,0,0,1-2.7-.45,21.5,21.5,0,0,1-5.84-2.28,2.46,2.46,0,0,0-.84-.24,2,2,0,0,0-.77.21,29,29,0,0,1-5.85,2.24,9.26,9.26,0,0,1-1.57.31c-1.09,0-1.61-1.85-1.61-2.41s.52-.6,1.19-.7a21.58,21.58,0,0,0,5.07-1.51.51.51,0,0,0,.39-.52.81.81,0,0,0-.21-.49,11.37,11.37,0,0,1-2-2.38.54.54,0,0,0-.53-.46h-.56c-.56,0-.59-.28-.59-.73a.47.47,0,0,0-.53-.46h-.63c-.94,0-1.57,0-1.57-.59,0-.32.07-.84.07-1.16v-.63c0-.45-.07-.87-.07-1.22,0-.95.87-1.16,1.64-1.16,1,0,2,0,3,0h10.39c.95,0,1.89,0,2.87,0,.77,0,1.68.18,1.68,1.16,0,.28,0,.7,0,1.22v.7c0,.35,0,.95,0,1.09,0,.66-.45.66-1.54.66s-1.57,0-1.57-.63a9.38,9.38,0,0,1,.07-1c0-.66-.35-.91-1-.91H250.2c-.38,0-.52.18-.52.56v.11a.48.48,0,0,0,.49.56c.77,0,1.57,0,2.34,0h5.39c.74,0,1.47,0,2.21,0a1.74,1.74,0,0,1,1.57.8,2.8,2.8,0,0,1,.77,1.54c0,1-1.85,2.56-2.62,3.19A.59.59,0,0,0,259.58,26.81Zm-3.43-1.75a1,1,0,0,0,.63-.21c.28-.21,1.61-1.19,1.61-1.47s-.38-.21-.87-.21h-2.63c-.21,0-.45.11-.45.39a.35.35,0,0,0,.14.31,7.38,7.38,0,0,0,.94.91A1.07,1.07,0,0,0,256.15,25.06Z"/><path class="cls-1" d="M291.75,6.2c0,.24-.38.45-.77.73a34.14,34.14,0,0,0-5.07,4.69,1.06,1.06,0,0,0-.35.6c0,.28.28.45.59.45a1.83,1.83,0,0,0,.46-.07,6.93,6.93,0,0,1,1.43-.14,10.29,10.29,0,0,1,4.31,1,7.24,7.24,0,0,1,4.17,6.79c0,6.2-5.5,9.42-11.14,9.42-2.9,0-7-1.19-7-4.76a4.39,4.39,0,0,1,4.48-4.24,5.69,5.69,0,0,1,4.65,2.49,3.44,3.44,0,0,1,.63,2.24c0,.24.14.45.42.45a5.69,5.69,0,0,0,4.24-5.39c0-3.39-2.87-4.79-5.92-4.79A10.61,10.61,0,0,0,279,19.15c-1.36,1.33-2.62,2.76-3.88,4.2a.48.48,0,0,1-.39.24c-.73,0-2.52-2-2.52-2.52s.53-.8.84-1.05A137.75,137.75,0,0,0,284,9c.28-.28.91-.91.91-1.26s-.32-.42-.6-.42-.63.11-.84.14c-.84.21-5.77,1.23-6.33,1.23-.77,0-.88-2.63-.88-3.22,0-.81,0-.88,1.09-.88h.84A32.59,32.59,0,0,0,287,3.33a4.56,4.56,0,0,1,1.33-.39C289.72,2.94,291.75,5.6,291.75,6.2ZM282.9,23.56a1.45,1.45,0,0,0-1.51,1.4c0,1.26,1.68,1.85,2.73,1.85.67,0,.95-.63.95-1.19A2.14,2.14,0,0,0,282.9,23.56Z"/><path class="cls-1" d="M327.43,7.77A11.87,11.87,0,0,1,331,16.38a12.58,12.58,0,0,1-6.82,11.31,13.7,13.7,0,0,1-3.82,1.4c-.91,0-2.34-2.17-2.34-2.94,0-.35.52-.42.87-.49,4.59-1.09,8.19-4.1,8.19-9.1a8.49,8.49,0,0,0-5.6-8.37,5.7,5.7,0,0,0-1.33-.31c-.8,0-.8.77-.84,1.36-.38,5.11-1.61,11.34-5,15.37a6.25,6.25,0,0,1-4.62,2.69A5.66,5.66,0,0,1,304.92,24a11,11,0,0,1-1.09-5A14.43,14.43,0,0,1,318.36,4.3,12.47,12.47,0,0,1,327.43,7.77Zm-13.62,1a10.82,10.82,0,0,0-6.3,10.08c0,1.29.46,4.55,2.24,4.55s3.71-4,4.69-7.56A35.26,35.26,0,0,0,315.56,9c0-.35-.17-.63-.56-.63A4,4,0,0,0,313.81,8.79Z"/><path class="cls-1" d="M349.49,3.29c.28.07.91.17.91.56,0,.21-.14.32-.32.45-.66.49-.73,1.06-.91,2.32-.07.38-.14.87-.24,1.43a1.54,1.54,0,0,0-.07.42.68.68,0,0,0,.77.7h.42a7,7,0,0,1,3.95.77c1.75,1.16,2.17,3.15,2.17,5.11,0,3.19-.56,7.91-2.1,10.71a7.14,7.14,0,0,1-6.61,3.78c-.77,0-1.26-.07-1.61-.8a7,7,0,0,1-.63-2.52c0-.32.1-.6.49-.6s.87.14,1.57.14c1.93,0,2.8-.42,3.68-2.17a20.9,20.9,0,0,0,1.57-7.91c0-1.71-.1-3.18-2.24-3.18-2,0-2.34.28-2.59,1.26a39.34,39.34,0,0,1-4.48,10.46,31.43,31.43,0,0,1-3.46,5,.8.8,0,0,1-.6.35c-.63,0-2.87-1.33-2.87-2.13a1.31,1.31,0,0,1,.49-.81,27.73,27.73,0,0,0,6.27-9.73,13.26,13.26,0,0,0,.87-2.66.43.43,0,0,0-.45-.45,29.45,29.45,0,0,0-4,1.22,2.63,2.63,0,0,1-.73.25c-.84,0-1.44-3.43-1.44-3.64,0-.53.6-.53,1-.56,2-.21,3.92-.7,5.84-1,.7-.14,1-.35,1.12-1.09a32.29,32.29,0,0,0,.39-4.51c0-.56-.07-1.3-.07-1.37,0-.28.1-.53.42-.53S349,3.15,349.49,3.29Zm14.56,11.59c0,.8-2.21,2.1-2.91,2.1-.45,0-.66-.46-.8-.81a25.88,25.88,0,0,0-4.69-7.49,1.08,1.08,0,0,1-.32-.6c0-.62,1.93-1.78,2.49-1.78C359.15,6.3,364.05,14,364.05,14.88Zm-.53-9c0,.56-1.22,1.61-1.68,1.61-.17,0-.35-.25-.49-.39a31.6,31.6,0,0,0-2.48-2.69c-.14-.15-.32-.32-.32-.49,0-.42,1.26-1.48,1.68-1.48A14,14,0,0,1,363.52,5.92Zm3.33-2.49c0,.56-1.26,1.61-1.68,1.61-.21,0-.32-.17-.49-.38-.81-1-1.61-1.83-2.49-2.7-.14-.11-.35-.32-.35-.49,0-.42,1.33-1.47,1.68-1.47A13.92,13.92,0,0,1,366.85,3.43Z"/><path class="cls-1" d="M384.48,2.62c0,.18-.14.29-.32.39-.49.24-.73.28-1.22,1.54-.32.84-.6,1.72-.88,2.56a1.19,1.19,0,0,0-.1.49c0,.59.45.73.94.8,1.19.14,2.38.25,3.57.28.67,0,1.19,0,1.19.67a10.56,10.56,0,0,1-.38,2.27c-.14.49-.28.77-.77.77a45,45,0,0,1-4.76-.52.92.92,0,0,0-.32-.07c-.56,0-.8.38-.94.84s-.6,2.62-.6,2.9c0,.74.74.77,1.23.81,1.05.1,2.1.14,3.15.14s1.05.24,1.05.59a7.66,7.66,0,0,1-.46,2.35c-.17.52-.38.8-1,.8-.8,0-2.45-.24-3.29-.35a4.07,4.07,0,0,0-.56-.07c-.94,0-.94.88-.94,2.38,0,3,1.61,4.66,4.65,4.66,1.58,0,4-.42,5.08-1.65a3.51,3.51,0,0,0,.77-2.48,15.25,15.25,0,0,0-1.19-5.08,1.82,1.82,0,0,1-.14-.63c0-.84,2.59-1.29,3-1.29.56,0,.67.56.95,1.33a19.29,19.29,0,0,1,1.15,6.12c0,5.43-5,7.32-9.66,7.32-5.28,0-8.4-3-8.4-8.37,0-.87.14-2.2.14-2.55,0-.77-.59-1-1.4-1.23A11.42,11.42,0,0,1,372,17.5c-.39-.21-.67-.38-.67-.84,0-.21.35-3,1.23-3a1.91,1.91,0,0,1,.87.35,6.52,6.52,0,0,0,2.24,1c.6,0,.7-.49.91-1.51.07-.38.21-.84.32-1.36,0-.25.14-.56.14-.77,0-.77-.63-1-1.12-1.16-2.45-.94-3.15-1.26-3.15-1.89s.56-3,1.29-3a1.9,1.9,0,0,1,.81.39,22.25,22.25,0,0,0,2.38,1.22,1.06,1.06,0,0,0,.45.11c.56,0,.7-.46.81-.84.31-1.2,1.08-3.68,1.36-4.7.11-.38.18-.7.53-.7a13.45,13.45,0,0,1,1.75.56C382.69,1.58,384.48,2.06,384.48,2.62Z"/><path class="cls-1" d="M401.94,14.7a26.31,26.31,0,0,0,3.22-1c3.12-1.12,6.79-2.52,10.08-2.52,4.1,0,7.28,2.63,7.28,6.86s-3.18,7-6.86,8.58A20,20,0,0,1,410.27,28c-1.15,0-1.64-2.38-1.64-2.66,0-.6.66-.67,1.12-.7a15.81,15.81,0,0,0,6-1.75c1.86-1.05,3.43-2.77,3.43-5s-1.78-3.53-3.92-3.53c-3.39,0-7.94,1.92-10.92,3.53a1.79,1.79,0,0,1-1,.35c-.91,0-2.17-2.1-2.17-2.83C401.17,15,401.56,14.81,401.94,14.7Z"/><path class="cls-1" d="M442.59,1.43c.32.11,1.3.36,1.3.74,0,.17-.21.28-.32.35-.52.31-.56.45-.8,1.23-.11.38-.84,2.94-.84,3.11a.51.51,0,0,0,.52.53,24.72,24.72,0,0,0,4.06-1.3,2,2,0,0,1,.74-.17c.7,0,.7,2.13.7,2.66s-.07,1.08-.67,1.26a52.1,52.1,0,0,1-5.74,1.36c-1,.21-1.12.39-1.43,1.37A109.28,109.28,0,0,1,433.59,28c-.45.84-.73,1.33-1.26,1.33s-3-1.12-3-1.89a2.59,2.59,0,0,1,.59-1.15c2.21-3.15,4.83-9.24,6.2-12.95a5.48,5.48,0,0,0,.28-.91c0-.35-.28-.53-.63-.53s-2,.18-3.12.18c-.7,0-1.26,0-1.47-.63a15.08,15.08,0,0,1-.28-2.56c0-.38.11-.63.53-.63s1.78.14,3.29.14c2.24,0,2.76,0,3.08-.56a31.79,31.79,0,0,0,1.29-6.37c0-.53,0-.88.39-.88S442.14,1.29,442.59,1.43ZM442.1,24c1.54,1.72,4.2,2,6.34,2a15.69,15.69,0,0,0,5-.7,1.36,1.36,0,0,1,.35-.07c.59,0,.59.81.59,2.21,0,.7,0,1.5-.38,1.75a33.51,33.51,0,0,1-5.46.45c-2.31,0-5.53-.28-7.49-1.57-.56-.39-1.72-1.26-1.72-2,0-.52,1.61-2.59,2.17-2.59C441.72,23.52,442,23.84,442.1,24Zm4.27-11.3a24.94,24.94,0,0,1,7,1,.66.66,0,0,1,.49.7,8.68,8.68,0,0,1-.67,2.45.6.6,0,0,1-.63.45,1.94,1.94,0,0,1-.73-.17,15.63,15.63,0,0,0-5.57-.88c-.45,0-.87,0-1.33,0-.7,0-.87-.18-.87-.77C444.1,12.5,444.73,12.71,446.37,12.71Z"/><path class="cls-1" d="M466.11,7.46c.28.07.77.14.77.49s-.14.28-.35.45a2.55,2.55,0,0,0-.63,1.68,25.42,25.42,0,0,0-.28,3.71,20,20,0,0,0,1.12,7.32c.42,1,1.58,3,2.8,3,1,0,2-1.54,2.42-2.31.21-.35.49-.87.94-.87.74,0,2.52,1.43,2.52,2.06s-1.57,2.49-2.06,3c-1,1.15-2.1,2.2-3.75,2.2-2.59,0-4.62-2.34-5.78-4.48-1.75-3.29-2-7.7-2-11.41,0-.56.11-5,.18-5.32s.24-.38.49-.38C462.92,6.69,465.51,7.35,466.11,7.46Zm14.25-.71c.77,0,3.71,2.21,5.39,5.43a19.11,19.11,0,0,1,2.06,7.28c0,.67-.35.84-.94,1a7.64,7.64,0,0,1-2,.31c-1.12,0-1.09-.49-1.16-1.33-.42-4.09-1.85-7.42-5.18-10a.57.57,0,0,1-.31-.53C478.26,8.3,479.66,6.75,480.36,6.75Z"/><path class="cls-1" d="M505.91,2c.18.07.56.17.56.42s-.24.38-.56.63a6.18,6.18,0,0,0-.63,1.86,12.16,12.16,0,0,0-.38,1.57.41.41,0,0,0,.38.46,16.14,16.14,0,0,0,2-.53,1,1,0,0,1,.35-.07c.42,0,.45.63.52,1a16.72,16.72,0,0,1,.18,1.86c0,.77-.42.84-3.64,1.43-1.26.21-1.23.46-1.65,1.61a88.77,88.77,0,0,1-5.7,12.46c-.21.35-.32.49-.7.49-.77,0-3.12-1-3.12-1.75a4,4,0,0,1,.63-1.26,64.3,64.3,0,0,0,4.17-8.08,14.39,14.39,0,0,0,.8-2.14.46.46,0,0,0-.49-.45c-.28,0-3,.35-3.78.35-.59,0-.73-.32-.87-1.12-.07-.42-.25-1.68-.25-2s.25-.56.63-.56H496A31.17,31.17,0,0,0,499.58,8c.45-.07.77-.1,1.05-.56a21.59,21.59,0,0,0,1.12-5.88c0-.25,0-.6.31-.6S505.35,1.79,505.91,2Zm5,10.43c.39.11.7.32.7.74,0,.07-.07,1.12-.07,1.85,0,1,.18,6.06.35,6.79.11.53.56.67,1.09.88.1,0,.24.1.35.14.8.31,4.93,2.24,4.93,3.08,0,.56-1.29,2.55-2.17,2.55-.35,0-.66-.31-.91-.49a10,10,0,0,0-2.8-1.61c-.38,0-.52.49-.56.81-.42,2.55-2.48,3.43-4.86,3.43-2.84,0-6.16-1.51-6.16-4.76s3-4.34,5.81-4.34h.91c.42,0,.73-.18.73-.6,0-1.12-.52-6.19-.63-7.56,0-.17,0-.31,0-.49,0-.56.31-.77.84-.77A14.67,14.67,0,0,1,511,12.39Zm-6.54,13.34c0,1.08,1.4,1.64,2.31,1.64,1.26,0,1.82-.66,1.82-1.89,0-.7,0-1.08-1.79-1.08C505.91,24.4,504.41,24.61,504.41,25.73ZM519.7,12.36c0,.84-2,2.41-2.62,2.41-.35,0-.6-.38-.77-.63a19.94,19.94,0,0,0-4.38-4.51c-.14-.11-.45-.32-.45-.56,0-.49,1.61-2.42,2.34-2.42S519.7,11.45,519.7,12.36Z"/><path class="cls-1" d="M531,7.46c.27.07.77.14.77.49s-.14.28-.35.45a2.55,2.55,0,0,0-.63,1.68,25.42,25.42,0,0,0-.28,3.71,20,20,0,0,0,1.12,7.32c.42,1,1.57,3,2.8,3,1,0,2-1.54,2.41-2.31.21-.35.49-.87.95-.87.73,0,2.52,1.43,2.52,2.06s-1.58,2.49-2.07,3c-1,1.15-2.1,2.2-3.74,2.2-2.59,0-4.62-2.34-5.78-4.48-1.75-3.29-2-7.7-2-11.41,0-.56.1-5,.17-5.32a.44.44,0,0,1,.49-.38C527.79,6.69,530.38,7.35,531,7.46Zm14.24-.71c.77,0,3.71,2.21,5.39,5.43a19.13,19.13,0,0,1,2.07,7.28c0,.67-.35.84-.95,1a7.57,7.57,0,0,1-2,.31c-1.12,0-1.08-.49-1.15-1.33-.42-4.09-1.86-7.42-5.18-10a.58.58,0,0,1-.32-.53C543.12,8.3,544.52,6.75,545.22,6.75Z"/><path class="cls-1" d="M568.32,25.69a4.87,4.87,0,1,1-4.86-4.86A4.88,4.88,0,0,1,568.32,25.69Zm-8,0a3.12,3.12,0,1,0,6.23,0,3.07,3.07,0,0,0-3.11-3.11A3.12,3.12,0,0,0,560.34,25.69Z"/></g></g></svg>