<svg xmlns="http://www.w3.org/2000/svg" viewBox="0 0 243.11 55.39"><defs><style>.cls-1,.cls-2{fill:none;stroke:#000;stroke-miterlimit:10;}.cls-1{stroke-width:4.25px;}.cls-2{stroke-width:2.83px;}</style></defs><g id="レイヤー_2" data-name="レイヤー 2"><g id="scene"><circle class="cls-1" cx="89.93" cy="22.88" r="20.75"/><path d="M128.79,27.16V41.71h-5.4V5.9h6.12a27.59,27.59,0,0,1,6.8.62,9.14,9.14,0,0,1,4.08,2.37,10.17,10.17,0,0,1,3.09,7.6,9.82,9.82,0,0,1-3.3,7.8q-3.28,2.87-8.88,2.87Zm0-5h2q7.45,0,7.45-5.73,0-5.54-7.68-5.54h-1.79Z"/><path d="M155,5.9V36.63h10.53v5.08H149.59V5.9Z"/><path d="M194.64,33H179.31l-4,8.7H169.5L187.22,3.65l17.09,38.06H198.4Zm-2.2-5.08-5.32-12.18-5.56,12.18Z"/><path d="M213.31,26.24,201.62,5.9h6.21L216,20.21,224.23,5.9h6.22L218.71,26.24V41.71h-5.4Z"/><path d="M235.54,39.11a3.23,3.23,0,0,1,6.45,0,3.16,3.16,0,0,1-1,2.3,3.27,3.27,0,0,1-4.57,0A3.14,3.14,0,0,1,235.54,39.11Zm.6-5.38V5.9h5.24V33.73Z"/><polygon points="81.98 35.82 81.98 9.93 103.33 22.88 81.98 35.82"/><polyline class="cls-2" points="243.1 53.98 3.13 53.98 30.41 22.88"/></g></g></svg>