<svg xmlns="http://www.w3.org/2000/svg" viewBox="0 0 345.99 51.94"><defs><style>.cls-1{fill:#e51373;}</style></defs><g id="レイヤー_2" data-name="レイヤー 2"><g id="scene"><path class="cls-1" d="M28.08,9.78A67.16,67.16,0,0,1,19.37,13a62.43,62.43,0,0,0,2.47,6.13,45.46,45.46,0,0,0,8.92-4.53l2.41,4.75a53.41,53.41,0,0,1-9.23,4.42,68.32,68.32,0,0,0,7.55,11.94l-3.88,3.48c-4.15-3.1-7.19-4.2-11.39-4.2-4.57,0-7.14,1.82-7.14,5.14s3.1,4.75,9.92,4.75a44.89,44.89,0,0,0,6.67-.5,16.49,16.49,0,0,0-1.16,6.14c-2,0-2.94,0-4.51,0-5.36,0-8.24-.44-10.92-1.6a9.35,9.35,0,0,1-5.51-8.62c0-6,4.93-10,12.49-10a19.74,19.74,0,0,1,6.35,1.05c-1-1.6-2.88-5.19-3.3-6a34,34,0,0,1-8.72,1.66c-3.83,0-5.77-1.6-5.77-4.92a9.72,9.72,0,0,1,.89-3.87l4.62,1a3.46,3.46,0,0,0-.47,1.6c0,.66.26.94,1.05.94a25.81,25.81,0,0,0,6.19-1.16c-.47-1-1.84-4.42-2.52-6.24A127.43,127.43,0,0,1,1,16.85L0,11.44A103.65,103.65,0,0,0,12.86,9.56c-.11-.28-.63-2.16-.94-3.26C11,3.21,10.55,1.6,10.5,1.44l6-.44h.11a.66.66,0,0,1,.68.66c0,.38-.05.55-.79,1.1.37,1.83.84,3.59,1.37,5.42a51.19,51.19,0,0,0,8-3.32Z"/><path class="cls-1" d="M55.32,13.43c.74.05,1.21.44,1.21.94a1.25,1.25,0,0,1-.74,1.1c0,1.88,0,2.71,0,3.54s0,1.27,0,3.48a27.71,27.71,0,0,0,10.29-1.71l1.37,4.8a36.87,36.87,0,0,1-11.66,1.71c.06,2.27.16,6.52.21,8.57l.06,2.65c6.14,2.05,8.66,3.32,12.86,6.47a20.75,20.75,0,0,0-2.58,4.64,46.69,46.69,0,0,0-10.39-6c-.52,4.81-3,6.74-8.61,6.74s-9.24-2.59-9.24-6.51,3.94-6.91,9.3-6.91a19.42,19.42,0,0,1,3.72.38v-.88c0-.44,0-4-.21-10.55-.26-10.06-.26-11-.47-12.71Zm-8,28.06c-2.73,0-4.41.83-4.41,2.21s1.37,1.94,3.94,1.94c1.68,0,2.94-.39,3.57-1.16A2.81,2.81,0,0,0,51,43a6.31,6.31,0,0,0,0-.94A12.57,12.57,0,0,0,47.34,41.49Z"/><path class="cls-1" d="M75.26,19.67c2.16-.66,2.89-.88,4.78-1.55C87.13,15.75,90.22,15,93.79,15a10.7,10.7,0,0,1,9.71,5.63A14.18,14.18,0,0,1,105,27.57a22,22,0,0,1-8.24,17.57,38.87,38.87,0,0,1-11.75,6,18.28,18.28,0,0,0-2.84-5.75A34.24,34.24,0,0,0,91.85,41a15.51,15.51,0,0,0,7.3-13.71c0-4.53-2-6.85-5.93-6.85-3,0-7.41,1.5-15.12,5.25Zm23.62-8.51C90.7,9.56,86.39,8,81.41,4.81L84.5.28c5.36,2.81,8.77,4,16.22,5.47Z"/><path class="cls-1" d="M140.4,14.92q.63.33.63.66c0,.33-.26.66-.74.94-1.88,8.23-2.72,11.05-4.82,16-3.1,7.35-6.51,10.72-10.92,10.72A7.06,7.06,0,0,1,118,39.34,17.21,17.21,0,0,1,116,30.89,22.72,22.72,0,0,1,138.93,9a23.34,23.34,0,0,1,14.44,4.64Q160,18.78,160,28c0,7.29-3.26,12.82-9.92,16.68a53,53,0,0,1-9.77,3.93A15.37,15.37,0,0,0,137.51,43c5.51-1.38,7.61-2.15,10.5-4a12.76,12.76,0,0,0,6.46-11.16c0-5.69-3.26-10.39-8.82-12.71a17.21,17.21,0,0,0-6-1.32h-1Zm-13.7,3.76a18.39,18.39,0,0,0-5.25,12.48c0,3.92,1.21,6.36,3.15,6.36,1.68,0,3.15-1.72,5-5.86,3-6.69,4.88-12.76,5.25-17.52A13.87,13.87,0,0,0,126.7,18.68Z"/><path class="cls-1" d="M193.37,3.54c0-1.5-.05-2.71-.11-3.54l5.15.39c.63,0,1,.27,1,.55s-.31.66-1.05,1.1v3H206c3.25,0,7.77-.11,10.44-.22v5.2C213.89,10,209,9.89,206,9.89H181.4V22.32c0,7-.47,11.33-1.68,15.31-1.52,5-3.88,8.89-8.14,13.48a16,16,0,0,0-3.2-4.37,24.28,24.28,0,0,0,6.25-10.44,33.66,33.66,0,0,0,1.63-8.18c-.95.78-3,2-4.68,3.1-.36.77-.57,1.05-.83,1.05a.88.88,0,0,1-.74-.61l-2.1-4.75a61.64,61.64,0,0,0,8.61-4.59V9.89c0-1.71-.11-3.87-.16-4.92,1.79.06,3.52.11,5.78.11h11.23ZM171.9,10a27.81,27.81,0,0,1,4.41,8.07l-4.25,2.43a33.63,33.63,0,0,0-3.83-8Zm38.58,21.71A40.61,40.61,0,0,1,204,41.88c2.73,1.66,6.25,2.87,12.6,4.59a19.13,19.13,0,0,0-2.63,4.69c-6.66-1.93-10.49-3.53-13.64-5.85C197,48,193.89,49.62,188,51.83a14.19,14.19,0,0,0-2.57-4.53c5.51-1.88,8.61-3.26,11.28-5.2a23.24,23.24,0,0,1-5.24-9.5h-2.21A28.2,28.2,0,0,1,187.8,40c-1.52,4.53-3.41,7.35-8.13,12a16.09,16.09,0,0,0-3.15-3.65c6.46-6.35,8.13-11.11,8.13-23.54V20.61c0-1.71-.05-3.81-.15-4.86,2.1.05,3.2.05,5.77.05H197v-.33c0-2.49,0-3.2,0-5.08l5,.33c.57,0,.94.28.94.55s-.31.66-1,1.11V15.8h9.77l.63-.88,3,2.76a1,1,0,0,1,.42.77c0,.34-.21.5-.84.78l-.52.22a49.73,49.73,0,0,1-4.1,7.68,25.25,25.25,0,0,0-3.57-2.49,45.22,45.22,0,0,0,2.37-4h-7.2v7.18h5.15l.63-.94L211.32,30c.31.28.47.44.47.72s-.26.55-.89.83Zm-21-11.1v7.18H197V20.61Zm6.35,12A19.33,19.33,0,0,0,197.62,36a20.19,20.19,0,0,0,2.57,3,29.52,29.52,0,0,0,4.73-6.41Z"/><path class="cls-1" d="M239.29,23.92c1.16-1.43,1.42-1.76,5.46-6.63s5.72-6,9.19-6c3.88,0,6.19,2.21,6.19,6,0,1.27-.1,2.82-.26,4.53-.11,1.38-.63,7.51-.79,9.06-.58,5-.79,6.85-.79,8.23s.32,1.77,1.47,1.77,2.58-.66,4.1-2S266.38,36,268,32.65a28.42,28.42,0,0,0,3.94,4.09c-2.26,4.42-4.41,6.8-7.72,8.57a11.43,11.43,0,0,1-5.46,1.27c-4.25,0-6-1.88-6-6.14,0-2.59,0-3.37,1.47-17.29.15-1.77.42-4.86.42-5.47,0-.88-.42-1.44-1.16-1.44-1.89,0-4.2,2.05-8.08,7-2.26,2.93-2.89,3.76-6.09,7.74.1,13.37.1,14.42.26,17.9l-5.93.16c.16-2.37.16-2.81.37-12.81-2,2.92-3.47,4.91-4.57,6.35s-1.52,2-2.26,3l-3.35-5.2c2.15-2.26,8.66-9.89,10.34-13,.05-1.55.05-2.82.05-3.59s0-1.6,0-2.38c-.42.17-.52.17-1.42.5a64.4,64.4,0,0,0-6.3,2.49l-1.88-5.64a68.8,68.8,0,0,0,9.6-2.6v-5a73,73,0,0,0-.26-8l5.77.44c.42.06.68.22.68.55s-.1.34-.68.78l-.26,5.63c0,1.55,0,2.55,0,3a6.39,6.39,0,0,0,1.31-1.21l2.26,3.2c.31.5.42.55.42.77,0,.39-.32.61-1.21.78-.53.61-.79.94-1.94,2.21a8.66,8.66,0,0,1-1,1.05Z"/><path class="cls-1" d="M288.05,5.19c.53.11.89.39.89.78,0,.55-.42.88-1.41,1.21A104,104,0,0,0,285,30.61c0,6.57.52,9.67,2.62,16.63a24.52,24.52,0,0,0-5.2,2.49,60.35,60.35,0,0,1-2.67-18.9A151.27,151.27,0,0,1,282,7.29a24.18,24.18,0,0,0,.37-3.09Zm24.62-.71a.79.79,0,0,1,.84.71c0,.39-.11.61-.84,1.16,0,1.05.05,3.93.26,8.57a63.47,63.47,0,0,0,9.4-1.11l.15,5.64a73.47,73.47,0,0,1-9.5.94c.27,8.45.42,13,.48,13.7s0,.88.05,1.55a41.16,41.16,0,0,1,10.34,6.74,18.2,18.2,0,0,0-3.41,4.86,46.73,46.73,0,0,0-7.19-5.86c-.48,5.09-3.52,7.35-9.87,7.35-3.83,0-6.41-.72-8.3-2.26a7.82,7.82,0,0,1-2.52-5.69c0-4.53,3.84-7.52,9.61-7.52A27,27,0,0,1,308,34c-.06-3.43-.16-5.14-.37-13.43-2.84.06-3.57.06-4.41.06-2.73,0-6.77,0-8.45-.06l0-5.74c3.2.27,5.51.38,9.5.38,1.31,0,1.62,0,3.3,0l0-2.27a53.16,53.16,0,0,0-.68-8.73Zm-10.6,33.64c-2.68,0-4.2.94-4.2,2.66,0,2,1.83,3,5.19,3,2.68,0,4.1-.78,4.57-2.44a12.42,12.42,0,0,0,.26-2l-.05-.16A15.77,15.77,0,0,0,302.07,38.12Z"/><path class="cls-1" d="M335.71,35A71.19,71.19,0,0,1,346,47.46l-4.77,3.81a64.66,64.66,0,0,0-9.61-12.48Z"/></g></g></svg>