<svg xmlns="http://www.w3.org/2000/svg" viewBox="0 0 365.23 51.72"><defs><style>.cls-1{fill:#e51373;}</style></defs><g id="レイヤー_2" data-name="レイヤー 2"><g id="scene"><path class="cls-1" d="M9.66,38.34c-1.16.72-2.57,1.55-5.57,3.32-.42.88-.68,1.16-1,1.16a1.14,1.14,0,0,1-.79-.55L0,37.29a57.1,57.1,0,0,0,9.66-4.47v-6L5.77,29.56a38.54,38.54,0,0,0-5.19-8.9L4,18a31,31,0,0,1,3.47,4.42c.78,1.27,1.47,2.54,2.15,3.86V22.88c0-6.3-.11-10.84-.26-12.11l5.24.39c.53.06.84.22.84.55s-.26.61-.94,1c0,1.11,0,2.66,0,10.12V38.57c0,5.85,0,10.22.15,12.93H9.45c.16-3,.21-7.3.21-12.93ZM22.78,3.54c0-1.5,0-2.77-.05-3.54l5.14.39c.63,0,.95.22.95.55s-.27.66-1,1.1V4.53H38c3.57,0,7.72-.11,10.4-.22-.06,2-.11,3-.11,4.2v1.6c0,1.38.05,3,.16,4.86H43.36c.1-1.6.15-3.59.15-4.86V9H7.14v1.16c0,1.27.05,3.26.16,4.86H2.15c.11-1.82.16-3.48.16-4.86V8.51c0-1.16,0-2.21-.05-4.2,2.67.11,6.77.22,10.39.22H22.78Zm17.8,34.14a36.41,36.41,0,0,1-4.73,6c2.78,1.44,6.19,2.38,12.39,3.49a18.66,18.66,0,0,0-2.15,4.47c-6.3-1.38-10.5-2.93-13.81-5.14-.42.28-.84.5-1.31.78-3.78,2.15-7,3.15-14,4.42a14.56,14.56,0,0,0-1.41-4.31c6.61-1,9.76-1.94,13.22-3.87a26.44,26.44,0,0,1-3.93-5.47c-1.16,0-2.31,0-3.15,0V33.65c1.94.11,5.2.16,7.35.16h9l.68-.93,2.94,2.81a1.27,1.27,0,0,1,.47.89c0,.38-.32.71-.84.88ZM37.06,27.52c3.78,0,7.92-.06,10.34-.23,0,.72,0,2.27,0,4.2v1.72c0,.38,0,2.87.1,3.92H42.88V31.6H20.42v5.53H15.85c.05-1.05.11-3.54.11-3.92V31.49c0-2.21-.06-3.42-.06-4.2,2.89.17,6.72.23,10.87.23Zm-11.55-2c-1.73,0-4.67,0-6.3.11V21.71c1.58.06,4.25.11,6.3.11H37.06V20.17H25.51c-1.73,0-4.67,0-6.3.11V16.35c1.58.11,4.25.17,6.3.17H37.06V14.81H25.51c-1.73,0-4.67,0-6.3.11V11c1.58.11,4.25.16,6.3.16H35.8c3.15,0,4.67-.05,6.14-.11,0,1-.11,2.6-.11,4.86v5.2c0,2,.06,2.76.16,5.47H37.06v-1ZM29.24,38a16.63,16.63,0,0,0,2.94,3.26A17.71,17.71,0,0,0,35.27,38Z"/><path class="cls-1" d="M65.79,14.81a.87.87,0,0,1,.74.83c0,.38-.32.66-1.16.94A113.14,113.14,0,0,0,64,30.44h.26a21.2,21.2,0,0,1,17.37-9.78c7.51,0,12.08,4.2,12.08,11.17,0,6.57-3.78,11.65-10.82,14.58a60.51,60.51,0,0,1-13,3.26,27.38,27.38,0,0,0-1.53-6.08C74,43,77.65,42.21,81,40.83c4.41-1.88,7-5.25,7-9.17,0-3.7-2.31-5.8-6.3-5.8-4.62,0-8.61,1.88-12.71,6a18,18,0,0,0-4.83,8.29l-5.4-.11c0-2.82,0-3.43,0-4.7,0-4,.26-8.78.89-15.58.16-1.66.16-2.16.31-4.2a19.75,19.75,0,0,1,.21-2.21Zm-.94-12A36.72,36.72,0,0,1,77.71,9.23l-3.15,5A33.93,33.93,0,0,0,62.33,7.74Z"/><path class="cls-1" d="M117.39,24.09c1.15-1.44,1.41-1.77,5.45-6.63s5.73-6,9.19-6c3.88,0,6.19,2.21,6.19,6,0,1.28-.1,2.82-.26,4.54-.1,1.38-.63,7.51-.79,9.06-.57,5-.78,6.85-.78,8.23S136.7,41,137.86,41s2.57-.67,4.09-2,2.52-2.82,4.09-6.13A28.42,28.42,0,0,0,150,36.91c-2.26,4.42-4.41,6.79-7.71,8.56a11.46,11.46,0,0,1-5.46,1.27c-4.26,0-6-1.87-6-6.13,0-2.6,0-3.37,1.47-17.29.16-1.77.42-4.87.42-5.47,0-.89-.42-1.44-1.16-1.44-1.88,0-4.19,2-8.08,7-2.26,2.93-2.89,3.75-6.09,7.73.11,13.37.11,14.42.27,17.9l-5.94.17c.16-2.38.16-2.82.37-12.82-2,2.93-3.46,4.92-4.57,6.36s-1.52,2-2.25,3l-3.36-5.19c2.15-2.27,8.66-9.89,10.34-13,0-1.55,0-2.82,0-3.59s.05-1.61.05-2.38c-.42.16-.52.16-1.41.5a60.13,60.13,0,0,0-6.3,2.48L102.69,19a70.22,70.22,0,0,0,9.6-2.6v-5a72.72,72.72,0,0,0-.26-8l5.78.44c.42,0,.68.22.68.55s-.11.33-.68.77l-.27,5.64c-.05,1.55-.05,2.54-.05,3a6,6,0,0,0,1.31-1.22l2.26,3.21c.31.49.42.55.42.77,0,.39-.32.61-1.21.77-.52.61-.79.94-1.94,2.21a8.58,8.58,0,0,1-.94,1.05Z"/><path class="cls-1" d="M174.86,3.09c.42.12.68.39.68.72s-.26.61-1,1c-1.26,3.59-1.89,5.47-2.26,6.3a26.9,26.9,0,0,0,6.35-2.44l2.16,4.92a36.61,36.61,0,0,1-10.4,3.21c-.94,2.7-2.57,6.9-4.46,11.21a84.36,84.36,0,0,1-5.19,10.33c-1.05,1.88-1.84,3.21-2.31,4a13.64,13.64,0,0,0-4.78-3.15,98.37,98.37,0,0,0,11.18-22,21.86,21.86,0,0,1-3.67.22c-1.47,0-2.63,0-5.15-.22l-.1-5.63a38.09,38.09,0,0,0,6.35.49c1.47,0,2.36,0,4.35-.22a63.2,63.2,0,0,0,2.73-10.49ZM186.3,24.81c-1.63,1.16-2.05,1.82-2.05,3.48a33.09,33.09,0,0,0,.37,4.47c.16,1.16.21,1.5.37,3.21,0,.66.1.88.1,1.1,3.31,1.39,6.77,3.6,11.66,7.46A17.41,17.41,0,0,0,193,48.9c-2.89-2.82-3.15-3-7.82-6.08-.47,5.47-3.52,8-9.77,8-5.72,0-9.44-3-9.44-7.79s3.83-8.12,9.44-8.12a13.58,13.58,0,0,1,4.31.61c-.16-1.33-.16-1.72-.32-3.15-.15-1.27-.26-3.59-.26-4.26,0-3,1-4.8,3.83-6.85ZM175.07,39.73c-2.42,0-4.1,1.27-4.1,3.15s1.58,2.92,4.62,2.92c1.89,0,3.26-.55,3.83-1.54a7.41,7.41,0,0,0,.58-3.65A14.14,14.14,0,0,0,175.07,39.73Zm8.34-25.36a33.55,33.55,0,0,1,13.86,5.47l-2.78,5a28.4,28.4,0,0,0-12.55-5.64Z"/><path class="cls-1" d="M211.86,10.55c.68.11,1.15.45,1.15.94s-.26.67-1.2,1a73.57,73.57,0,0,0-.48,11.05c0,5.2.74,9.17,2.26,12.38.84,1.82,2.2,3.15,3.2,3.15s1.52-2,2.47-7.68a27.9,27.9,0,0,0,4.88,3.15c-1.89,8.62-3.52,11.21-7.09,11.21-3.09,0-5.87-2-8.13-6.07A30.45,30.45,0,0,1,206,30.89a51.67,51.67,0,0,1-.47-8.13c0-2.7.21-9.11.36-11.6a8.63,8.63,0,0,0,.06-1.55ZM235.79,13c6.51,6.74,9.56,11.77,12.34,20.72l-5.62,2.76a37.69,37.69,0,0,0-4.62-11.6,43.31,43.31,0,0,0-6.14-8.12Z"/><path class="cls-1" d="M275.11,4.92a.92.92,0,0,1,.79.77c0,.44-.32.72-1.21,1-1.21,4.25-1.78,6.29-2.62,9.06a2.67,2.67,0,0,0,.63-.06,20.05,20.05,0,0,1,3.51-.39,7.23,7.23,0,0,1,5,2.16,7.13,7.13,0,0,1,2,5.52,56,56,0,0,1-3.62,18.9c-1.68,4.09-4.2,5.86-8.29,5.86a23.91,23.91,0,0,1-5.93-.83c.21-1.49.42-4.48.47-6a16.76,16.76,0,0,0,5.41,1.1c2.3,0,3.41-1.27,4.51-5.36a54.49,54.49,0,0,0,1.94-12.82c0-2.32-.79-3.42-2.47-3.42a27.91,27.91,0,0,0-4.77.66,112.78,112.78,0,0,1-5.41,14c-1.94,4.26-3.25,6.58-7.5,13.32a12.11,12.11,0,0,0-4.68-3.26,72.69,72.69,0,0,0,8-13.37c1.05-2.32,3.05-7.24,3.84-9.67-3.1.61-6.51,1.27-10.08,2l-.74-6c3.42-.22,7.77-.72,12.6-1.49a108.52,108.52,0,0,0,3.1-12.82Zm12.65,9.45c6.09,3.81,8.87,6.41,13.44,12.81l-4.46,4.26a36.72,36.72,0,0,0-12.13-12.76Z"/><path class="cls-1" d="M315.26,14.81a.86.86,0,0,1,.73.83c0,.38-.31.66-1.15.94a113.14,113.14,0,0,0-1.36,13.86h.26a21.19,21.19,0,0,1,17.37-9.78c7.51,0,12.07,4.2,12.07,11.17,0,6.57-3.77,11.65-10.81,14.58a60.46,60.46,0,0,1-13,3.26,26.81,26.81,0,0,0-1.52-6.08c5.62-.6,9.29-1.38,12.6-2.76,4.41-1.88,7-5.25,7-9.17,0-3.7-2.31-5.8-6.3-5.8-4.61,0-8.6,1.88-12.7,6a18,18,0,0,0-4.83,8.29l-5.4-.11c-.06-2.82-.06-3.43-.06-4.7,0-4,.27-8.78.9-15.58.15-1.66.15-2.16.31-4.2a17.61,17.61,0,0,1,.21-2.21Zm-.94-12a36.72,36.72,0,0,1,12.86,6.41l-3.15,5A34,34,0,0,0,311.8,7.74Z"/><path class="cls-1" d="M365.23,43a8,8,0,1,1-16,0,8,8,0,1,1,16,0ZM353,43a4.23,4.23,0,1,0,4.25-4.42A4.35,4.35,0,0,0,353,43Z"/></g></g></svg>