<svg xmlns="http://www.w3.org/2000/svg" viewBox="0 0 720.75 30.49"><defs><style>.cls-1{fill:#231815;}</style></defs><g id="レイヤー_2" data-name="レイヤー 2"><g id="scene"><path class="cls-1" d="M20.58,5.11c0,.49-.7.81-1.43,1.22-1.3.74-6.76,5.68-8.4,7-.14.14-.39.35-.39.56s.14.24.32.24c.42,0,12.07-3.11,13.3-3.5a2,2,0,0,1,.42-.07c.28,0,.42.32.49.53s.35,2.38.35,2.69c0,.67-.35.67-1.4.81A19.12,19.12,0,0,0,16.63,17c-2,1.19-4.73,3.36-4.73,5.91,0,3.05,4.55,3.47,6.79,3.61.35,0,.7,0,.7.49a13.19,13.19,0,0,1-.63,2.55,1,1,0,0,1-1.05.7A17.42,17.42,0,0,1,13,29.16c-2.59-1-4.86-2.87-4.86-5.88,0-2.42,1.36-4,3-5.46a.41.41,0,0,0,.18-.32c0-.24-.25-.31-.35-.31s-2.07.52-2.45.63c-1.44.42-4.8,1.54-6.2,2.1a3,3,0,0,1-.94.28C.63,20.2,0,17.78,0,17.12s.46-.56,1.61-.84a4.48,4.48,0,0,0,2.24-1.05C6.79,13,10.4,9.52,13.16,7a.61.61,0,0,0,.25-.42.28.28,0,0,0-.32-.27c-.28,0-3.92,1-4.44,1.12a3.35,3.35,0,0,1-.81.17C7,7.56,6.51,5,6.51,4.34s.35-.7,1-.77c2-.18,8-1,9.63-1.78a2.44,2.44,0,0,1,.8-.32C19,1.47,20.58,4.3,20.58,5.11Z"/><path class="cls-1" d="M33.92,16.45A109.2,109.2,0,0,1,41.24,4.09c.52-.84,1-1.57,1.43-2.41.11-.18.28-.53.53-.53a9.31,9.31,0,0,1,2,1.33c.35.25,1.61,1.12,1.61,1.51s-.32.52-.63.56a1.49,1.49,0,0,0-.91.45c-.7.78-1.61,2-2.21,2.88-.49.66-3.53,5.11-3.53,5.6a.38.38,0,0,0,.35.35,1.37,1.37,0,0,0,.63-.25,7.85,7.85,0,0,1,3.71-1.19,4.17,4.17,0,0,1,3.71,2.07,5.83,5.83,0,0,1,.38,2.2,18.41,18.41,0,0,1-.45,3.4,19.92,19.92,0,0,0-.56,3.43c0,.59.21,1.33.91,1.33,2,0,5.29-4.24,6.37-5.78.17-.21.42-.49.7-.49.63,0,1.82,2.77,1.82,3.26a1.33,1.33,0,0,1-.39.77c-.8.8-1.6,1.61-2.45,2.38-1.92,1.75-4.3,3.67-7,3.67-2.49,0-3.5-2.13-3.5-4.34a23,23,0,0,1,.45-4.06,15.29,15.29,0,0,0,.39-2.83c0-.91-.32-1.61-1.33-1.61a6.5,6.5,0,0,0-3,1A10.38,10.38,0,0,0,36.62,20,24.17,24.17,0,0,0,33.4,27.3c-.11.46-.18,1.09-.77,1.09s-3.36-1-3.36-1.61c0,0,.59-1.47.63-1.54C31.19,22.3,32.49,19.36,33.92,16.45Z"/><path class="cls-1" d="M76,1.5c.17.08.56.18.56.42s-.25.39-.56.63a6.09,6.09,0,0,0-.63,1.86A10.64,10.64,0,0,0,74.94,6a.41.41,0,0,0,.39.45,17.83,17.83,0,0,0,2-.52,1.17,1.17,0,0,1,.35-.08c.42,0,.46.64.53,1.06a16.52,16.52,0,0,1,.17,1.85c0,.77-.42.84-3.64,1.44-1.26.21-1.22.45-1.64,1.61a89.35,89.35,0,0,1-5.71,12.46c-.21.35-.31.49-.7.49-.77,0-3.11-1-3.11-1.75a3.73,3.73,0,0,1,.63-1.26,66.44,66.44,0,0,0,4.16-8.09,13,13,0,0,0,.81-2.13.48.48,0,0,0-.49-.46c-.28,0-3,.35-3.78.35-.6,0-.74-.31-.88-1.12-.07-.42-.24-1.68-.24-2s.24-.56.63-.56H66a31,31,0,0,0,3.6-.17,1.19,1.19,0,0,0,1-.57,21.08,21.08,0,0,0,1.12-5.88c0-.24,0-.59.32-.59S75.4,1.33,76,1.5Zm5,10.44c.38.1.7.31.7.73,0,.07-.07,1.12-.07,1.86,0,1,.17,6,.35,6.79.1.52.56.66,1.08.87.11,0,.25.11.36.14.8.32,4.93,2.24,4.93,3.08,0,.56-1.3,2.56-2.17,2.56-.35,0-.67-.32-.91-.49a9.77,9.77,0,0,0-2.8-1.61c-.39,0-.53.49-.56.8-.42,2.56-2.49,3.43-4.87,3.43-2.83,0-6.16-1.5-6.16-4.76S73.93,21,76.69,21h.91c.42,0,.74-.17.74-.59,0-1.12-.53-6.2-.63-7.56,0-.18,0-.32,0-.49,0-.56.32-.77.84-.77A14.64,14.64,0,0,1,81,11.94ZM74.45,25.27c0,1.09,1.4,1.65,2.31,1.65,1.26,0,1.82-.67,1.82-1.89,0-.7,0-1.09-1.78-1.09C76,23.94,74.45,24.15,74.45,25.27ZM89.75,11.9c0,.84-2,2.42-2.63,2.42-.34,0-.59-.39-.77-.63A19.73,19.73,0,0,0,82,9.17c-.14-.1-.46-.31-.46-.56,0-.49,1.61-2.41,2.35-2.41S89.75,11,89.75,11.9Z"/><path class="cls-1" d="M113.08,28.35H102.4c-.56,0-.81.25-.81.81v.35c0,1-.34,1-2,1s-2,0-2-.95c0-1.47.11-2.94.11-4.37V7.56c0-1.12-.07-2.2-.07-3.32,0-1.41.56-1.82,1.92-1.82,1,0,2,.06,3.09.06h10.22c1,0,2-.06,3-.06,1.33,0,1.93.34,1.93,1.78,0,1.12-.07,2.24-.07,3.36V25.1c0,1.47.1,2.9.1,4.37,0,1-.42,1-2,1s-2,0-2-1a.83.83,0,0,1,0-.31C113.88,28.6,113.64,28.35,113.08,28.35ZM113,13.44a1,1,0,0,0,1-1V6.86a1,1,0,0,0-1-1H102.47a1,1,0,0,0-1,1v5.6a1,1,0,0,0,1,1ZM101.49,23.91a1,1,0,0,0,1,1H113a1,1,0,0,0,1-1V17.75a1,1,0,0,0-1-1H102.47a1,1,0,0,0-1,1Z"/><path class="cls-1" d="M133.31,4c.28.1.91.34.91.7,0,.21-.14.27-.32.34-.8.39-1,.71-1.43,1.79a32.34,32.34,0,0,0-1.93,10.64c0,.56.11,3.89.77,3.89.25,0,.42-.46.77-1.26.18-.39.53-1.54.95-1.54s1.5.7,1.5,1.12S132.82,24,132.82,26c0,.56.07,1.12.07,1.68,0,1.36-2.49,1.78-2.66,1.78-.6,0-.88-.66-1.12-1.15A25.13,25.13,0,0,1,127,17.54a39.94,39.94,0,0,1,1.23-9.8c.38-1.54.87-3,1.26-4.59,0-.24.14-.6.45-.6a13.09,13.09,0,0,1,2.24.91C132.68,3.67,133.1,3.88,133.31,4Zm13.93-1c.18,0,.35.1.35.31s-.21.39-.38.71a4.79,4.79,0,0,0-.39,2.48v1c0,.49.21.91.74.91a22.36,22.36,0,0,0,3.5-.87,2.41,2.41,0,0,1,.52-.11c.7,0,.95,2.42.95,2.94,0,.67-.25.91-4.38,1.47-.77.11-1.19.25-1.19,1.12,0,.7.25,6.06.28,7s.42,1,1.19,1.36a19.44,19.44,0,0,1,3.78,2.45c.42.35.91.74.91,1.33,0,.81-1.22,2.42-2,2.42a1.6,1.6,0,0,1-1-.53C149.73,26.5,148,25,147.52,25s-.45.28-.52.56c-.63,2.24-3,2.94-5.08,2.94-2.8,0-5.85-1.33-5.85-4.55s2.77-4.41,5.5-4.41a8.89,8.89,0,0,1,1.36.1h.25a.64.64,0,0,0,.7-.73c0-.88-.17-4.2-.21-5.22,0-.35,0-1.33-.84-1.33-.28,0-2.77.14-4.17.14h-.45a7.62,7.62,0,0,1-2.66-.28c-.32-.21-.35-2.2-.35-2.66s0-.87.56-.87,3.53.35,5.35.35h.56c.84,0,1.65-.07,1.65-.84s-.28-4.13-.42-5c0-.11,0-.24,0-.35,0-.32.13-.49.48-.49A32,32,0,0,1,147.24,2.94Zm-5.43,19.64c-.8,0-2.52.28-2.52,1.36s1.68,1.51,2.56,1.51c1.33,0,2.2-.49,2.2-1.93C144.05,22.61,142.48,22.58,141.81,22.58Z"/><path class="cls-1" d="M160.54,21.46c.8,0,6.82,4.83,6.82,5.7s-1.75,2.7-2.55,2.7c-.28,0-.53-.32-.7-.53a21.75,21.75,0,0,0-5.32-4.76c-.25-.14-.63-.35-.63-.66A4.74,4.74,0,0,1,160.54,21.46Z"/><path class="cls-1" d="M184.2,28.74c-1.65,0-4.41.07-4.66.07-.73,0-1-.25-1-1,0-.25.07-4,.07-6V11c0-2-.1-5.88-.1-6.13,0-.74.21-.87,1-.87h2.24c.81,0,1,.13,1,.87,0,.25-.11,4.1-.11,6.13V24c0,.88.18,1,1.05,1h3.19c1.68,0,4.83-.1,5.07-.1.74,0,.88.21.88,1v1.82c0,.81-.14,1-.88,1-.24,0-3.39-.07-5.07-.07Z"/><path class="cls-1" d="M205.86,25.06c1.68,0,4.83-.1,5.07-.1.74,0,.88.21.88,1v1.82c0,.81-.14,1-.88,1-.24,0-3.39-.07-5.07-.07h-2.7c-1.64,0-4.41.07-4.66.07-.76,0-1-.28-1-1.12,0-2,.07-4.17.07-5.85v-11c0-1.71,0-4.06-.07-5.85,0-.83.21-1.12,1-1.12.25,0,3,.08,4.66.08h2c1.68,0,4.83-.08,5.08-.08.73,0,.87.21.87,1V6.79c0,.81-.14,1-.87,1-.25,0-3.4-.11-5.08-.11h-2.48c-.88,0-1,.18-1,1v4c0,.88.17,1,1,1h1.75c1.64,0,4.83-.07,5.07-.07.74,0,.88.21.88,1v1.71c0,.81-.14,1-.88,1-.24,0-3.43-.07-5.07-.07h-1.75c-.88,0-1,.17-1,1.05V24c0,.88.17,1,1,1Z"/><path class="cls-1" d="M221.08,21.42c0,1.23,0,5.46,0,6.27s-.17,1-1.05,1h-2.1c-.77,0-1-.18-1-.7s.21-4.31.24-6.83l.18-10.46c0-1.75,0-5,0-5.75,0-.87.14-1,1-1h1.15a1.67,1.67,0,0,1,1.68.83c1,1.33,2,2.63,3,3.89l4.76,6c.28.35.46.53.67.53s.38-.18.66-.53L235,8.79c1-1.26,2.06-2.63,3.08-4A1.67,1.67,0,0,1,239.74,4h1.15c.88,0,1.05.17,1.05,1,0,.53,0,3.26,0,5.75l.18,10.46c0,1.86.21,5.95.21,6.48,0,.94-.11,1-1,1h-2.14c-.87,0-1.05-.18-1.05-1,0-1,.07-4.34,0-6.23l-.17-9c0-.35-.11-.56-.25-.56s-.28.11-.45.32l-7,8.64a.83.83,0,0,1-1.44,0l-6.93-8.64c-.17-.21-.31-.32-.45-.32s-.25.21-.25.56Z"/><path class="cls-1" d="M271.79,16c0,8.23-5.85,12.92-12.57,12.92-7.6,0-11.93-5.88-11.93-12.43,0-7.73,5.21-12.77,12.49-12.77C267.41,3.75,271.79,9.49,271.79,16Zm-20.3.53c0,4.72,2.87,8.54,7.87,8.54,4.55,0,8.23-3.33,8.23-8.86,0-4.69-2.91-8.47-7.91-8.47S251.49,11.52,251.49,16.56Z"/><path class="cls-1" d="M281,21.74c0,2,.11,5.88.11,6.12,0,.74-.21.88-1,.88H278c-.8,0-1-.14-1-.88,0-.24.1-4.09.1-6.12V10.61c0-2-.1-5.53-.1-5.78,0-.74.21-.87,1-.87h1.16a1.67,1.67,0,0,1,1.68.83C281.92,6.23,283,7.6,284.17,9l8.75,10.92c.17.21.31.32.42.32s.24-.21.24-.56V11c0-2-.1-5.88-.1-6.13,0-.74.21-.87,1-.87h2.1c.81,0,1,.13,1,.87,0,.25-.11,4.1-.11,6.13V22.09c0,1.92.11,5.53.11,5.77,0,.74-.21.88-1,.88h-.7a1.66,1.66,0,0,1-1.68-.84c-1-1.33-2.06-2.59-3.22-4l-9.31-11.48c-.18-.21-.32-.32-.42-.32s-.25.21-.25.56Z"/><path class="cls-1" d="M305,13.76c-.52,0-.76-.07-.76-.28a1.53,1.53,0,0,1,.24-.6,11.23,11.23,0,0,0,1.33-3.46c0-.39-.28-.6-.77-.74a2.28,2.28,0,0,1-1.82-2.27A2.53,2.53,0,0,1,306,3.75c1.22,0,2.52.76,2.52,2.9a15.64,15.64,0,0,1-1.65,6.16,1.29,1.29,0,0,1-1.47.95Z"/><path class="cls-1" d="M329.81,21.81c0,4.51-3.39,7.17-8.78,7.17a15.66,15.66,0,0,1-7.35-1.82c-.46-.24-.67-.45-.67-.77a1.91,1.91,0,0,1,.21-.7l.88-1.82c.21-.45.35-.7.59-.7a1.34,1.34,0,0,1,.67.35,10.9,10.9,0,0,0,6,1.82c2.63,0,4.34-1.22,4.34-3.18s-2.24-3.12-5.14-4.31c-3.4-1.4-7-3.11-7-7.31s3.46-6.83,8.78-6.83a15.29,15.29,0,0,1,6,1.29c.49.25.74.42.74.74a2,2,0,0,1-.18.67l-.8,2.06c-.21.49-.35.74-.56.74a1.41,1.41,0,0,1-.7-.32,10.2,10.2,0,0,0-5-1.36c-2.8,0-4.17,1.22-4.17,2.87,0,1.82,1.82,2.73,4.73,3.95C326.1,15.89,329.81,17.61,329.81,21.81Z"/><path class="cls-1" d="M347.94,21.74c0,2,.11,5.88.11,6.12,0,.74-.21.88-1,.88h-2.17c-.8,0-1-.14-1-.88,0-.24.1-4.09.1-6.12V10.85c0-1.71,0-4-.07-5.85,0-.83.21-1.12,1-1.12.25,0,3,.08,4.66.08h2c1.68,0,4.83-.08,5.07-.08.74,0,.88.21.88,1V6.79c0,.81-.14,1-.88,1-.24,0-3.39-.11-5.07-.11H349c-.87,0-1.05.18-1.05,1v4.06c0,.88.18,1,1.05,1h1.75c1.65,0,4.83-.07,5.08-.07.73,0,.87.21.87,1v1.71c0,.81-.14,1-.87,1-.25,0-3.43-.07-5.08-.07H349c-.87,0-1.05.17-1.05,1.05Z"/><path class="cls-1" d="M366.18,21.74c0,2,.11,5.88.11,6.12,0,.74-.21.88-1,.88H363.1c-.8,0-1-.14-1-.88,0-.24.1-4.09.1-6.12V10.89c0-1.72,0-3.93-.07-5.89,0-.83.21-1.12,1-1.12.25,0,3,.08,4.66.08h3.08c4.51,0,7.84,1.75,7.84,6.82a7.67,7.67,0,0,1-4.24,7.14c-.42.25-.63.42-.63.63a1.28,1.28,0,0,0,.35.7l1.12,1.54c1.68,2.24,3.08,4.1,5.39,7a1.1,1.1,0,0,1,.28.56c0,.24-.31.35-.84.35h-2.9a1.5,1.5,0,0,1-1.61-.88c-1.47-2.24-2.8-4.06-4.1-5.81l-1.4-2a1.64,1.64,0,0,0-1.68-.84h-1.19c-.87,0-1.05.18-1.05,1.05Zm0-7c0,.88.18,1.05,1.05,1.05h2.35c2.62,0,5-1.12,5-4.55,0-3-1.89-3.71-4.06-3.71h-3.26c-.87,0-1.05.18-1.05,1Z"/><path class="cls-1" d="M393.58,25.06c1.68,0,4.83-.1,5.07-.1.74,0,.88.21.88,1v1.82c0,.81-.14,1-.88,1-.24,0-3.39-.07-5.07-.07h-2.7c-1.64,0-4.41.07-4.65.07-.77,0-1-.28-1-1.12,0-2,.07-4.17.07-5.85v-11c0-1.71,0-4.06-.07-5.85,0-.83.21-1.12,1-1.12.24,0,3,.08,4.65.08h2c1.68,0,4.83-.08,5.08-.08.73,0,.87.21.87,1V6.79c0,.81-.14,1-.87,1-.25,0-3.4-.11-5.08-.11h-2.48c-.88,0-1.05.18-1.05,1v4c0,.88.17,1,1.05,1h1.75c1.64,0,4.83-.07,5.07-.07.74,0,.88.21.88,1v1.71c0,.81-.14,1-.88,1-.24,0-3.43-.07-5.07-.07h-1.75c-.88,0-1.05.17-1.05,1.05V24c0,.88.17,1,1.05,1Z"/><path class="cls-1" d="M413.24,25.06c1.68,0,4.83-.1,5.08-.1.73,0,.87.21.87,1v1.82c0,.81-.14,1-.87,1-.25,0-3.4-.07-5.08-.07h-2.69c-1.65,0-4.41.07-4.66.07-.77,0-1-.28-1-1.12,0-2,.07-4.17.07-5.85v-11c0-1.71,0-4.06-.07-5.85,0-.83.21-1.12,1-1.12.25,0,3,.08,4.66.08h2c1.68,0,4.83-.08,5.07-.08.74,0,.88.21.88,1V6.79c0,.81-.14,1-.88,1-.24,0-3.39-.11-5.07-.11H410c-.87,0-1,.18-1,1v4c0,.88.18,1,1,1h1.75c1.65,0,4.83-.07,5.08-.07.73,0,.87.21.87,1v1.71c0,.81-.14,1-.87,1-.25,0-3.43-.07-5.08-.07H410c-.87,0-1,.17-1,1.05V24c0,.88.18,1,1,1Z"/><path class="cls-1" d="M426.06,6.2c5.11-.32,10.22-.84,15.3-1.44,2.66-.31,5.32-.67,7.94-1.09a2.37,2.37,0,0,1,.46,0c.52,0,.59.45.66.87a16.14,16.14,0,0,1,.32,2.56c0,.77-.74.7-1.58.74a17.22,17.22,0,0,0-5.81.73,10.68,10.68,0,0,0-6,5.22,13.13,13.13,0,0,0-1.68,6.16c0,4.06,2.59,5,6.16,5,.6,0,1.37,0,1.75,0,.53,0,.81,0,.81.6a9.91,9.91,0,0,1-.53,2.87c-.24.52-.52.59-1.12.59-6,0-11.06-1.89-11.06-8.71a15.57,15.57,0,0,1,3.85-10c.39-.42.6-.66.6-.84S435.9,9,435.65,9s-1.85.28-2.2.32c-2.35.35-5.5.84-7.74,1.43a2.33,2.33,0,0,1-.53.07c-.48,0-.66-.77-.76-1.15A15.87,15.87,0,0,1,424,7.11C424,6.2,424.52,6.3,426.06,6.2Zm23.24,8.54c0,.52-1.4,1.47-1.78,1.47s-.35-.25-.49-.42c-.7-1-1.47-2-2.24-2.94-.11-.11-.32-.32-.32-.49,0-.42,1.4-1.3,1.79-1.3S449.3,14.32,449.3,14.74Zm4.24-1.93c0,.49-1.37,1.47-1.79,1.47-.24,0-.38-.28-.52-.45A29.73,29.73,0,0,0,449,10.92a.83.83,0,0,1-.24-.45c0-.42,1.36-1.33,1.78-1.33A14.22,14.22,0,0,1,453.54,12.81Z"/><path class="cls-1" d="M476.27,6.3c.91,0,1.78,0,2.69,0,1.4,0,2.31.14,2.31,1.78,0,1,0,2.1,0,3.15V23c0,1.05,0,2.13,0,3.18s-.21,1.09-2.1,1.09c-1.61,0-1.64-.07-1.78-.74s-.63-.8-1.68-.8H464.33c-1.54,0-3.61.07-4.52.07s-.84-.49-.84-2-.07-1.86.77-1.86,2.87.11,4.55.11h12.08A1,1,0,0,0,477.42,21V11.06A1,1,0,0,0,476.37,10H464.29c-1.5,0-3.64.11-4.51.11s-.84-.49-.84-2.24c0-1.4.14-1.68.77-1.68s1,.07,1.5.07c1,0,2,0,3.05,0Z"/><path class="cls-1" d="M507.57,6.3c.91,0,1.79,0,2.7,0,1.4,0,2.31.14,2.31,1.78,0,1,0,2.1,0,3.15V23c0,1.05,0,2.13,0,3.18s-.21,1.09-2.1,1.09c-1.61,0-1.65-.07-1.79-.74s-.63-.8-1.68-.8H495.64c-1.54,0-3.61.07-4.52.07s-.84-.49-.84-2-.07-1.86.77-1.86,2.87.11,4.55.11h12.08A1.06,1.06,0,0,0,508.73,21V11.06A1,1,0,0,0,507.68,10H495.6c-1.5,0-3.64.11-4.51.11s-.84-.49-.84-2.24c0-1.4.14-1.68.77-1.68s1,.07,1.5.07c1,0,2,0,3.05,0Z"/><path class="cls-1" d="M540.41,5.71c.91,0,1.82,0,2.73,0,1.43,0,2.24.25,2.24,1.86,0,1,0,2.1,0,3.11V22.51c0,1.22.07,2.48.07,3.71s-.31,1.22-2,1.22c-2,0-2-.17-2-1.15s-.45-1.05-1.68-1.05H527.63c-1.19,0-1.64,0-1.71,1.05s.07,1.15-2,1.15c-1.65,0-1.93,0-1.93-1.26s.07-2.45.07-3.67V10.64c0-1.05,0-2.1,0-3.15,0-1.47.7-1.82,2.1-1.82.94,0,1.92,0,2.87,0ZM526.9,9.31a1,1,0,0,0-1,1V20.62a1,1,0,0,0,1,1.05h13.58a1.06,1.06,0,0,0,1-1.05V10.33a1,1,0,0,0-1-1Z"/><path class="cls-1" d="M568.14,2.13c0,.21-.24.35-.42.42-.56.21-.7.39-1.15,1.2a2.2,2.2,0,0,0-.35.8.34.34,0,0,0,.38.35,24.68,24.68,0,0,0,4.06-1,2.82,2.82,0,0,1,.88-.21c.59,0,.77.56.87,1a10.63,10.63,0,0,1,.28,1.89c0,.6-1.12.74-1.85.88-2.21.45-4.41.84-6.62,1.08a1.23,1.23,0,0,0-1.05.56,11.48,11.48,0,0,0-1.19,2,.27.27,0,0,0,.28.25,1.39,1.39,0,0,0,.63-.21,9.6,9.6,0,0,1,3.82-.91c2.24,0,3.53.94,4,3.15.07.31.17.59.52.59a31.78,31.78,0,0,0,4.1-2,2.73,2.73,0,0,1,.91-.35c.66,0,1.5,2.69,1.5,3.29,0,.42-.38.56-1.05.77-.14.07-.31.1-.49.17-1.4.53-2.76,1.12-4.13,1.72-.63.24-.91.45-.91,1.15v.46c0,1.08,0,2.13,0,3.22,0,1.26-.18,1.4-1.51,1.4-1.5,0-2.13-.07-2.13-1s.07-1.54.07-2.28c0-.31-.11-.59-.46-.59-.17,0-3.78,1.54-3.78,3.71,0,2.34,3.4,2.55,5.08,2.55a25.64,25.64,0,0,0,6.51-.87,3.77,3.77,0,0,1,.7-.07c.45,0,.7.38.7,2.38,0,1,0,1.33-.81,1.5a45.66,45.66,0,0,1-6.72.46,13.07,13.07,0,0,1-5.53-.91,5.33,5.33,0,0,1-3.5-5c0-3.15,2.56-4.86,5-6.3.7-.42,1.44-.8,2.17-1.15.35-.18.63-.39.63-.81a4.91,4.91,0,0,0-.17-1,1.46,1.46,0,0,0-1.54-1.19c-2,0-5.18,1.68-6.55,3.08a23.68,23.68,0,0,0-2.94,4.1.58.58,0,0,1-.49.35c-.63,0-3-1.4-3-2,0-.28.28-.56.45-.77.81-.88,5.88-7.91,5.88-8.58,0-.31-.28-.42-.77-.42s-1.36.11-2.45.11c-.77,0-.91-.18-.91-2,0-1.41.14-1.62,1-1.62.59,0,1.5.08,2.52.08h1c.91,0,1.86,0,2.17-.46A18.75,18.75,0,0,0,563.73.73c.07-.38.14-.73.49-.73S568.14,1.61,568.14,2.13Z"/><path class="cls-1" d="M604,5.71c.91,0,1.82,0,2.73,0,1.44,0,2.24.25,2.24,1.86,0,1,0,2.1,0,3.11V22.51c0,1.22.07,2.48.07,3.71s-.32,1.22-2,1.22c-2,0-2-.17-2-1.15s-.46-1.05-1.68-1.05H591.25c-1.19,0-1.65,0-1.72,1.05s.07,1.15-2,1.15c-1.64,0-1.92,0-1.92-1.26s.07-2.45.07-3.67V10.64c0-1.05,0-2.1,0-3.15,0-1.47.7-1.82,2.1-1.82.95,0,1.93,0,2.87,0Zm-13.51,3.6a1,1,0,0,0-1,1V20.62a1.06,1.06,0,0,0,1,1.05h13.58a1.06,1.06,0,0,0,1-1.05V10.33a1,1,0,0,0-1-1Z"/><path class="cls-1" d="M635.67,6.86a5.85,5.85,0,0,0,1.4-.11,1.76,1.76,0,0,1,.39-.06c.77,0,2.55,2.13,2.55,2.69a3.15,3.15,0,0,1-.42.84c-.21.39-.56.91-.91,1.61-3.47,6.69-6.83,11.76-13.3,15.93-.77.49-4,2.48-4.76,2.48s-3-1.71-3-2.34c0-.35.46-.56.7-.67A30.85,30.85,0,0,0,631.89,16c.56-.84,2.69-4.23,2.69-5.11,0-.45-.59-.49-1.08-.49h-6.65c-.7.07-.84.07-1.47,1s-4.69,5.77-5.6,5.77c-.46,0-3-1.33-3-2.1a.65.65,0,0,1,.31-.49,32.18,32.18,0,0,0,9.35-12.5c.14-.35.28-.84.56-.84a18,18,0,0,1,2.48,1.09,3.73,3.73,0,0,0,.46.21c.42.17,1.05.39,1.05.7s-.35.35-.53.45c-.42.25-.56.53-.91,1.16-.14.25-.28.49-.49.84a1.43,1.43,0,0,0-.24.63.58.58,0,0,0,.59.56Zm7.07-.7c0,.53-1.36,1.47-1.78,1.47-.21,0-.32-.21-.46-.38-.7-1-1.47-2.1-2.27-3.08a.84.84,0,0,1-.25-.46c0-.42,1.44-1.29,1.82-1.29S642.74,5.78,642.74,6.16ZM646.35,4c0,.52-1.37,1.43-1.79,1.43-.24,0-.35-.17-.45-.34A33.87,33.87,0,0,0,641.8,2a.78.78,0,0,1-.25-.42c0-.46,1.44-1.34,1.82-1.34A13.9,13.9,0,0,1,646.35,4Z"/><path class="cls-1" d="M662.14,9.17a1,1,0,0,0,1.05-1.05l0-1.19c0-1.33-.07-3.68-.25-4.87a2.42,2.42,0,0,1,0-.48c0-.36.24-.43.56-.43.77,0,2.13.25,2.94.35s1,.21,1,.5a.61.61,0,0,1-.21.38c-.38.42-.45.49-.45,1.47s0,2,0,3.05l0,1.15a1.05,1.05,0,0,0,1.08,1l1.86,0c1.22,0,4.09-.17,4.62-.17.77,0,.91.28.91,2.13,0,1.3-.07,1.58-1.09,1.58h-1.92l-2.45,0-1.89,0a1,1,0,0,0-1,1l.17,8.16v1.43c0,3.75-.17,6-6.4,6-.77,0-1.16-.11-1.4-.84a7.7,7.7,0,0,1-.49-2.35c0-.35.14-.56.49-.56,0,0,1.08.07,1.89.07,2.31,0,2.31-.7,2.31-2.55v-.88l-.11-6.4c0-.21-.14-.46-.42-.46a.64.64,0,0,0-.52.32,52.83,52.83,0,0,1-9.42,9,7.23,7.23,0,0,1-2.17,1.29c-.66,0-2.55-1.68-2.55-2.38,0-.31.84-.77,1.15-.94a39.27,39.27,0,0,0,10.26-8.79,1.06,1.06,0,0,0,.31-.59c0-.18-.07-.42-.52-.42l-5.36.07c-1.33,0-3.67.17-4.41.17s-.94-.38-.94-1.75c0-1.64-.07-2,1-2l2.41,0c.63,0,1.26,0,1.93,0Z"/><path class="cls-1" d="M700.14,5c.74,0,2.45,0,3.15-.07.14,0,.53-.06.63-.06.84,0,2.35,1.88,2.35,2.24s-.32.73-.6,2.24c-1.19,6.75-3.67,11.41-9.34,15.4a33.13,33.13,0,0,1-6.73,3.57,3.52,3.52,0,0,1-1.15.31c-.84,0-2.1-2.34-2.1-2.9,0-.39.31-.49.63-.56a24.7,24.7,0,0,0,8.71-4.62,16.28,16.28,0,0,0,5.75-10.22,7.91,7.91,0,0,0,.06-.84c0-.67-.59-.74-1.22-.74H687.85c-1.47,0-2.9.07-4.37.07-1.09,0-1.05-.31-1.05-1.89s0-2,.94-2c1.51,0,3,.07,4.52.07Z"/><path class="cls-1" d="M720.75,25.24a4.87,4.87,0,1,1-4.86-4.87A4.87,4.87,0,0,1,720.75,25.24Zm-8,0a3.12,3.12,0,0,0,6.23,0,3.08,3.08,0,0,0-3.11-3.12A3.12,3.12,0,0,0,712.77,25.24Z"/></g></g></svg>