<svg xmlns="http://www.w3.org/2000/svg" viewBox="0 0 400.2 51.94"><defs><style>.cls-1{fill:#e51373;}</style></defs><g id="レイヤー_2" data-name="レイヤー 2"><g id="scene"><path class="cls-1" d="M26,15.25a45.39,45.39,0,0,1-9.77,3c.05,4,.11,7,.11,8.84,5.3-1.93,8.45-2.59,12-2.59a12.7,12.7,0,0,1,8.25,3,9.38,9.38,0,0,1,3.15,7.62c0,6.85-4.89,11.33-12.39,11.33a17,17,0,0,1-6.14-1.16,40.43,40.43,0,0,0,.63-5.53,14.13,14.13,0,0,0,5.77,1.27c4,0,6.67-2.21,6.67-5.58a5.13,5.13,0,0,0-2.47-4.64,9,9,0,0,0-4.25-1.21,28.76,28.76,0,0,0-11,2.87c-.05,5.47-.15,7.57-.21,9.11-.26,5-1.78,7.24-4.93,7.24-1.36,0-2.94-.66-5.51-2.15C2.1,44.42,0,42,0,39.84c0-2.77,3.46-6,11.13-10.39,0-1.77-.05-2.71-.05-4.15,0-.1-.11-3.75-.11-6.46C9,19,6,19,2.26,19.06l0-5.52c1.78.11,2.57.11,3.46.11,1.47,0,3.57-.11,5.25-.22-.05-1.16-.05-2.82-.05-5.2a34.35,34.35,0,0,0-.27-5L16,3.54c.63,0,1,.33,1,.77s-.26.77-.89,1.27v7.24A32.41,32.41,0,0,0,24,10.33ZM11.29,34.7l-1.11.66C6.93,37.35,5,38.9,5,39.73c0,.66.89,1.54,2.62,2.65a5,5,0,0,0,2.47,1c1,0,1.16-.5,1.16-6.41Zm30.07-9c-2.46-4.31-4.83-5.86-9-5.86-.52,0-1,0-1.83.06l-.16-5.3c.37,0,.63.05,2.41.05,5.57.11,9.14,2.1,12.6,7.24Z"/><path class="cls-1" d="M76.42,3.54c0-1.5,0-2.71-.1-3.54l5.14.39c.63,0,1,.27,1,.55s-.32.66-1,1.1v3h7.66c3.26,0,7.77-.11,10.45-.22v5.2c-2.58-.11-7.46-.17-10.45-.17H64.45V22.32c0,7-.47,11.33-1.68,15.31-1.52,5-3.88,8.89-8.13,13.48a16,16,0,0,0-3.2-4.37A24.25,24.25,0,0,0,57.68,36.3a33.19,33.19,0,0,0,1.63-8.18c-1,.78-3,2-4.67,3.1-.37.77-.58,1.05-.84,1.05a.9.9,0,0,1-.74-.61L51,26.91a61.56,61.56,0,0,0,8.61-4.59V9.89c0-1.71-.1-3.87-.16-4.92,1.79.06,3.52.11,5.78.11H76.42ZM55,10a27.81,27.81,0,0,1,4.41,8.07L55.11,20.5a33.25,33.25,0,0,0-3.83-8ZM93.53,31.71A40.33,40.33,0,0,1,87,41.88c2.73,1.66,6.25,2.87,12.6,4.59A19.47,19.47,0,0,0,97,51.16c-6.67-1.93-10.5-3.53-13.65-5.85C80,48,77,49.62,71,51.83a14.34,14.34,0,0,0-2.57-4.54C74,45.42,77.05,44,79.73,42.1a23.26,23.26,0,0,1-5.25-9.5H72.27A28.63,28.63,0,0,1,70.86,40c-1.53,4.53-3.41,7.34-8.14,12a15.84,15.84,0,0,0-3.15-3.65c6.46-6.35,8.14-11.11,8.14-23.54V20.61c0-1.71,0-3.81-.16-4.86,2.1.05,3.2.05,5.77.05H80.1v-.33c0-2.49,0-3.2-.06-5.08l5,.33c.58,0,.94.27.94.55s-.31.66-1,1.11V15.8h9.76l.63-.88,3,2.76a1,1,0,0,1,.42.77c0,.34-.21.5-.84.78l-.52.22a50.72,50.72,0,0,1-4.09,7.68,25.86,25.86,0,0,0-3.57-2.49,46.39,46.39,0,0,0,2.36-4H85v7.18h5.14l.63-.94L94.37,30c.32.28.47.44.47.72s-.26.55-.89.83Zm-21-11.1v7.18H80.1V20.61Zm6.36,12A19.29,19.29,0,0,0,80.67,36a20.19,20.19,0,0,0,2.57,3A29.2,29.2,0,0,0,88,32.6Z"/><path class="cls-1" d="M121.3,23.92c1.15-1.43,1.41-1.76,5.45-6.63s5.73-6,9.19-6c3.88,0,6.19,2.21,6.19,6,0,1.27-.1,2.82-.26,4.53-.1,1.38-.63,7.51-.79,9.06-.57,5-.78,6.85-.78,8.23s.31,1.77,1.47,1.77,2.57-.66,4.09-2S148.38,36,150,32.65a28.42,28.42,0,0,0,3.94,4.09c-2.26,4.42-4.41,6.8-7.71,8.57a11.58,11.58,0,0,1-5.46,1.27c-4.26,0-6-1.88-6-6.14,0-2.59,0-3.37,1.47-17.29.16-1.77.42-4.86.42-5.47,0-.88-.42-1.44-1.16-1.44-1.88,0-4.19,2.05-8.08,7-2.26,2.93-2.89,3.76-6.09,7.74.11,13.37.11,14.42.27,17.9l-5.94.16c.16-2.37.16-2.81.37-12.81-2,2.92-3.46,4.91-4.56,6.35s-1.53,2-2.26,3l-3.36-5.2c2.15-2.26,8.66-9.89,10.34-13,.05-1.55.05-2.82.05-3.59s0-1.6,0-2.38c-.42.17-.52.17-1.41.5a62.47,62.47,0,0,0-6.3,2.49l-1.89-5.64a68.8,68.8,0,0,0,9.6-2.6v-5a73,73,0,0,0-.26-8l5.78.44c.42.06.68.22.68.55s-.11.34-.68.78l-.27,5.63c0,1.55,0,2.55,0,3a5.92,5.92,0,0,0,1.31-1.21l2.26,3.2c.31.5.42.55.42.77,0,.39-.32.61-1.21.78-.52.61-.78.94-1.94,2.21a9.39,9.39,0,0,1-.94,1.05Z"/><path class="cls-1" d="M184.12,14.92q.63.33.63.66c0,.33-.26.66-.73.94-1.89,8.23-2.73,11.05-4.83,16-3.1,7.35-6.51,10.72-10.92,10.72a7.06,7.06,0,0,1-6.51-3.92,17.32,17.32,0,0,1-2-8.45A22.72,22.72,0,0,1,182.65,9a23.34,23.34,0,0,1,14.44,4.64c4.4,3.42,6.61,8.17,6.61,14.31,0,7.29-3.25,12.82-9.92,16.68A53.18,53.18,0,0,1,184,48.57,15.54,15.54,0,0,0,181.23,43c5.51-1.38,7.61-2.15,10.5-4a12.76,12.76,0,0,0,6.46-11.16c0-5.69-3.26-10.39-8.82-12.71a17.16,17.16,0,0,0-6-1.32h-1Zm-13.7,3.75a18.43,18.43,0,0,0-5.25,12.49c0,3.92,1.21,6.36,3.15,6.36,1.68,0,3.15-1.72,5-5.86,3-6.69,4.88-12.76,5.25-17.52A13.92,13.92,0,0,0,170.42,18.67Z"/><path class="cls-1" d="M227,7.29c0,6.63.37,11.05,1.16,14.31,2.88-1.32,4.67-2.1,5.3-2.43a31.6,31.6,0,0,0,5.19-2.71l3.42,4.48c.26.33.42.55.42.72,0,.44-.37.55-1.74.55-1.94.83-3.51,1.49-4.51,1.88-10.55,4.25-11.5,4.7-14.38,7a7.6,7.6,0,0,0-3.1,6c0,3.6,2.57,5,9.45,5a56.7,56.7,0,0,0,15-1.77A62.63,62.63,0,0,0,243,46.8a87.06,87.06,0,0,1-13.28.88,36.64,36.64,0,0,1-9.29-.94c-4.83-1.38-7.19-4.36-7.19-9.28,0-5.3,3.46-10,10-13.54C222,20,221.91,19,221.38,8.34c0-1.54-.15-2.65-.36-5.3l5.82.27a.79.79,0,0,1,.84.67c0,.33-.21.66-.68,1.05Z"/><path class="cls-1" d="M280.7,9.78A67.23,67.23,0,0,1,272,13c.74,2.1,1.79,4.75,2.47,6.13a44.91,44.91,0,0,0,8.92-4.53l2.42,4.75a53.52,53.52,0,0,1-9.24,4.42,68.16,68.16,0,0,0,7.56,11.94l-3.89,3.48c-4.14-3.1-7.19-4.2-11.39-4.2-4.56,0-7.14,1.82-7.14,5.14s3.1,4.75,9.92,4.75a44.8,44.8,0,0,0,6.67-.5,16.46,16.46,0,0,0-1.15,6.13c-2.05.06-2.94.06-4.52.06-5.35,0-8.24-.44-10.92-1.6a9.35,9.35,0,0,1-5.51-8.62c0-6,4.94-10,12.49-10A19.85,19.85,0,0,1,275,31.44c-1-1.6-2.89-5.2-3.31-6A34.41,34.41,0,0,1,263,27.13c-3.84,0-5.78-1.6-5.78-4.92a9.72,9.72,0,0,1,.89-3.87l4.62,1a3.59,3.59,0,0,0-.47,1.6c0,.66.26.94,1.05.94a25.64,25.64,0,0,0,6.19-1.16c-.47-1-1.83-4.42-2.52-6.24a127.43,127.43,0,0,1-13.38,2.37l-1-5.41a105.6,105.6,0,0,0,12.86-1.88c-.1-.28-.63-2.16-.94-3.26-.89-3.1-1.37-4.7-1.42-4.86l6-.45h.11a.67.67,0,0,1,.68.67c0,.38-.05.55-.79,1.1.37,1.83.84,3.59,1.37,5.42a51.19,51.19,0,0,0,8-3.32Z"/><path class="cls-1" d="M305.05,5.58c.63.11.94.44.94.83s-.42.83-1.42,1.16c-1.68,9.45-2.15,14.2-2.15,21.11A61,61,0,0,0,305,48a32.67,32.67,0,0,0-5.4,2.05C297.7,44,297,38.23,297,28.18a136.42,136.42,0,0,1,1.52-17.68c.52-4.15.68-5.25.73-6.08Zm24.88,29.67A38.68,38.68,0,0,1,339.79,42c-1.41,1.33-1.47,1.44-3.51,4.31a36.4,36.4,0,0,0-6.41-5.3c-.36,5.3-3.72,7.9-10.18,7.9-6.77,0-10.5-2.93-10.5-8.12,0-4.59,3.94-7.57,10.08-7.57a38.49,38.49,0,0,1,5.35.6c.06-.77.06-1.1.06-1.6,0-.77-.11-4-.21-6a22.56,22.56,0,0,1-3.94.28c-3.52,0-5.14-.39-6.19-1.6a6.28,6.28,0,0,1-1.47-4.15c0-1.93.57-3.37,2.36-5.52l3.78,2.6c-.84.88-1.16,1.43-1.16,2.1,0,.93.63,1.27,2.21,1.27a39.78,39.78,0,0,0,4.3-.34c-.1-2.81-.42-7.29-.58-8.34l5.57.28a.77.77,0,0,1,.84.77.86.86,0,0,1-.42.78l-.37.33c.05,1.32.21,4.31.21,5.63a67.76,67.76,0,0,0,7.72-1.82l1.1,5.36a65.49,65.49,0,0,1-8.71,1.82ZM310.29,8.45a71.52,71.52,0,0,1,17.27-2c2.16,0,4.36,0,8.14.06l-.16,5.58c-2.78-.22-4.83-.28-7.45-.28a61.36,61.36,0,0,0-16.54,1.77Zm9,29.51c-3.15,0-4.93,1-4.93,2.93s1.89,2.87,5,2.87a6.79,6.79,0,0,0,3.68-.88,3.14,3.14,0,0,0,1.31-2.38c.1-.88.16-1.16.21-1.71A17,17,0,0,0,319.27,38Z"/><path class="cls-1" d="M362.2,7.29c0,6.63.37,11.05,1.16,14.31,2.88-1.32,4.67-2.1,5.3-2.43a33.86,33.86,0,0,0,5.2-2.71l3.41,4.48c.31.44.42.55.42.72,0,.44-.37.55-1.73.55-1.95.83-3.52,1.49-4.52,1.88-10.55,4.25-11.49,4.7-14.38,7a7.63,7.63,0,0,0-3.1,6c0,3.6,2.57,5,9.45,5a56.7,56.7,0,0,0,15-1.77,62.63,62.63,0,0,0-.21,6.52,87.06,87.06,0,0,1-13.28.88,36.7,36.7,0,0,1-9.29-.94c-4.83-1.38-7.19-4.36-7.19-9.28,0-5.3,3.46-10,10-13.54-1.2-4-1.31-4.91-1.83-15.58-.06-1.54-.16-2.65-.37-5.3l5.83.27a.8.8,0,0,1,.84.67c0,.33-.21.66-.69,1.05Zm13.7.83a35.44,35.44,0,0,1,6.67,5.53l-2.62,3a32.28,32.28,0,0,0-6.36-5.69Zm4.1-5a35.94,35.94,0,0,1,6.61,5.53l-2.62,3a33,33,0,0,0-6.3-5.75Z"/><path class="cls-1" d="M389.91,35A71.69,71.69,0,0,1,400.2,47.46l-4.77,3.81a64.66,64.66,0,0,0-9.61-12.48Z"/></g></g></svg>