<svg xmlns="http://www.w3.org/2000/svg" viewBox="0 0 75.83 452.77"><g id="レイヤー_2" data-name="レイヤー 2"><g id="scene"><path d="M.29,419.91A32.66,32.66,0,0,1,5.1,402.8a33.5,33.5,0,0,1,13.43-12.5,41.22,41.22,0,0,1,19.41-4.52,41.51,41.51,0,0,1,19.48,4.54A33.93,33.93,0,0,1,71,402.8a31.69,31.69,0,0,1,4.86,16.82,30.29,30.29,0,0,1-4.76,16.31,34.32,34.32,0,0,1-13.62,12.23,41.87,41.87,0,0,1-19.66,4.61,41,41,0,0,1-19.21-4.46A34.07,34.07,0,0,1,5.15,436.07,30,30,0,0,1,.29,419.91Zm3.76-.78A18.39,18.39,0,0,0,12,434.56q7.92,5.91,25.78,5.91,19.4,0,26.81-6.06t7.42-15a18.44,18.44,0,0,0-3.37-11q-3.36-4.74-10.69-7.55t-19.24-2.8q-13,0-20.29,2.63T7.57,408.24A18.18,18.18,0,0,0,4.05,419.13Z"/><path d="M28.27,350.19V338.77h4.25v11.42h33.4a4.07,4.07,0,0,0,3.22-1.07,6.25,6.25,0,0,0,1.22-4.1v-6.25H74v28H70.36v-3.86a5.59,5.59,0,0,0-.88-3.61,3.37,3.37,0,0,0-2.73-1H32.52v7.91H28.27V358.3H24.8q-12.07,0-18.44-5T0,340.85q0-5.5,2.69-8.61a8.86,8.86,0,0,1,7-3.09,6.39,6.39,0,0,1,4.46,1.49,4.85,4.85,0,0,1,1.64,3.78,4.66,4.66,0,0,1-1.32,3.4,4.47,4.47,0,0,1-3.32,1.34,4.69,4.69,0,0,1-3.76-1.76c-.78-.94-1.37-1.41-1.76-1.41a1.88,1.88,0,0,0-1.51,1.09,6.27,6.27,0,0,0-.68,3.28,8.57,8.57,0,0,0,3.68,7q3.69,2.85,11,2.84Z"/><path d="M28.27,304.74V293.32h4.25v11.42h33.4a4.07,4.07,0,0,0,3.22-1.07,6.25,6.25,0,0,0,1.22-4.1v-6.25H74v28H70.36v-3.85a5.64,5.64,0,0,0-.88-3.62,3.4,3.4,0,0,0-2.73-1H32.52v7.91H28.27v-7.91H24.8q-12.07,0-18.44-5T0,295.4q0-5.5,2.69-8.61a8.86,8.86,0,0,1,7-3.09,6.35,6.35,0,0,1,4.46,1.49A4.85,4.85,0,0,1,15.82,289a4.66,4.66,0,0,1-1.32,3.4,4.47,4.47,0,0,1-3.32,1.34A4.69,4.69,0,0,1,7.42,292c-.78-.94-1.37-1.42-1.76-1.42-.55,0-1,.37-1.51,1.1a6.24,6.24,0,0,0-.68,3.28,8.57,8.57,0,0,0,3.68,7q3.69,2.84,11,2.84Z"/><path d="M31.84,273V253.22h7.42V273Z"/><path d="M9.62,220.25V217H28.27V202.18h4.49V217H62.11a8.5,8.5,0,0,0,5.83-1.8,5.87,5.87,0,0,0,2-4.59,6.93,6.93,0,0,0-3.08-5.67q-3.07-2.34-10.15-2.73v-3.27q9.13.28,13.55,4.15a12.69,12.69,0,0,1,4.42,10c0,3.77-1,6.73-3.1,8.86a10.83,10.83,0,0,1-8.13,3.2H32.76v8H29.35a12.83,12.83,0,0,0-4.55-8.29Q19.39,220.59,9.62,220.25Z"/><path d="M1,170.91a5.26,5.26,0,0,1,1.66-3.85,5.32,5.32,0,0,1,3.9-1.66A5.17,5.17,0,0,1,10.35,167,5.23,5.23,0,0,1,12,170.87a5.31,5.31,0,0,1-1.63,3.88,5.32,5.32,0,0,1-7.69,0A5.21,5.21,0,0,1,1,170.91Zm27.29,12.7-.54-18.21H67.09a2.91,2.91,0,0,0,2.29-.78,4.14,4.14,0,0,0,1-2.84v-5.17H74v26H70.36V177.8a4.19,4.19,0,0,0-1-3.15,4.25,4.25,0,0,0-3-1H37.45a5.22,5.22,0,0,0-4.12,1.56,6.77,6.77,0,0,0-1.4,4.64v3.76Z"/><path d="M28.27,137.29l-.83-13.08a73.35,73.35,0,0,1,9.72-1.42,25.29,25.29,0,0,1-7.53-7.43,15.8,15.8,0,0,1-2.19-8.17,12.08,12.08,0,0,1,2.48-7.82q2.49-3.09,8.07-4.75a24.78,24.78,0,0,1-7.92-7.26,15.61,15.61,0,0,1-2.63-8.73q0-6.24,3.71-9.36,4.89-4,12.6-4H66.46a3.23,3.23,0,0,0,2.78-1,6.26,6.26,0,0,0,1.12-4.06V57.9H74v23H70.36V78.6c0-1.95-.32-3.32-1-4.1a3.6,3.6,0,0,0-2.93-1.17H43.71c-3.38,0-6,.83-7.87,2.48a8.36,8.36,0,0,0-2.78,6.53,9.9,9.9,0,0,0,1.63,5.56,11.06,11.06,0,0,0,4.67,3.89,17.74,17.74,0,0,0,7.39,2.1h19.7a3.75,3.75,0,0,0,3-1.08,4.91,4.91,0,0,0,1-3.32V86.37H74v23.34H70.36v-2.64a5.81,5.81,0,0,0-1-3.71,3.06,3.06,0,0,0-2.49-1.22H45.8q-6.69,0-9.72,2.37a7.68,7.68,0,0,0-3,6.37,9.57,9.57,0,0,0,3.51,8,18.18,18.18,0,0,0,11.62,4H66.46a3.64,3.64,0,0,0,2.88-.93,6.66,6.66,0,0,0,1-4.1v-2.34H74v23H70.36V135a4.2,4.2,0,0,0-1-3A3.25,3.25,0,0,0,66.89,131h-30a4.92,4.92,0,0,0-3.71,1.27c-.81.84-1.33,2.54-1.56,5.07Z"/><path d="M51.46.39V33.15q10.45-.24,14.75-3.9A13.56,13.56,0,0,0,71,18.55Q71,9,60.16,3.17L61.52,0Q75.4,7.13,75.39,20.61a20.4,20.4,0,0,1-6.64,15.45q-6.65,6.27-17,6.27-11.13,0-18-6.17A19.69,19.69,0,0,1,26.9,21,19.38,19.38,0,0,1,30.32,9.47,20.64,20.64,0,0,1,40.14,2.2,33.6,33.6,0,0,1,51.46.39ZM48,33.15V13.33a3.32,3.32,0,0,0-1.2-2.73,6.48,6.48,0,0,0-4.08-1A13.25,13.25,0,0,0,33.59,13a10.27,10.27,0,0,0-3.76,7.89,10.6,10.6,0,0,0,4.55,8.62Q38.91,33,48,33.15Z"/></g></g></svg>