<svg xmlns="http://www.w3.org/2000/svg" viewBox="0 0 304.25 80.85"><g id="レイヤー_2" data-name="レイヤー 2"><g id="scene"><path d="M44.07,15.54l-8.77,5.2c-1.64-2.85-3.2-4.7-4.68-5.57a11,11,0,0,0-6-1.49,11.07,11.07,0,0,0-7.47,2.56,7.9,7.9,0,0,0-3,6.3q0,5.25,7.8,8.45l7.14,2.92q8.72,3.53,12.76,8.6a19.41,19.41,0,0,1,4,12.46A21.88,21.88,0,0,1,39.34,71.3a22.63,22.63,0,0,1-16.47,6.49q-9.33,0-15.4-5.52T0,56.73l11-2.41c.49,4.21,1.36,7.11,2.59,8.72q3.34,4.63,9.75,4.64a11.27,11.27,0,0,0,8.39-3.39A11.69,11.69,0,0,0,35,55.71a12,12,0,0,0-.58-3.83,9.64,9.64,0,0,0-1.81-3.2A14.71,14.71,0,0,0,29.46,46a30.61,30.61,0,0,0-4.64-2.44l-6.91-2.88Q3.2,34.42,3.2,22.45A17.27,17.27,0,0,1,9.37,9,22.27,22.27,0,0,1,24.72,3.48Q37.11,3.48,44.07,15.54Z"/><path d="M112.44,8.72v12.8q-9.37-7.83-19.39-7.84a24.71,24.71,0,0,0-18.61,7.94,26.73,26.73,0,0,0-7.6,19.29,26.09,26.09,0,0,0,7.6,19,25.13,25.13,0,0,0,18.65,7.75,22.84,22.84,0,0,0,9.7-1.86,27.43,27.43,0,0,0,4.61-2.5,53.47,53.47,0,0,0,5-3.81v13A39.11,39.11,0,0,1,93,77.79,36,36,0,0,1,66.74,67.08,35.56,35.56,0,0,1,55.94,41a36.75,36.75,0,0,1,9-24.4Q76.11,3.48,93.79,3.48A36.62,36.62,0,0,1,112.44,8.72Z"/><path d="M167.54,15H138.83V32.24h27.88V42.4H138.83V66.33h28.71V76.49H128V4.87h39.52Z"/><path d="M183.21,76.49V0l52.23,54.64V4.87h10.81v76L194,26.35V76.49Z"/><path d="M304.25,15H275.54V32.24h27.88V42.4H275.54V66.33h28.71V76.49H264.73V4.87h39.52Z"/></g></g></svg>