<svg xmlns="http://www.w3.org/2000/svg" viewBox="0 0 629.74 31.71"><defs><style>.cls-1{fill:#231815;}</style></defs><g id="レイヤー_2" data-name="レイヤー 2"><g id="scene"><path class="cls-1" d="M20.58,5.57c0,.49-.7.8-1.43,1.22-1.3.74-6.76,5.67-8.4,7-.14.14-.39.35-.39.56a.29.29,0,0,0,.32.25c.42,0,12.07-3.12,13.3-3.5A1.54,1.54,0,0,1,24.4,11c.28,0,.42.31.49.52s.35,2.38.35,2.7c0,.66-.35.66-1.4.8a19.3,19.3,0,0,0-7.21,2.38c-2,1.19-4.73,3.36-4.73,5.92,0,3,4.55,3.46,6.79,3.6.35,0,.7,0,.7.49A13.29,13.29,0,0,1,18.76,30a1,1,0,0,1-1.05.7A17.07,17.07,0,0,1,13,29.61c-2.59-1-4.86-2.87-4.86-5.88,0-2.41,1.36-3.95,3-5.46a.41.41,0,0,0,.18-.31.34.34,0,0,0-.35-.32c-.25,0-2.07.53-2.45.63-1.44.42-4.8,1.54-6.2,2.1a2.77,2.77,0,0,1-.94.28C.63,20.65,0,18.24,0,17.57s.46-.56,1.61-.84a4.32,4.32,0,0,0,2.24-1.05c2.94-2.27,6.55-5.7,9.31-8.26A.61.61,0,0,0,13.41,7a.29.29,0,0,0-.32-.28c-.28,0-3.92,1-4.44,1.12A3.37,3.37,0,0,1,7.84,8C7,8,6.51,5.46,6.51,4.79s.35-.7,1-.76c2-.18,8-1,9.63-1.79a2.44,2.44,0,0,1,.8-.32C19,1.92,20.58,4.76,20.58,5.57Z"/><path class="cls-1" d="M33.92,16.91A108.33,108.33,0,0,1,41.24,4.55c.52-.84,1-1.58,1.43-2.42.11-.17.28-.52.53-.52a9,9,0,0,1,2,1.33c.35.24,1.61,1.12,1.61,1.51s-.32.52-.63.55a1.56,1.56,0,0,0-.91.46A35.89,35.89,0,0,0,43,8.33c-.49.67-3.53,5.11-3.53,5.6a.37.37,0,0,0,.35.35,1.47,1.47,0,0,0,.63-.24,7.85,7.85,0,0,1,3.71-1.19,4.16,4.16,0,0,1,3.71,2.06,5.88,5.88,0,0,1,.38,2.21,18.42,18.42,0,0,1-.45,3.39,20.08,20.08,0,0,0-.56,3.43c0,.6.21,1.33.91,1.33,2,0,5.29-4.23,6.37-5.77.17-.21.42-.49.7-.49.63,0,1.82,2.76,1.82,3.25a1.33,1.33,0,0,1-.39.77c-.8.81-1.6,1.61-2.45,2.38-1.92,1.75-4.3,3.68-7,3.68-2.49,0-3.5-2.14-3.5-4.34a22.94,22.94,0,0,1,.45-4.06,15.39,15.39,0,0,0,.39-2.84c0-.91-.32-1.61-1.33-1.61a6.5,6.5,0,0,0-3,1,10.41,10.41,0,0,0-3.57,3.19,24.06,24.06,0,0,0-3.22,7.35c-.11.45-.18,1.08-.77,1.08s-3.36-1-3.36-1.61c0,0,.59-1.47.63-1.54C31.19,22.75,32.49,19.81,33.92,16.91Z"/><path class="cls-1" d="M76,2c.17.07.56.17.56.42s-.25.38-.56.63a5.92,5.92,0,0,0-.63,1.86,10.85,10.85,0,0,0-.39,1.57.41.41,0,0,0,.39.46,16,16,0,0,0,2-.53,1.15,1.15,0,0,1,.35-.07c.42,0,.46.63.53,1a16.69,16.69,0,0,1,.17,1.86c0,.77-.42.84-3.64,1.43-1.26.21-1.22.46-1.64,1.61a88.82,88.82,0,0,1-5.71,12.46c-.21.35-.31.49-.7.49-.77,0-3.11-1-3.11-1.75a3.82,3.82,0,0,1,.63-1.26,65.59,65.59,0,0,0,4.16-8.08A13.47,13.47,0,0,0,69.17,12a.47.47,0,0,0-.49-.45c-.28,0-3,.35-3.78.35-.6,0-.74-.32-.88-1.12-.07-.42-.24-1.68-.24-2s.24-.56.63-.56H66A31,31,0,0,0,69.62,8c.46-.07.77-.1,1-.56a21.22,21.22,0,0,0,1.12-5.88c0-.25,0-.6.32-.6S75.4,1.79,76,2Zm5,10.43c.38.11.7.32.7.74,0,.07-.07,1.12-.07,1.85,0,1,.17,6.06.35,6.79.1.53.56.67,1.08.88.11,0,.25.1.36.14.8.31,4.93,2.24,4.93,3.08,0,.56-1.3,2.55-2.17,2.55-.35,0-.67-.31-.91-.49a10,10,0,0,0-2.8-1.61c-.39,0-.53.49-.56.81-.42,2.55-2.49,3.43-4.87,3.43-2.83,0-6.16-1.51-6.16-4.76s3.05-4.34,5.81-4.34h.91c.42,0,.74-.18.74-.6,0-1.12-.53-6.19-.63-7.56,0-.17,0-.31,0-.49,0-.56.32-.77.84-.77A14.64,14.64,0,0,1,81,12.39ZM74.45,25.73c0,1.08,1.4,1.64,2.31,1.64,1.26,0,1.82-.66,1.82-1.89,0-.7,0-1.08-1.78-1.08C76,24.4,74.45,24.61,74.45,25.73Zm15.3-13.37c0,.84-2,2.41-2.63,2.41-.34,0-.59-.38-.77-.63A19.89,19.89,0,0,0,82,9.63c-.14-.11-.46-.32-.46-.56,0-.49,1.61-2.42,2.35-2.42S89.75,11.45,89.75,12.36Z"/><path class="cls-1" d="M117.54,11.24c.88,0,1.75,0,2.59,0,1.51,0,2.42,1.79,2.42,2.38a7.48,7.48,0,0,1-.67,2,27.18,27.18,0,0,1-5.32,7.84.81.81,0,0,0-.28.59.77.77,0,0,0,.35.63,24.52,24.52,0,0,0,6.9,3.4c.52.17,1,.31,1,.84s-1,2.55-1.89,2.55a17.71,17.71,0,0,1-2.84-1.05,31.29,31.29,0,0,1-5.7-3.57,1.11,1.11,0,0,0-.74-.31,1.15,1.15,0,0,0-.73.28,47.18,47.18,0,0,1-5.57,3.6,8.57,8.57,0,0,1-2.38,1c-1,0-1.78-1.68-1.78-2.34s.52-.7,1.29-1.09a40.31,40.31,0,0,0,6-3.5.82.82,0,0,0,.39-.63,1.22,1.22,0,0,0-.25-.63,16.09,16.09,0,0,1-2.1-3.29c-.14-.24-.28-.42-.56-.42a.62.62,0,0,0-.49.28c-.45.49-2.06,2.42-2.66,2.42a3.2,3.2,0,0,1-2.13-2.1c0-.35.42-.74.66-1A29.19,29.19,0,0,0,110.4,8.61a.87.87,0,0,0,.07-.31c0-.42-.35-.56-.7-.6h-4.69c-.14,0-.24.07-.24.21a.24.24,0,0,0,.14.21l.45.21c.56.28,1.09.53,1.09.91s-.56.39-.77.46a.75.75,0,0,0-.56.45c-1,1.51-2.77,3.68-3.92,5.11a.33.33,0,0,0-.11.25c0,.21.14.28.35.31s.88.07.88.53c0,.24-.18.31-.49.52s-.42.67-.42,1.82V26.6c0,1.19.07,2.38.07,3.57s-.21,1.4-1.68,1.4S98,31.47,98,30.17s.07-2.38.07-3.57v-7c0-.25-.07-.49-.35-.49a.46.46,0,0,0-.35.17c-.59.53-2.1,2-2.87,2s-1.72-1.89-1.72-2.35.81-1.08,1.16-1.36a34.43,34.43,0,0,0,8-9,.52.52,0,0,0,.11-.32c0-.35-.28-.45-.6-.49H98.29c-1.4,0-2.76.11-4.13.11-.87,0-.84-.39-.84-1.69s0-1.71.84-1.71c1.37,0,2.73.07,4.13.07H106c.7,0,1-.28,1-1a16.24,16.24,0,0,0-.1-2.31c0-.11,0-.28,0-.39,0-.49.25-.56.84-.56.39,0,2.28.18,2.77.25.31,0,1,0,1,.49,0,.21-.14.28-.45.49s-.35.74-.35,1.36v.71c.07.7.28.94,1,.94h7.7c1.36,0,2.73-.07,4.13-.07.84,0,.8.38.8,1.71s0,1.69-.8,1.69c-1.37,0-2.77-.11-4.13-.11h-5.46c-.07,0-.18,0-.18.14a.15.15,0,0,0,.11.11c.49.17,1,.28,1,.66s-.49.46-.74.56-.35.28-.56.81a3,3,0,0,0-.24.73c0,.39.31.49.63.53Zm-7.42,5.25a1.39,1.39,0,0,0,.18.66,15.45,15.45,0,0,0,2.48,4,.86.86,0,0,0,.67.35,1,1,0,0,0,.63-.31,19.31,19.31,0,0,0,4.2-6.09,2.22,2.22,0,0,0,.21-.63c0-.28-.39-.32-.95-.32h-5.18a1.46,1.46,0,0,0-1.47.74c-.14.24-.31.49-.45.73A1.36,1.36,0,0,0,110.12,16.49Zm3.75,3.32c-.35,0-.53-.31-1-1.19-.28-.52-.67-1.26-1.26-2.27a.52.52,0,0,1-.11-.32c0-.49,1.58-1.29,1.89-1.29.46,0,.74.52,1.3,1.54a8,8,0,0,1,1.05,2.31C115.76,19.15,114.36,19.81,113.87,19.81Z"/><path class="cls-1" d="M136.16,4.72c.28.11.7.25.7.6s-.14.25-.49.46c-.6.31-.74.63-1.09,1.5a27.92,27.92,0,0,0-2,9.94c0,.67.14,4.9,1,4.9.31,0,.8-1,.94-1.36s.42-.84.74-.84,1.26.73,1.26,1.12-1.4,3.5-1.4,5.07c0,.35.1,1.16.14,1.47a3.88,3.88,0,0,1,.07.53c0,.87-2,1.71-2.73,1.71s-1-.77-1.47-1.71a24.06,24.06,0,0,1-2.14-10.75,41.69,41.69,0,0,1,1.79-11.58A16.68,16.68,0,0,0,131.92,4c.07-.32.14-.78.53-.78S135.67,4.51,136.16,4.72Zm4.34,16.74a6,6,0,0,0,5.32,2.45,28.67,28.67,0,0,0,7.7-1.12,2.49,2.49,0,0,1,.73-.14c.57,0,.63.84.63,2.62,0,.42,0,1.05-.42,1.3-1,.52-6.89,1.05-8.29,1.05-5.67,0-8-2.94-8-3.5s1.23-3,1.89-3C140.25,21.14,140.39,21.32,140.5,21.46Zm1.26-15.3a22,22,0,0,0,4.58.53,23,23,0,0,0,5.33-.7,2.85,2.85,0,0,1,.62-.11c.5,0,.63.42.71.84.06.63.13,1.26.13,1.89s0,1-.66,1.16a40.79,40.79,0,0,1-5.88.49c-1.09,0-5.39-.21-6.13-.7-.38-.25-.35-1-.35-1.37,0-1.68.18-2.2.74-2.2A4.65,4.65,0,0,1,141.76,6.16Z"/><path class="cls-1" d="M162.16,21.91c.81,0,6.83,4.83,6.83,5.71s-1.75,2.69-2.56,2.69c-.28,0-.52-.31-.7-.52A21.37,21.37,0,0,0,160.41,25c-.24-.14-.63-.35-.63-.67A4.82,4.82,0,0,1,162.16,21.91Z"/><path class="cls-1" d="M186.52,29.19c-1.64,0-4.41.07-4.65.07-.74,0-1-.24-1-1,0-.24.07-4,.07-6V11.41c0-2-.11-5.88-.11-6.12,0-.74.21-.88,1-.88h2.24c.8,0,1,.14,1,.88,0,.24-.1,4.09-.1,6.12V24.47c0,.87.17,1.05,1,1.05h3.18c1.68,0,4.83-.11,5.08-.11.73,0,.87.21.87,1v1.82c0,.8-.14,1-.87,1-.25,0-3.4-.07-5.08-.07Z"/><path class="cls-1" d="M208.18,25.52c1.68,0,4.83-.11,5.08-.11.73,0,.87.21.87,1v1.82c0,.8-.14,1-.87,1-.25,0-3.4-.07-5.08-.07h-2.69c-1.65,0-4.42.07-4.66.07-.77,0-1-.28-1-1.12,0-2,.07-4.16.07-5.84v-11c0-1.72,0-4.06-.07-5.85,0-.84.21-1.12,1-1.12.24,0,3,.07,4.66.07h2c1.67,0,4.83-.07,5.07-.07.74,0,.88.21.88,1V7.25c0,.8-.14,1-.88,1-.24,0-3.4-.1-5.07-.1H205c-.88,0-1.05.17-1.05,1.05v4c0,.87.17,1.05,1.05,1.05h1.75c1.65,0,4.83-.07,5.08-.07.73,0,.87.21.87,1v1.72c0,.8-.14,1-.87,1-.25,0-3.43-.07-5.08-.07H205c-.88,0-1.05.18-1.05,1v5.57c0,.87.17,1.05,1.05,1.05Z"/><path class="cls-1" d="M223.4,21.88c0,1.22,0,5.46,0,6.26s-.17,1.05-1.05,1.05h-2.1c-.77,0-1-.17-1-.7s.21-4.3.24-6.82l.18-10.47c0-1.75,0-5,0-5.74,0-.88.14-1,1-1h1.15a1.67,1.67,0,0,1,1.68.84c1,1.33,2,2.63,3,3.89l4.77,6c.28.35.45.52.66.52s.39-.17.67-.52l4.65-5.92c1-1.26,2.07-2.62,3.08-4a1.68,1.68,0,0,1,1.68-.84h1.16c.87,0,1.05.17,1.05,1,0,.53,0,3.26,0,5.74l.17,10.47c0,1.85.21,5.95.21,6.47,0,.95-.1,1.05-1,1.05h-2.13c-.88,0-1-.17-1-1.05s.07-4.34,0-6.23l-.18-9c0-.35-.1-.56-.24-.56s-.28.1-.46.31l-7,8.65a1,1,0,0,1-.73.42.91.91,0,0,1-.7-.42l-6.93-8.65c-.18-.21-.32-.31-.46-.31s-.25.21-.25.56Z"/><path class="cls-1" d="M274.11,16.49c0,8.22-5.84,12.91-12.57,12.91-7.59,0-11.93-5.88-11.93-12.42,0-7.74,5.21-12.78,12.5-12.78C269.74,4.2,274.11,9.94,274.11,16.49Zm-20.3.52c0,4.73,2.87,8.54,7.88,8.54,4.55,0,8.22-3.32,8.22-8.85,0-4.69-2.9-8.47-7.91-8.47S253.81,12,253.81,17Z"/><path class="cls-1" d="M283.34,22.19c0,2,.1,5.88.1,6.13,0,.73-.21.87-1,.87h-2.1c-.81,0-1-.14-1-.87,0-.25.11-4.1.11-6.13V11.06c0-2-.11-5.53-.11-5.77,0-.74.21-.88,1-.88h1.15a1.67,1.67,0,0,1,1.68.84c1.09,1.44,2.21,2.8,3.33,4.17l8.75,10.92c.18.21.31.31.42.31s.25-.21.25-.56V11.41c0-2-.11-5.88-.11-6.12,0-.74.21-.88,1-.88h2.1c.8,0,1,.14,1,.88,0,.24-.1,4.09-.1,6.12V22.54c0,1.93.1,5.53.1,5.78,0,.73-.21.87-1,.87h-.7a1.64,1.64,0,0,1-1.68-.84c-1.05-1.33-2.07-2.59-3.23-4L284,12.88c-.17-.21-.31-.31-.42-.31s-.24.21-.24.56Z"/><path class="cls-1" d="M307.37,14.21c-.53,0-.77-.07-.77-.28a1.45,1.45,0,0,1,.24-.59,11.26,11.26,0,0,0,1.33-3.47c0-.38-.28-.59-.77-.73a2.29,2.29,0,0,1-1.82-2.28,2.53,2.53,0,0,1,2.77-2.66c1.23,0,2.52.77,2.52,2.91a15.68,15.68,0,0,1-1.65,6.16,1.28,1.28,0,0,1-1.47.94Z"/><path class="cls-1" d="M332.14,22.26c0,4.52-3.4,7.18-8.79,7.18A15.82,15.82,0,0,1,316,27.62c-.46-.25-.67-.46-.67-.77a1.81,1.81,0,0,1,.21-.7l.88-1.82c.21-.46.35-.7.59-.7a1.34,1.34,0,0,1,.67.35,11,11,0,0,0,6,1.82c2.62,0,4.34-1.23,4.34-3.19s-2.24-3.11-5.15-4.3c-3.4-1.4-7-3.12-7-7.32s3.47-6.82,8.79-6.82a15.29,15.29,0,0,1,6,1.29c.49.25.73.42.73.74a2.2,2.2,0,0,1-.17.66l-.81,2.07c-.21.49-.35.73-.56.73a1.44,1.44,0,0,1-.7-.31,10.18,10.18,0,0,0-5-1.37c-2.8,0-4.16,1.23-4.16,2.87,0,1.82,1.82,2.73,4.72,4C328.43,16.35,332.14,18.06,332.14,22.26Z"/><path class="cls-1" d="M350.27,22.19c0,2,.1,5.88.1,6.13,0,.73-.21.87-1,.87h-2.18c-.8,0-1-.14-1-.87,0-.25.11-4.1.11-6.13V11.31c0-1.72,0-4-.07-5.85,0-.84.21-1.12,1-1.12.25,0,3,.07,4.66.07h2c1.68,0,4.83-.07,5.08-.07.73,0,.87.21.87,1V7.25c0,.8-.14,1-.87,1-.25,0-3.4-.1-5.08-.1h-2.48c-.88,0-1.05.17-1.05,1.05v4.06c0,.87.17,1.05,1.05,1.05h1.75c1.64,0,4.83-.07,5.07-.07.74,0,.88.21.88,1V17c0,.8-.14,1-.88,1-.24,0-3.43-.07-5.07-.07h-1.75c-.88,0-1.05.18-1.05,1Z"/><path class="cls-1" d="M368.51,22.19c0,2,.1,5.88.1,6.13,0,.73-.21.87-1,.87h-2.17c-.81,0-1-.14-1-.87,0-.25.11-4.1.11-6.13V11.34c0-1.71,0-3.92-.07-5.88,0-.84.21-1.12,1-1.12.24,0,3,.07,4.65.07h3.08c4.52,0,7.84,1.75,7.84,6.83a7.67,7.67,0,0,1-4.23,7.14c-.42.24-.63.42-.63.63a1.26,1.26,0,0,0,.35.7l1.12,1.54c1.68,2.24,3.08,4.09,5.39,7a1.24,1.24,0,0,1,.28.56c0,.25-.32.35-.84.35h-2.91a1.51,1.51,0,0,1-1.61-.87c-1.47-2.24-2.8-4.06-4.09-5.81l-1.4-2a1.66,1.66,0,0,0-1.68-.84h-1.19c-.88,0-1.05.17-1.05,1.05Zm0-7c0,.87.17,1.05,1.05,1.05h2.34c2.63,0,5-1.12,5-4.55C376.87,8.68,375,8,372.81,8h-3.25c-.88,0-1.05.17-1.05,1.05Z"/><path class="cls-1" d="M395.9,25.52c1.68,0,4.83-.11,5.08-.11.73,0,.87.21.87,1v1.82c0,.8-.14,1-.87,1-.25,0-3.4-.07-5.08-.07h-2.69c-1.65,0-4.42.07-4.66.07-.77,0-1-.28-1-1.12,0-2,.07-4.16.07-5.84v-11c0-1.72,0-4.06-.07-5.85,0-.84.21-1.12,1-1.12.24,0,3,.07,4.66.07h2c1.68,0,4.83-.07,5.07-.07.74,0,.88.21.88,1V7.25c0,.8-.14,1-.88,1-.24,0-3.39-.1-5.07-.1h-2.49c-.87,0-1.05.17-1.05,1.05v4c0,.87.18,1.05,1.05,1.05h1.75c1.65,0,4.83-.07,5.08-.07.73,0,.87.21.87,1v1.72c0,.8-.14,1-.87,1-.25,0-3.43-.07-5.08-.07h-1.75c-.87,0-1.05.18-1.05,1v5.57c0,.87.18,1.05,1.05,1.05Z"/><path class="cls-1" d="M415.57,25.52c1.68,0,4.83-.11,5.07-.11.74,0,.88.21.88,1v1.82c0,.8-.14,1-.88,1-.24,0-3.39-.07-5.07-.07h-2.7c-1.64,0-4.41.07-4.65.07-.77,0-1-.28-1-1.12,0-2,.07-4.16.07-5.84v-11c0-1.72,0-4.06-.07-5.85,0-.84.21-1.12,1-1.12.24,0,3,.07,4.65.07h2c1.68,0,4.83-.07,5.08-.07.73,0,.87.21.87,1V7.25c0,.8-.14,1-.87,1-.25,0-3.4-.1-5.08-.1h-2.48c-.88,0-1.05.17-1.05,1.05v4c0,.87.17,1.05,1.05,1.05h1.75c1.64,0,4.83-.07,5.07-.07.74,0,.88.21.88,1v1.72c0,.8-.14,1-.88,1-.24,0-3.43-.07-5.07-.07h-1.75c-.88,0-1.05.18-1.05,1v5.57c0,.87.17,1.05,1.05,1.05Z"/><path class="cls-1" d="M439.91,3.29c.28.07.91.17.91.56,0,.21-.14.32-.31.45-.67.49-.74,1.06-.91,2.32-.07.38-.14.87-.25,1.43a2,2,0,0,0-.07.42.68.68,0,0,0,.77.7h.42a7,7,0,0,1,4,.77c1.75,1.16,2.17,3.15,2.17,5.11,0,3.19-.56,7.91-2.1,10.71a7.15,7.15,0,0,1-6.62,3.78c-.77,0-1.26-.07-1.61-.8a7.19,7.19,0,0,1-.63-2.52c0-.32.11-.6.49-.6s.88.14,1.58.14c1.92,0,2.8-.42,3.67-2.17A20.71,20.71,0,0,0,443,15.68c0-1.71-.11-3.18-2.24-3.18-2,0-2.35.28-2.59,1.26a39.66,39.66,0,0,1-4.48,10.46,31.48,31.48,0,0,1-3.47,5,.8.8,0,0,1-.59.35c-.63,0-2.87-1.33-2.87-2.13a1.31,1.31,0,0,1,.49-.81,27.85,27.85,0,0,0,6.26-9.73,12.72,12.72,0,0,0,.88-2.66.44.44,0,0,0-.46-.45,29.76,29.76,0,0,0-4,1.22,2.58,2.58,0,0,1-.74.25c-.84,0-1.43-3.43-1.43-3.64,0-.53.59-.53,1-.56,2-.21,3.92-.7,5.85-1,.7-.14,1-.35,1.12-1.09a32.28,32.28,0,0,0,.38-4.51c0-.56-.07-1.3-.07-1.37,0-.28.11-.53.42-.53S439.39,3.15,439.91,3.29Zm14.57,11.59c0,.8-2.21,2.1-2.91,2.1-.45,0-.66-.46-.81-.81a25.67,25.67,0,0,0-4.69-7.49,1.06,1.06,0,0,1-.31-.6c0-.62,1.92-1.78,2.49-1.78C449.58,6.3,454.48,14,454.48,14.88Zm-.53-9c0,.56-1.22,1.61-1.68,1.61-.18,0-.35-.25-.49-.39a30.16,30.16,0,0,0-2.49-2.69c-.13-.15-.31-.32-.31-.49,0-.42,1.26-1.48,1.68-1.48A14,14,0,0,1,454,5.92Zm3.33-2.49C457.28,4,456,5,455.6,5c-.21,0-.32-.17-.49-.38-.81-1-1.61-1.83-2.49-2.7-.14-.11-.35-.32-.35-.49C452.27,1.05,453.6,0,454,0A14.1,14.1,0,0,1,457.28,3.43Z"/><path class="cls-1" d="M466.62,22.16c-.42,0-4.59,3.36-5.18,3.88a1.05,1.05,0,0,1-.53.28c-.7,0-2.1-2.62-2.1-3.32,0-.39.39-.49.81-.74,2-1.12,3.81-2.38,5.74-3.57,1.33-.8,1.47-.84,1.47-1.92V15.58c0-.53,0-1.05,0-1.58v-.35a.76.76,0,0,0-.77-.8l-.21,0c-.66.14-3,.56-3.57.56s-1,0-1-2.59c0-.94.07-1.08.73-1.12,1.09,0,2.31-.1,3.4-.24a1.88,1.88,0,0,0,1.29-.42A1.43,1.43,0,0,0,467,8c0-1,.07-2,.07-2.94,0-.7-.07-1.51-.07-1.65s.11-.52.46-.52c.52,0,2.87.48,3.57.63.21,0,.7.13.7.45s-.21.42-.35.56c-.53.42-.56.84-.67,1.93,0,.21-.07.48-.1.8,0,.14,0,.35,0,.49a.62.62,0,0,0,.6.6,22.43,22.43,0,0,0,2.2-.6,1.94,1.94,0,0,1,.6-.17c.8,0,.91,2.27.91,2.87,0,.91-.6.91-3.26,1.36-1.29.25-1.36.49-1.36,2.1v.49c0,.6.07,1.37.52,1.37a3.15,3.15,0,0,0,.88-.32,16.34,16.34,0,0,1,5.81-1.15c3.89,0,7.63,2.41,7.63,6.61a6.19,6.19,0,0,1-2.8,5.22c-1.79,1.22-4.94,1.57-7,1.57h-.42c-.56,0-1.29,0-1.47-.38a6.91,6.91,0,0,1-.56-2.52c0-.46.11-.91.63-.91a28.25,28.25,0,0,0,2.87.31c2,0,5-.66,5-3.22,0-2.2-2.24-3.29-4.2-3.29A13.63,13.63,0,0,0,471,19.39a1.18,1.18,0,0,0-.56,1.09c0,.42.07,1.82.1,2.31.07.73.32,3.88.32,4.23,0,1.72-2.14,2.56-3.08,2.56-.77,0-1-.74-1.3-1.33a7.12,7.12,0,0,0-2.13-2.73c-.18-.18-.42-.39-.42-.67a.8.8,0,0,1,.77-.7,8.22,8.22,0,0,1,1.78,1.09.73.73,0,0,0,.42.21c.21,0,.25-.14.25-.28S467,23.7,467,23.63s0-.35,0-.49C467,22.51,467,22.16,466.62,22.16ZM484.3,9.94c.94.74,2.69,2.21,2.69,2.59,0,.67-1.5,2.38-2.2,2.38a1.37,1.37,0,0,1-.77-.42,53.07,53.07,0,0,0-4.66-3.92c-.24-.17-.63-.45-.63-.84s1.54-2.27,2.1-2.27a10.51,10.51,0,0,1,2.63,1.82C483.74,9.49,484,9.73,484.3,9.94Z"/><path class="cls-1" d="M495.54,15.79c0-.18-.1-.35-.31-.35s-.18.07-.28.14c-.28.38-1.23,1.71-1.68,1.71-.7,0-1.93-2.13-1.93-2.73a2.1,2.1,0,0,1,.63-1.08.84.84,0,0,0,.18-.21,34.2,34.2,0,0,0,6.27-12c.14-.49.28-1,.73-1s2.35.7,2.87.84c.28.07.91.28.91.66s-.28.39-.49.46c-.52.21-.56.31-.8,1.05A50.36,50.36,0,0,1,498.7,9.8a.26.26,0,0,0,0,.18c0,.17.14.24.32.28s.84.07.84.45-.18.32-.39.49c-.38.32-.42,1-.42,2.35V25.94c0,1.57.11,3.11.11,4.69,0,1-.35,1.08-1.79,1.08s-1.89-.07-1.89-1.12c0-1.54.1-3.08.1-4.65ZM509.3,24.4c-.42,0-.52.07-.84.49a33.48,33.48,0,0,1-5.39,5.77c-.28.25-.91.81-1.26.81-.56,0-2.34-1.12-2.34-1.82,0-.35.49-.67.73-.88a31.53,31.53,0,0,0,5.88-6.23c.11-.21.25-.45.53-.45a9.38,9.38,0,0,1,2.27,1.15,6.46,6.46,0,0,0,.56.35c.18.11.39.21.39.46S509.55,24.4,509.3,24.4ZM502,10.71c-.84,0-.84-.49-.84-1.71s0-1.72.91-1.72c.63,0,1.82,0,2.48.07s.91-.35.91-1v-3a15.06,15.06,0,0,0-.1-2.17,1,1,0,0,1,0-.34c0-.42.28-.5.63-.5s2.8.25,3.19.32.59.1.59.42-.17.31-.42.52-.38.84-.38,1.9V6.37c0,.7.28,1,.94,1h3.68c.7,0,1-.28,1-1V4a24.86,24.86,0,0,0-.14-2.8c0-.11,0-.21,0-.31,0-.42.28-.5.63-.5s2.8.25,3.22.29c.25,0,.6.1.6.45s-.18.31-.46.52S518,2.48,518,3.5V6.37a.84.84,0,0,0,.87,1c.77,0,2.28-.07,2.91-.07.94,0,.87.46.87,1.72s.07,1.71-.77,1.71-2-.07-2.94-.07c-.66,0-.94.32-.94.95v5.14c0,.67.28.95,1,.95,1.12,0,2.24-.07,3.32-.07.91,0,.88.49.88,1.71s0,1.68-.88,1.68c-1.26,0-2.55-.07-3.85-.07H505.1c-1.26,0-2.55.07-3.81.07-1,0-.88-.45-.88-1.71s0-1.68.84-1.68c1.09,0,2.17.1,3.26.07.66,0,.94-.28.94-.95V11.59c0-.67-.24-.91-.91-.95S502.79,10.71,502,10.71Zm11.55,7a.93.93,0,0,0,1-.95V11.59a.93.93,0,0,0-1-.95h-3.68a.87.87,0,0,0-.94.95v5.14a.87.87,0,0,0,.94.95Zm7.66,14c-1.15,0-7.24-7.24-7.24-8.12,0-.59,1.85-1.61,2.45-1.61.28,0,.45.28.7.63A34.68,34.68,0,0,0,523,29.09c.21.17.63.49.63.73C523.58,30.49,521.73,31.71,521.2,31.71Z"/><path class="cls-1" d="M536.24,3.82c.25,0,.7.17.7.48s-.21.36-.42.53c-1.22.91-1.54,12-1.54,14,0,2.73-.07,7,3.71,7a8.85,8.85,0,0,0,6.58-3.4,11.06,11.06,0,0,0,2.14-5.18c.1-.56.17-1.15.7-1.15.77,0,2.9,1.78,2.9,2.83a13,13,0,0,1-1.43,4.1,12.25,12.25,0,0,1-10.64,6.68A7.74,7.74,0,0,1,532.78,27c-1.58-2.1-1.75-5.5-1.75-8,0-2.77.1-5.53.31-8.3.11-1.61.42-5,.42-6.4V3.85c0-.52,0-.88.53-.88A28.36,28.36,0,0,1,536.24,3.82Z"/><path class="cls-1" d="M570.31,2.17c.91.1,1.4.17,1.4.56,0,.66-.6.07-.67,2.9,0,.49.11,1,.74,1,.14,0,1.5-.21,1.75-.24a34.84,34.84,0,0,0,3.81-.81,9.28,9.28,0,0,1,1.33-.28c.77,0,.88,2.28.88,2.87s-.32.77-1,.91c-1.82.39-4,.7-5.85.91-.73.11-1.57.07-1.57,1.05a12.13,12.13,0,0,0,.17,1.86c.07.21.14.56.56.56a30.1,30.1,0,0,0,4.48-.84,2.29,2.29,0,0,1,.67-.14c.49,0,.59.77.59,2.1,0,1.15,0,1.5-.66,1.64a31.24,31.24,0,0,1-3.61.6c-1.33.14-2,.14-2,1.12,0,3.64.14,3.36,1.65,3.85,1.15.38,5.77,2.34,5.77,3.6,0,.77-1.15,2.56-2,2.56a2,2,0,0,1-1.09-.56c-.63-.49-2.94-2.14-3.64-2.14s-.63.53-.7.77c-.73,3-3.5,3.89-6.33,3.89s-5.85-1.3-5.85-4.55c0-3.54,3.82-4.66,6.72-4.66.42,0,1.23.07,1.44.07.59,0,.59-.63.59-1,0-1.12.07-2.41-.8-2.41s-2.7.14-4.2.14-2.1,0-2.38-.6a7.2,7.2,0,0,1-.46-2.45c0-.42.11-.73.6-.73s2.38.17,3.71.17h1.57c1.3,0,1.79-.1,1.79-.87,0-1,0-2.45-1-2.45-1.22,0-4,.17-5.91.17h-1.05c-.95,0-1.82,0-2-.31a6.09,6.09,0,0,1-.39-2.56c0-.49,0-1,.63-1s3.68.28,5.39.28c3.08,0,4,.07,4-.88,0-.55-.21-2.9-.32-3.5a3.43,3.43,0,0,1-.07-.56c0-.35.21-.42.53-.42C568,1.85,569.68,2.1,570.31,2.17ZM562.5,25.41c0,1.19,1.58,1.4,2.49,1.4,1.61,0,3-.45,3-2.34,0-.67-.84-.67-1.64-.67C565.23,23.8,562.5,23.91,562.5,25.41Z"/><path class="cls-1" d="M602.06,1.33c.84.07,1.89.17,1.89.49a.56.56,0,0,1-.21.39c-.25.17-.53.45-.56,1.46,0,.74,0,1.51,0,2.25a.92.92,0,0,0,1,1c.28,0,1.64-.1,2-.1,1.71-.08,5.46-.29,7-.29.56,0,.81.21.81,1.79,0,2.14-.42,2.1-.77,2.1s-3.12-.17-5.08-.17c-.63,0-3.88,0-4.27.14a1.11,1.11,0,0,0-.66,1.15v1.23a2.93,2.93,0,0,0,.35,1.82,10.76,10.76,0,0,1,1.08,4.9c0,5.63-3.74,11.9-5.28,11.9-.42,0-3.26-.88-3.26-1.51,0-.28.6-.77.81-1a11.36,11.36,0,0,0,2.52-3.39,1.57,1.57,0,0,0,.17-.53.27.27,0,0,0-.24-.24,1,1,0,0,0-.29,0,3.19,3.19,0,0,1-.8.18c-3,0-4.17-3.29-4.17-5.85,0-3.22,1.4-6.3,4.94-6.61.18,0,.42-.14.42-.42,0-1.3-.24-1.47-.63-1.47s-1.89.17-2.31.21c-1.82.17-6.34.66-8,1a2.32,2.32,0,0,1-.52.07c-.56,0-.6-.49-.7-.94A19.82,19.82,0,0,1,587,8.44c0-.7.31-.63,2-.7.94,0,9.17-.49,9.49-.56a1,1,0,0,0,.76-1.09,29.77,29.77,0,0,0-.34-4.34.68.68,0,0,1,0-.28c0-.28.17-.42.46-.42C600.13,1.05,601.21,1.26,602.06,1.33Zm-4.63,17.54c0,1.05.25,3,1.65,3s1.82-1.78,1.82-2.87-.32-3.08-1.75-3.08S597.43,17.82,597.43,18.87Z"/><path class="cls-1" d="M629.74,25.69a4.87,4.87,0,1,1-4.87-4.86A4.88,4.88,0,0,1,629.74,25.69Zm-8,0a3.12,3.12,0,1,0,6.23,0,3.08,3.08,0,0,0-3.12-3.11A3.12,3.12,0,0,0,621.76,25.69Z"/></g></g></svg>