<svg xmlns="http://www.w3.org/2000/svg" viewBox="0 0 652.35 31.68"><defs><style>.cls-1{fill:#231815;}</style></defs><g id="レイヤー_2" data-name="レイヤー 2"><g id="scene"><path class="cls-1" d="M20.58,5.57c0,.49-.7.8-1.43,1.22-1.3.74-6.76,5.67-8.4,7-.14.14-.39.35-.39.56a.29.29,0,0,0,.32.25c.42,0,12.07-3.12,13.3-3.5A1.54,1.54,0,0,1,24.4,11c.28,0,.42.31.49.52s.35,2.38.35,2.7c0,.66-.35.66-1.4.8a19.3,19.3,0,0,0-7.21,2.38c-2,1.19-4.73,3.36-4.73,5.92,0,3,4.55,3.46,6.79,3.6.35,0,.7,0,.7.49A13.29,13.29,0,0,1,18.76,30a1,1,0,0,1-1.05.7A17.07,17.07,0,0,1,13,29.61c-2.59-1-4.86-2.87-4.86-5.88,0-2.41,1.36-3.95,3-5.46a.41.41,0,0,0,.18-.31.34.34,0,0,0-.35-.32c-.25,0-2.07.53-2.45.63-1.44.42-4.8,1.54-6.2,2.1a2.77,2.77,0,0,1-.94.28C.63,20.65,0,18.24,0,17.57s.46-.56,1.61-.84a4.32,4.32,0,0,0,2.24-1.05c2.94-2.27,6.55-5.7,9.31-8.26A.61.61,0,0,0,13.41,7a.29.29,0,0,0-.32-.28c-.28,0-3.92,1-4.44,1.12A3.37,3.37,0,0,1,7.84,8C7,8,6.51,5.46,6.51,4.79s.35-.7,1-.76c2-.18,8-1,9.63-1.79a2.44,2.44,0,0,1,.8-.32C19,1.92,20.58,4.76,20.58,5.57Z"/><path class="cls-1" d="M33.92,16.91A108.33,108.33,0,0,1,41.24,4.55c.52-.84,1-1.58,1.43-2.42.11-.17.28-.52.53-.52a9,9,0,0,1,2,1.33c.35.24,1.61,1.12,1.61,1.51s-.32.52-.63.55a1.56,1.56,0,0,0-.91.46A35.89,35.89,0,0,0,43,8.33c-.49.67-3.53,5.11-3.53,5.6a.37.37,0,0,0,.35.35,1.47,1.47,0,0,0,.63-.24,7.85,7.85,0,0,1,3.71-1.19,4.16,4.16,0,0,1,3.71,2.06,5.88,5.88,0,0,1,.38,2.21,18.42,18.42,0,0,1-.45,3.39,20.08,20.08,0,0,0-.56,3.43c0,.6.21,1.33.91,1.33,2,0,5.29-4.23,6.37-5.77.17-.21.42-.49.7-.49.63,0,1.82,2.76,1.82,3.25a1.33,1.33,0,0,1-.39.77c-.8.81-1.6,1.61-2.45,2.38-1.92,1.75-4.3,3.68-7,3.68-2.49,0-3.5-2.14-3.5-4.34a22.94,22.94,0,0,1,.45-4.06,15.39,15.39,0,0,0,.39-2.84c0-.91-.32-1.61-1.33-1.61a6.5,6.5,0,0,0-3,1,10.41,10.41,0,0,0-3.57,3.19,24.06,24.06,0,0,0-3.22,7.35c-.11.45-.18,1.08-.77,1.08s-3.36-1-3.36-1.61c0,0,.59-1.47.63-1.54C31.19,22.75,32.49,19.81,33.92,16.91Z"/><path class="cls-1" d="M76,2c.17.07.56.17.56.42s-.25.38-.56.63a5.92,5.92,0,0,0-.63,1.86,10.85,10.85,0,0,0-.39,1.57.41.41,0,0,0,.39.46,16,16,0,0,0,2-.53,1.15,1.15,0,0,1,.35-.07c.42,0,.46.63.53,1a16.69,16.69,0,0,1,.17,1.86c0,.77-.42.84-3.64,1.43-1.26.21-1.22.46-1.64,1.61a88.82,88.82,0,0,1-5.71,12.46c-.21.35-.31.49-.7.49-.77,0-3.11-1-3.11-1.75a3.82,3.82,0,0,1,.63-1.26,65.59,65.59,0,0,0,4.16-8.08A13.47,13.47,0,0,0,69.17,12a.47.47,0,0,0-.49-.45c-.28,0-3,.35-3.78.35-.6,0-.74-.32-.88-1.12-.07-.42-.24-1.68-.24-2s.24-.56.63-.56H66A31,31,0,0,0,69.62,8c.46-.07.77-.1,1-.56a21.22,21.22,0,0,0,1.12-5.88c0-.25,0-.6.32-.6S75.4,1.79,76,2Zm5,10.43c.38.11.7.32.7.74,0,.07-.07,1.12-.07,1.85,0,1,.17,6.06.35,6.79.1.53.56.67,1.08.88.11,0,.25.1.36.14.8.31,4.93,2.24,4.93,3.08,0,.56-1.3,2.55-2.17,2.55-.35,0-.67-.31-.91-.49a10,10,0,0,0-2.8-1.61c-.39,0-.53.49-.56.81-.42,2.55-2.49,3.43-4.87,3.43-2.83,0-6.16-1.51-6.16-4.76s3.05-4.34,5.81-4.34h.91c.42,0,.74-.18.74-.6,0-1.12-.53-6.19-.63-7.56,0-.17,0-.31,0-.49,0-.56.32-.77.84-.77A14.64,14.64,0,0,1,81,12.39ZM74.45,25.73c0,1.08,1.4,1.64,2.31,1.64,1.26,0,1.82-.66,1.82-1.89,0-.7,0-1.08-1.78-1.08C76,24.4,74.45,24.61,74.45,25.73Zm15.3-13.37c0,.84-2,2.41-2.63,2.41-.34,0-.59-.38-.77-.63A19.89,19.89,0,0,0,82,9.63c-.14-.11-.46-.32-.46-.56,0-.49,1.61-2.42,2.35-2.42S89.75,11.45,89.75,12.36Z"/><path class="cls-1" d="M102.43,2.52a12.89,12.89,0,0,1,1.68-.18c1,0,.91.53,1,1.33a47.49,47.49,0,0,0,1.08,6.27c.11.46.21,1.05.81,1.05s6.23-3.29,7.14-3.88a2.1,2.1,0,0,1,.91-.36c.45,0,1,1.06,1.26,1.41a6.9,6.9,0,0,1,1,2.13c0,.35-.38.46-.66.56a63.85,63.85,0,0,0-8.65,4,35.49,35.49,0,0,0-6.3,4.13A4.39,4.39,0,0,0,100,22.16c0,1.26,1.22,2.13,2.31,2.52a14.09,14.09,0,0,0,4.65.63,53.43,53.43,0,0,0,9.14-.91.83.83,0,0,1,.31,0c.49,0,.53,1.44.53,2.17V27c0,.91,0,1.3-.74,1.47a83.73,83.73,0,0,1-9.62.56c-2.59,0-4.87-.14-7.18-1.5a6.16,6.16,0,0,1-3.22-5.39c0-3.82,3.15-6.3,6.06-8.19a1.09,1.09,0,0,0,.59-.91,1.15,1.15,0,0,0-.14-.63c-.42-1.26-1.4-5-1.75-6.41a23,23,0,0,0-.66-2.31,1.63,1.63,0,0,1-.11-.42C100.15,2.7,101.31,2.7,102.43,2.52Z"/><path class="cls-1" d="M135.28,3.29c.28.8.49,1.54,1.19,1.54a12.12,12.12,0,0,0,2.7-1.19,3.17,3.17,0,0,1,.87-.35c.63,0,1.54,2.13,1.54,2.73,0,.42-.42.63-.73.84A22.83,22.83,0,0,1,138.33,8c-.35.14-.81.24-.81.7a1.34,1.34,0,0,0,.18.52c.38,1,.63,1.44,1.05,1.44.73,0,3.43-1.58,4.16-2a2.07,2.07,0,0,1,.84-.39c.6,0,1.79,2.17,1.79,2.7s-.77.84-1.47,1.22c-.91.46-1.86.88-2.8,1.26-.42.18-1,.35-1,1,0,.77,2.9,5.28,3.53,6.09.28.38.84,1.05.84,1.5,0,.81-2.06,2.28-2.83,2.28a.73.73,0,0,1-.56-.28,9.33,9.33,0,0,0-6.44-2.49c-1.47,0-3.47.56-3.47,2.38,0,2.52,3.57,3.08,5.46,3.08a15.43,15.43,0,0,0,2.14-.17,8.14,8.14,0,0,1,1-.07c.7,0,.84.59.84,1.61,0,2.17-.35,2.24-2,2.24a18.38,18.38,0,0,1-6.76-.91,6,6,0,0,1-4.2-5.64c0-3.81,3.12-5.7,6.65-5.7a10.76,10.76,0,0,1,3.47.59,1,1,0,0,0,.35.07.31.31,0,0,0,.31-.31,25.61,25.61,0,0,0-1.33-2.56c-.21-.42-.42-.84-.94-.84a1.1,1.1,0,0,0-.49.11,55.19,55.19,0,0,1-9.31,1.75c-.6,0-.74-.35-.91-.88a8.65,8.65,0,0,1-.42-2.13c0-.67.63-.6,1.54-.67a35.6,35.6,0,0,0,7.45-1.19c.35-.1.77-.28.77-.66,0-.07-.63-2-1.33-2-.17,0-.84.17-1.08.21a33.67,33.67,0,0,1-4,.63c-.46,0-.6-.21-.77-.6a8.45,8.45,0,0,1-.6-2.24c0-.73.91-.7,1.4-.73a25.16,25.16,0,0,0,2.7-.35c.45-.07.91-.25.91-.81a9.43,9.43,0,0,0-1-2.13,2.7,2.7,0,0,1-.42-.92c0-.73,2.45-1.22,3-1.22C134.72,1.4,134.79,2,135.28,3.29Z"/><path class="cls-1" d="M155,21.91c.8,0,6.82,4.83,6.82,5.71s-1.75,2.69-2.55,2.69c-.28,0-.53-.31-.7-.52A21.55,21.55,0,0,0,153.24,25c-.25-.14-.63-.35-.63-.67C152.61,23.77,154.39,21.91,155,21.91Z"/><path class="cls-1" d="M179.35,29.19c-1.65,0-4.41.07-4.66.07-.73,0-1-.24-1-1,0-.24.07-4,.07-6V11.41c0-2-.1-5.88-.1-6.12,0-.74.21-.88,1-.88h2.24c.81,0,1,.14,1,.88,0,.24-.11,4.09-.11,6.12V24.47c0,.87.18,1.05,1,1.05h3.19c1.68,0,4.83-.11,5.07-.11.74,0,.88.21.88,1v1.82c0,.8-.14,1-.88,1-.24,0-3.39-.07-5.07-.07Z"/><path class="cls-1" d="M201,25.52c1.68,0,4.83-.11,5.07-.11.74,0,.88.21.88,1v1.82c0,.8-.14,1-.88,1-.24,0-3.39-.07-5.07-.07h-2.7c-1.64,0-4.41.07-4.66.07-.77,0-1-.28-1-1.12,0-2,.07-4.16.07-5.84v-11c0-1.72,0-4.06-.07-5.85,0-.84.21-1.12,1-1.12.25,0,3,.07,4.66.07h2c1.68,0,4.83-.07,5.08-.07.73,0,.87.21.87,1V7.25c0,.8-.14,1-.87,1-.25,0-3.4-.1-5.08-.1h-2.48c-.88,0-1,.17-1,1.05v4c0,.87.17,1.05,1,1.05h1.75c1.64,0,4.83-.07,5.07-.07.74,0,.88.21.88,1v1.72c0,.8-.14,1-.88,1-.24,0-3.43-.07-5.07-.07h-1.75c-.88,0-1,.18-1,1v5.57c0,.87.17,1.05,1,1.05Z"/><path class="cls-1" d="M216.23,21.88c0,1.22,0,5.46,0,6.26s-.18,1.05-1,1.05h-2.1c-.77,0-1-.17-1-.7s.21-4.3.25-6.82l.17-10.47c0-1.75,0-5,0-5.74,0-.88.14-1,1-1h1.16a1.68,1.68,0,0,1,1.68.84c1,1.33,2,2.63,3,3.89l4.76,6c.28.35.46.52.67.52s.38-.17.66-.52l4.66-5.92c1-1.26,2.06-2.62,3.08-4a1.67,1.67,0,0,1,1.68-.84H236c.88,0,1.05.17,1.05,1,0,.53,0,3.26,0,5.74l.18,10.47c0,1.85.21,5.95.21,6.47,0,.95-.11,1.05-1,1.05h-2.14c-.87,0-1.05-.17-1.05-1.05s.07-4.34,0-6.23l-.17-9c0-.35-.11-.56-.25-.56s-.28.1-.45.31l-7,8.65a1,1,0,0,1-.74.42,1,1,0,0,1-.7-.42l-6.93-8.65c-.18-.21-.32-.31-.45-.31s-.25.21-.25.56Z"/><path class="cls-1" d="M266.94,16.49c0,8.22-5.85,12.91-12.57,12.91-7.6,0-11.94-5.88-11.94-12.42,0-7.74,5.22-12.78,12.5-12.78C262.56,4.2,266.94,9.94,266.94,16.49ZM246.63,17c0,4.73,2.87,8.54,7.88,8.54,4.55,0,8.23-3.32,8.23-8.85,0-4.69-2.91-8.47-7.91-8.47S246.63,12,246.63,17Z"/><path class="cls-1" d="M276.16,22.19c0,2,.11,5.88.11,6.13,0,.73-.21.87-1,.87h-2.1c-.8,0-1-.14-1-.87,0-.25.1-4.1.1-6.13V11.06c0-2-.1-5.53-.1-5.77,0-.74.21-.88,1-.88h1.16a1.68,1.68,0,0,1,1.68.84c1.08,1.44,2.2,2.8,3.32,4.17l8.76,10.92c.17.21.31.31.42.31s.24-.21.24-.56V11.41c0-2-.11-5.88-.11-6.12,0-.74.21-.88,1-.88h2.1c.81,0,1,.14,1,.88,0,.24-.11,4.09-.11,6.12V22.54c0,1.93.11,5.53.11,5.78,0,.73-.21.87-1,.87H291a1.66,1.66,0,0,1-1.68-.84c-1.05-1.33-2.07-2.59-3.22-4l-9.31-11.48c-.18-.21-.32-.31-.42-.31s-.25.21-.25.56Z"/><path class="cls-1" d="M300.19,14.21c-.52,0-.77-.07-.77-.28a1.5,1.5,0,0,1,.25-.59A11.53,11.53,0,0,0,301,9.87c0-.38-.28-.59-.77-.73a2.29,2.29,0,0,1-1.82-2.28,2.53,2.53,0,0,1,2.76-2.66c1.23,0,2.53.77,2.53,2.91a15.68,15.68,0,0,1-1.65,6.16,1.28,1.28,0,0,1-1.47.94Z"/><path class="cls-1" d="M325,22.26c0,4.52-3.39,7.18-8.78,7.18a15.78,15.78,0,0,1-7.35-1.82c-.46-.25-.67-.46-.67-.77a1.81,1.81,0,0,1,.21-.7l.88-1.82c.21-.46.34-.7.59-.7a1.32,1.32,0,0,1,.66.35,11,11,0,0,0,6,1.82c2.63,0,4.34-1.23,4.34-3.19s-2.24-3.11-5.14-4.3c-3.4-1.4-7-3.12-7-7.32s3.47-6.82,8.79-6.82a15.29,15.29,0,0,1,6,1.29c.49.25.74.42.74.74a2,2,0,0,1-.18.66l-.8,2.07c-.21.49-.35.73-.56.73a1.37,1.37,0,0,1-.7-.31A10.21,10.21,0,0,0,317,8c-2.8,0-4.17,1.23-4.17,2.87,0,1.82,1.82,2.73,4.73,4C321.25,16.35,325,18.06,325,22.26Z"/><path class="cls-1" d="M343.09,22.19c0,2,.1,5.88.1,6.13,0,.73-.21.87-1,.87H340c-.81,0-1-.14-1-.87,0-.25.11-4.1.11-6.13V11.31c0-1.72,0-4-.07-5.85,0-.84.21-1.12,1-1.12.24,0,3,.07,4.66.07h1.95c1.68,0,4.84-.07,5.08-.07.74,0,.88.21.88,1V7.25c0,.8-.14,1-.88,1-.24,0-3.4-.1-5.08-.1h-2.48c-.88,0-1.05.17-1.05,1.05v4.06c0,.87.17,1.05,1.05,1.05h1.75c1.65,0,4.83-.07,5.08-.07.73,0,.87.21.87,1V17c0,.8-.14,1-.87,1-.25,0-3.43-.07-5.08-.07h-1.75c-.88,0-1.05.18-1.05,1Z"/><path class="cls-1" d="M361.33,22.19c0,2,.11,5.88.11,6.13,0,.73-.21.87-1,.87h-2.17c-.8,0-1-.14-1-.87,0-.25.1-4.1.1-6.13V11.34c0-1.71,0-3.92-.07-5.88,0-.84.21-1.12,1-1.12.25,0,3,.07,4.66.07H366c4.51,0,7.84,1.75,7.84,6.83a7.67,7.67,0,0,1-4.24,7.14c-.42.24-.63.42-.63.63a1.34,1.34,0,0,0,.35.7l1.12,1.54c1.68,2.24,3.08,4.09,5.39,7a1.14,1.14,0,0,1,.28.56c0,.25-.31.35-.84.35h-2.9a1.5,1.5,0,0,1-1.61-.87c-1.47-2.24-2.8-4.06-4.1-5.81l-1.4-2a1.64,1.64,0,0,0-1.68-.84h-1.19c-.87,0-1.05.17-1.05,1.05Zm0-7c0,.87.18,1.05,1.05,1.05h2.35c2.62,0,5-1.12,5-4.55,0-3.05-1.89-3.71-4.06-3.71h-3.26c-.87,0-1.05.17-1.05,1.05Z"/><path class="cls-1" d="M388.73,25.52c1.68,0,4.83-.11,5.07-.11.74,0,.88.21.88,1v1.82c0,.8-.14,1-.88,1-.24,0-3.39-.07-5.07-.07H386c-1.65,0-4.41.07-4.66.07-.77,0-1-.28-1-1.12,0-2,.07-4.16.07-5.84v-11c0-1.72,0-4.06-.07-5.85,0-.84.21-1.12,1-1.12.25,0,3,.07,4.66.07h2c1.68,0,4.83-.07,5.08-.07.73,0,.87.21.87,1V7.25c0,.8-.14,1-.87,1-.25,0-3.4-.1-5.08-.1H385.5c-.87,0-1,.17-1,1.05v4c0,.87.17,1.05,1,1.05h1.75c1.65,0,4.84-.07,5.08-.07.74,0,.88.21.88,1v1.72c0,.8-.14,1-.88,1-.24,0-3.43-.07-5.08-.07H385.5c-.87,0-1,.18-1,1v5.57c0,.87.17,1.05,1,1.05Z"/><path class="cls-1" d="M408.39,25.52c1.68,0,4.83-.11,5.08-.11.73,0,.87.21.87,1v1.82c0,.8-.14,1-.87,1-.25,0-3.4-.07-5.08-.07H405.7c-1.65,0-4.41.07-4.66.07-.77,0-1-.28-1-1.12,0-2,.07-4.16.07-5.84v-11c0-1.72,0-4.06-.07-5.85,0-.84.21-1.12,1-1.12.25,0,3,.07,4.66.07h2c1.68,0,4.83-.07,5.07-.07.74,0,.88.21.88,1V7.25c0,.8-.14,1-.88,1-.24,0-3.39-.1-5.07-.1h-2.49c-.87,0-1.05.17-1.05,1.05v4c0,.87.18,1.05,1.05,1.05h1.75c1.65,0,4.83-.07,5.08-.07.73,0,.87.21.87,1v1.72c0,.8-.14,1-.87,1-.25,0-3.43-.07-5.08-.07h-1.75c-.87,0-1.05.18-1.05,1v5.57c0,.87.18,1.05,1.05,1.05Z"/><path class="cls-1" d="M432.74,3.29c.28.07.91.17.91.56,0,.21-.14.32-.32.45-.66.49-.73,1.06-.91,2.32-.07.38-.14.87-.24,1.43a1.54,1.54,0,0,0-.07.42.68.68,0,0,0,.77.7h.42a7,7,0,0,1,3.95.77c1.75,1.16,2.17,3.15,2.17,5.11,0,3.19-.55,7.91-2.1,10.71a7.14,7.14,0,0,1-6.61,3.78c-.77,0-1.26-.07-1.61-.8a7,7,0,0,1-.63-2.52c0-.32.1-.6.49-.6s.87.14,1.57.14c1.93,0,2.8-.42,3.68-2.17a20.9,20.9,0,0,0,1.57-7.91c0-1.71-.1-3.18-2.24-3.18-2,0-2.34.28-2.59,1.26a39.34,39.34,0,0,1-4.48,10.46,31.43,31.43,0,0,1-3.46,5,.8.8,0,0,1-.6.35c-.63,0-2.87-1.33-2.87-2.13a1.31,1.31,0,0,1,.49-.81,27.73,27.73,0,0,0,6.27-9.73,13.26,13.26,0,0,0,.87-2.66.43.43,0,0,0-.45-.45,29.45,29.45,0,0,0-4,1.22,2.63,2.63,0,0,1-.73.25c-.84,0-1.44-3.43-1.44-3.64,0-.53.6-.53,1-.56,2-.21,3.92-.7,5.84-1,.7-.14,1-.35,1.12-1.09a32.29,32.29,0,0,0,.39-4.51c0-.56-.07-1.3-.07-1.37,0-.28.1-.53.42-.53S432.21,3.15,432.74,3.29ZM447.3,14.88c0,.8-2.2,2.1-2.9,2.1-.46,0-.67-.46-.81-.81a25.67,25.67,0,0,0-4.69-7.49,1.08,1.08,0,0,1-.32-.6c0-.62,1.93-1.78,2.49-1.78C442.4,6.3,447.3,14,447.3,14.88Zm-.52-9c0,.56-1.23,1.61-1.68,1.61-.18,0-.35-.25-.49-.39a31.72,31.72,0,0,0-2.49-2.69c-.14-.15-.32-.32-.32-.49,0-.42,1.27-1.48,1.69-1.48A14.19,14.19,0,0,1,446.78,5.92Zm3.32-2.49C450.1,4,448.84,5,448.42,5c-.21,0-.31-.17-.49-.38-.8-1-1.61-1.83-2.48-2.7-.14-.11-.35-.32-.35-.49,0-.42,1.33-1.47,1.68-1.47A14.06,14.06,0,0,1,450.1,3.43Z"/><path class="cls-1" d="M459.58,14.91c0,.21.14.28.31.32.32,0,.88.1.88.52s-.32.46-.53.6c-.38.24-.42,1-.42,2.1v7.73c0,1.44.07,2.91.07,4.38,0,.94-.42,1.12-1.82,1.12s-1.82-.25-1.82-1.23c0-1.43.07-2.83.07-4.27V19.46c0-.21-.1-.42-.35-.42a.47.47,0,0,0-.31.11c-.42.42-1.44,1.5-2,1.5s-1.88-1.5-1.88-2.17a1.11,1.11,0,0,1,.55-.84,32.94,32.94,0,0,0,7.53-9.31c.11-.25.25-.56.53-.56a11.32,11.32,0,0,1,2.06.77c1,.42,1.51.63,1.51,1s-.32.39-.53.42c-.49.11-.56.14-.87.63a41.67,41.67,0,0,1-2.8,4.06A.53.53,0,0,0,459.58,14.91Zm2.2-12.39c-.38,0-.56,0-.91.56A34.47,34.47,0,0,1,455,10.15c-.25.21-.6.56-.95.56-.66,0-2.13-1.36-2.13-2,0-.28.34-.56.55-.73a26.64,26.64,0,0,0,5.68-7c.17-.31.28-.66.63-.66a11.46,11.46,0,0,1,2.41,1.05c.7.35,1,.49,1,.84S462,2.52,461.78,2.52Zm14.88,1.82c1.22,0,2.48-.07,3.74-.07.91,0,.88.49.88,1.68s0,1.72-.91,1.72c-1.23,0-2.49-.11-3.71-.11H475c-.7,0-1,.32-1,1v1.61c0,.7.28,1,1,1h3.25c1.33,0,2.63-.07,4-.07.91,0,.87.46.87,1.68s0,1.72-.87,1.72c-1.33,0-2.66-.07-4-.07h-11c-1.3,0-2.63.07-4,.07-.91,0-.87-.46-.87-1.68s0-1.72.87-1.72c1.33,0,2.66.07,4,.07h2.17c.7,0,1-.28,1-1V8.54c0-.66-.28-1-1-1h-.91c-1.23,0-2.49.11-3.71.11-.95,0-.91-.46-.91-1.72s0-1.68.87-1.68c1.26,0,2.49.07,3.75.07h.91c.7,0,1-.28,1-1a16.4,16.4,0,0,0-.14-2.21c0-.1,0-.27,0-.38,0-.42.28-.49.63-.49.7,0,2.52.18,3.36.24.28,0,.67.07.67.42s-.21.35-.42.53c-.42.32-.42.8-.42,1.89.07.7.28,1,1,1Zm5,13.44c.91,0,.87.46.87,1.72s0,1.68-.87,1.68c-.63,0-2.14,0-2.87-.07s-.91.35-.91,1v3.53c0,.81.07,1.65.07,2.45a3.07,3.07,0,0,1-1.09,2.49c-1.15.91-3.46,1.08-4.9,1.08-1.05,0-1.61,0-1.89-.45a7.55,7.55,0,0,1-.42-2.56c0-.45.21-.66.67-.66a3.89,3.89,0,0,1,.59,0c.42,0,.91.07,1.33.07,2,0,1.93-.63,1.93-2.34V22.09c0-.7-.28-1-1-1h-5.43c-1.33,0-2.66.07-4,.07-.87,0-.87-.42-.87-1.68s0-1.72.91-1.72c1.33,0,2.62.11,4,.11h5.43c.63,0,.94-.25,1-.91,0-.49-.07-.91-.14-1.4v-.32c0-.38.28-.49.59-.49.7,0,2.31.18,3.05.25.38,0,1.05.07,1.05.49,0,.21-.18.28-.46.49s-.35.56-.38,1c0,.63.31.87.91.87S481,17.78,481.63,17.78ZM468.05,27.9c-.46,0-.6-.28-1.4-1.61-.56-.88-1.4-1.89-2-2.73a1,1,0,0,1-.28-.6c0-.56,1.85-1.78,2.45-1.78.45,0,1.15,1.08,2,2.34a11.23,11.23,0,0,1,1.54,2.56C470.36,26.74,468.54,27.9,468.05,27.9Z"/><path class="cls-1" d="M490,14.7a26.31,26.31,0,0,0,3.22-1c3.12-1.12,6.79-2.52,10.08-2.52,4.1,0,7.28,2.63,7.28,6.86s-3.18,7-6.86,8.58A20,20,0,0,1,498.37,28c-1.15,0-1.64-2.38-1.64-2.66,0-.6.66-.67,1.12-.7a15.81,15.81,0,0,0,6-1.75c1.86-1.05,3.43-2.77,3.43-5s-1.78-3.53-3.92-3.53c-3.39,0-7.94,1.92-10.92,3.53a1.79,1.79,0,0,1-1,.35c-.91,0-2.17-2.1-2.17-2.83C489.27,15,489.66,14.81,490,14.7Z"/><path class="cls-1" d="M518.46,6.65c5.11-.32,10.22-.84,15.33-1.44,2.62-.31,5.32-.66,7.94-1.08a1.5,1.5,0,0,1,.42,0c.53,0,.6.46.7.88a20.24,20.24,0,0,1,.28,2.56c0,.77-.73.7-1.54.73a17.26,17.26,0,0,0-5.81.74,10.56,10.56,0,0,0-6,5.21,13.08,13.08,0,0,0-1.68,6.16c0,4.06,2.62,5,6.16,5,.63,0,1.4,0,1.75,0,.52,0,.8,0,.8.59a8.31,8.31,0,0,1-.63,3.12c-.24.35-.63.35-1,.35-6,0-11.06-1.89-11.06-8.72a15.54,15.54,0,0,1,3.85-10c.17-.18.63-.63.63-.84s-.32-.42-.53-.42-1.85.24-2.24.31a70.25,70.25,0,0,0-7.73,1.44,3.21,3.21,0,0,1-.53.07c-.84,0-1.15-3.33-1.15-3.68C516.43,6.65,516.92,6.75,518.46,6.65Z"/><path class="cls-1" d="M554.65,7.46c.28.07.77.14.77.49s-.14.28-.35.45c-.49.39-.52,1.09-.63,1.68a26.89,26.89,0,0,0-.28,3.71,20,20,0,0,0,1.12,7.32c.42,1,1.58,3,2.8,3,1,0,2-1.54,2.42-2.31.21-.35.49-.87.94-.87C562.18,21,564,22.4,564,23s-1.57,2.49-2.06,3c-1,1.15-2.1,2.2-3.75,2.2-2.59,0-4.62-2.34-5.77-4.48-1.75-3.29-2-7.7-2-11.41,0-.56.1-5,.17-5.32a.44.44,0,0,1,.49-.38C551.47,6.69,554.06,7.35,554.65,7.46Zm14.25-.71c.77,0,3.71,2.21,5.39,5.43a19.13,19.13,0,0,1,2.07,7.28c0,.67-.35.84-1,1a7.57,7.57,0,0,1-2,.31c-1.12,0-1.08-.49-1.15-1.33-.42-4.09-1.86-7.42-5.18-10A.58.58,0,0,1,566.8,9C566.8,8.3,568.2,6.75,568.9,6.75Z"/><path class="cls-1" d="M595,2.17c.91.1,1.4.17,1.4.56,0,.66-.6.07-.67,2.9,0,.49.11,1,.74,1,.14,0,1.5-.21,1.75-.24a34.84,34.84,0,0,0,3.81-.81,9.28,9.28,0,0,1,1.33-.28c.77,0,.88,2.28.88,2.87s-.32.77-1,.91c-1.82.39-4,.7-5.85.91-.73.11-1.57.07-1.57,1.05a12.13,12.13,0,0,0,.17,1.86c.07.21.14.56.56.56a30.1,30.1,0,0,0,4.48-.84,2.29,2.29,0,0,1,.67-.14c.49,0,.59.77.59,2.1,0,1.15,0,1.5-.66,1.64a31.24,31.24,0,0,1-3.61.6c-1.33.14-2,.14-2,1.12,0,3.64.14,3.36,1.65,3.85,1.15.38,5.77,2.34,5.77,3.6,0,.77-1.15,2.56-2,2.56a2,2,0,0,1-1.09-.56c-.63-.49-2.94-2.14-3.64-2.14s-.63.53-.7.77c-.73,3-3.5,3.89-6.33,3.89s-5.85-1.3-5.85-4.55c0-3.54,3.82-4.66,6.72-4.66.42,0,1.23.07,1.44.07.59,0,.59-.63.59-1,0-1.12.07-2.41-.8-2.41s-2.7.14-4.2.14-2.1,0-2.38-.6a7.2,7.2,0,0,1-.46-2.45c0-.42.11-.73.6-.73s2.38.17,3.71.17h1.57c1.3,0,1.79-.1,1.79-.87,0-1,0-2.45-.95-2.45-1.22,0-4,.17-5.91.17h-1.05c-.95,0-1.82,0-2-.31a6.09,6.09,0,0,1-.39-2.56c0-.49,0-1,.63-1s3.68.28,5.39.28c3.08,0,4,.07,4-.88,0-.55-.21-2.9-.32-3.5a3.43,3.43,0,0,1-.07-.56c0-.35.21-.42.53-.42C592.74,1.85,594.39,2.1,595,2.17Zm-7.81,23.24c0,1.19,1.58,1.4,2.49,1.4,1.61,0,3-.45,3-2.34,0-.67-.84-.67-1.64-.67C589.94,23.8,587.21,23.91,587.21,25.41Z"/><path class="cls-1" d="M626.77,1.33c.84.07,1.89.17,1.89.49a.56.56,0,0,1-.21.39c-.25.17-.53.45-.56,1.46,0,.74,0,1.51,0,2.25a.92.92,0,0,0,1,1c.28,0,1.64-.1,2-.1,1.71-.08,5.46-.29,7-.29.56,0,.81.21.81,1.79,0,2.14-.42,2.1-.77,2.1s-3.12-.17-5.08-.17c-.63,0-3.88,0-4.27.14a1.11,1.11,0,0,0-.66,1.15v1.23a2.93,2.93,0,0,0,.35,1.82,10.76,10.76,0,0,1,1.08,4.9c0,5.63-3.74,11.9-5.28,11.9-.42,0-3.26-.88-3.26-1.51,0-.28.6-.77.8-1a11.22,11.22,0,0,0,2.53-3.39,1.57,1.57,0,0,0,.17-.53.27.27,0,0,0-.24-.24,1,1,0,0,0-.29,0,3.19,3.19,0,0,1-.8.18c-3.05,0-4.17-3.29-4.17-5.85,0-3.22,1.4-6.3,4.94-6.61.18,0,.42-.14.42-.42,0-1.3-.24-1.47-.63-1.47s-1.89.17-2.31.21c-1.82.17-6.34.66-8,1a2.32,2.32,0,0,1-.52.07c-.56,0-.6-.49-.7-.94a19.82,19.82,0,0,1-.28-2.52c0-.7.31-.63,2-.7.94,0,9.17-.49,9.49-.56A1,1,0,0,0,624,6.09a29.77,29.77,0,0,0-.34-4.34.68.68,0,0,1,0-.28c0-.28.17-.42.46-.42C624.84,1.05,625.92,1.26,626.77,1.33Zm-4.63,17.54c0,1.05.25,3,1.65,3s1.82-1.78,1.82-2.87-.32-3.08-1.75-3.08S622.14,17.82,622.14,18.87Z"/><path class="cls-1" d="M652.35,25.69a4.87,4.87,0,1,1-4.87-4.86A4.88,4.88,0,0,1,652.35,25.69Zm-8,0a3.12,3.12,0,1,0,6.23,0,3.08,3.08,0,0,0-3.12-3.11A3.12,3.12,0,0,0,644.37,25.69Z"/></g></g></svg>