<svg xmlns="http://www.w3.org/2000/svg" viewBox="0 0 522.88 31.68"><defs><style>.cls-1{fill:#231815;}</style></defs><g id="レイヤー_2" data-name="レイヤー 2"><g id="scene"><path class="cls-1" d="M3.19,18.73c.45,0,.56.31.63.66.73,3.71,3.71,4.24,7,4.24A43.62,43.62,0,0,0,21.25,22.4a3.18,3.18,0,0,1,.52-.1c.53,0,.77.59.77,2.87,0,.66-.17,1.08-.84,1.29-1.85.56-8.4,1-10.5,1-3.64,0-7.56-.45-9.83-3.64A8.13,8.13,0,0,1,0,20.41C0,19.53,3.15,18.73,3.19,18.73ZM3.78,6.51c.11-.59.18-1.22.84-1.22a5.28,5.28,0,0,1,1,.21,22.72,22.72,0,0,0,6,.73,29.44,29.44,0,0,0,6.33-.7,2.11,2.11,0,0,1,.46-.07c.87,0,.91,1.58.91,3,0,.84-.18.91-1,1A47.88,47.88,0,0,1,12,9.94c-1.92,0-6.26-.17-8-.87a.74.74,0,0,1-.49-.74A12.82,12.82,0,0,1,3.78,6.51Z"/><path class="cls-1" d="M53.3,7.67a11.84,11.84,0,0,1,3.53,8.61A12.56,12.56,0,0,1,50,27.58,13.7,13.7,0,0,1,46.19,29c-.91,0-2.34-2.17-2.34-2.94,0-.35.52-.42.87-.49,4.59-1.08,8.19-4.09,8.19-9.1a8.49,8.49,0,0,0-5.6-8.36A5.73,5.73,0,0,0,46,7.77c-.8,0-.8.77-.84,1.37-.38,5.11-1.61,11.34-5,15.36-1.15,1.4-2.7,2.7-4.62,2.7a5.64,5.64,0,0,1-4.76-3.33,11,11,0,0,1-1.09-5A14.42,14.42,0,0,1,44.23,4.2,12.47,12.47,0,0,1,53.3,7.67Zm-13.62,1a10.83,10.83,0,0,0-6.3,10.08c0,1.3.45,4.55,2.24,4.55s3.71-4,4.69-7.56a35.16,35.16,0,0,0,1.12-6.82c0-.35-.17-.63-.56-.63A3.92,3.92,0,0,0,39.68,8.68Z"/><path class="cls-1" d="M64,13.48c-.45,0-.52-.42-.63-.77A31.82,31.82,0,0,0,62,8.51a1.94,1.94,0,0,1-.17-.6c0-.52,1.75-1,2.06-1s.53.07,1.26,2.21a34.38,34.38,0,0,1,1,3.32C66.16,13,64.38,13.48,64,13.48Zm1.79,6.65a.44.44,0,0,0-.28.1c-.42.32-.84.63-1.26.91-.21.14-.21.21-.28.56s-.14.46-.39.46-.77-1-1-1.58c-.11-.21-.18-.45-.28-.66a6.61,6.61,0,0,1-.42-1.16c0-.21.24-.35.91-.66.17-.07.35-.18.56-.28.84-.46,1.64-.91,2.45-1.44.59-.42.8-.59.8-1.36V8c0-1.08-.07-2.2-.07-3.29,0-1.36.67-1.68,1.93-1.68s2.27.07,3.43.07h4.2c.63,0,1-.25,1-.91A6.4,6.4,0,0,0,76.91,1c0-.07,0-.22,0-.28,0-.39.31-.46.62-.46s.5,0,.67,0c.42,0,.77,0,1.12.06,1.37.08,2.14.18,2.14.57s-.18.31-.42.49a.82.82,0,0,0-.35.73c0,.66.28.91.94.91h6.3C89.34,3.08,90.81,3,92,3c.84,0,.84.42.84,1.61s0,1.68-.84,1.68c-1.3,0-2.7-.1-4.1-.1h-17c-.7,0-1,.31-1,1V14.6a32.9,32.9,0,0,1-2.24,13.12,22.69,22.69,0,0,1-1.75,3.4c-.18.24-.35.45-.67.45-.77,0-2.73-1-2.73-1.78,0-.21.32-.6.42-.77a23.92,23.92,0,0,0,3.19-8.44C66.16,20.34,66.06,20.13,65.78,20.13Zm6.76,10.25c-.25.46-.46.95-1.09.95s-2.52-.67-2.52-1.44c0-.24.24-.52.38-.73a23.2,23.2,0,0,0,2.56-6.06,25.93,25.93,0,0,0,.8-7V15c0-1.09-.07-2.14-.07-3.22,0-1.4.57-1.82,1.9-1.82,1.08,0,2.17.07,3.25.07h1.37c.66,0,.94-.28.94-1A8.24,8.24,0,0,0,80,7.7V7.35c0-.38.24-.45.56-.45.52,0,2.31.17,2.9.24.28,0,.88,0,.88.46,0,.24-.21.35-.46.52a1.09,1.09,0,0,0-.38.88c0,.7.28,1,1,1h2.34c1,0,2-.07,2.94-.07a2.22,2.22,0,0,1,1.75.59,2.65,2.65,0,0,1,.81,1.37,9.48,9.48,0,0,1-1.54,2.83c-.28.42-.95,1.51-1.47,1.51s-2.56-1-2.56-1.61a.61.61,0,0,1,.25-.42c.14-.18.7-.84.7-1s-.35-.28-.81-.28H84.4c-.66,0-.94.28-.94,1v2.24c0,.7.28,1,.94,1h1.86c.77,0,1.57,0,2.34,0a1.84,1.84,0,0,1,1.86,1,2,2,0,0,1,.45,1.16c0,1.26-3.11,5-4.09,6a.81.81,0,0,0-.25.56c0,.28.18.42.39.56a27.13,27.13,0,0,0,5.42,2.06c.46.14,1.05.25,1.05.81s-.7,2.59-1.54,2.59a5.32,5.32,0,0,1-1-.25,27.73,27.73,0,0,1-6.69-3,1.38,1.38,0,0,0-.73-.24,1.44,1.44,0,0,0-.77.28c-1.09.7-5.29,3.11-6.41,3.11-.87,0-2-1.85-2-2.45s.63-.7,1.54-1A22.69,22.69,0,0,0,80,26.22a.65.65,0,0,0,.38-.56.92.92,0,0,0-.24-.6,15.27,15.27,0,0,1-2.91-4.23,1.28,1.28,0,0,0-.84-.81c-.49.14-.6.39-.7.84A27.76,27.76,0,0,1,72.54,30.38Zm6.58-13.33c.7,0,1-.28,1-1V13.83c0-.7-.28-1-1-1H76.91c-.66,0-1,.28-1,1v2.24c0,.7.29,1,1,1Zm4.3,6.4a1,1,0,0,0,.67-.28c.42-.42,2.2-2.34,2.2-2.83,0-.32-.35-.35-.84-.35H81.39c-.28,0-.59.1-.59.45a.48.48,0,0,0,.1.35,14.34,14.34,0,0,0,1.86,2.35A.92.92,0,0,0,83.42,23.45Z"/><path class="cls-1" d="M114.48,19.22a1,1,0,0,0-1.19.91,15.42,15.42,0,0,1-8.33,9.8,15.48,15.48,0,0,1-4.48,1.54c-1,0-2.13-2-2.13-2.73,0-.49.42-.53,1.08-.7,4.48-1.09,8.4-3.33,10-7.91a1,1,0,0,0,.07-.28c0-.46-.39-.6-.77-.63h-3.19c-1.29,0-2.55.1-3.85.1-.91,0-.87-.42-.87-1.71s0-1.75.87-1.75c1.3,0,2.56.07,3.85.07h3.78c.63,0,.95-.25,1-.91,0-.07,0-.11,0-.18,0-.52-.07-1.26-.07-1.68s.21-.66.7-.66,2.06.1,2.66.17c.42,0,1.19.07,1.19.46,0,.24-.39.45-.56.56a.49.49,0,0,0-.28.49V15c0,.63.28.91.91.91h4.2c1.15,0,2.31-.07,3.46-.07,1.79,0,2.14.38,2.14,2.13,0,2.87-.67,8.54-2,11.06s-4.1,2.56-6.65,2.56c-2.35,0-2.8,0-2.8-2.84,0-.7.17-.91.63-.91,1,0,1.92.14,2.9.14,1.93,0,2.59-.24,3.15-1.85a25.44,25.44,0,0,0,.95-6.09c0-.77-.42-.84-1.65-.84ZM125.19,8.09c1.09,0,1.93.31,1.93,1.54,0,.59-.07,1.4-.07,2.17v1c0,.56.07,1.16.07,1.75,0,.95-.53.91-1.82.91s-1.82,0-1.82-.87c0-.6.07-1.19.07-1.79v-.45c0-.67-.28-1-1-1H103c-.7,0-1,.31-1,1v.35c0,.59.07,1.19.07,1.78,0,.91-.56.88-1.82.88s-1.82,0-1.82-.91c0-.56.07-1.16.07-1.75V11.8c0-.81-.07-1.61-.07-2.17,0-1.3.87-1.54,2.41-1.54.84,0,1.89.07,3.15.07h14.77c.18,0,.35-.11.35-.28s-.17-.32-.49-.49-.59-.39-.59-.7a.75.75,0,0,1,.21-.46,27.2,27.2,0,0,0,3-5.43c.1-.21.21-.45.45-.45a11.2,11.2,0,0,1,2.21.81c.38.17.73.31.91.38s.52.21.52.49-.21.35-.42.35-.49,0-.66.39a32.06,32.06,0,0,1-2.38,4.3.64.64,0,0,0-.14.42c0,.42.38.63.77.63ZM104.05,7.6c-.52,0-.66-.35-.87-.77-.67-1.4-1.37-2.77-2.17-4.1a1.59,1.59,0,0,1-.35-.73c0-.67,2-1.44,2.45-1.44s1.08,1,2,2.66a15.33,15.33,0,0,1,1.37,3C106.47,7,104.47,7.6,104.05,7.6Zm8.12-.6c-.63,0-.73-.38-.87-.84a33.44,33.44,0,0,0-1.68-3.95,1.86,1.86,0,0,1-.28-.74c0-.7,2-1.3,2.45-1.3s.87.6,1.78,2.63a20.6,20.6,0,0,1,1.05,3C114.62,6.69,112.42,7,112.17,7Z"/><path class="cls-1" d="M158.6,3.47c0,.24.17.35.42.35.8,0,1.61-.07,2.45-.07s.84.35.84,1.57,0,1.58-.84,1.58c-1.4,0-2.77-.11-4.17-.11h-4.58c-.42,0-.84.18-.84.7a.51.51,0,0,0,0,.21A21.41,21.41,0,0,0,153,11.87a.42.42,0,0,0,.39.31.43.43,0,0,0,.42-.24,25.57,25.57,0,0,0,1.64-3.61c.11-.28.18-.73.56-.73a11.37,11.37,0,0,1,1.93.84l.45.21c.74.35,1.12.49,1.12.8s-.28.39-.49.46c-.42.1-.49.28-.8.87a44.18,44.18,0,0,1-2.59,4.48,1.5,1.5,0,0,0-.28.74.88.88,0,0,0,.31.7c.53.63,1.47,1.61,2.35,1.61,1.08,0,1.33-2.1,1.47-2.94,0-.25.1-.53.66-.53.84,0,2.35.42,2.35,1.44a8.74,8.74,0,0,1-1,3.71,3.36,3.36,0,0,1-3.12,1.82,6.65,6.65,0,0,1-4.79-2.42.76.76,0,0,0-1.23,0c-.07.07-.21.18-.35.32-.56.59-1.54,1.54-2,1.54-.59,0-2.17-1.44-2.17-2,0-.32.63-.81.88-1a14.8,14.8,0,0,0,1.71-1.64,1.27,1.27,0,0,0,.39-.81,1.64,1.64,0,0,0-.18-.73,26.45,26.45,0,0,1-2.24-7.32.93.93,0,0,0-1.08-.91h-9.14c-.66,0-1,.28-1,1v3.05a24.19,24.19,0,0,1-1.57,9.06c-.25.67-1.16,3-1.93,3s-2.59-1.26-2.59-2a7.34,7.34,0,0,1,.56-1c1.72-3.05,2.14-6.76,2.14-10.22V7.7c0-1-.08-1.75-.08-2.38,0-1.33.85-1.54,2-1.54s2.17.07,3.25.07H147c.63-.07.91-.28.91-.94s-.17-2-.17-2.07c0-.49.38-.56.77-.56.21,0,2,.1,2.34.14,1,.07,1.54.07,1.54.56,0,.31-.31.42-.59.6s-.35.38-.35.8a3.14,3.14,0,0,0,0,.53c0,.7.35.87,1,.94h3.78c.14,0,.32-.07.32-.24a.27.27,0,0,0-.14-.25,14.49,14.49,0,0,0-1.61-.84c-.84-.38-1.19-.52-1.19-.84S154.33,0,154.82,0A10.84,10.84,0,0,1,157,1c.42.21,2,1.05,2,1.43a2,2,0,0,1-.32.81A.44.44,0,0,0,158.6,3.47ZM138,23.21c.21.07.52.21.52.52s-.45.42-.56.46c-.31.07-.38.35-.45.59A28.56,28.56,0,0,1,135,30a1,1,0,0,1-.91.59c-.64,0-2.45-.63-2.45-1.33a.84.84,0,0,1,.21-.52A22.08,22.08,0,0,0,134.55,23c.07-.28.14-.66.53-.66C135.32,22.3,137.53,23.07,138,23.21Zm3.36-12.43c-.77,0-1.54.07-2.35.07-.66,0-.63-.52-.63-1.22s0-1.19.67-1.19l2.31,0h3.15l2.31,0c.7,0,.66.38.66,1.19s0,1.22-.63,1.22-1.54-.07-2.34-.07ZM147,16.87c0,.49,0,.84,0,1.26,0,.88-.38,1.26-1.26,1.26-.59,0-1.15-.07-1.71-.07h-1.79c-.35,0-.84,0-1,.6-.07.42-.17.42-1.43.42-.84,0-1.23,0-1.23-.63v-5c0-.42,0-.84,0-1.26,0-.91.42-1.26,1.33-1.26.56,0,1.12.07,1.68.07H144c.56,0,1.12-.07,1.68-.07.87,0,1.29.31,1.29,1.26,0,.42,0,.84,0,1.26Zm3.5,10.78c.7,0,1.4.14,1.78-2.17.11-.56.11-.94.77-.94.88,0,2.63.49,2.63,1.54a9.77,9.77,0,0,1-1.16,3.5c-.91,1.43-2,1.29-3.92,1.29H142.5c-1.72,0-3.33-.24-3.33-2.38,0-.49,0-.94,0-1.43V25c0-1-.11-2.21-.11-2.56s.21-.49.53-.49c.56,0,2.76.21,3.39.25.28,0,.67.1.67.45,0,.18-.14.28-.28.39-.49.31-.56.38-.56,1.68v2.06c0,1,.52.91,1.43.91ZM141.31,16a1,1,0,0,0,1,1h1a1,1,0,0,0,1-1v-.35a1,1,0,0,0-1-1h-1a1,1,0,0,0-1,1Zm7.14,10c-.32,0-.53-.28-.7-.52a36.14,36.14,0,0,0-2.8-2.87c-.18-.18-.46-.39-.46-.67,0-.52,1.75-1.71,2.21-1.71s2,1.57,2.41,2,1.68,1.57,1.68,2.06S149,26,148.45,26Zm10.92,4.17c-.49,0-.63-.42-.77-.81a28.1,28.1,0,0,0-2.66-4.76,1.56,1.56,0,0,1-.32-.66c0-.63,1.93-1.37,2.45-1.37a.82.82,0,0,1,.63.39,25.23,25.23,0,0,1,1.61,2.52A16.79,16.79,0,0,1,162,28.81C162,29.61,159.79,30.21,159.37,30.21Z"/><path class="cls-1" d="M168.61,21.81c.8,0,6.82,4.83,6.82,5.7s-1.75,2.7-2.55,2.7c-.28,0-.53-.32-.7-.53a21.75,21.75,0,0,0-5.32-4.76c-.25-.14-.63-.35-.63-.66A4.74,4.74,0,0,1,168.61,21.81Z"/><path class="cls-1" d="M191.25,21.21c-.66,0-.91.25-.94.95,0,.49,0,1,0,1.47,0,.87-.35.87-1.85.87s-1.82,0-1.82-.84c0-1.26.07-2.52.07-3.78V7c0-1-.07-1.89-.07-2.84,0-1.26.42-1.71,1.68-1.71l2.41,0h3.05l2.41,0c1.23,0,1.72.38,1.72,1.64,0,1-.07,2-.07,2.91V18.66c0,1.26.07,2.52.07,3.78,0,.87-.42.84-1.79.84s-1.82.07-1.82-.77c0-.18,0-.35,0-.53a.72.72,0,0,0-.81-.77ZM194.4,6.69a.92.92,0,0,0-.94-1h-2.21a1,1,0,0,0-1,1V9.21a1,1,0,0,0,1,1h2.21a.93.93,0,0,0,.94-1Zm-.94,11.2a.93.93,0,0,0,.94-1V14.25a.92.92,0,0,0-.94-1h-2.21a1,1,0,0,0-1,1v2.66a1,1,0,0,0,1,1Zm12,1.54c-.67,0-1,.24-1.09.91a20.3,20.3,0,0,1-5,10.32c-.32.32-.67.74-1.12.74-.74,0-2.45-1.51-2.45-2.24,0-.32.31-.56.66-.91,4.27-4.17,4.8-8.51,4.8-14.21V6.72c0-1.08-.07-2.17-.07-3.29,0-1.29.49-1.72,1.75-1.72.94,0,1.89.08,2.8.08h4.23c.91,0,1.86-.08,2.77-.08,1.26,0,1.78.39,1.78,1.69,0,1.12-.07,2.24-.07,3.32V24.61c0,.87.07,1.75.07,2.59a3.72,3.72,0,0,1-1.08,3.15c-1.16,1-3.12,1.08-4.59,1.08-1,0-1.33-.17-1.64-1.12a5.76,5.76,0,0,1-.32-1.75c0-.49.18-.8.7-.8H208c.35,0,.73.07,1.08.07,1.79,0,1.82-.56,1.82-2.17V20.41c0-.7-.28-1-1-1Zm4.51-10.36a1,1,0,0,0,1-1V6a1,1,0,0,0-1-1h-4.23a1,1,0,0,0-1,1V8.09a1,1,0,0,0,1,1Zm-4.23,3c-.7,0-1,.32-1,1V15.3c0,.7.28,1,.94,1h4.27c.7,0,1-.28,1-1V13.09c0-.66-.28-1-1-1Z"/><path class="cls-1" d="M238.73,28.7H228.06c-.56,0-.81.25-.81.81v.35c0,1-.35,1-2,1s-2,0-2-.95c0-1.47.11-2.94.11-4.37V7.91c0-1.12-.07-2.2-.07-3.32,0-1.4.56-1.82,1.92-1.82,1,0,2,.06,3.08.06h10.22c1,0,2-.06,3-.06,1.33,0,1.92.35,1.92,1.78,0,1.12-.07,2.24-.07,3.36V25.45c0,1.47.11,2.9.11,4.37,0,1-.42.95-2,.95s-2,0-2-.95a1.09,1.09,0,0,1,0-.31C239.54,29,239.29,28.7,238.73,28.7Zm-.07-14.91a1,1,0,0,0,1-1V7.21a1,1,0,0,0-1-1H228.13a1,1,0,0,0-1,1v5.6a1,1,0,0,0,1,1ZM227.15,24.26a1,1,0,0,0,1,1h10.53a1,1,0,0,0,1-1V18.1a1,1,0,0,0-1-1H228.13a1,1,0,0,0-1,1Z"/><path class="cls-1" d="M259.33,4.62c.28.11.7.25.7.6s-.14.24-.49.45c-.6.32-.74.63-1.09,1.51a27.84,27.84,0,0,0-2,9.94c0,.66.14,4.9.95,4.9.31,0,.8-1,.94-1.37s.42-.84.74-.84,1.26.74,1.26,1.12S259,24.43,259,26c0,.35.1,1.15.14,1.47a3.56,3.56,0,0,1,.07.52c0,.88-2,1.72-2.73,1.72S255.44,29,255,28a24,24,0,0,1-2.14-10.74,41.71,41.71,0,0,1,1.79-11.59,15.5,15.5,0,0,0,.45-1.75c.07-.31.14-.77.53-.77S258.84,4.41,259.33,4.62Zm4.34,16.73A6,6,0,0,0,269,23.8a28.67,28.67,0,0,0,7.7-1.12,2.43,2.43,0,0,1,.73-.14c.56,0,.63.84.63,2.63,0,.42,0,1-.42,1.29-1,.53-6.89,1.05-8.29,1.05-5.67,0-8-2.94-8-3.5s1.23-3,1.89-3A.63.63,0,0,1,263.67,21.35Zm1.26-15.29a22.72,22.72,0,0,0,4.58.52,22.84,22.84,0,0,0,5.32-.7,4,4,0,0,1,.63-.1c.49,0,.63.42.7.84a17.16,17.16,0,0,1,.14,1.89c0,.73,0,1-.66,1.15a40.79,40.79,0,0,1-5.88.49c-1.09,0-5.39-.21-6.13-.7-.38-.24-.35-1-.35-1.36,0-1.68.18-2.21.74-2.21A4.71,4.71,0,0,1,264.93,6.06Z"/><path class="cls-1" d="M291.17,4.31c.28.1.91.35.91.7s-.14.28-.31.35c-.81.38-1,.7-1.44,1.78a32.33,32.33,0,0,0-1.92,10.64c0,.56.1,3.89.77,3.89.24,0,.42-.46.77-1.26.17-.39.52-1.54.94-1.54s1.51.7,1.51,1.12-1.72,4.34-1.72,6.37c0,.56.07,1.12.07,1.68,0,1.36-2.48,1.78-2.66,1.78-.59,0-.87-.66-1.12-1.15a25.27,25.27,0,0,1-2.06-10.78,40.41,40.41,0,0,1,1.22-9.8c.39-1.54.88-3,1.26-4.59,0-.24.14-.59.46-.59a13.43,13.43,0,0,1,2.24.91C290.54,4,291,4.24,291.17,4.31Zm13.93-1c.18,0,.35.11.35.32s-.21.38-.38.7a4.82,4.82,0,0,0-.39,2.48v1c0,.49.21.91.74.91a22.36,22.36,0,0,0,3.5-.87,2.41,2.41,0,0,1,.52-.11c.7,0,.95,2.42.95,2.94s-.25.91-4.38,1.47c-.77.11-1.19.25-1.19,1.12,0,.7.25,6.06.28,7s.42,1,1.19,1.36A19.44,19.44,0,0,1,310.07,24c.42.35.91.74.91,1.33,0,.81-1.22,2.42-2,2.42a1.6,1.6,0,0,1-1-.53c-.38-.38-2.13-1.92-2.59-1.92s-.45.28-.52.56c-.63,2.24-3,2.94-5.08,2.94-2.8,0-5.84-1.33-5.84-4.55s2.76-4.41,5.49-4.41a9,9,0,0,1,1.37.1H301a.64.64,0,0,0,.7-.73c0-.88-.17-4.2-.21-5.22,0-.35,0-1.33-.84-1.33-.28,0-2.76.14-4.16.14h-.46a7.68,7.68,0,0,1-2.66-.28c-.31-.21-.35-2.2-.35-2.66s0-.87.56-.87,3.54.35,5.36.35h.56c.84,0,1.64-.07,1.64-.84s-.28-4.13-.42-5c0-.1,0-.24,0-.35a.43.43,0,0,1,.49-.49A34.3,34.3,0,0,1,305.1,3.29Zm-5.42,19.64c-.81,0-2.52.28-2.52,1.36s1.68,1.51,2.55,1.51c1.33,0,2.21-.49,2.21-1.93C301.92,23,300.34,22.93,299.68,22.93Z"/><path class="cls-1" d="M322.52,20.83c-.46.17-.49.38-.63.91a38.6,38.6,0,0,1-2.77,7.7c-.24.42-.45.66-.94.66-.67,0-2.56-.73-2.56-1.54a8.66,8.66,0,0,1,.88-1.82A28.39,28.39,0,0,0,318.74,20c.07-.38.17-.8.66-.8.21,0,1.12.24,1.4.28,1.33.24,2.21.49,2.21.87S322.73,20.76,322.52,20.83Zm6.19-16.91c.7,0,1-.28,1-.94a19.58,19.58,0,0,0-.14-2c0-.07,0-.25,0-.36,0-.38.31-.45.63-.45.59,0,2.34.18,3,.24.31,0,1,.08,1,.53,0,.21-.21.28-.52.46-.49.28-.49.63-.46,1.64,0,.67.28.91.95.91h7.66c1.41,0,2.77-.07,4.17-.07.88,0,.84.42.84,1.72s0,1.71-.84,1.71c-1.4,0-2.76-.1-4.17-.1H324.93a.86.86,0,0,0-1,1v2c0,2.2.14,2.31,2.45,2.31h11.31c2.27,0,5.29-.21,6.9-.21.7,0,.84.45.84,1,0,2.48-1.05,2.45-3,2.45-5.77,0-11.55.07-17.32,0a13,13,0,0,1-2.87-.25c-1.51-.38-1.86-1.64-1.86-3,0-.84.07-1.64.07-2.48V8.16c0-.67-.21-.88-.87-1-.28,0-2.56.1-2.84.1-.87,0-.84-.42-.84-1.71s0-1.72.84-1.72c1.4,0,2.77.07,4.17.07Zm5.78,23.52c1.26,0,1.85,0,2.52-3.29.14-.77.21-1,.91-1,.87,0,2.55.46,2.55,1.54a12.34,12.34,0,0,1-1.64,4.94c-.88,1.12-2.14,1.12-3.43,1.12h-7.81c-2,0-3.71-.49-3.71-2.87,0-.63,0-1.26,0-1.89V22.19c0-.66-.11-2.83-.11-3.11s.18-.49.53-.49,2.48.17,2.94.21,1,0,1,.45c0,.21-.24.35-.42.46-.52.38-.52.66-.52,2.48v4c0,1.26.45,1.22,1.5,1.22Zm-1.65-3.92c-.38,0-.59-.35-.84-.77a44.37,44.37,0,0,0-2.87-4.2c-.17-.24-.45-.52-.45-.84,0-.59,1.71-1.5,2.31-1.5.77,0,1.82,1.64,2.41,2.48.39.56,1.89,2.56,1.89,3.15C335.29,22.61,333.54,23.52,332.84,23.52Zm11.62,5.78c-.55,0-.76-.46-.94-.91a50.05,50.05,0,0,0-4.1-7.67,2.39,2.39,0,0,1-.38-.94c0-.63,1.82-1.47,2.34-1.47a1,1,0,0,1,.84.52c.57.74,1.69,2.77,2.18,3.64s2.45,4.59,2.45,5.29S345.06,29.3,344.46,29.3Z"/><path class="cls-1" d="M363,1.61c.17.07.38.18.38.39a.77.77,0,0,1-.28.52c-.46.39-.42.49-.63,1.93-.07.59-.32,2.31-.32,2.8s.25.49.57.59a2.51,2.51,0,0,1,1.19,1.61c0,.14-.14.28-.21.39a18.25,18.25,0,0,0-.95,1.71,3.17,3.17,0,0,0-.07.56c0,.18.07.35.28.35a.49.49,0,0,0,.28-.17c.74-.77,2.14-2,3-2.73,1.4-1.23,3.15-2.49,5.07-2.49a3.78,3.78,0,0,1,3,1.54,6.33,6.33,0,0,1,.63,3.33c0,1.82-.07,3.64-.17,5.42-.07,1.51-.18,3.08-.18,4.55,0,.84,0,2.07.77,2.07s2.45-1.51,3.08-2.21a1,1,0,0,1,.67-.38c.59,0,1.61,2.62,1.61,3.18s-1.3,1.4-1.68,1.68a9,9,0,0,1-4.94,2c-2.94,0-3.22-3.39-3.22-5.6,0-3.15.46-6.33.46-9.48,0-.77,0-2-1.05-2a5.24,5.24,0,0,0-2.73,1.4,35.27,35.27,0,0,0-3.82,3.4,11.38,11.38,0,0,0-2,2.24c-.14.45,0,4.72,0,5.53,0,.21.07,1.26.11,1.85.06,1.44.17,3.33.17,3.71s0,.6-2.56.6c-.84,0-1.47,0-1.47-.7,0-.32.21-4.2.21-5.78,0-.17-.07-.45-.31-.45s-.49.52-.84,1.05-1.47,2.52-1.82,3.18c-.11.21-.25.42-.46.42-.59,0-2.62-1.71-2.62-2.31a3.75,3.75,0,0,1,.7-1.26c1.89-2.76,3.53-5.63,5.14-8.54a3.21,3.21,0,0,0,.42-1.64c0-.32.08-.63.08-.91a.47.47,0,0,0-.46-.53,2.14,2.14,0,0,0-.63.18,24.63,24.63,0,0,1-4.24,1.43c-.56,0-.84-.52-1-1a10.21,10.21,0,0,1-.74-2.38c0-.56.74-.56,1.16-.63,1.05-.14,5.5-.91,5.92-1.75a2.4,2.4,0,0,0,.17-1c0-.94.14-3,.14-4.58,0-.42,0-.84,0-1.09s.18-.49.56-.49S362.62,1.5,363,1.61Z"/><path class="cls-1" d="M384.77,6.55c5.11-.32,10.22-.84,15.33-1.44,2.63-.31,5.32-.66,7.95-1.08a1.5,1.5,0,0,1,.42,0c.52,0,.59.46.7.88a22.09,22.09,0,0,1,.28,2.55c0,.77-.74.7-1.54.74a17,17,0,0,0-5.81.73,10.6,10.6,0,0,0-6,5.22,13,13,0,0,0-1.68,6.16c0,4.06,2.62,5,6.16,5,.63,0,1.4,0,1.75,0,.53,0,.81,0,.81.6a8.46,8.46,0,0,1-.63,3.11c-.25.35-.63.35-1,.35-5.95,0-11.06-1.89-11.06-8.71a15.55,15.55,0,0,1,3.85-10c.17-.17.63-.63.63-.84s-.32-.42-.53-.42-1.85.25-2.24.32a70.23,70.23,0,0,0-7.73,1.43,2.41,2.41,0,0,1-.53.07c-.84,0-1.15-3.32-1.15-3.67C382.74,6.55,383.23,6.65,384.77,6.55Z"/><path class="cls-1" d="M421,7.35c.28.07.77.14.77.49s-.14.28-.35.46c-.49.38-.53,1.08-.63,1.68a25.32,25.32,0,0,0-.28,3.71A20,20,0,0,0,421.6,21c.42,1,1.57,3.05,2.8,3.05,1,0,2-1.54,2.41-2.31.21-.35.49-.88.95-.88.73,0,2.52,1.44,2.52,2.07s-1.58,2.48-2.07,3c-1,1.16-2.1,2.21-3.74,2.21-2.59,0-4.62-2.35-5.78-4.48-1.75-3.29-2-7.7-2-11.41,0-.56.11-5,.18-5.32a.43.43,0,0,1,.49-.39C417.78,6.58,420.37,7.25,421,7.35Zm14.24-.7c.77,0,3.71,2.21,5.39,5.43a19.08,19.08,0,0,1,2.07,7.28c0,.66-.35.84-.95,1a7.18,7.18,0,0,1-2,.32c-1.12,0-1.08-.49-1.15-1.33-.42-4.1-1.86-7.42-5.18-10a.58.58,0,0,1-.32-.52C433.11,8.19,434.51,6.65,435.21,6.65Z"/><path class="cls-1" d="M460.61,1.33c.32.11,1.3.35,1.3.74,0,.17-.21.28-.32.35-.52.31-.56.45-.8,1.22-.11.39-.84,2.94-.84,3.12a.51.51,0,0,0,.52.52A24.65,24.65,0,0,0,464.53,6a1.83,1.83,0,0,1,.74-.18c.7,0,.7,2.14.7,2.66s-.07,1.09-.67,1.26a52.13,52.13,0,0,1-5.74,1.37c-1,.21-1.12.38-1.43,1.36a110,110,0,0,1-6.51,15.44c-.46.84-.74,1.33-1.26,1.33s-3-1.12-3-1.89a2.64,2.64,0,0,1,.6-1.16c2.2-3.15,4.83-9.24,6.19-12.95a5.21,5.21,0,0,0,.28-.91c0-.35-.28-.52-.63-.52s-2,.17-3.11.17c-.7,0-1.26,0-1.47-.63A15,15,0,0,1,449,8.79c0-.39.1-.63.52-.63s1.79.14,3.29.14c2.24,0,2.77,0,3.08-.56a32.5,32.5,0,0,0,1.3-6.37c0-.53,0-.88.38-.88S460.16,1.19,460.61,1.33Zm-.49,22.58c1.54,1.71,4.2,2,6.34,2a16,16,0,0,0,5-.7,1,1,0,0,1,.35-.07c.59,0,.59.8.59,2.2,0,.7,0,1.51-.38,1.75a33.48,33.48,0,0,1-5.46.46c-2.31,0-5.53-.28-7.49-1.58-.56-.38-1.72-1.26-1.72-2,0-.53,1.61-2.59,2.17-2.59C459.74,23.42,460,23.73,460.12,23.91Zm4.27-11.31a25.3,25.3,0,0,1,7,1,.67.67,0,0,1,.49.7,8.59,8.59,0,0,1-.67,2.45c-.14.32-.28.46-.63.46a1.78,1.78,0,0,1-.73-.18,15.85,15.85,0,0,0-5.57-.87c-.45,0-.87,0-1.33,0-.7,0-.87-.17-.87-.77C462.12,12.39,462.75,12.6,464.39,12.6Z"/><path class="cls-1" d="M484.13,7.35c.28.07.77.14.77.49s-.14.28-.35.46c-.49.38-.52,1.08-.63,1.68a26.78,26.78,0,0,0-.28,3.71A20,20,0,0,0,484.76,21c.42,1,1.58,3.05,2.8,3.05,1,0,2-1.54,2.42-2.31.21-.35.49-.88.94-.88.74,0,2.52,1.44,2.52,2.07s-1.57,2.48-2.06,3c-1,1.16-2.1,2.21-3.75,2.21-2.59,0-4.62-2.35-5.77-4.48-1.75-3.29-2-7.7-2-11.41,0-.56.1-5,.17-5.32a.44.44,0,0,1,.49-.39C481,6.58,483.54,7.25,484.13,7.35Zm14.25-.7c.77,0,3.71,2.21,5.39,5.43a19.06,19.06,0,0,1,2.06,7.28c0,.66-.35.84-.94,1a7.24,7.24,0,0,1-2,.32c-1.12,0-1.09-.49-1.16-1.33-.42-4.1-1.85-7.42-5.18-10a.57.57,0,0,1-.31-.52C496.28,8.19,497.68,6.65,498.38,6.65Z"/><path class="cls-1" d="M522.88,25.59A4.87,4.87,0,1,1,518,20.72,4.87,4.87,0,0,1,522.88,25.59Zm-8,0a3.12,3.12,0,0,0,6.23,0A3.08,3.08,0,0,0,518,22.47,3.12,3.12,0,0,0,514.89,25.59Z"/></g></g></svg>