<svg xmlns="http://www.w3.org/2000/svg" viewBox="0 0 381.52 50.17"><defs><style>.cls-1{fill:#e51373;}</style></defs><g id="レイヤー_2" data-name="レイヤー 2"><g id="scene"><path class="cls-1" d="M26,14.09a45.39,45.39,0,0,1-9.77,3c.05,4,.11,7,.11,8.84,5.3-1.93,8.45-2.59,12-2.59a12.75,12.75,0,0,1,8.25,3A9.41,9.41,0,0,1,39.73,34c0,6.85-4.88,11.33-12.38,11.33a16.84,16.84,0,0,1-6.14-1.16,40.43,40.43,0,0,0,.63-5.53,14.13,14.13,0,0,0,5.77,1.27c4,0,6.67-2.21,6.67-5.58a5.13,5.13,0,0,0-2.47-4.64,9,9,0,0,0-4.25-1.22,28.79,28.79,0,0,0-11,2.88c-.05,5.47-.15,7.57-.21,9.11-.26,5-1.78,7.24-4.93,7.24-1.36,0-2.94-.66-5.51-2.15C2.1,43.26,0,40.83,0,38.68c0-2.77,3.46-6,11.13-10.39,0-1.77-.05-2.71-.05-4.14,0-.12-.11-3.76-.11-6.47-2,.11-4.93.17-8.71.22L2.2,12.38c1.79.11,2.58.11,3.47.11,1.47,0,3.57-.11,5.25-.22-.05-1.16-.05-2.82-.05-5.2a34.35,34.35,0,0,0-.27-5L16,2.38c.63.05,1,.33,1,.77s-.26.77-.89,1.27v7.24A32.41,32.41,0,0,0,24,9.17ZM11.29,33.54l-1.11.66C6.93,36.19,5,37.74,5,38.57c0,.66.89,1.54,2.62,2.65a5,5,0,0,0,2.47,1.05c1,0,1.16-.5,1.16-6.41Zm30.07-9c-2.46-4.31-4.83-5.86-9-5.86-.52,0-1,0-1.83.06l-.16-5.3c.37,0,.63.05,2.41.05,5.57.11,9.14,2.1,12.6,7.24Z"/><path class="cls-1" d="M59.73,9.23c.68.11,1.15.44,1.15.94s-.26.66-1.2,1.05a73.41,73.41,0,0,0-.48,11c0,5.19.74,9.17,2.26,12.37.84,1.83,2.21,3.15,3.2,3.15s1.53-2,2.47-7.68A27.9,27.9,0,0,0,72,33.26c-1.89,8.62-3.52,11.22-7.08,11.22-3.1,0-5.88-2-8.14-6.08a30.65,30.65,0,0,1-2.94-8.84,52.78,52.78,0,0,1-.47-8.12c0-2.71.21-9.12.37-11.61a9.08,9.08,0,0,0,0-1.54Zm23.93,2.48C90.17,18.45,93.22,23.48,96,32.43L90.38,35.2a37.75,37.75,0,0,0-4.62-11.61,43.63,43.63,0,0,0-6.14-8.12Z"/><path class="cls-1" d="M111.27,4.09c.58,0,1,.33,1,.77s-.21.61-.89,1.11c-.21,4.53-.79,26.68-.79,29.56,0,4.58,1.57,6.24,6,6.24a17.37,17.37,0,0,0,9.24-2.87c3.83-2.32,6-4.42,9.71-9.62a16.91,16.91,0,0,0,3.41,5.31c-4,5-6.4,7.24-10.18,9.5a24.5,24.5,0,0,1-12.81,3.7c-4.15,0-7.4-1.32-9.13-3.75-1.31-1.83-1.94-4.48-1.94-8.29,0-1.49,0-2.76.31-9.84.16-4.86.26-10.33.26-15.85,0-2.49,0-4.48-.15-6.41Z"/><path class="cls-1" d="M169.43,4.92a1.15,1.15,0,0,1,.57.88c0,.44-.36.66-1.36.83-2.36,2.93-9.92,11.27-13.81,15.14-1.68,1.66-2,2-2,2.43s.26.77.94,1.49a188.64,188.64,0,0,1,16.43,20.5l-5.35,4c-1.31-2.32-3.26-5.42-4.94-7.9-2.15-3.15-8.45-11.11-11.33-14.26-1.68-1.82-2.16-2.65-2.16-3.64,0-1.22,1-2.66,3.73-5.42A138.79,138.79,0,0,0,161.6,5.58a30.88,30.88,0,0,0,2.58-4.2Z"/><path class="cls-1" d="M201.65,1.77a.79.79,0,0,1,.68.72c0,.38-.26.6-1.05,1C200,7.07,199.39,9,199,9.78a27.08,27.08,0,0,0,6.35-2.43l2.15,4.92a36.63,36.63,0,0,1-10.39,3.2c-.95,2.71-2.58,6.91-4.47,11.22A83.66,83.66,0,0,1,187.48,37c-1,1.88-1.84,3.2-2.31,4a13.46,13.46,0,0,0-4.78-3.15,97.65,97.65,0,0,0,11.18-22,22.9,22.9,0,0,1-3.67.22c-1.47,0-2.63-.06-5.15-.22l-.1-5.64a37.19,37.19,0,0,0,6.35.5c1.47,0,2.36-.06,4.36-.22A64.29,64.29,0,0,0,196.09,0Zm11.44,21.71c-1.62,1.16-2,1.83-2,3.48a32.75,32.75,0,0,0,.36,4.48c.16,1.16.21,1.49.37,3.2.05.67.11.89.11,1.11,3.3,1.38,6.77,3.59,11.65,7.46a17.55,17.55,0,0,0-3.73,4.36c-2.89-2.82-3.15-3-7.82-6.08-.47,5.47-3.52,8-9.76,8-5.72,0-9.45-3-9.45-7.79s3.83-8.13,9.45-8.13a13.81,13.81,0,0,1,4.3.61c-.16-1.32-.16-1.71-.31-3.15-.16-1.27-.27-3.59-.27-4.25,0-3,1-4.81,3.84-6.85ZM201.86,38.4c-2.41,0-4.09,1.27-4.09,3.15s1.57,2.93,4.62,2.93c1.88,0,3.25-.55,3.83-1.55a7.39,7.39,0,0,0,.57-3.65A14.1,14.1,0,0,0,201.86,38.4ZM210.21,13a33.51,33.51,0,0,1,13.85,5.47l-2.78,5a28.23,28.23,0,0,0-12.54-5.63Z"/><path class="cls-1" d="M230.62,25.75a80.79,80.79,0,0,0,8.4-3.54c7.93-3.54,11.28-4.53,15.85-4.53,8,0,12.6,4.37,12.6,11.88a14.22,14.22,0,0,1-8.08,13.21c-4.36,2.21-6.62,3-14.75,4.64a19.91,19.91,0,0,0-2.1-5.47,48,48,0,0,0,11.12-2.49c5.88-2.1,8.61-5.19,8.61-9.72s-2.57-7.13-7.4-7.13c-4.25,0-8.24,1.55-16.22,5.8l-5.61,3Z"/><path class="cls-1" d="M315.86,10.55a1.63,1.63,0,0,1,.37.94c0,.44-.21.55-1.68.67-5.41.38-8.45,1.43-12,4.19-5.09,4-7.88,8.9-7.88,14,0,4.75,3.52,8.35,9.4,9.62a46.62,46.62,0,0,0,9.55.94,24.4,24.4,0,0,0-2.1,6,46.93,46.93,0,0,1-11.28-1.76c-7.09-2.1-11.13-7.41-11.13-14.7,0-6,2.62-10.78,8.5-15.47-4.72,1.16-16.11,4-19,4.64-1.31.33-1.63.39-2.62.66l-1.32-6.3c4.73-.44,11.29-1.54,23.41-4,10.29-2,11.71-2.38,15.12-3.71Z"/><path class="cls-1" d="M326.67,5.41a137.2,137.2,0,0,0,18.42-2.92l.74-.5,3.83,3.53c.42.39.53.56.53.78s-.27.5-.74.66l-.47.17c-4.46,5.85-6.72,8.56-11.86,14.31a17,17,0,0,1,7.55-1.77c7.88,0,13.34,5,13.34,12.43A14.37,14.37,0,0,1,353.23,43c-3.25,2.93-7.51,4.31-13.18,4.31-7.45,0-11.6-2.65-11.6-7.46,0-3.81,3.05-6.68,7.09-6.68a9.92,9.92,0,0,1,7.93,4.2,18.59,18.59,0,0,1,2,4.36,8,8,0,0,0,4.2-2.6,10.54,10.54,0,0,0,2.42-6.79c0-4.92-3.2-7.68-9-7.68-4.2,0-8,1.6-13,5.47a58.72,58.72,0,0,0-4.62,4.09l-3.68-5c5.88-4.53,11.13-10.11,20.32-21.49-4.2,1-4.83,1.16-7.3,1.82l-2.94.78c-.89.22-3,.77-3.73,1Zm8.87,32.27c-1.52,0-2.52.83-2.52,2,0,1.82,2.15,3,5.41,3a8.23,8.23,0,0,0,1.78-.17C339.21,39.06,337.85,37.68,335.54,37.68Z"/><path class="cls-1" d="M381.52,41.72a8,8,0,1,1-16,0,8,8,0,1,1,16,0Zm-12.23,0a4.23,4.23,0,1,0,4.25-4.43A4.35,4.35,0,0,0,369.29,41.72Z"/></g></g></svg>