<svg xmlns="http://www.w3.org/2000/svg" viewBox="0 0 598.41 31.75"><defs><style>.cls-1{fill:#231815;}</style></defs><g id="レイヤー_2" data-name="レイヤー 2"><g id="scene"><path class="cls-1" d="M4,14.6c0,1.57.06,3.18.06,4.76,0,1.08-.31,1.22-2,1.22s-2.1-.1-2.1-1c0-1.64.11-3.25.11-4.9V7.25c0-1-.07-1.86-.11-2.77,0-.21,0-.42,0-.63S.07,3.5.31,3.5s2.52.32,3,.38c.73.15,1.22.15,1.22.46a.81.81,0,0,1-.17.39,3.17,3.17,0,0,0-.39,2c0,.52,0,1.15,0,2Zm13.72-1.37a53.28,53.28,0,0,1-.39,7.46,11.85,11.85,0,0,1-4.27,8.12c-.59.49-3.22,2.45-3.85,2.45S6.3,29.51,6.3,28.88c0-.32.66-.6,1-.74,3.43-1.78,5.63-3.78,6.23-7.73a43.84,43.84,0,0,0,.42-6.76V6.06a17.82,17.82,0,0,0-.11-2.42,4.09,4.09,0,0,1-.07-.6c0-.28.14-.34.42-.34A33.08,33.08,0,0,1,17.61,3c.28.08.7.11.7.42s-.14.32-.32.5a2.91,2.91,0,0,0-.24,1.5Z"/><path class="cls-1" d="M44.56,4.87c1,0,2.06,0,3.11,0,.46,0,.88-.08,1.33-.08.92,0,1,.42,1,2.21,0,1.23-.07,1.58-1,1.58-1.47,0-2.9-.07-4.37-.07H42.77a1,1,0,0,0-1.05,1.05v3.92a1,1,0,0,0,1.05,1h5.95c1.61,0,3.29-.07,4.56-.07.94,0,.94.39.94,2,0,1,0,1.78-.91,1.78-1.54,0-3.08-.07-4.59-.07h-6a1,1,0,0,0-1,.95v3c0,2.66.18,2.73,4,2.73a47.22,47.22,0,0,0,5.88-.31,2.32,2.32,0,0,1,.52,0c.81,0,.74,1.3.74,1.82,0,2.1-.32,2.17-2.84,2.17-11.62,0-12.07-.17-12.07-5.77v-3.5a1,1,0,0,0-1-1H31.4c-1.47,0-2.91.07-4.38.07-.94,0-.94-.66-.94-1.68,0-1.68,0-2.13.87-2.13s2.77.1,4.45.1h5.49a1,1,0,0,0,1-1v-4a1,1,0,0,0-1-1H35.11c-1.4,0-2.84,0-4.27,0-1,0-1.16-.17-1.16-1.29,0-2.25,0-2.46,1.12-2.46,1.37,0,2.84.08,4.38.08Z"/><path class="cls-1" d="M82.23,13.72c1.61,0,3.89-.1,4.34-.1,1,0,1,.28,1,2.2,0,1.12,0,1.79-.94,1.79-1.47,0-2.94-.07-4.38-.07H66.13c-1.44,0-2.91.07-4.38.07-.91,0-.94-.67-.94-1.75,0-2,.07-2.24,1-2.24.45,0,2.87.1,4.34.1Z"/><path class="cls-1" d="M104.66,11.52c.7,0,4.2,2.76,4.9,3.36.49.42,2.45,1.92,2.45,2.52s-1.65,2.41-2.35,2.41a1.26,1.26,0,0,1-.77-.45,52.5,52.5,0,0,0-5.07-4.1.64.64,0,0,0-.35-.14c-.32,0-.42.28-.42.56v9.56c0,1.4.07,2.76.07,4.16,0,1.61,0,1.82-2.17,1.82-1.4,0-2,0-2-1.19,0-1.57.11-3.15.11-4.72V5.36c0-.91-.07-1.86-.11-2.74,0-.17,0-.49,0-.62,0-.36.1-.53.45-.53s.95.11,1.19.14c1.58.21,3,.35,3,.84a1.07,1.07,0,0,1-.17.46A2.76,2.76,0,0,0,103,4.76c0,.53,0,1.19,0,2.07v5.25c0,.28.17.35.28.35a.38.38,0,0,0,.31-.14C103.89,12,104.27,11.52,104.66,11.52Z"/><path class="cls-1" d="M140.41,4.73a14.92,14.92,0,0,0,1.89-.07c.21,0,.46,0,.67,0,.56,0,1.05.53,1.43.91.53.49.88.77.88,1.19s-.28.84-.53,2.38c-1.29,7.74-3.22,13.3-9.45,18.52-.7.59-3.43,2.8-4.23,2.8s-2.45-2-2.45-2.59c0-.39.66-.67,1-.84a21.7,21.7,0,0,0,5.74-4.62,21,21,0,0,0,4.27-7.67,24.53,24.53,0,0,0,1-5.46c0-.8-.7-.87-1.36-.87H126.55a1,1,0,0,0-1,1.05v4.72c0,.84.07,1.72.07,2.59s-.35.91-2.06.91c-1.54,0-1.86-.07-1.86-.84s.07-1.78.07-2.69V8c0-.49,0-.94,0-1.43,0-1.34.14-1.86,1.92-1.86,1.3,0,2.56,0,3.82,0Z"/><path class="cls-1" d="M173.11,13.72c1.61,0,3.89-.1,4.34-.1,1,0,1,.28,1,2.2,0,1.12,0,1.79-.94,1.79-1.47,0-2.94-.07-4.38-.07H157c-1.44,0-2.91.07-4.38.07-.91,0-.94-.67-.94-1.75,0-2,.07-2.24,1-2.24.45,0,2.87.1,4.34.1Z"/><path class="cls-1" d="M204.59,7.07a8.09,8.09,0,0,0,2-.21c.1,0,.24,0,.38,0,.7,0,2.24,1.92,2.24,2.38a2.21,2.21,0,0,1-.42.87A20.33,20.33,0,0,0,207.67,12c-3.43,6.65-6.86,11.76-13.3,15.93-.77.49-4.07,2.55-4.8,2.55s-3-1.71-3-2.38c0-.35.42-.52.7-.63a31,31,0,0,0,13.52-11.2c.59-.87,2.69-4.27,2.69-5.14,0-.46-.56-.49-1.05-.49H195.8c-.8,0-1,.35-1.47,1-.66.94-4.69,5.74-5.63,5.74-.42,0-3-1.33-3-2.07a.56.56,0,0,1,.32-.49,32.35,32.35,0,0,0,9.34-12.53c.14-.35.25-.84.56-.84a11.67,11.67,0,0,1,1.86.77c.31.17,2.1.84,2.1,1.23,0,.17-.18.31-.32.38-.49.18-.59.35-1.19,1.43a5.55,5.55,0,0,0-.63,1.27.57.57,0,0,0,.6.59Z"/><path class="cls-1" d="M216.59,14.74a26.31,26.31,0,0,0,3.22-1.05c3.12-1.12,6.79-2.52,10.09-2.52,4.09,0,7.28,2.62,7.28,6.86s-3.19,7-6.86,8.57a19.8,19.8,0,0,1-5.4,1.47c-1.15,0-1.64-2.38-1.64-2.66,0-.59.66-.66,1.12-.7a15.63,15.63,0,0,0,6-1.75c1.86-1.05,3.44-2.76,3.44-5s-1.79-3.54-3.92-3.54c-3.4,0-8,1.93-10.93,3.54a1.87,1.87,0,0,1-1,.35c-.91,0-2.17-2.1-2.17-2.84C215.82,15,216.21,14.84,216.59,14.74Z"/><path class="cls-1" d="M245,6.69c5.11-.32,10.22-.84,15.33-1.44,2.63-.31,5.32-.67,8-1.08a1.5,1.5,0,0,1,.42,0c.52,0,.59.45.7.87a22.5,22.5,0,0,1,.28,2.56c0,.77-.74.7-1.54.74a17,17,0,0,0-5.81.73,10.63,10.63,0,0,0-6,5.22,13.13,13.13,0,0,0-1.68,6.16c0,4.06,2.63,5,6.16,5,.63,0,1.4,0,1.75,0,.53,0,.81,0,.81.6a8.46,8.46,0,0,1-.63,3.11c-.25.35-.63.35-1,.35-6,0-11.06-1.89-11.06-8.71a15.55,15.55,0,0,1,3.85-10c.18-.17.63-.63.63-.84s-.31-.42-.52-.42-1.86.25-2.24.32a70,70,0,0,0-7.74,1.43,2.33,2.33,0,0,1-.53.07C243.29,11.27,243,8,243,7.6,243,6.69,243.47,6.79,245,6.69Z"/><path class="cls-1" d="M274.34,22c.8,0,6.83,4.83,6.83,5.7s-1.75,2.7-2.56,2.7c-.28,0-.53-.32-.7-.53a21.57,21.57,0,0,0-5.32-4.76c-.25-.14-.63-.35-.63-.66A4.78,4.78,0,0,1,274.34,22Z"/><path class="cls-1" d="M296.63,20.83c.18,0,.49.17.49.42s-.17.31-.35.38c-.42.18-.42.28-.63,1.37-.07.31-.1.66-.21,1.12-.17.91-.87,4.3-1.15,5a.72.72,0,0,1-.67.52c-.35,0-2.1-.45-2.1-.94a2.38,2.38,0,0,1,.18-.67,50.79,50.79,0,0,0,1.47-6.89c.07-.42.07-.81.49-.81C294.32,20.3,296.28,20.76,296.63,20.83Zm6.16-2.94h-.24l-.84.1a1,1,0,0,0-.95,1.12v6.58c0,1.61.11,3.26.11,4.87,0,1.05-.42,1.05-1.71,1.05-1.44,0-1.76,0-1.76-1.16,0-1.61.11-3.18.11-4.76V19.53c0-.49-.21-.87-.77-.87-.07,0-.14,0-.18,0l-2.13.21a.52.52,0,0,0-.49.32c-.14.17-.25.35-.49.35-.42,0-.49-.35-.74-1.51-.07-.38-.17-.91-.31-1.54a2.41,2.41,0,0,1-.11-.52c0-.35.35-.39,1-.39,1,0,1.72.11,2.31-.77.35-.52.67-1.05,1-1.57a1.19,1.19,0,0,0,.24-.67,1,1,0,0,0-.42-.77,38.4,38.4,0,0,0-3.71-3.11.76.76,0,0,1-.42-.63c0-.39.91-2.31,1.58-2.31.24,0,.52.28.7.42a.85.85,0,0,0,.49.17c.24,0,.38-.17.52-.35A49.32,49.32,0,0,0,297.89.67c.07-.18.18-.5.42-.5s3.12,1.09,3.12,1.62c0,.31-.24.38-.49.42a.79.79,0,0,0-.7.38c-1.12,2.24-1.47,3-2.77,5.22a.63.63,0,0,0-.14.42.7.7,0,0,0,.29.52c.13.14.27.25.42.39a.8.8,0,0,0,.55.24.67.67,0,0,0,.6-.42c.7-1.22,1.36-2.45,2-3.75.14-.24.24-.55.59-.55A18.39,18.39,0,0,1,304.44,6c.46.25.7.42.7.74s-.38.38-.52.42a.81.81,0,0,0-.74.38c-1.54,2.42-3.08,4.8-4.76,7.11a.68.68,0,0,0-.07.28.37.37,0,0,0,.42.38c.7,0,1.4-.1,2.1-.17.35,0,.63-.21.63-.6a2,2,0,0,0-.21-.66,5.58,5.58,0,0,1-.45-1.23c0-.63,1.43-1.12,1.92-1.12s.77.53,1.44,2.14a32,32,0,0,1,1.12,3c.14.31.31.56.7.56a.85.85,0,0,0,.42-.11,31.24,31.24,0,0,0,4.3-2.87.82.82,0,0,0,.39-.66,1.08,1.08,0,0,0-.25-.63,21.12,21.12,0,0,1-1.43-2.49c-.14-.17-.28-.35-.53-.35a.74.74,0,0,0-.52.25c-.46.52-2,2.34-2.66,2.34s-2.21-1.22-2.21-1.85a1,1,0,0,1,.46-.7A22.91,22.91,0,0,0,311,.59c.07-.21.18-.38.42-.38a29.66,29.66,0,0,1,3.33,1c.24.1.49.21.49.52s-.28.45-.56.53c-.49.1-.49.17-.88,1a1,1,0,0,0-.07.32c0,.38.32.49.63.52h2.91l2.83,0a2.17,2.17,0,0,1,2.07,2.06c0,1.61-3.43,5.81-4.59,7.07a1.07,1.07,0,0,0-.28.63.89.89,0,0,0,.35.63,24.5,24.5,0,0,0,5.53,3.33c.49.24.88.38.88.8S323.06,21,322.29,21c-1.15,0-6.05-3.39-7.14-4.27a.95.95,0,0,0-1.4,0c-1.19.91-5.91,4.38-7.21,4.38-.63,0-1.26-.91-1.57-1.4a1.19,1.19,0,0,0-.81-.49c-.28-.11-.31-.25-.45-.63A.89.89,0,0,0,302.79,17.89ZM304,27.34c-.59,0-.7-.49-.81-.95a36.52,36.52,0,0,0-1.39-4.72,2.47,2.47,0,0,1-.21-.67c0-.73,1.71-1.08,1.92-1.08.53,0,.74.59,1.19,1.89s.84,2.66,1.19,4a1.18,1.18,0,0,1,.07.39C306,27,304.44,27.34,304,27.34Zm15.44,4.09a1.25,1.25,0,0,1-.49-.14,52.38,52.38,0,0,0-10.4-3.5c-.38-.1-.7-.24-.7-.7,0-.28.32-2.41,1.16-2.41a38.49,38.49,0,0,1,5.67,1.57c1.29.46,4.48,1.61,5.63,2.21.28.14.56.28.56.66S320.19,31.43,319.46,31.43ZM317,24.85a1.6,1.6,0,0,1-.84-.42,32.58,32.58,0,0,0-3.95-2.38c-.28-.14-.56-.28-.56-.63,0-.59,1-2.17,1.64-2.17a12,12,0,0,1,2.59,1.33,28.05,28.05,0,0,1,2.38,1.58c.21.14.39.28.39.56S317.71,24.85,317,24.85ZM314.59,11a1,1,0,0,0,.6-.28c.38-.46,2.27-2.77,2.27-3.22,0-.25-.42-.28-1-.28H313c-.35,0-.66.14-.66.56a.87.87,0,0,0,.07.31A14.74,14.74,0,0,0,314,10.71.71.71,0,0,0,314.59,11Z"/><path class="cls-1" d="M338.77,2c.21.07.42.21.42.42a.65.65,0,0,1-.25.45c-.42.42-.49.39-.63,1.86-.07.49-.24,2.1-.24,2.52s.14.46.52.53A4.61,4.61,0,0,1,340,9.63c0,.28-.32.52-.49.73-.42.46-1.72,2.1-1.72,2.7,0,.35,0,.56.21.56s.35-.21.46-.32c2.59-2.24,5.32-4.16,8.89-4.16,4.76,0,8.15,4,8.15,8.61,0,5.28-3.95,8.64-8.5,10.5a10.39,10.39,0,0,1-2.87.84c-1,0-1.93-2.17-1.93-2.91,0-.59.42-.7.91-.8,3.82-.88,8.51-2.91,8.51-7.49,0-2.63-1.75-5.15-4.59-5.15s-7,2.7-8.89,5a2,2,0,0,0-.42,1.4c0,2.07,0,4.13.14,6.16,0,1,.25,4.31.25,4.69s-.32.6-2.63.6c-1,0-1.47,0-1.47-.74,0-.28,0-.94,0-1.12,0-1.08.1-2.59.1-2.76,0-1.12,0-2.28,0-3.4,0-.24-.07-.56-.35-.56s-.53.39-.7.56c-.67.81-2.1,2.63-2.63,3.43-.1.21-.28.49-.52.49-.63,0-2.63-2-2.63-2.69,0-.39.6-.91.88-1.19a33.56,33.56,0,0,0,5.91-7.81,2.87,2.87,0,0,0,.21-1.36V13c0-.35-.14-.73-.56-.73a3.29,3.29,0,0,0-.59.1,35.48,35.48,0,0,1-3.71.84c-.49,0-.67-.45-.81-.84a14.84,14.84,0,0,1-.56-2.66c0-.52.35-.59.81-.59h.49a20.65,20.65,0,0,0,3.85-.35,1.32,1.32,0,0,0,1.08-.6,3.23,3.23,0,0,0,.18-1.43c0-1.19.07-2.38.07-3.57,0-.5,0-.88,0-1.12s.18-.5.53-.5S338.35,1.85,338.77,2Z"/><path class="cls-1" d="M363.18,14.74a26.31,26.31,0,0,0,3.22-1.05c3.12-1.12,6.79-2.52,10.08-2.52,4.1,0,7.28,2.62,7.28,6.86s-3.18,7-6.86,8.57a19.64,19.64,0,0,1-5.39,1.47c-1.15,0-1.64-2.38-1.64-2.66,0-.59.66-.66,1.12-.7A15.63,15.63,0,0,0,377,23c1.86-1.05,3.43-2.76,3.43-5s-1.78-3.54-3.92-3.54c-3.39,0-7.94,1.93-10.92,3.54a1.87,1.87,0,0,1-1,.35c-.91,0-2.17-2.1-2.17-2.84C362.41,15,362.8,14.84,363.18,14.74Z"/><path class="cls-1" d="M403.83,1.47c.32.11,1.3.35,1.3.74,0,.17-.21.28-.32.34-.52.32-.56.46-.8,1.23-.11.39-.84,2.94-.84,3.12a.51.51,0,0,0,.52.52,23.8,23.8,0,0,0,4.06-1.3,2,2,0,0,1,.74-.17c.7,0,.7,2.14.7,2.66s-.07,1.09-.67,1.26a52.13,52.13,0,0,1-5.74,1.37c-1,.21-1.12.38-1.43,1.36A108.9,108.9,0,0,1,394.83,28c-.45.84-.73,1.33-1.26,1.33s-3-1.12-3-1.89a2.62,2.62,0,0,1,.59-1.16c2.21-3.15,4.83-9.24,6.2-12.95a5.21,5.21,0,0,0,.28-.91c0-.35-.28-.52-.63-.52s-2,.17-3.12.17c-.7,0-1.26,0-1.47-.63a15,15,0,0,1-.28-2.55c0-.39.11-.63.53-.63s1.78.14,3.29.14c2.24,0,2.76,0,3.08-.56a32.45,32.45,0,0,0,1.3-6.38c0-.52,0-.87.38-.87S403.38,1.33,403.83,1.47Zm-.49,22.58c1.54,1.71,4.2,2,6.34,2a16,16,0,0,0,5-.7,1,1,0,0,1,.35-.07c.59,0,.59.8.59,2.2,0,.7,0,1.51-.38,1.75a33.48,33.48,0,0,1-5.46.46c-2.31,0-5.53-.28-7.49-1.58-.56-.38-1.72-1.26-1.72-2,0-.53,1.61-2.59,2.17-2.59C403,23.56,403.2,23.87,403.34,24.05Zm4.27-11.31a25.3,25.3,0,0,1,7,1,.67.67,0,0,1,.49.7,8.59,8.59,0,0,1-.67,2.45c-.14.32-.28.46-.63.46a1.78,1.78,0,0,1-.73-.18,15.85,15.85,0,0,0-5.57-.87c-.45,0-.87,0-1.33,0-.7,0-.87-.17-.87-.77C405.34,12.53,406,12.74,407.61,12.74Z"/><path class="cls-1" d="M430,6.44a1.61,1.61,0,0,0-1.5.7c-.7.84-4.06,4.76-5,4.76-.49,0-2.24-1.05-2.24-1.75,0-.35.49-.66.81-.94A26,26,0,0,0,428.9.38c.1-.21.21-.38.45-.38a17.16,17.16,0,0,1,2.49.67c.74.21,1.33.34,1.33.7s-.38.38-.59.42a1,1,0,0,0-.84.66,1.9,1.9,0,0,0-.21.35.68.68,0,0,0-.11.35c0,.35.32.42.56.46h14.11c1.33,0,2.66-.07,4-.07.84,0,.84.31.84,1.5s0,1.47-.84,1.47c-1.33,0-2.66-.07-4-.07Zm5.61,16.38a.94.94,0,0,0,.38.7,38.9,38.9,0,0,1,3.61,3c.24.25.59.53.59.88,0,.52-.87,2.41-1.89,2.41-.42,0-.73-.35-1-.59C436.08,28.11,435,27,433.7,26a1.15,1.15,0,0,0-.67-.28,1.29,1.29,0,0,0-.7.32,35.08,35.08,0,0,1-6.93,4.79,4.2,4.2,0,0,1-1.47.63c-.7,0-2-1.89-2-2.48,0-.35.42-.56.84-.77a2.44,2.44,0,0,1,.28-.14,30.5,30.5,0,0,0,6.3-4,.73.73,0,0,0,.24-.52.7.7,0,0,0-.34-.56,32.67,32.67,0,0,0-3.65-1.82c-.42-.18-1.12-.39-1.12-.88s1.3-2.17,1.89-2.17c.81,0,4.31,2,5.18,2.52a1.17,1.17,0,0,0,.6.18,1,1,0,0,0,.73-.42,16.7,16.7,0,0,0,1.93-3.05c.11-.28.35-.87.7-.87a8.43,8.43,0,0,1,2,.91l.39.21c.35.17,1.12.52,1.12.87s-.28.35-.49.39c-.56,0-.56.07-1,.77a20.16,20.16,0,0,1-1.82,2.66A1.05,1.05,0,0,0,435.59,22.82Zm-6.8-7.1c-1.43,0-2.87.1-4.3.1-.77,0-.77-.38-.77-1.57s0-1.58.8-1.58c1.44,0,2.84.11,4.27.11h14.36c.84,0,1.68-.07,2.48-.07,1.3,0,2.14.1,2.14,1.61,0,1.08-.21,3.67-.21,5.77,0,1.09.21,7.84,1.43,7.84.88,0,1.19-3.57,1.26-4.27s.18-.84.84-.84,2,.35,2,1.26a18.26,18.26,0,0,1-.73,4.31c-.56,1.71-1.58,3.36-3.61,3.36a3.53,3.53,0,0,1-3.32-2.38c-1.23-2.87-1.47-7.53-1.47-10.64,0-.7,0-1.4,0-2.07s-.28-.94-.94-.94Zm3.37-4.87c-1.16,0-2.32.07-3.47.07-.81,0-.77-.49-.77-1.36s0-1.4.77-1.4c1.15,0,2.31.07,3.47.07h10.6c1.16,0,2.31-.07,3.47-.07.8,0,.77.45.77,1.4s0,1.36-.77,1.36c-1.16,0-2.31-.07-3.47-.07Z"/><path class="cls-1" d="M471,3.33c.28.07.91.17.91.55,0,.21-.14.32-.32.46-.66.49-.73,1-.91,2.31-.07.39-.14.88-.24,1.44a1.54,1.54,0,0,0-.07.42.68.68,0,0,0,.77.7h.42a7,7,0,0,1,4,.77c1.75,1.15,2.17,3.15,2.17,5.11,0,3.18-.56,7.91-2.1,10.71a7.16,7.16,0,0,1-6.61,3.78c-.77,0-1.26-.07-1.61-.81a6.88,6.88,0,0,1-.63-2.52c0-.31.1-.59.49-.59s.87.14,1.57.14c1.93,0,2.8-.42,3.68-2.17A21,21,0,0,0,474,15.72c0-1.72-.1-3.19-2.24-3.19-2,0-2.34.28-2.59,1.26a39.4,39.4,0,0,1-4.48,10.47,31.43,31.43,0,0,1-3.46,5,.83.83,0,0,1-.6.35c-.63,0-2.87-1.33-2.87-2.14a1.31,1.31,0,0,1,.49-.8,27.82,27.82,0,0,0,6.27-9.73,13.47,13.47,0,0,0,.87-2.66.44.44,0,0,0-.45-.46,28.21,28.21,0,0,0-4,1.23,2.61,2.61,0,0,1-.73.24c-.84,0-1.44-3.43-1.44-3.64,0-.52.6-.52,1-.56,2-.21,3.92-.7,5.84-1.05.7-.14,1-.35,1.12-1.08a32.43,32.43,0,0,0,.39-4.52c0-.56-.07-1.29-.07-1.37,0-.28.1-.52.42-.52S470.44,3.18,471,3.33Zm14.56,11.58c0,.81-2.21,2.1-2.91,2.1-.45,0-.66-.45-.8-.8a25.75,25.75,0,0,0-4.69-7.49,1.14,1.14,0,0,1-.32-.6c0-.63,1.93-1.79,2.49-1.79C480.63,6.33,485.53,14,485.53,14.91ZM485,6c0,.56-1.22,1.61-1.68,1.61-.17,0-.35-.24-.49-.38a30.29,30.29,0,0,0-2.48-2.7c-.14-.14-.32-.31-.32-.49,0-.42,1.26-1.47,1.68-1.47A14,14,0,0,1,485,6Zm3.33-2.49c0,.57-1.26,1.62-1.68,1.62-.21,0-.32-.18-.49-.39-.81-.94-1.61-1.82-2.49-2.69-.14-.11-.35-.32-.35-.5,0-.42,1.33-1.46,1.68-1.46A14.05,14.05,0,0,1,488.33,3.46Z"/><path class="cls-1" d="M500.46,3.85c.25,0,.71.18.71.49s-.21.35-.42.53c-1.23.91-1.54,12-1.54,14,0,2.73-.08,7,3.71,7a8.88,8.88,0,0,0,6.58-3.39,11.19,11.19,0,0,0,2.13-5.18c.11-.56.18-1.16.7-1.16.77,0,2.91,1.79,2.91,2.84A13,13,0,0,1,513.8,23a12.26,12.26,0,0,1-10.64,6.69A7.73,7.73,0,0,1,497,27c-1.58-2.1-1.75-5.49-1.75-8,0-2.76.1-5.53.31-8.29.11-1.61.42-5,.42-6.41V3.88c0-.52,0-.87.53-.87A29.46,29.46,0,0,1,500.46,3.85Z"/><path class="cls-1" d="M534.6,2c.17.07.56.17.56.42s-.25.38-.56.62A6.09,6.09,0,0,0,534,4.9a10.64,10.64,0,0,0-.39,1.58.41.41,0,0,0,.39.45,17.83,17.83,0,0,0,2-.52,1.17,1.17,0,0,1,.35-.08c.42,0,.46.64.53,1.06A16.52,16.52,0,0,1,537,9.24c0,.77-.42.84-3.64,1.44-1.26.21-1.22.45-1.64,1.61A89.35,89.35,0,0,1,526,24.75c-.21.35-.31.49-.7.49-.77,0-3.11-1-3.11-1.75a3.73,3.73,0,0,1,.63-1.26A66.44,66.44,0,0,0,527,14.14a13,13,0,0,0,.81-2.13.48.48,0,0,0-.49-.46c-.28,0-3,.35-3.78.35-.6,0-.74-.31-.88-1.12-.07-.42-.24-1.68-.24-2s.24-.56.63-.56h1.61a31,31,0,0,0,3.6-.17,1.2,1.2,0,0,0,1-.56,21.22,21.22,0,0,0,1.12-5.88c0-.25,0-.6.32-.6S534,1.82,534.6,2Zm5,10.43c.38.1.7.31.7.73,0,.07-.07,1.12-.07,1.86,0,1,.17,6.05.35,6.79.1.52.56.66,1.08.87l.35.14c.81.32,4.94,2.24,4.94,3.08,0,.56-1.3,2.56-2.17,2.56-.35,0-.67-.32-.91-.49a9.9,9.9,0,0,0-2.8-1.61c-.39,0-.53.49-.56.8-.42,2.56-2.49,3.43-4.87,3.43-2.83,0-6.16-1.5-6.16-4.76s3.05-4.34,5.81-4.34h.91c.42,0,.74-.17.74-.59,0-1.12-.53-6.2-.63-7.56,0-.18,0-.32,0-.49,0-.56.32-.77.84-.77A14.64,14.64,0,0,1,539.64,12.43Zm-6.55,13.33c0,1.09,1.4,1.65,2.31,1.65,1.26,0,1.82-.67,1.82-1.89,0-.7,0-1.09-1.78-1.09C534.6,24.43,533.09,24.64,533.09,25.76Zm15.3-13.37c0,.84-2,2.42-2.63,2.42-.35,0-.59-.39-.77-.63a19.73,19.73,0,0,0-4.37-4.52c-.14-.1-.46-.31-.46-.56,0-.49,1.61-2.41,2.35-2.41S548.39,11.48,548.39,12.39Z"/><path class="cls-1" d="M559.66,7.49c.28.07.77.14.77.49s-.14.28-.35.46c-.49.38-.53,1.08-.63,1.68a25.32,25.32,0,0,0-.28,3.71,20,20,0,0,0,1.12,7.31c.42,1,1.58,3.05,2.8,3.05,1,0,2-1.54,2.42-2.31.21-.35.49-.88.94-.88.74,0,2.52,1.44,2.52,2.07s-1.57,2.48-2.06,3c-1,1.16-2.1,2.21-3.75,2.21-2.59,0-4.62-2.35-5.78-4.48-1.75-3.29-2-7.7-2-11.41,0-.56.11-5,.18-5.32a.43.43,0,0,1,.49-.39C556.47,6.72,559.06,7.39,559.66,7.49Zm14.25-.7c.77,0,3.71,2.21,5.39,5.43a19.06,19.06,0,0,1,2.06,7.28c0,.66-.35.84-.94,1a7.24,7.24,0,0,1-2,.32c-1.12,0-1.09-.49-1.16-1.33-.42-4.1-1.85-7.42-5.18-10a.57.57,0,0,1-.31-.52C571.81,8.33,573.21,6.79,573.91,6.79Z"/><path class="cls-1" d="M598.41,25.73a4.87,4.87,0,1,1-4.87-4.87A4.88,4.88,0,0,1,598.41,25.73Zm-8,0a3.12,3.12,0,0,0,6.23,0,3.08,3.08,0,0,0-3.11-3.12A3.12,3.12,0,0,0,590.42,25.73Z"/></g></g></svg>