<svg xmlns="http://www.w3.org/2000/svg" viewBox="0 0 192.52 51"><defs><style>.cls-1{fill:#e51373;}</style></defs><g id="レイヤー_2" data-name="レイヤー 2"><g id="scene"><path class="cls-1" d="M29.5.22c.68,0,1.1.33,1.1.78s-.21.71-.94,1.32c0,2-.06,3.59-.06,4.59v3.81c9.5-.44,12.76-.66,16.85-1.22v5.92H39.94c-2.25,0-5.35.11-10.34.33V26.19a36.66,36.66,0,0,1,.27,4c0,11.16-5.83,17.46-19.11,20.56a17.06,17.06,0,0,0-2.52-5.36c5.15-1.22,6.56-1.66,9-2.76,3.46-1.61,5-3,6.14-5.75a4.41,4.41,0,0,1-3.2.94c-4.83,0-7.88-3.43-7.88-8.9s3.1-9.39,7.51-9.39a7.4,7.4,0,0,1,4.36,1.21c.05-1,.05-1.54.05-1.93,0-.17,0-2.26-.05-2.93-9.92.28-19.95.78-23.78,1.22L0,11c3,.16,4.3.22,6.35.22,5.25,0,10.45-.11,17.8-.34l-.06-3.64A47.57,47.57,0,0,0,23.73,0ZM20.68,24.15C18.53,24.15,17,26,17,28.68s1.52,4.47,3.78,4.47c2,0,3.46-1.82,3.46-4.53S22.78,24.15,20.68,24.15Z"/><path class="cls-1" d="M74.74,5.75a1.14,1.14,0,0,1,.58.88c0,.44-.37.66-1.37.83C71.59,10.39,64,18.73,60.15,22.6c-1.68,1.66-2,2-2,2.43s.27.77,1,1.49A187.68,187.68,0,0,1,75.53,47l-5.35,4c-1.32-2.32-3.26-5.42-4.94-7.9C63.09,40,56.79,32,53.9,28.84c-1.68-1.82-2.15-2.65-2.15-3.64,0-1.22,1-2.66,3.73-5.42A140,140,0,0,0,66.92,6.41a30.82,30.82,0,0,0,2.57-4.2Zm4.73.6a35.94,35.94,0,0,1,6.61,5.53l-2.62,3a32.29,32.29,0,0,0-6.3-5.69Zm4-5a33.9,33.9,0,0,1,6.66,5.53l-2.62,3A29.34,29.34,0,0,0,81.2,4.2Z"/><path class="cls-1" d="M104.66,6.69a1,1,0,0,1,.94.93c0,.61-.37.94-1.42,1.33-2,11.66-2.25,14.37-2.25,20.89a45.38,45.38,0,0,0,2.62,16.52,33,33,0,0,0-5.35,2.1c-1.84-5.31-2.68-11.16-2.68-18.62,0-6,.37-9.95,2-21.17a24.49,24.49,0,0,0,.37-3.14Zm12,23.31c-1.47,2-1.89,3.1-1.89,4.31,0,2.87,3.09,4.09,10.44,4.09a44.08,44.08,0,0,0,12.44-1.55,46.81,46.81,0,0,0-.68,6.52,72.85,72.85,0,0,1-11.39.83c-4.51,0-8.08-.38-10.39-1.21q-5.67-2-5.67-7.79c0-2.6.73-4.42,3.1-7.79Zm-5.93-17.35a54,54,0,0,1,16.11-2.26,63.53,63.53,0,0,1,9.08.61l-.84,5.41c-.94-.06-1.68-.11-2.15-.17-3.26-.27-4.78-.33-7.66-.33a35.53,35.53,0,0,0-13.39,2.27Z"/><path class="cls-1" d="M156.72,4.86c.53.11.89.39.89.78,0,.55-.42.88-1.41,1.21a104,104,0,0,0-2.52,23.43c0,6.57.52,9.67,2.62,16.63a23.75,23.75,0,0,0-5.19,2.49,60.1,60.1,0,0,1-2.68-18.9A151.27,151.27,0,0,1,150.63,7,22.64,22.64,0,0,0,151,3.87Zm24.62-.72a.8.8,0,0,1,.84.72c0,.39-.11.61-.84,1.16,0,1.05,0,3.93.26,8.57a66.28,66.28,0,0,0,9.4-1.11l.16,5.64a73.76,73.76,0,0,1-9.51.94c.27,8.45.42,13,.48,13.7s0,.88.05,1.55a41,41,0,0,1,10.34,6.74,18.2,18.2,0,0,0-3.41,4.86,46.15,46.15,0,0,0-7.19-5.86c-.48,5.09-3.52,7.35-9.87,7.35-3.83,0-6.4-.72-8.29-2.26a7.79,7.79,0,0,1-2.52-5.7c0-4.53,3.83-7.51,9.6-7.51a26.89,26.89,0,0,1,5.83.72c0-3.43-.16-5.14-.37-13.43-2.83.06-3.57.06-4.41.06-2.73,0-6.77,0-8.45-.06l-.05-5.74c3.2.27,5.51.38,9.5.38,1.31,0,1.63,0,3.31,0l-.06-2.27a53.16,53.16,0,0,0-.68-8.73Zm-10.6,33.65c-2.68,0-4.2.94-4.2,2.65,0,2,1.84,3,5.19,3,2.68,0,4.1-.77,4.57-2.43a11.51,11.51,0,0,0,.26-2l-.05-.16A15.57,15.57,0,0,0,170.74,37.79Z"/></g></g></svg>