<svg xmlns="http://www.w3.org/2000/svg" viewBox="0 0 74.41 440.35"><g id="レイヤー_2" data-name="レイヤー 2"><g id="scene"><path d="M73.58,0V37.65q0,11.09-4.87,17A15.26,15.26,0,0,1,56.46,60.5,14.56,14.56,0,0,1,46,56.4Q41.73,52.29,39.24,44,37.1,54.26,32.47,59.35a15,15,0,0,1-11.65,5.1,16.25,16.25,0,0,1-9.53-2.9q-4.15-2.91-7-9.67A38.88,38.88,0,0,1,1.37,36.52V0H5V6a6.88,6.88,0,0,0,.88,3.93,2.45,2.45,0,0,0,2,1.24H65.77a3.84,3.84,0,0,0,3.1-1.22,5.31,5.31,0,0,0,1-3.56V0ZM36.77,21.58H8.94A3.61,3.61,0,0,0,6,22.73c-.66.76-1,2.14-1,4.13V35.6q0,8.68,3.83,12.84T20.8,52.59q7.43,0,11.7-4.3t4.27-11.86Zm3.66,0V35.25q0,6.3,3.7,10T56.27,49q5.22,0,8.14-1.78a10.33,10.33,0,0,0,4.27-5.17Q70,38.66,70,30.32c0-3.94-.29-6.38-.85-7.32a3.21,3.21,0,0,0-3-1.42Z"/><path d="M23.93,125.63V92.87q-10.45.24-14.75,3.9a13.56,13.56,0,0,0-4.83,10.7q0,9.57,10.88,15.38L13.87,126Q0,118.9,0,105.42A20.44,20.44,0,0,1,6.64,90q6.65-6.27,17-6.27,11.13,0,18,6.18a19.66,19.66,0,0,1,6.86,15.21,19.35,19.35,0,0,1-3.42,11.47,20.66,20.66,0,0,1-9.82,7.28A33.62,33.62,0,0,1,23.93,125.63Zm3.46-32.76v19.82a3.34,3.34,0,0,0,1.2,2.74,6.57,6.57,0,0,0,4.08,1,13.25,13.25,0,0,0,9.13-3.34,10.27,10.27,0,0,0,3.76-7.89A10.63,10.63,0,0,0,41,96.55Q36.48,93,27.39,92.87Z"/><path d="M73.58,168.59l.83,17.87H11.82c-2.44,0-4.19.46-5.23,1.39A5.32,5.32,0,0,0,5,192v3.17H1.37V179.58l9.32-1.18a21.18,21.18,0,0,1-7.49-6.51,14.66,14.66,0,0,1-2.52-8.38q0-7.81,6.55-13.3t17.28-5.5q11.62,0,18.56,7a17.62,17.62,0,0,1,5.42,12.7,14.56,14.56,0,0,1-2.2,7.89,18.84,18.84,0,0,1-6.64,6.07H65.48a3.84,3.84,0,0,0,3.25-1.58,8.33,8.33,0,0,0,1.19-5v-3.27Zm-29.15-2.83a9.79,9.79,0,0,0-4.34-8.38q-4.35-3.09-14.65-3.1-11.19,0-15.75,3.18a9.56,9.56,0,0,0-4.56,8.15q0,5.32,5.1,9.11t14.92,3.78q9.27,0,14.6-4.05Q44.43,170.94,44.43,165.76Z"/><path d="M65.77,220.1v3.28H47.12v14.79H42.63V223.38H13.28a8.5,8.5,0,0,0-5.83,1.8,5.9,5.9,0,0,0-2,4.59,7,7,0,0,0,3.08,5.67q3.08,2.34,10.15,2.73v3.27q-9.13-.28-13.55-4.15a12.69,12.69,0,0,1-4.42-10c0-3.77,1-6.73,3.1-8.86a10.83,10.83,0,0,1,8.13-3.2H42.63v-8H46a12.83,12.83,0,0,0,4.55,8.29Q56,219.77,65.77,220.1Z"/><path d="M47.12,256.74,47.66,275H8.3a2.91,2.91,0,0,0-2.29.78,4.14,4.14,0,0,0-1,2.84v5.17H1.37v-26H5v4.83a4.19,4.19,0,0,0,1,3.15,4.25,4.25,0,0,0,3.05,1H37.94a5.26,5.26,0,0,0,4.13-1.56,6.82,6.82,0,0,0,1.39-4.64v-3.76Zm27.29,12.7a5.26,5.26,0,0,1-1.66,3.85,5.32,5.32,0,0,1-3.9,1.66A5.17,5.17,0,0,1,65,273.34a5.23,5.23,0,0,1-1.61-3.86,5.31,5.31,0,0,1,1.63-3.88,5.52,5.52,0,0,1,9.35,3.84Z"/><path d="M47.12,303.06,48,316.14a73.35,73.35,0,0,1-9.72,1.42A25.29,25.29,0,0,1,45.76,325,15.8,15.8,0,0,1,48,333.16,12.08,12.08,0,0,1,45.47,341q-2.49,3.09-8.07,4.75A24.78,24.78,0,0,1,45.32,353,15.61,15.61,0,0,1,48,361.72q0,6.24-3.71,9.36-4.89,4-12.6,4H8.94a3.24,3.24,0,0,0-2.79,1A6.28,6.28,0,0,0,5,380.16v2.29H1.37v-23H5v2.3c0,1.95.32,3.32,1,4.1A3.6,3.6,0,0,0,8.94,367H31.68c3.38,0,6-.83,7.87-2.48A8.36,8.36,0,0,0,42.33,358a9.84,9.84,0,0,0-1.63-5.55,11,11,0,0,0-4.67-3.9,17.7,17.7,0,0,0-7.39-2.1H8.94a3.75,3.75,0,0,0-3,1.08,4.91,4.91,0,0,0-1,3.32V354H1.37V330.64H5v2.64A5.81,5.81,0,0,0,6,337a3.06,3.06,0,0,0,2.49,1.22H29.59q6.69,0,9.72-2.37a7.68,7.68,0,0,0,3-6.37,9.57,9.57,0,0,0-3.51-8,18.18,18.18,0,0,0-11.62-3.95H8.94a3.67,3.67,0,0,0-2.89.93,6.66,6.66,0,0,0-1,4.1v2.34H1.37V301.88H5v3.47a4.2,4.2,0,0,0,1,3,3.25,3.25,0,0,0,2.49,1h30a4.92,4.92,0,0,0,3.71-1.27c.81-.84,1.33-2.54,1.56-5.07Z"/><path d="M23.93,440V407.2q-10.45.24-14.75,3.9a13.56,13.56,0,0,0-4.83,10.7q0,9.57,10.88,15.38l-1.36,3.17Q0,433.23,0,419.75a20.4,20.4,0,0,1,6.64-15.46q6.65-6.27,17-6.27,11.13,0,18,6.17a19.69,19.69,0,0,1,6.86,15.21,19.36,19.36,0,0,1-3.42,11.48,20.58,20.58,0,0,1-9.82,7.27A33.6,33.6,0,0,1,23.93,440Zm3.46-32.76V427a3.32,3.32,0,0,0,1.2,2.73,6.49,6.49,0,0,0,4.08,1,13.25,13.25,0,0,0,9.13-3.34,10.27,10.27,0,0,0,3.76-7.89A10.63,10.63,0,0,0,41,410.88Q36.48,407.34,27.39,407.2Z"/></g></g></svg>