<svg xmlns="http://www.w3.org/2000/svg" viewBox="0 0 244.23 55.39"><defs><style>.cls-1,.cls-2{fill:none;stroke:#000;stroke-miterlimit:10;}.cls-1{stroke-width:4.25px;}.cls-2{stroke-width:2.83px;}</style></defs><g id="レイヤー_2" data-name="レイヤー 2"><g id="scene"><circle class="cls-1" cx="22.88" cy="22.88" r="20.75"/><path d="M61.74,27.16V41.71H56.33V5.89h6.13a27.4,27.4,0,0,1,6.79.63,9.09,9.09,0,0,1,4.08,2.37,10.17,10.17,0,0,1,3.09,7.6,9.82,9.82,0,0,1-3.3,7.8q-3.28,2.87-8.88,2.87Zm0-5h2q7.45,0,7.45-5.73,0-5.54-7.68-5.54H61.74Z"/><path d="M87.93,5.89V36.63H98.46v5.08H82.53V5.89Z"/><path d="M127.58,33H112.25l-4,8.7h-5.82L120.16,3.64l17.09,38.07h-5.91Zm-2.2-5.08-5.31-12.18L114.5,27.93Z"/><path d="M146.25,26.24,134.56,5.89h6.22L149,20.21l8.21-14.32h6.22L151.65,26.24V41.71h-5.4Z"/><path d="M168.48,39.11a3.23,3.23,0,0,1,6.45,0,3.16,3.16,0,0,1-1,2.3,3.3,3.3,0,0,1-4.57,0A3.14,3.14,0,0,1,168.48,39.11Zm.61-5.38V5.89h5.24V33.73Z"/><polygon points="14.92 35.82 14.92 9.93 36.27 22.88 14.92 35.82"/><polyline class="cls-2" points="1.13 53.98 241.1 53.98 213.82 22.88"/></g></g></svg>