<svg xmlns="http://www.w3.org/2000/svg" viewBox="0 0 373.77 51.94"><defs><style>.cls-1{fill:#e51373;}</style></defs><g id="レイヤー_2" data-name="レイヤー 2"><g id="scene"><path class="cls-1" d="M25.46,3.54c0-1.5-.05-2.71-.11-3.54L30.5.39c.63,0,1,.27,1,.55s-.31.66-1,1.1v3h7.67c3.25,0,7.77-.11,10.44-.22v5.2C46,10,41.1,9.89,38.11,9.89H13.49V22.32c0,7-.47,11.33-1.68,15.31-1.52,5-3.88,8.89-8.14,13.48a16,16,0,0,0-3.2-4.37A24.28,24.28,0,0,0,6.72,36.3a33.66,33.66,0,0,0,1.63-8.18c-.95.78-3,2-4.68,3.1-.36.77-.57,1.05-.84,1.05a.89.89,0,0,1-.73-.61L0,26.91a61.64,61.64,0,0,0,8.61-4.59V9.89C8.61,8.18,8.5,6,8.45,5c1.79.06,3.52.11,5.78.11H25.46ZM4,10A27.81,27.81,0,0,1,8.4,18.07L4.15,20.5a33.63,33.63,0,0,0-3.83-8ZM42.57,31.71a40.61,40.61,0,0,1-6.51,10.17c2.73,1.66,6.25,2.87,12.6,4.59A19.13,19.13,0,0,0,46,51.16c-6.66-1.93-10.49-3.53-13.64-5.85C29.08,48,26,49.62,20.05,51.83a14.19,14.19,0,0,0-2.57-4.53C23,45.42,26.09,44,28.76,42.1a23.17,23.17,0,0,1-5.24-9.5H21.31A28.2,28.2,0,0,1,19.89,40c-1.52,4.53-3.41,7.35-8.13,12a16.09,16.09,0,0,0-3.15-3.65c6.45-6.35,8.13-11.11,8.13-23.54V20.61c0-1.71,0-3.81-.15-4.86,2.1.05,3.2.05,5.77.05h6.77v-.33c0-2.49,0-3.2-.05-5.08l5,.33c.57,0,.94.28.94.55s-.31.66-1,1.11V15.8h9.77l.63-.88,3,2.76a1,1,0,0,1,.42.77c0,.34-.21.5-.84.78l-.52.22a49.73,49.73,0,0,1-4.1,7.68,25.25,25.25,0,0,0-3.57-2.49,45.22,45.22,0,0,0,2.37-4H34v7.18h5.15l.63-.94L43.41,30c.31.28.47.44.47.72s-.26.55-.89.83Zm-21-11.1v7.18h7.61V20.61Zm6.35,12A19.33,19.33,0,0,0,29.71,36a20.19,20.19,0,0,0,2.57,3A29.52,29.52,0,0,0,37,32.6Z"/><path class="cls-1" d="M70.77,23.92c1.16-1.43,1.42-1.76,5.46-6.63s5.72-6,9.19-6c3.88,0,6.19,2.21,6.19,6,0,1.27-.1,2.82-.26,4.53-.11,1.38-.63,7.51-.79,9.06-.58,5-.79,6.85-.79,8.23s.32,1.77,1.47,1.77,2.58-.66,4.1-2,2.52-2.82,4.09-6.14a27.92,27.92,0,0,0,3.94,4.09c-2.26,4.42-4.41,6.8-7.72,8.57a11.43,11.43,0,0,1-5.46,1.27c-4.25,0-6-1.88-6-6.14,0-2.59,0-3.37,1.47-17.29.16-1.77.42-4.86.42-5.47,0-.88-.42-1.44-1.16-1.44-1.89,0-4.2,2.05-8.08,7C74.55,26.19,73.92,27,70.72,31c.11,13.37.11,14.42.26,17.9l-5.93.16c.16-2.37.16-2.81.37-12.81-2,2.92-3.47,4.91-4.57,6.35s-1.52,2-2.25,3l-3.36-5.2c2.15-2.26,8.66-9.89,10.34-13,0-1.55,0-2.82,0-3.59s.05-1.6.05-2.38c-.42.17-.52.17-1.42.5A63.25,63.25,0,0,0,58,24.48l-1.89-5.64a68.8,68.8,0,0,0,9.6-2.6v-5a73,73,0,0,0-.26-8l5.77.44c.42.06.69.22.69.55s-.11.34-.69.78l-.26,5.63c-.05,1.55-.05,2.55-.05,3a6.39,6.39,0,0,0,1.31-1.21l2.26,3.2c.31.5.42.55.42.78,0,.38-.32.6-1.21.77-.53.61-.79.94-1.94,2.21a8.66,8.66,0,0,1-1,1.05Z"/><path class="cls-1" d="M132.65,10.39l1.68,5a45,45,0,0,1-10.13,2.82c-1,3.7-1.47,5.52-2.94,9.78a135.36,135.36,0,0,1-8.87,21.38,14.56,14.56,0,0,0-4.72-3.15c4.09-7.18,7.4-15.41,10.92-27.35a89.3,89.3,0,0,1-8.93.39l0-5.47a93.79,93.79,0,0,0,10.5-.44,76.58,76.58,0,0,0,2-10.83L127.83,4c.42.11.73.39.73.66s-.21.61-1,1c-.57,2.32-1.26,5.24-1.83,6.9A44,44,0,0,0,132.65,10.39Zm.11,25.08c-1.47,2.21-1.94,3.37-1.94,4.81,0,2.15,1.89,2.71,9.5,2.71a43.51,43.51,0,0,0,9.92-1.22,26.15,26.15,0,0,0-.53,5.91,64.9,64.9,0,0,1-9.71.72,41.94,41.94,0,0,1-9.92-.88,6.25,6.25,0,0,1-4.51-6.41c0-2.65.94-4.81,3.41-8Zm-5.25-12.26c6.46-2.16,10.08-2.82,15.7-2.82,1.1,0,2.78.05,4.93.16l-.21,5.36c-4-.16-4.57-.16-5.25-.16-4.41,0-7.19.5-13.91,2.43Z"/><path class="cls-1" d="M155.8,41.83c6.45-6.58,7.77-7.85,13.17-12.66l3.68,4.2a114.77,114.77,0,0,0-12.92,12.82ZM186,16a14.67,14.67,0,0,0-3.62-.6c-2.15,0-4.67,2.59-4.67,4.86,0,1.32.94,2.7,3.57,5.08,3.41,3.15,4.67,4.53,5.67,6.19a12.16,12.16,0,0,1,1.78,6.35c0,3-.94,6-2.47,7.57-1.62,1.72-4.35,2.54-8.18,2.54-2.79,0-4.57-.44-8.09-2a25.26,25.26,0,0,0,1.16-6c3.41,1.77,5.09,2.26,7.4,2.26,2.83,0,4.36-1.43,4.36-4.2A9,9,0,0,0,181,32.65c-.68-.82-1.83-2-4.2-4.47-3.3-3.43-4.35-5.31-4.35-7.52a8.32,8.32,0,0,1,2.25-5.13,18.48,18.48,0,0,1,3.63-3.15,12.33,12.33,0,0,1-3.89-5.09,11.79,11.79,0,0,1-1.1-4.14l4.78-.94c.68,3.26,1.47,4.59,3.41,6.13,1.63,1.33,3,1.88,6,2.66Zm5.67-9.44a35.14,35.14,0,0,1,6.61,5.52l-2.62,3a32.42,32.42,0,0,0-6.3-5.75ZM194,27.18c6.19,4.31,8.71,7.13,11.65,13l-4.56,3.64c-4.1-7.34-5.1-8.56-10.24-12.76Zm1.73-25.63a36.21,36.21,0,0,1,6.67,5.58l-2.63,3a30.63,30.63,0,0,0-6.35-5.69Z"/><path class="cls-1" d="M235.28,5.64c.63.33.95.6.95.88,0,.44-.47.72-1.31.88-2.73,6.36-4.46,10-9.71,20.12a10.62,10.62,0,0,1,4-.89,5.91,5.91,0,0,1,5.09,3c.73,1.44,1.1,3.26,1.47,7.18.26,2.82.63,4.37,1.26,5.14a3.65,3.65,0,0,0,2.78,1.16c5.56,0,10.13-6.46,12.55-17.62a21.91,21.91,0,0,0,5,3C253.08,43.48,248.3,49,239.69,49a10.69,10.69,0,0,1-6-1.66c-1.89-1.32-2.68-3.2-3.25-8.07-.69-5.69-.69-6-1.21-6.85a2.26,2.26,0,0,0-1.73-.94c-2.31,0-4.41,1.88-6.41,5.69-.73,1.44-.89,1.88-2.73,5.92-1,2.26-1.1,2.48-2.52,5.3-2.73-2.1-3.2-2.37-5.4-3.15,2-3.48,7.55-14.75,12.28-25,5-10.83,6.19-13.7,7.19-17.35Z"/><path class="cls-1" d="M287.61,10.39l1.68,5a45.15,45.15,0,0,1-10.13,2.82c-.73,2.93-1.47,5.52-2.94,9.78a135.36,135.36,0,0,1-8.87,21.38,14.56,14.56,0,0,0-4.72-3.15c4.09-7.18,7.4-15.41,10.91-27.35a89,89,0,0,1-8.92.39l-.05-5.47a93.79,93.79,0,0,0,10.5-.44,76.55,76.55,0,0,0,2-10.83L282.78,4c.42.11.74.39.74.66s-.21.61-1,1c-.58,2.32-1.1,4.64-1.84,6.9A43.79,43.79,0,0,0,287.61,10.39Zm.11,25.08c-1.47,2.21-1.94,3.37-1.94,4.81,0,2.15,1.89,2.71,9.5,2.71a43.51,43.51,0,0,0,9.92-1.22,26.15,26.15,0,0,0-.53,5.91,64.9,64.9,0,0,1-9.71.72,41.94,41.94,0,0,1-9.92-.88,6.25,6.25,0,0,1-4.51-6.41c0-2.65.94-4.81,3.41-8Zm-5.25-12.26c6.45-2.16,10.08-2.82,15.69-2.82,1.11,0,2.78.05,4.94.16l-.21,5.36c-4-.16-4.57-.16-5.25-.16-4.41,0-7.19.5-13.91,2.43ZM294.59,5.58a34.32,34.32,0,0,1,6.67,5.58l-2.62,3a31.53,31.53,0,0,0-6.36-5.69Zm4.1-5a36,36,0,0,1,6.66,5.52l-2.62,3a31,31,0,0,0-6.35-5.74Z"/><path class="cls-1" d="M322.28,5.08a1,1,0,0,1,.89.89c0,.55-.42.88-1.36,1.21-1.42,10.5-1.68,13-1.68,18,0,8.62,1.05,14.37,3.73,20.77-1.05.5-3.41,1.77-5.25,2.82-2.57-6.35-3.89-14-3.89-23.15,0-3.87.06-5,1.47-18.18.21-2.21.32-2.76.32-3.26Zm20.11,15.69c-1.84.06-4.26.12-7.88.12-1.1,0-4.46-.06-7.19-.12l.11-5.69c2.78.11,6.24.23,7.77.23l7.13-.06C342.18,8,342,3.92,341.91,2.87l5.83.33c.63.06,1,.34,1,.78s-.37.83-1.1,1.21l.21,9.78c3.25-.27,6.19-.6,8.66-.94l.47,5.53c-2.68.33-3.52.44-9.13.88-.11,4.42-.16,6.8-.16,7.08-.37,8.23-1.47,12.59-4.31,16.79-1.83,2.76-3.72,4.48-7.5,6.8a13.1,13.1,0,0,0-3.41-4.81c3.93-2.26,5.61-3.92,7.19-7,2-4,2.73-8.73,2.73-18.4Z"/><path class="cls-1" d="M363.48,35a72.06,72.06,0,0,1,10.29,12.43L369,51.27a64.63,64.63,0,0,0-9.6-12.48Z"/></g></g></svg>