<svg xmlns="http://www.w3.org/2000/svg" viewBox="0 0 27.53 43.9"><g id="レイヤー_2" data-name="レイヤー 2"><g id="top"><path d="M10.76,36.38,7.7,33.21A15.51,15.51,0,0,0,12.48,22,15.55,15.55,0,0,0,7.7,10.68l3.06-3.16A20,20,0,0,1,16.88,22,20,20,0,0,1,10.76,36.38Z"/><path d="M18,43.9l-3-3.21A25.8,25.8,0,0,0,23.14,22,25.79,25.79,0,0,0,15,3.21L18,0a30.23,30.23,0,0,1,9.52,22A30.23,30.23,0,0,1,18,43.9Z"/><path d="M3,30.1,0,26.89A6.69,6.69,0,0,0,2.15,22a6.75,6.75,0,0,0-2-4.79l3.11-3.11A11.13,11.13,0,0,1,6.55,22,11.22,11.22,0,0,1,3,30.1Z"/></g></g></svg>